%TF.GenerationSoftware,KiCad,Pcbnew,10.0.3*%
%TF.CreationDate,2026-06-20T18:50:56-04:00*%
%TF.ProjectId,mainBoard,6d61696e-426f-4617-9264-2e6b69636164,rev?*%
%TF.SameCoordinates,Original*%
%TF.FileFunction,Copper,L3,Inr*%
%TF.FilePolarity,Positive*%
%FSLAX46Y46*%
G04 Gerber Fmt 4.6, Leading zero omitted, Abs format (unit mm)*
G04 Created by KiCad (PCBNEW 10.0.3) date 2026-06-20 18:50:56*
%MOMM*%
%LPD*%
G01*
G04 APERTURE LIST*
%TA.AperFunction,ComponentPad*%
%ADD10R,1.700000X1.700000*%
%TD*%
%TA.AperFunction,ComponentPad*%
%ADD11C,1.700000*%
%TD*%
%TA.AperFunction,ViaPad*%
%ADD12C,0.600000*%
%TD*%
G04 APERTURE END LIST*
D10*
%TO.N,GND*%
%TO.C,J4*%
X91700000Y-57000000D03*
D11*
%TO.N,+3V3*%
X91700000Y-59540000D03*
%TO.N,/SCLK2*%
X91700000Y-62079999D03*
%TO.N,/MOSI2*%
X91700000Y-64620000D03*
%TO.N,/displayRESET*%
X91700000Y-67160000D03*
%TO.N,/DC*%
X91700000Y-69700000D03*
%TO.N,/CS3*%
X91700000Y-72240000D03*
%TO.N,/BL*%
X91700000Y-74780001D03*
%TD*%
D10*
%TO.N,+5V*%
%TO.C,M1*%
X106340000Y-74800000D03*
D11*
%TO.N,Net-(D1-A)*%
X103800000Y-74800000D03*
%TD*%
D10*
%TO.N,+3V3*%
%TO.C,J5*%
X92000000Y-47370000D03*
D11*
%TO.N,/RYLR_RST*%
X92000000Y-44830000D03*
%TO.N,Net-(J5-Pin_3)*%
X92000000Y-42290001D03*
%TO.N,Net-(J5-Pin_4)*%
X92000000Y-39750000D03*
%TO.N,GND*%
X92000000Y-37210000D03*
%TD*%
D10*
%TO.N,+3V3*%
%TO.C,J3*%
X130679999Y-74800000D03*
D11*
%TO.N,/MISO*%
X128139999Y-74800000D03*
%TO.N,/SCLK*%
X125600000Y-74800000D03*
%TO.N,/CS*%
X123059999Y-74800000D03*
%TO.N,GND*%
X120519999Y-74800000D03*
%TD*%
D10*
%TO.N,GND*%
%TO.C,J1*%
X111000000Y-35000000D03*
D11*
%TO.N,+5V*%
X108460000Y-35000000D03*
%TD*%
D10*
%TO.N,GND*%
%TO.C,J2*%
X122295000Y-35005000D03*
D11*
%TO.N,/RESET*%
X124835000Y-35005000D03*
%TO.N,/SWCLK*%
X127374999Y-35005000D03*
%TO.N,/SWDIO*%
X129915000Y-35005000D03*
%TO.N,+3V3*%
X132455000Y-35005000D03*
%TO.N,+5V*%
X134995000Y-35005000D03*
%TD*%
D12*
%TO.N,GND*%
X105500000Y-32800000D03*
X107200000Y-61887500D03*
X131399999Y-51425001D03*
X101600000Y-56400000D03*
X105800000Y-45400000D03*
X138400000Y-38500000D03*
X101800000Y-64287500D03*
X116910000Y-53990000D03*
X133200000Y-58150000D03*
X112900000Y-44000000D03*
X124812501Y-42545000D03*
%TO.N,+3V3*%
X130600000Y-54250000D03*
X130150000Y-51450000D03*
X106400000Y-57800000D03*
X110600000Y-44150000D03*
X110600000Y-45300000D03*
%TO.N,/displayRESET*%
X136600000Y-46825000D03*
%TO.N,/DC*%
X133950000Y-43000000D03*
%TO.N,/BL*%
X136650000Y-45550000D03*
%TO.N,/RX_RYLR*%
X102599999Y-47050000D03*
X133800000Y-51650000D03*
X102600000Y-39800000D03*
%TO.N,/~{WP}*%
X116800000Y-55260000D03*
X128450000Y-49225000D03*
%TO.N,/TX_RYLR*%
X102599999Y-48499999D03*
X132950000Y-50900000D03*
%TO.N,/RYLR_RST*%
X135050000Y-53000000D03*
%TO.N,/RESET*%
X130347747Y-48152253D03*
%TD*%
%TA.AperFunction,Conductor*%
%TO.N,+5V*%
G36*
X140492606Y-29905523D02*
G01*
X140507604Y-29909927D01*
X140522594Y-29919557D01*
X140539675Y-29924567D01*
X140566355Y-29947672D01*
X140567542Y-29949041D01*
X140595018Y-30003902D01*
X140596663Y-30011460D01*
X140599500Y-30037831D01*
X140599500Y-78757670D01*
X140594475Y-78792614D01*
X140590070Y-78807612D01*
X140580439Y-78822601D01*
X140575432Y-78839675D01*
X140552327Y-78866355D01*
X140550958Y-78867542D01*
X140496097Y-78895018D01*
X140488539Y-78896663D01*
X140462168Y-78899500D01*
X88442330Y-78899500D01*
X88407389Y-78894475D01*
X88392390Y-78890070D01*
X88377402Y-78880440D01*
X88360324Y-78875432D01*
X88333644Y-78852327D01*
X88332457Y-78850958D01*
X88304977Y-78796083D01*
X88303332Y-78788521D01*
X88300500Y-78762168D01*
X88300500Y-58655617D01*
X89881499Y-58655617D01*
X89884096Y-58718647D01*
X89887287Y-58749334D01*
X89887292Y-58749372D01*
X89897708Y-58811538D01*
X89897711Y-58811550D01*
X89949903Y-58945622D01*
X89984258Y-59006463D01*
X89984268Y-59006477D01*
X89984281Y-59006495D01*
X90072119Y-59120412D01*
X90188518Y-59204987D01*
X90188520Y-59204988D01*
X90188523Y-59204990D01*
X90250308Y-59237594D01*
X90276701Y-59247012D01*
X90333226Y-59288082D01*
X90358573Y-59353192D01*
X90357500Y-59383197D01*
X90349500Y-59433707D01*
X90349500Y-59646291D01*
X90382752Y-59856239D01*
X90448445Y-60058418D01*
X90541532Y-60241111D01*
X90544951Y-60247820D01*
X90669890Y-60419786D01*
X90669892Y-60419788D01*
X90820216Y-60570112D01*
X90992285Y-60695126D01*
X90992816Y-60695452D01*
X90992973Y-60695625D01*
X90993879Y-60696284D01*
X90994367Y-60696506D01*
X90995198Y-60697060D01*
X90995116Y-60697182D01*
X90996311Y-60698051D01*
X90996142Y-60698282D01*
X91013073Y-60710970D01*
X91023319Y-60720647D01*
X91037472Y-60744890D01*
X91039650Y-60747302D01*
X91039953Y-60749141D01*
X91058542Y-60780985D01*
X91055551Y-60850791D01*
X91019380Y-60904509D01*
X91012227Y-60910707D01*
X90995824Y-60922715D01*
X90992192Y-60924940D01*
X90820210Y-61049891D01*
X90669892Y-61200209D01*
X90544949Y-61372181D01*
X90448445Y-61561581D01*
X90382752Y-61763762D01*
X90350666Y-61966338D01*
X90350667Y-61966339D01*
X90349500Y-61973708D01*
X90349500Y-62186285D01*
X90382754Y-62396243D01*
X90419484Y-62509288D01*
X90448443Y-62598413D01*
X90541407Y-62780863D01*
X90544951Y-62787819D01*
X90669890Y-62959785D01*
X90669892Y-62959787D01*
X90820216Y-63110111D01*
X90992285Y-63235125D01*
X90992861Y-63235479D01*
X90993029Y-63235666D01*
X90993918Y-63236311D01*
X90994420Y-63236540D01*
X90995256Y-63237098D01*
X90995172Y-63237222D01*
X90996311Y-63238050D01*
X90996143Y-63238279D01*
X91013083Y-63250977D01*
X91023319Y-63260644D01*
X91037502Y-63284942D01*
X91039674Y-63287348D01*
X91039974Y-63289177D01*
X91058542Y-63320985D01*
X91055552Y-63390791D01*
X91019385Y-63444505D01*
X91011981Y-63450921D01*
X90993435Y-63464214D01*
X90992199Y-63464937D01*
X90820210Y-63589892D01*
X90669892Y-63740210D01*
X90544949Y-63912182D01*
X90448445Y-64101580D01*
X90382752Y-64303759D01*
X90349500Y-64513707D01*
X90349500Y-64726286D01*
X90382754Y-64936244D01*
X90402459Y-64996889D01*
X90448445Y-65138418D01*
X90541532Y-65321111D01*
X90544951Y-65327820D01*
X90669890Y-65499786D01*
X90820213Y-65650109D01*
X90992182Y-65775050D01*
X90992190Y-65775054D01*
X90992693Y-65775363D01*
X90994174Y-65776496D01*
X90996122Y-65777912D01*
X90996086Y-65777960D01*
X91013034Y-65790934D01*
X91023315Y-65800643D01*
X91058541Y-65860983D01*
X91055552Y-65930789D01*
X91019383Y-65984507D01*
X91012227Y-65990708D01*
X90995814Y-66002723D01*
X90992190Y-66004943D01*
X90820210Y-66129892D01*
X90669892Y-66280210D01*
X90544949Y-66452182D01*
X90448445Y-66641580D01*
X90382752Y-66843759D01*
X90349500Y-67053707D01*
X90349500Y-67266291D01*
X90382752Y-67476239D01*
X90448445Y-67678418D01*
X90541532Y-67861111D01*
X90544951Y-67867820D01*
X90669890Y-68039786D01*
X90820213Y-68190109D01*
X90992182Y-68315050D01*
X90992190Y-68315054D01*
X90992693Y-68315363D01*
X90994174Y-68316496D01*
X90996122Y-68317912D01*
X90996086Y-68317960D01*
X91013034Y-68330934D01*
X91023315Y-68340643D01*
X91058541Y-68400983D01*
X91055552Y-68470789D01*
X91019383Y-68524507D01*
X91012227Y-68530708D01*
X90995814Y-68542723D01*
X90992190Y-68544943D01*
X90820210Y-68669892D01*
X90669892Y-68820210D01*
X90544949Y-68992182D01*
X90448445Y-69181580D01*
X90382752Y-69383759D01*
X90349500Y-69593707D01*
X90349500Y-69806291D01*
X90382752Y-70016239D01*
X90448445Y-70218418D01*
X90541532Y-70401111D01*
X90544951Y-70407820D01*
X90669890Y-70579786D01*
X90820213Y-70730109D01*
X90992182Y-70855050D01*
X90992190Y-70855054D01*
X90992693Y-70855363D01*
X90994174Y-70856496D01*
X90996122Y-70857912D01*
X90996086Y-70857960D01*
X91013034Y-70870934D01*
X91023315Y-70880643D01*
X91058541Y-70940983D01*
X91055552Y-71010789D01*
X91019383Y-71064507D01*
X91012227Y-71070708D01*
X90995814Y-71082723D01*
X90992190Y-71084943D01*
X90820210Y-71209892D01*
X90669892Y-71360210D01*
X90544949Y-71532182D01*
X90448445Y-71721580D01*
X90382752Y-71923759D01*
X90349500Y-72133707D01*
X90349500Y-72346291D01*
X90382752Y-72556239D01*
X90448445Y-72758418D01*
X90541532Y-72941111D01*
X90544951Y-72947820D01*
X90669890Y-73119786D01*
X90669892Y-73119788D01*
X90820216Y-73270112D01*
X90992285Y-73395126D01*
X90992861Y-73395480D01*
X90993029Y-73395667D01*
X90993918Y-73396312D01*
X90994420Y-73396541D01*
X90995256Y-73397099D01*
X90995172Y-73397223D01*
X90996311Y-73398051D01*
X90996143Y-73398280D01*
X91013083Y-73410978D01*
X91023319Y-73420645D01*
X91037502Y-73444943D01*
X91039674Y-73447349D01*
X91039974Y-73449178D01*
X91058542Y-73480986D01*
X91055552Y-73550792D01*
X91019385Y-73604506D01*
X91011981Y-73610922D01*
X90993435Y-73624215D01*
X90992199Y-73624938D01*
X90820210Y-73749893D01*
X90669892Y-73900211D01*
X90544949Y-74072183D01*
X90448445Y-74261583D01*
X90382752Y-74463764D01*
X90360065Y-74607007D01*
X90349500Y-74673709D01*
X90349500Y-74886287D01*
X90352668Y-74906289D01*
X90382752Y-75096236D01*
X90382752Y-75096240D01*
X90448445Y-75298419D01*
X90522406Y-75443574D01*
X90544951Y-75487821D01*
X90669890Y-75659787D01*
X90669892Y-75659789D01*
X90820216Y-75810113D01*
X90992169Y-75935043D01*
X90992177Y-75935048D01*
X90992179Y-75935049D01*
X90992181Y-75935050D01*
X90992182Y-75935051D01*
X90992200Y-75935061D01*
X90992442Y-75935183D01*
X91181588Y-76031558D01*
X91383757Y-76097247D01*
X91593713Y-76130501D01*
X91593714Y-76130501D01*
X91806286Y-76130501D01*
X91806287Y-76130501D01*
X92016243Y-76097247D01*
X92218412Y-76031558D01*
X92407816Y-75935052D01*
X92429789Y-75919087D01*
X92579786Y-75810110D01*
X92579786Y-75810109D01*
X92579844Y-75810067D01*
X92580605Y-75809291D01*
X92730104Y-75659793D01*
X92730106Y-75659789D01*
X92730109Y-75659787D01*
X92750944Y-75631108D01*
X92849367Y-75495642D01*
X92853440Y-75490035D01*
X92853441Y-75490032D01*
X92855048Y-75487821D01*
X92855047Y-75487821D01*
X92855051Y-75487817D01*
X92951557Y-75298413D01*
X93017246Y-75096244D01*
X93047332Y-74906289D01*
X102449499Y-74906289D01*
X102479584Y-75096236D01*
X102482753Y-75116238D01*
X102482755Y-75116246D01*
X102529999Y-75261651D01*
X102548441Y-75318406D01*
X102548443Y-75318412D01*
X102644944Y-75507808D01*
X102644951Y-75507820D01*
X102769890Y-75679786D01*
X102769891Y-75679787D01*
X102769892Y-75679788D01*
X102920216Y-75830112D01*
X103092169Y-75955042D01*
X103092200Y-75955060D01*
X103092442Y-75955182D01*
X103281588Y-76051557D01*
X103483757Y-76117246D01*
X103693713Y-76150500D01*
X103693714Y-76150500D01*
X103906286Y-76150500D01*
X103906287Y-76150500D01*
X104116243Y-76117246D01*
X104318412Y-76051557D01*
X104507816Y-75955051D01*
X104594478Y-75892088D01*
X104679784Y-75830110D01*
X104679784Y-75830109D01*
X104679792Y-75830104D01*
X104679796Y-75830099D01*
X104681979Y-75828514D01*
X104681979Y-75828513D01*
X104681983Y-75828511D01*
X104687828Y-75824263D01*
X104693664Y-75816231D01*
X104781113Y-75728781D01*
X104809361Y-75707635D01*
X104821544Y-75700983D01*
X104889815Y-75686133D01*
X104955273Y-75710546D01*
X104958947Y-75713296D01*
X105000821Y-75769227D01*
X105000823Y-75769231D01*
X105046646Y-75892088D01*
X105046649Y-75892093D01*
X105132809Y-76007187D01*
X105132812Y-76007190D01*
X105247906Y-76093350D01*
X105247913Y-76093354D01*
X105382620Y-76143596D01*
X105382627Y-76143598D01*
X105387212Y-76144091D01*
X105442138Y-76149998D01*
X105442155Y-76149999D01*
X105442172Y-76150000D01*
X106090000Y-76150000D01*
X106090000Y-75412250D01*
X106109685Y-75345211D01*
X106162489Y-75299456D01*
X106231647Y-75289512D01*
X106246093Y-75292475D01*
X106274174Y-75300000D01*
X106405825Y-75300000D01*
X106405826Y-75300000D01*
X106433905Y-75292476D01*
X106503755Y-75294137D01*
X106561618Y-75333299D01*
X106589123Y-75397527D01*
X106590000Y-75412250D01*
X106590000Y-76150000D01*
X107237828Y-76150000D01*
X107237836Y-76150000D01*
X107237847Y-76149999D01*
X107273560Y-76146158D01*
X107297372Y-76143598D01*
X107297379Y-76143596D01*
X107432086Y-76093354D01*
X107432093Y-76093350D01*
X107547187Y-76007190D01*
X107547190Y-76007187D01*
X107633350Y-75892093D01*
X107633354Y-75892086D01*
X107683596Y-75757379D01*
X107683598Y-75757372D01*
X107688295Y-75713693D01*
X107689998Y-75697860D01*
X107690000Y-75697827D01*
X107690000Y-75050000D01*
X106952250Y-75050000D01*
X106885211Y-75030315D01*
X106839456Y-74977511D01*
X106829512Y-74908353D01*
X106832476Y-74893905D01*
X106839999Y-74865828D01*
X106840000Y-74865825D01*
X106840000Y-74734175D01*
X106839999Y-74734171D01*
X106832476Y-74706095D01*
X106834137Y-74636245D01*
X106873299Y-74578382D01*
X106937527Y-74550877D01*
X106952250Y-74550000D01*
X107690000Y-74550000D01*
X107690000Y-73902172D01*
X107689998Y-73902138D01*
X107683598Y-73842628D01*
X107683596Y-73842621D01*
X107683596Y-73842620D01*
X107633354Y-73707913D01*
X107633350Y-73707906D01*
X107547190Y-73592812D01*
X107547187Y-73592809D01*
X107547185Y-73592807D01*
X107475321Y-73539010D01*
X107432093Y-73506649D01*
X107432088Y-73506646D01*
X107432089Y-73506646D01*
X107297377Y-73456402D01*
X107297370Y-73456400D01*
X107237852Y-73450000D01*
X107237844Y-73450000D01*
X106590000Y-73450000D01*
X106590000Y-74187749D01*
X106570315Y-74254788D01*
X106517511Y-74300543D01*
X106448353Y-74310487D01*
X106433908Y-74307524D01*
X106405828Y-74300000D01*
X106405826Y-74300000D01*
X106274174Y-74300000D01*
X106274171Y-74300000D01*
X106246092Y-74307524D01*
X106176242Y-74305861D01*
X106118380Y-74266698D01*
X106090877Y-74202469D01*
X106090000Y-74187749D01*
X106090000Y-73450000D01*
X105442155Y-73450000D01*
X105442146Y-73450000D01*
X105382628Y-73456400D01*
X105382621Y-73456402D01*
X105247910Y-73506646D01*
X105247907Y-73506648D01*
X105132813Y-73592807D01*
X105132810Y-73592810D01*
X105132808Y-73592813D01*
X105046647Y-73707908D01*
X105003807Y-73822767D01*
X105003804Y-73822772D01*
X105003804Y-73822773D01*
X104986888Y-73853749D01*
X104978571Y-73864858D01*
X104922635Y-73906726D01*
X104852956Y-73911709D01*
X104852946Y-73911706D01*
X104852944Y-73911707D01*
X104852942Y-73911705D01*
X104848473Y-73910734D01*
X104787148Y-73877252D01*
X104679788Y-73769892D01*
X104679786Y-73769890D01*
X104507820Y-73644951D01*
X104468542Y-73624938D01*
X104340245Y-73559567D01*
X104340240Y-73559565D01*
X104318414Y-73548444D01*
X104318413Y-73548443D01*
X104318412Y-73548443D01*
X104183749Y-73504688D01*
X104125074Y-73485623D01*
X104120552Y-73483770D01*
X104111362Y-73481600D01*
X104106599Y-73481226D01*
X104030702Y-73469205D01*
X103954957Y-73457208D01*
X103935489Y-73454124D01*
X103906290Y-73449500D01*
X103906287Y-73449500D01*
X103693713Y-73449500D01*
X103693709Y-73449500D01*
X103654776Y-73455666D01*
X103645042Y-73457208D01*
X103607654Y-73463129D01*
X103483763Y-73482752D01*
X103281582Y-73548445D01*
X103092182Y-73644949D01*
X102920210Y-73769892D01*
X102769892Y-73920210D01*
X102769890Y-73920213D01*
X102659480Y-74072182D01*
X102644949Y-74092182D01*
X102548445Y-74281580D01*
X102482752Y-74483759D01*
X102449500Y-74693707D01*
X102449500Y-74693713D01*
X102449500Y-74906286D01*
X102449500Y-74906289D01*
X102449499Y-74906289D01*
X93047332Y-74906289D01*
X93050500Y-74886288D01*
X93050500Y-74673714D01*
X93017246Y-74463758D01*
X92951557Y-74261589D01*
X92855051Y-74072185D01*
X92855049Y-74072182D01*
X92855048Y-74072180D01*
X92854702Y-74071704D01*
X92854700Y-74071700D01*
X92730112Y-73900217D01*
X92579788Y-73749893D01*
X92579786Y-73749891D01*
X92407817Y-73624950D01*
X92407813Y-73624948D01*
X92407809Y-73624945D01*
X92407306Y-73624637D01*
X92405834Y-73623510D01*
X92403875Y-73622087D01*
X92403910Y-73622037D01*
X92386956Y-73609060D01*
X92376675Y-73599350D01*
X92341455Y-73539010D01*
X92344447Y-73469205D01*
X92380620Y-73415487D01*
X92387632Y-73409412D01*
X92399885Y-73401163D01*
X92399718Y-73400934D01*
X92399914Y-73400791D01*
X92400138Y-73400675D01*
X92400117Y-73400645D01*
X92407819Y-73395048D01*
X92407821Y-73395048D01*
X92579786Y-73270109D01*
X92579788Y-73270106D01*
X92579792Y-73270104D01*
X92579794Y-73270101D01*
X92579847Y-73270063D01*
X92580605Y-73269290D01*
X92730104Y-73119792D01*
X92730106Y-73119788D01*
X92730109Y-73119786D01*
X92855048Y-72947820D01*
X92855047Y-72947820D01*
X92855051Y-72947816D01*
X92855053Y-72947810D01*
X92875445Y-72919744D01*
X92883730Y-72891529D01*
X92951557Y-72758412D01*
X93017246Y-72556243D01*
X93050500Y-72346287D01*
X93050500Y-72133713D01*
X93017246Y-71923757D01*
X92951557Y-71721588D01*
X92855051Y-71532184D01*
X92855049Y-71532181D01*
X92855048Y-71532179D01*
X92854702Y-71531703D01*
X92854700Y-71531699D01*
X92730112Y-71360216D01*
X92579782Y-71209886D01*
X92407824Y-71084953D01*
X92407258Y-71084606D01*
X92405627Y-71083357D01*
X92403901Y-71082103D01*
X92403932Y-71082059D01*
X92386960Y-71069062D01*
X92376683Y-71059357D01*
X92341457Y-70999017D01*
X92344445Y-70929212D01*
X92380613Y-70875493D01*
X92387783Y-70869281D01*
X92404187Y-70857275D01*
X92407816Y-70855051D01*
X92407817Y-70855050D01*
X92429789Y-70839086D01*
X92579786Y-70730109D01*
X92579787Y-70730106D01*
X92579790Y-70730105D01*
X92579792Y-70730104D01*
X92579793Y-70730102D01*
X92579847Y-70730063D01*
X92580605Y-70729290D01*
X92730104Y-70579792D01*
X92730106Y-70579788D01*
X92730109Y-70579786D01*
X92855048Y-70407820D01*
X92855047Y-70407820D01*
X92855051Y-70407816D01*
X92855053Y-70407810D01*
X92875445Y-70379744D01*
X92883730Y-70351529D01*
X92951557Y-70218412D01*
X93017246Y-70016243D01*
X93050500Y-69806287D01*
X93050500Y-69593713D01*
X93017246Y-69383757D01*
X92951557Y-69181588D01*
X92855051Y-68992184D01*
X92855049Y-68992181D01*
X92855048Y-68992179D01*
X92854702Y-68991703D01*
X92854700Y-68991699D01*
X92730112Y-68820216D01*
X92579782Y-68669886D01*
X92407824Y-68544953D01*
X92407258Y-68544606D01*
X92405627Y-68543357D01*
X92403901Y-68542103D01*
X92403932Y-68542059D01*
X92386960Y-68529062D01*
X92376683Y-68519357D01*
X92341457Y-68459017D01*
X92344445Y-68389212D01*
X92380613Y-68335493D01*
X92387783Y-68329281D01*
X92404187Y-68317275D01*
X92407816Y-68315051D01*
X92407817Y-68315050D01*
X92429789Y-68299086D01*
X92579786Y-68190109D01*
X92579787Y-68190106D01*
X92579790Y-68190105D01*
X92579792Y-68190104D01*
X92579793Y-68190102D01*
X92579847Y-68190063D01*
X92580605Y-68189290D01*
X92730104Y-68039792D01*
X92730106Y-68039788D01*
X92730109Y-68039786D01*
X92855048Y-67867820D01*
X92855047Y-67867820D01*
X92855051Y-67867816D01*
X92855053Y-67867810D01*
X92875445Y-67839744D01*
X92883730Y-67811529D01*
X92951557Y-67678412D01*
X93017246Y-67476243D01*
X93050500Y-67266287D01*
X93050500Y-67053713D01*
X93017246Y-66843757D01*
X92951557Y-66641588D01*
X92855051Y-66452184D01*
X92855049Y-66452181D01*
X92855048Y-66452179D01*
X92854702Y-66451703D01*
X92854700Y-66451699D01*
X92730112Y-66280216D01*
X92579782Y-66129886D01*
X92407824Y-66004953D01*
X92407258Y-66004606D01*
X92405627Y-66003357D01*
X92403901Y-66002103D01*
X92403932Y-66002059D01*
X92386960Y-65989062D01*
X92376683Y-65979357D01*
X92341457Y-65919017D01*
X92344445Y-65849212D01*
X92380613Y-65795493D01*
X92387783Y-65789281D01*
X92404187Y-65777275D01*
X92407816Y-65775051D01*
X92407817Y-65775050D01*
X92429789Y-65759086D01*
X92579786Y-65650109D01*
X92579787Y-65650106D01*
X92579790Y-65650105D01*
X92579792Y-65650104D01*
X92579793Y-65650102D01*
X92579847Y-65650063D01*
X92580605Y-65649290D01*
X92730104Y-65499792D01*
X92730106Y-65499788D01*
X92730109Y-65499786D01*
X92855048Y-65327820D01*
X92855047Y-65327820D01*
X92855051Y-65327816D01*
X92855053Y-65327810D01*
X92875445Y-65299744D01*
X92883730Y-65271529D01*
X92951557Y-65138412D01*
X93017246Y-64936243D01*
X93050500Y-64726287D01*
X93050500Y-64513713D01*
X93017246Y-64303757D01*
X92951557Y-64101588D01*
X92855051Y-63912184D01*
X92855049Y-63912181D01*
X92855048Y-63912179D01*
X92854702Y-63911703D01*
X92854700Y-63911699D01*
X92730112Y-63740216D01*
X92579788Y-63589892D01*
X92579786Y-63589890D01*
X92407817Y-63464949D01*
X92407813Y-63464947D01*
X92407809Y-63464944D01*
X92407306Y-63464636D01*
X92405834Y-63463509D01*
X92403875Y-63462086D01*
X92403910Y-63462036D01*
X92386956Y-63449059D01*
X92376675Y-63439349D01*
X92341455Y-63379009D01*
X92344447Y-63309204D01*
X92380620Y-63255486D01*
X92387632Y-63249411D01*
X92399885Y-63241162D01*
X92399718Y-63240933D01*
X92399914Y-63240790D01*
X92400138Y-63240674D01*
X92400117Y-63240644D01*
X92407819Y-63235047D01*
X92407821Y-63235047D01*
X92579786Y-63110108D01*
X92579788Y-63110105D01*
X92579792Y-63110103D01*
X92579794Y-63110100D01*
X92579847Y-63110062D01*
X92580605Y-63109289D01*
X92730104Y-62959791D01*
X92730106Y-62959787D01*
X92730109Y-62959785D01*
X92855048Y-62787819D01*
X92855047Y-62787819D01*
X92855051Y-62787815D01*
X92855053Y-62787809D01*
X92875445Y-62759743D01*
X92883730Y-62731528D01*
X92951557Y-62598411D01*
X93017246Y-62396242D01*
X93050500Y-62186286D01*
X93050500Y-61988542D01*
X93070185Y-61921503D01*
X93122989Y-61875748D01*
X93192147Y-61865804D01*
X93246414Y-61887525D01*
X93714043Y-62220451D01*
X97085095Y-64620451D01*
X113472063Y-76287050D01*
X113472063Y-76287051D01*
X113474518Y-76288799D01*
X113479995Y-76292600D01*
X113484511Y-76295735D01*
X113489342Y-76299003D01*
X113499295Y-76305567D01*
X113607429Y-76354951D01*
X113630173Y-76365338D01*
X113697212Y-76385023D01*
X113697216Y-76385024D01*
X113839632Y-76405500D01*
X113839635Y-76405500D01*
X119410741Y-76405500D01*
X119410760Y-76405500D01*
X119428742Y-76405179D01*
X119428752Y-76405178D01*
X119428787Y-76405178D01*
X119437633Y-76404862D01*
X119455650Y-76403896D01*
X119596242Y-76373312D01*
X119661706Y-76348895D01*
X119787981Y-76279944D01*
X119889721Y-76178207D01*
X119931593Y-76122274D01*
X119931599Y-76122266D01*
X119931629Y-76122210D01*
X119933895Y-76119121D01*
X119934039Y-76119010D01*
X119934290Y-76118677D01*
X119934383Y-76118747D01*
X119958744Y-76100128D01*
X119982377Y-76079647D01*
X119986277Y-76079085D01*
X119989407Y-76076694D01*
X120020575Y-76074151D01*
X120051535Y-76069698D01*
X120057676Y-76071125D01*
X120059046Y-76071014D01*
X120060476Y-76071776D01*
X120072214Y-76074505D01*
X120203756Y-76117246D01*
X120413712Y-76150500D01*
X120413713Y-76150500D01*
X120626285Y-76150500D01*
X120626286Y-76150500D01*
X120836242Y-76117246D01*
X121038411Y-76051557D01*
X121227815Y-75955051D01*
X121314137Y-75892335D01*
X121399785Y-75830109D01*
X121399787Y-75830106D01*
X121399791Y-75830104D01*
X121399798Y-75830096D01*
X121399848Y-75830061D01*
X121400604Y-75829290D01*
X121550103Y-75679792D01*
X121550105Y-75679788D01*
X121550108Y-75679786D01*
X121669404Y-75515586D01*
X121675377Y-75507367D01*
X121676516Y-75505799D01*
X121676526Y-75505782D01*
X121680798Y-75499903D01*
X121681609Y-75500492D01*
X121691761Y-75486085D01*
X121700649Y-75476674D01*
X121713790Y-75469004D01*
X121723756Y-75457504D01*
X121743354Y-75451749D01*
X121760992Y-75441455D01*
X121776193Y-75442107D01*
X121790795Y-75437820D01*
X121810392Y-75443574D01*
X121830797Y-75444450D01*
X121844268Y-75453521D01*
X121857835Y-75457505D01*
X121884508Y-75480618D01*
X121890700Y-75487764D01*
X121902685Y-75504128D01*
X121904952Y-75507824D01*
X122029885Y-75679782D01*
X122180215Y-75830112D01*
X122352168Y-75955042D01*
X122352199Y-75955060D01*
X122352441Y-75955182D01*
X122541587Y-76051557D01*
X122743756Y-76117246D01*
X122953712Y-76150500D01*
X122953713Y-76150500D01*
X123166285Y-76150500D01*
X123166286Y-76150500D01*
X123376242Y-76117246D01*
X123578411Y-76051557D01*
X123767815Y-75955051D01*
X123854137Y-75892335D01*
X123939785Y-75830109D01*
X123939787Y-75830106D01*
X123939791Y-75830104D01*
X123939798Y-75830096D01*
X123939848Y-75830061D01*
X123940604Y-75829290D01*
X124090103Y-75679792D01*
X124090105Y-75679788D01*
X124090108Y-75679786D01*
X124215047Y-75507821D01*
X124215050Y-75507816D01*
X124215054Y-75507808D01*
X124216552Y-75505545D01*
X124216751Y-75505676D01*
X124230928Y-75486966D01*
X124240643Y-75476679D01*
X124300980Y-75441457D01*
X124370786Y-75444445D01*
X124424504Y-75480613D01*
X124430706Y-75487770D01*
X124442718Y-75504177D01*
X124444943Y-75507808D01*
X124444947Y-75507813D01*
X124444949Y-75507817D01*
X124569890Y-75679786D01*
X124569891Y-75679787D01*
X124569892Y-75679788D01*
X124720216Y-75830112D01*
X124892169Y-75955042D01*
X124892200Y-75955060D01*
X124892442Y-75955182D01*
X125081588Y-76051557D01*
X125283757Y-76117246D01*
X125493713Y-76150500D01*
X125493714Y-76150500D01*
X125706286Y-76150500D01*
X125706287Y-76150500D01*
X125916243Y-76117246D01*
X126118412Y-76051557D01*
X126307816Y-75955051D01*
X126394138Y-75892335D01*
X126479786Y-75830109D01*
X126479788Y-75830106D01*
X126479792Y-75830104D01*
X126479799Y-75830096D01*
X126479849Y-75830061D01*
X126480605Y-75829290D01*
X126630104Y-75679792D01*
X126630106Y-75679788D01*
X126630109Y-75679786D01*
X126749405Y-75515586D01*
X126755378Y-75507367D01*
X126756517Y-75505799D01*
X126756527Y-75505782D01*
X126760799Y-75499903D01*
X126761610Y-75500492D01*
X126771755Y-75486093D01*
X126780645Y-75476680D01*
X126793787Y-75469008D01*
X126803752Y-75457508D01*
X126823345Y-75451754D01*
X126840985Y-75441457D01*
X126856190Y-75442108D01*
X126870791Y-75437821D01*
X126890385Y-75443573D01*
X126910791Y-75444448D01*
X126924264Y-75453520D01*
X126937831Y-75457503D01*
X126964503Y-75480613D01*
X126964507Y-75480618D01*
X126970707Y-75487772D01*
X126982723Y-75504186D01*
X126984943Y-75507809D01*
X126984946Y-75507813D01*
X126984948Y-75507817D01*
X127109889Y-75679786D01*
X127109890Y-75679787D01*
X127109891Y-75679788D01*
X127260215Y-75830112D01*
X127432168Y-75955042D01*
X127432199Y-75955060D01*
X127432441Y-75955182D01*
X127621587Y-76051557D01*
X127823756Y-76117246D01*
X128033712Y-76150500D01*
X128033713Y-76150500D01*
X128246285Y-76150500D01*
X128246286Y-76150500D01*
X128456242Y-76117246D01*
X128658411Y-76051557D01*
X128847815Y-75955051D01*
X128934477Y-75892088D01*
X129019783Y-75830110D01*
X129019783Y-75830109D01*
X129019791Y-75830104D01*
X129019795Y-75830099D01*
X129021978Y-75828514D01*
X129021978Y-75828513D01*
X129021982Y-75828511D01*
X129027827Y-75824263D01*
X129033663Y-75816231D01*
X129120724Y-75729169D01*
X129148972Y-75708023D01*
X129161155Y-75701371D01*
X129229426Y-75686521D01*
X129294890Y-75710939D01*
X129294897Y-75710943D01*
X129298570Y-75713693D01*
X129340434Y-75769621D01*
X129386201Y-75892328D01*
X129386205Y-75892335D01*
X129418183Y-75935052D01*
X129472449Y-76007542D01*
X129472451Y-76007544D01*
X129472454Y-76007547D01*
X129587663Y-76093793D01*
X129587670Y-76093797D01*
X129722516Y-76144091D01*
X129722515Y-76144091D01*
X129729443Y-76144835D01*
X129782126Y-76150500D01*
X131577871Y-76150499D01*
X131577872Y-76150498D01*
X131580946Y-76150334D01*
X131648943Y-76166400D01*
X131681299Y-76192952D01*
X131697235Y-76211343D01*
X131697237Y-76211344D01*
X131697239Y-76211347D01*
X131805973Y-76305567D01*
X131805976Y-76305568D01*
X131805977Y-76305569D01*
X131900845Y-76348895D01*
X131936850Y-76365338D01*
X132003889Y-76385023D01*
X132003893Y-76385024D01*
X132146309Y-76405500D01*
X133260401Y-76405500D01*
X133260433Y-76405500D01*
X133272167Y-76405364D01*
X133277938Y-76405230D01*
X133289734Y-76404818D01*
X133431043Y-76377735D01*
X133497094Y-76354951D01*
X133625044Y-76289156D01*
X135442362Y-74997903D01*
X135510394Y-74939860D01*
X135541001Y-74908666D01*
X135597742Y-74839542D01*
X135661096Y-74710360D01*
X135682620Y-74643889D01*
X135707012Y-74502093D01*
X136279753Y-53724294D01*
X136279823Y-53699246D01*
X136279553Y-53686974D01*
X136278385Y-53662000D01*
X136247792Y-53521410D01*
X136224128Y-53457976D01*
X136223582Y-53456430D01*
X136223369Y-53455943D01*
X136223368Y-53455938D01*
X136154404Y-53329663D01*
X136154403Y-53329661D01*
X136052667Y-53227941D01*
X136052661Y-53227936D01*
X136052657Y-53227932D01*
X135996720Y-53186065D01*
X135952198Y-53161758D01*
X135915081Y-53141495D01*
X135905552Y-53131967D01*
X135893297Y-53126371D01*
X135881328Y-53107746D01*
X135865672Y-53092093D01*
X135861984Y-53077647D01*
X135855523Y-53067593D01*
X135850500Y-53032658D01*
X135850500Y-53028113D01*
X135870185Y-52961074D01*
X135922989Y-52915319D01*
X135926120Y-52913940D01*
X135934040Y-52910582D01*
X135934048Y-52910581D01*
X136057186Y-52836158D01*
X136111231Y-52791875D01*
X136208412Y-52685775D01*
X136271766Y-52556593D01*
X136293290Y-52490122D01*
X136317682Y-52348326D01*
X136444542Y-47746081D01*
X136446169Y-47741056D01*
X136445248Y-47735854D01*
X136456819Y-47708166D01*
X136466066Y-47679612D01*
X136470153Y-47676262D01*
X136472191Y-47671388D01*
X136496895Y-47654350D01*
X136520111Y-47635329D01*
X136526526Y-47633916D01*
X136529709Y-47631722D01*
X136554732Y-47627707D01*
X136564462Y-47625566D01*
X136566490Y-47625500D01*
X136678844Y-47625500D01*
X136678845Y-47625499D01*
X136833497Y-47594737D01*
X136979179Y-47534394D01*
X137110289Y-47446789D01*
X137221789Y-47335289D01*
X137309394Y-47204179D01*
X137369737Y-47058497D01*
X137400500Y-46903842D01*
X137400500Y-46746158D01*
X137400500Y-46746155D01*
X137400500Y-46745971D01*
X137400064Y-46743966D01*
X137369739Y-46591510D01*
X137369736Y-46591501D01*
X137324398Y-46482043D01*
X137324397Y-46482042D01*
X137320291Y-46472128D01*
X137309397Y-46445827D01*
X137309390Y-46445814D01*
X137221790Y-46314712D01*
X137221785Y-46314707D01*
X137212095Y-46305017D01*
X137204758Y-46293451D01*
X137204364Y-46292082D01*
X137198717Y-46284538D01*
X137191225Y-46270819D01*
X137176370Y-46202552D01*
X137176499Y-46200736D01*
X137195866Y-46142545D01*
X137200053Y-46136029D01*
X137216680Y-46115396D01*
X137271789Y-46060289D01*
X137359394Y-45929179D01*
X137419737Y-45783497D01*
X137450500Y-45628842D01*
X137450500Y-45471158D01*
X137450500Y-45471155D01*
X137450500Y-45470971D01*
X137450064Y-45468966D01*
X137432137Y-45378842D01*
X137419737Y-45316503D01*
X137380242Y-45221153D01*
X137359397Y-45170827D01*
X137359390Y-45170814D01*
X137271789Y-45039711D01*
X137271786Y-45039707D01*
X137271781Y-45039701D01*
X137160297Y-44928217D01*
X137160291Y-44928212D01*
X137160290Y-44928211D01*
X137029191Y-44840613D01*
X137029190Y-44840612D01*
X137029185Y-44840609D01*
X137029172Y-44840602D01*
X137029165Y-44840598D01*
X136883502Y-44780264D01*
X136883471Y-44780257D01*
X136728847Y-44749500D01*
X136728845Y-44749500D01*
X136728842Y-44749500D01*
X136654609Y-44749500D01*
X136587570Y-44729815D01*
X136541815Y-44677011D01*
X136530656Y-44622083D01*
X136556764Y-43674941D01*
X136604499Y-41943259D01*
X136594128Y-41826531D01*
X136582515Y-41770619D01*
X136545544Y-41659415D01*
X135106027Y-38578848D01*
X137599499Y-38578848D01*
X137630257Y-38733471D01*
X137630264Y-38733502D01*
X137690598Y-38879165D01*
X137690603Y-38879174D01*
X137690613Y-38879191D01*
X137778211Y-39010290D01*
X137778212Y-39010291D01*
X137778217Y-39010297D01*
X137889701Y-39121781D01*
X137889707Y-39121786D01*
X137889711Y-39121789D01*
X138020814Y-39209390D01*
X138020827Y-39209397D01*
X138074402Y-39231588D01*
X138166503Y-39269737D01*
X138166505Y-39269737D01*
X138166510Y-39269739D01*
X138250279Y-39286401D01*
X138321153Y-39300499D01*
X138321156Y-39300500D01*
X138321158Y-39300500D01*
X138478844Y-39300500D01*
X138478845Y-39300499D01*
X138633497Y-39269737D01*
X138779179Y-39209394D01*
X138910289Y-39121789D01*
X139021789Y-39010289D01*
X139109394Y-38879179D01*
X139169737Y-38733497D01*
X139200500Y-38578842D01*
X139200500Y-38421158D01*
X139200500Y-38421155D01*
X139200500Y-38420971D01*
X139200064Y-38418966D01*
X139195090Y-38393960D01*
X139189627Y-38366496D01*
X139169737Y-38266503D01*
X139158802Y-38240104D01*
X139109397Y-38120827D01*
X139109390Y-38120814D01*
X139021789Y-37989711D01*
X139021786Y-37989707D01*
X139021781Y-37989701D01*
X138910297Y-37878217D01*
X138910291Y-37878212D01*
X138910290Y-37878211D01*
X138779191Y-37790613D01*
X138779190Y-37790612D01*
X138779185Y-37790609D01*
X138779172Y-37790602D01*
X138779165Y-37790598D01*
X138633502Y-37730264D01*
X138633471Y-37730257D01*
X138478847Y-37699500D01*
X138478845Y-37699500D01*
X138478842Y-37699500D01*
X138321158Y-37699500D01*
X138321155Y-37699500D01*
X138321153Y-37699500D01*
X138166527Y-37730257D01*
X138166496Y-37730264D01*
X138020833Y-37790598D01*
X138020824Y-37790603D01*
X138020807Y-37790613D01*
X137889708Y-37878211D01*
X137889707Y-37878212D01*
X137889701Y-37878217D01*
X137778217Y-37989701D01*
X137778212Y-37989707D01*
X137778211Y-37989708D01*
X137690613Y-38120807D01*
X137690603Y-38120824D01*
X137690598Y-38120833D01*
X137630264Y-38266496D01*
X137630257Y-38266527D01*
X137599500Y-38421150D01*
X137599500Y-38421153D01*
X137599500Y-38578846D01*
X137599500Y-38578848D01*
X137599499Y-38578848D01*
X135106027Y-38578848D01*
X134416711Y-37103713D01*
X134117160Y-36462673D01*
X134114705Y-36451620D01*
X134110523Y-36445113D01*
X134105500Y-36410178D01*
X134105500Y-36269265D01*
X134125185Y-36202226D01*
X134177989Y-36156471D01*
X134247147Y-36146527D01*
X134285795Y-36158781D01*
X134327227Y-36179892D01*
X134476782Y-36256095D01*
X134678870Y-36321757D01*
X134888754Y-36355000D01*
X135101245Y-36355000D01*
X135101246Y-36355000D01*
X135257759Y-36330210D01*
X135301487Y-36323284D01*
X135301493Y-36323283D01*
X135311127Y-36321757D01*
X135311130Y-36321757D01*
X135513217Y-36256095D01*
X135702554Y-36159622D01*
X135706891Y-36156471D01*
X135724121Y-36143953D01*
X135750858Y-36134412D01*
X135756717Y-36120269D01*
X135251149Y-35614702D01*
X135217664Y-35553379D01*
X135222648Y-35483688D01*
X135264519Y-35427754D01*
X135276822Y-35419639D01*
X135302007Y-35405099D01*
X135395099Y-35312007D01*
X135409634Y-35286830D01*
X135460199Y-35238616D01*
X135528805Y-35225391D01*
X135593671Y-35251358D01*
X135604702Y-35261149D01*
X136110269Y-35766717D01*
X136110269Y-35766716D01*
X136110270Y-35766717D01*
X136110270Y-35766716D01*
X136123738Y-35761137D01*
X136129955Y-35739967D01*
X136133954Y-35734118D01*
X136149621Y-35712555D01*
X136149622Y-35712554D01*
X136246095Y-35523217D01*
X136311757Y-35321130D01*
X136311757Y-35321127D01*
X136345000Y-35111246D01*
X136345000Y-34898753D01*
X136330468Y-34807007D01*
X136313284Y-34698511D01*
X136313283Y-34698505D01*
X136313283Y-34698506D01*
X136311756Y-34688865D01*
X136282850Y-34599903D01*
X136246095Y-34486782D01*
X136149624Y-34297449D01*
X136110270Y-34243282D01*
X136110269Y-34243282D01*
X136110268Y-34243282D01*
X135604702Y-34748849D01*
X135543379Y-34782334D01*
X135473687Y-34777350D01*
X135417754Y-34735478D01*
X135409634Y-34723169D01*
X135395099Y-34697993D01*
X135302007Y-34604901D01*
X135302005Y-34604900D01*
X135302003Y-34604898D01*
X135276826Y-34590362D01*
X135228611Y-34539794D01*
X135215390Y-34471186D01*
X135241359Y-34406322D01*
X135251137Y-34395305D01*
X135756716Y-33889728D01*
X135702550Y-33850375D01*
X135588871Y-33792452D01*
X135513214Y-33753902D01*
X135311130Y-33688242D01*
X135101251Y-33655000D01*
X135101246Y-33655000D01*
X134888754Y-33655000D01*
X134888749Y-33655000D01*
X134688513Y-33686715D01*
X134688505Y-33686715D01*
X134688506Y-33686716D01*
X134678865Y-33688242D01*
X134476784Y-33753903D01*
X134285795Y-33851218D01*
X134217126Y-33864114D01*
X134152385Y-33837838D01*
X134112128Y-33780731D01*
X134105500Y-33740733D01*
X134105500Y-33576405D01*
X134105499Y-33576399D01*
X134092893Y-33464216D01*
X134080677Y-33410549D01*
X134080671Y-33410527D01*
X134045695Y-33310292D01*
X134043478Y-33303938D01*
X133963376Y-33184417D01*
X133963374Y-33184415D01*
X133963373Y-33184413D01*
X133916615Y-33132503D01*
X133856219Y-33082170D01*
X133806091Y-33040394D01*
X133724175Y-33004871D01*
X133674085Y-32983149D01*
X133609987Y-32965659D01*
X133607991Y-32965054D01*
X133606669Y-32964755D01*
X133463899Y-32947023D01*
X133463898Y-32947023D01*
X133452573Y-32947240D01*
X132852299Y-32958783D01*
X132721862Y-32978510D01*
X132721852Y-32978512D01*
X132660212Y-32996301D01*
X132660210Y-32996301D01*
X132539341Y-33049093D01*
X132539338Y-33049094D01*
X132497984Y-33082909D01*
X132433625Y-33110106D01*
X132364779Y-33098191D01*
X132340105Y-33082170D01*
X132324174Y-33068893D01*
X132324172Y-33068892D01*
X132192174Y-33011650D01*
X132192175Y-33011650D01*
X132158365Y-33002424D01*
X132125445Y-32993441D01*
X132124829Y-32993269D01*
X132124751Y-32993253D01*
X131981981Y-32975521D01*
X131981980Y-32975521D01*
X131953717Y-32976064D01*
X130455757Y-33004871D01*
X130325324Y-33024597D01*
X130325321Y-33024597D01*
X130325320Y-33024598D01*
X130312316Y-33028350D01*
X130263668Y-33042389D01*
X130142784Y-33095188D01*
X130142783Y-33095189D01*
X130031401Y-33186268D01*
X130031400Y-33186269D01*
X129984158Y-33237742D01*
X129984157Y-33237743D01*
X129902948Y-33356512D01*
X129858488Y-33493347D01*
X129846665Y-33561666D01*
X129846493Y-33562638D01*
X129846162Y-33564464D01*
X129814835Y-33626918D01*
X129754717Y-33662520D01*
X129743548Y-33664820D01*
X129598763Y-33687752D01*
X129396582Y-33753445D01*
X129207182Y-33849949D01*
X129207179Y-33849950D01*
X129207179Y-33849951D01*
X129206590Y-33850379D01*
X129035210Y-33974892D01*
X128884892Y-34125210D01*
X128759933Y-34297204D01*
X128757934Y-34300204D01*
X128757597Y-34299979D01*
X128744019Y-34318084D01*
X128734353Y-34328319D01*
X128674012Y-34363542D01*
X128604207Y-34360552D01*
X128550487Y-34324379D01*
X128544226Y-34317153D01*
X128531959Y-34300325D01*
X128530545Y-34297997D01*
X128530098Y-34297248D01*
X128405111Y-34125216D01*
X128254787Y-33974892D01*
X128254785Y-33974890D01*
X128082819Y-33849951D01*
X127969967Y-33792450D01*
X127915244Y-33764567D01*
X127915239Y-33764565D01*
X127893413Y-33753444D01*
X127893412Y-33753443D01*
X127893411Y-33753443D01*
X127796549Y-33721970D01*
X127700073Y-33690623D01*
X127695551Y-33688770D01*
X127686361Y-33686600D01*
X127681598Y-33686226D01*
X127653117Y-33681715D01*
X127529956Y-33662208D01*
X127510488Y-33659124D01*
X127481289Y-33654500D01*
X127481286Y-33654500D01*
X127268712Y-33654500D01*
X127268708Y-33654500D01*
X127229775Y-33660666D01*
X127220041Y-33662208D01*
X127203550Y-33664820D01*
X127058762Y-33687752D01*
X126856581Y-33753445D01*
X126667181Y-33849949D01*
X126667178Y-33849950D01*
X126667178Y-33849951D01*
X126666589Y-33850379D01*
X126495209Y-33974892D01*
X126344891Y-34125210D01*
X126219938Y-34297195D01*
X126219627Y-34297704D01*
X126218493Y-34299184D01*
X126217083Y-34301126D01*
X126217034Y-34301090D01*
X126204053Y-34318047D01*
X126194348Y-34328322D01*
X126134005Y-34363542D01*
X126064199Y-34360547D01*
X126010488Y-34324378D01*
X126004226Y-34317151D01*
X125991954Y-34300316D01*
X125990542Y-34297991D01*
X125990098Y-34297247D01*
X125865112Y-34125216D01*
X125714788Y-33974892D01*
X125714786Y-33974890D01*
X125542820Y-33849951D01*
X125429968Y-33792450D01*
X125375245Y-33764567D01*
X125375240Y-33764565D01*
X125353414Y-33753444D01*
X125353413Y-33753443D01*
X125353412Y-33753443D01*
X125256550Y-33721970D01*
X125160074Y-33690623D01*
X125155552Y-33688770D01*
X125146362Y-33686600D01*
X125141599Y-33686226D01*
X125113118Y-33681715D01*
X124989957Y-33662208D01*
X124970489Y-33659124D01*
X124941290Y-33654500D01*
X124941287Y-33654500D01*
X124728713Y-33654500D01*
X124728709Y-33654500D01*
X124689776Y-33660666D01*
X124680042Y-33662208D01*
X124663551Y-33664820D01*
X124518763Y-33687752D01*
X124316582Y-33753445D01*
X124127182Y-33849949D01*
X124127179Y-33849950D01*
X124127179Y-33849951D01*
X124126590Y-33850379D01*
X123955218Y-33974886D01*
X123854281Y-34075823D01*
X123854279Y-34075824D01*
X123854279Y-34075825D01*
X123826024Y-34096975D01*
X123813841Y-34103627D01*
X123745568Y-34118477D01*
X123680104Y-34094058D01*
X123680105Y-34094058D01*
X123678412Y-34092791D01*
X123676414Y-34091295D01*
X123634563Y-34035376D01*
X123612147Y-33975276D01*
X123588797Y-33912671D01*
X123588793Y-33912664D01*
X123502547Y-33797455D01*
X123502544Y-33797452D01*
X123502542Y-33797450D01*
X123426778Y-33740733D01*
X123387335Y-33711206D01*
X123387332Y-33711204D01*
X123387330Y-33711203D01*
X123387328Y-33711202D01*
X123252482Y-33660908D01*
X123252483Y-33660908D01*
X123192883Y-33654501D01*
X123192881Y-33654500D01*
X123192873Y-33654500D01*
X123192864Y-33654500D01*
X123191841Y-33654500D01*
X121610001Y-33654500D01*
X121542962Y-33634815D01*
X121497207Y-33582011D01*
X121491717Y-33567714D01*
X121490694Y-33564464D01*
X121484713Y-33545453D01*
X121460547Y-33509395D01*
X121404612Y-33425933D01*
X121404611Y-33425931D01*
X121357849Y-33374018D01*
X121247326Y-33281909D01*
X121230425Y-33274580D01*
X121145477Y-33237742D01*
X121115319Y-33224664D01*
X121047914Y-33206272D01*
X121041334Y-33205391D01*
X121040300Y-33205327D01*
X120905133Y-33188538D01*
X120905132Y-33188538D01*
X120899097Y-33188654D01*
X120621461Y-33193992D01*
X120621456Y-33193992D01*
X120498503Y-33211620D01*
X120498500Y-33211621D01*
X120440137Y-33227496D01*
X120325184Y-33274582D01*
X115251339Y-36125600D01*
X115188342Y-36141477D01*
X112465421Y-36091969D01*
X112398750Y-36071068D01*
X112353963Y-36017441D01*
X112344386Y-35954734D01*
X112350500Y-35897873D01*
X112350499Y-34102128D01*
X112345299Y-34053757D01*
X112345300Y-34053756D01*
X112345298Y-34053749D01*
X112344091Y-34042517D01*
X112341428Y-34035376D01*
X112293797Y-33907671D01*
X112293793Y-33907664D01*
X112207547Y-33792455D01*
X112207544Y-33792452D01*
X112207542Y-33792450D01*
X112099014Y-33711206D01*
X112092335Y-33706206D01*
X112092332Y-33706204D01*
X112092330Y-33706203D01*
X112092328Y-33706202D01*
X111957482Y-33655908D01*
X111957483Y-33655908D01*
X111897883Y-33649501D01*
X111897881Y-33649500D01*
X111897873Y-33649500D01*
X111897864Y-33649500D01*
X111896841Y-33649500D01*
X110102123Y-33649500D01*
X110100192Y-33649659D01*
X110098545Y-33649885D01*
X110042516Y-33655908D01*
X109949441Y-33690623D01*
X109907666Y-33706204D01*
X109907665Y-33706205D01*
X109792456Y-33792450D01*
X109792450Y-33792456D01*
X109706205Y-33907665D01*
X109706203Y-33907668D01*
X109655908Y-34042516D01*
X109649421Y-34102855D01*
X109649335Y-34104109D01*
X109649305Y-34104464D01*
X109649172Y-34105173D01*
X109649146Y-34105418D01*
X109649126Y-34105415D01*
X109644723Y-34128955D01*
X109637066Y-34155034D01*
X109605769Y-34207782D01*
X109069702Y-34743849D01*
X109008379Y-34777334D01*
X108938687Y-34772350D01*
X108882754Y-34730478D01*
X108874634Y-34718169D01*
X108860099Y-34692993D01*
X108767007Y-34599901D01*
X108767004Y-34599899D01*
X108767000Y-34599896D01*
X108741828Y-34585363D01*
X108693613Y-34534796D01*
X108680391Y-34466189D01*
X108706359Y-34401324D01*
X108716135Y-34390310D01*
X109221716Y-33884728D01*
X109173848Y-33849951D01*
X109167550Y-33845375D01*
X109167548Y-33845374D01*
X108978214Y-33748902D01*
X108776130Y-33683242D01*
X108566251Y-33650000D01*
X108566246Y-33650000D01*
X108353754Y-33650000D01*
X108353749Y-33650000D01*
X108153513Y-33681715D01*
X108153505Y-33681715D01*
X108153506Y-33681716D01*
X108143865Y-33683242D01*
X107941784Y-33748903D01*
X107752438Y-33845380D01*
X107698282Y-33884727D01*
X107698282Y-33884728D01*
X108203850Y-34390296D01*
X108237335Y-34451619D01*
X108232351Y-34521311D01*
X108190479Y-34577244D01*
X108178173Y-34585362D01*
X108152996Y-34599898D01*
X108152990Y-34599903D01*
X108059903Y-34692990D01*
X108059898Y-34692996D01*
X108045362Y-34718173D01*
X107994793Y-34766387D01*
X107926185Y-34779607D01*
X107861322Y-34753637D01*
X107850296Y-34743850D01*
X107344728Y-34238282D01*
X107344727Y-34238282D01*
X107305380Y-34292438D01*
X107208903Y-34481784D01*
X107143242Y-34683865D01*
X107141798Y-34692990D01*
X107110000Y-34893753D01*
X107110000Y-35106246D01*
X107132984Y-35251358D01*
X107141715Y-35306485D01*
X107141716Y-35306493D01*
X107143242Y-35316133D01*
X107172150Y-35405100D01*
X107208904Y-35518217D01*
X107305379Y-35707557D01*
X107305381Y-35707560D01*
X107373014Y-35800650D01*
X107396494Y-35866456D01*
X107380668Y-35934510D01*
X107330563Y-35983205D01*
X107270442Y-35997515D01*
X101658216Y-35895475D01*
X101658214Y-35895475D01*
X101658213Y-35895475D01*
X101612213Y-35896733D01*
X101589728Y-35898375D01*
X101544075Y-35903805D01*
X101544068Y-35903807D01*
X101406907Y-35947242D01*
X101406899Y-35947245D01*
X101343981Y-35977599D01*
X101224612Y-36057919D01*
X101224603Y-36057927D01*
X97587591Y-39346185D01*
X94551454Y-42091185D01*
X93285341Y-43235889D01*
X93268622Y-43243954D01*
X93254707Y-43256234D01*
X93237810Y-43258819D01*
X93222412Y-43266248D01*
X93203987Y-43263994D01*
X93185641Y-43266801D01*
X93170026Y-43259839D01*
X93153059Y-43257764D01*
X93138779Y-43245908D01*
X93121826Y-43238350D01*
X93112454Y-43224052D01*
X93099302Y-43213133D01*
X93093698Y-43195437D01*
X93083524Y-43179915D01*
X93083369Y-43162820D01*
X93078209Y-43146523D01*
X93083061Y-43128608D01*
X93082894Y-43110048D01*
X93094626Y-43085911D01*
X93096476Y-43079083D01*
X93097266Y-43077813D01*
X93099451Y-43074344D01*
X93155048Y-42997821D01*
X93155047Y-42997821D01*
X93155051Y-42997817D01*
X93251557Y-42808413D01*
X93317246Y-42606244D01*
X93350500Y-42396288D01*
X93350500Y-42183714D01*
X93317246Y-41973758D01*
X93251557Y-41771589D01*
X93155051Y-41582185D01*
X93155049Y-41582182D01*
X93155048Y-41582180D01*
X93154702Y-41581704D01*
X93154700Y-41581700D01*
X93030112Y-41410217D01*
X92879788Y-41259893D01*
X92879786Y-41259891D01*
X92707817Y-41134950D01*
X92707813Y-41134948D01*
X92707809Y-41134945D01*
X92707306Y-41134637D01*
X92705834Y-41133510D01*
X92703875Y-41132087D01*
X92703910Y-41132037D01*
X92686956Y-41119060D01*
X92676675Y-41109350D01*
X92641455Y-41049010D01*
X92644447Y-40979205D01*
X92680620Y-40925487D01*
X92687632Y-40919412D01*
X92699885Y-40911163D01*
X92699718Y-40910934D01*
X92699914Y-40910791D01*
X92700138Y-40910675D01*
X92700117Y-40910645D01*
X92707819Y-40905048D01*
X92707821Y-40905048D01*
X92879786Y-40780109D01*
X92879788Y-40780106D01*
X92879792Y-40780104D01*
X92879794Y-40780101D01*
X92879847Y-40780063D01*
X92880605Y-40779290D01*
X93030104Y-40629792D01*
X93030106Y-40629788D01*
X93030109Y-40629786D01*
X93155048Y-40457820D01*
X93155047Y-40457820D01*
X93155051Y-40457816D01*
X93155053Y-40457810D01*
X93175445Y-40429744D01*
X93183730Y-40401529D01*
X93251557Y-40268412D01*
X93317246Y-40066243D01*
X93350500Y-39856287D01*
X93350500Y-39643713D01*
X93317246Y-39433757D01*
X93251557Y-39231588D01*
X93155051Y-39042184D01*
X93155049Y-39042181D01*
X93155048Y-39042179D01*
X93154702Y-39041703D01*
X93154700Y-39041699D01*
X93030112Y-38870216D01*
X92879782Y-38719886D01*
X92707822Y-38594952D01*
X92707273Y-38594615D01*
X92698554Y-38588743D01*
X92693198Y-38584796D01*
X92690489Y-38581233D01*
X92686955Y-38579051D01*
X92684452Y-38576686D01*
X92684833Y-38576281D01*
X92675567Y-38568996D01*
X92669872Y-38562815D01*
X92657604Y-38537985D01*
X92650907Y-38529178D01*
X92650460Y-38523526D01*
X92638922Y-38500174D01*
X92643693Y-38438795D01*
X92644059Y-38437720D01*
X92644064Y-38437709D01*
X92644397Y-38436729D01*
X92684652Y-38379625D01*
X92705488Y-38366237D01*
X92707816Y-38365051D01*
X92707822Y-38365047D01*
X92879784Y-38240110D01*
X92879784Y-38240109D01*
X92879792Y-38240104D01*
X93030104Y-38089792D01*
X93030106Y-38089788D01*
X93030109Y-38089786D01*
X93155048Y-37917820D01*
X93155047Y-37917820D01*
X93155051Y-37917816D01*
X93155053Y-37917810D01*
X93175445Y-37889744D01*
X93183730Y-37861529D01*
X93251557Y-37728412D01*
X93317246Y-37526243D01*
X93350500Y-37316287D01*
X93350500Y-37103713D01*
X93317246Y-36893757D01*
X93251557Y-36691588D01*
X93155051Y-36502184D01*
X93155049Y-36502181D01*
X93155048Y-36502179D01*
X93154702Y-36501703D01*
X93154700Y-36501699D01*
X93030112Y-36330216D01*
X92879788Y-36179892D01*
X92879786Y-36179890D01*
X92707820Y-36054951D01*
X92658317Y-36029728D01*
X92540245Y-35969567D01*
X92540240Y-35969565D01*
X92518414Y-35958444D01*
X92518413Y-35958443D01*
X92518412Y-35958443D01*
X92387950Y-35916053D01*
X92325074Y-35895623D01*
X92320552Y-35893770D01*
X92311362Y-35891600D01*
X92306599Y-35891226D01*
X92154957Y-35867208D01*
X92135489Y-35864124D01*
X92106290Y-35859500D01*
X92106287Y-35859500D01*
X91893713Y-35859500D01*
X91893709Y-35859500D01*
X91854776Y-35865666D01*
X91845042Y-35867208D01*
X91807654Y-35873129D01*
X91683763Y-35892752D01*
X91481582Y-35958445D01*
X91292182Y-36054949D01*
X91292179Y-36054950D01*
X91292179Y-36054951D01*
X91206196Y-36117420D01*
X91120210Y-36179892D01*
X90969892Y-36330210D01*
X90969890Y-36330213D01*
X90873654Y-36462673D01*
X90844949Y-36502182D01*
X90748445Y-36691580D01*
X90682752Y-36893759D01*
X90649500Y-37103707D01*
X90649500Y-37316291D01*
X90682752Y-37526239D01*
X90748445Y-37728418D01*
X90841532Y-37911111D01*
X90844951Y-37917820D01*
X90969890Y-38089786D01*
X91120213Y-38240109D01*
X91292182Y-38365050D01*
X91292190Y-38365054D01*
X91292693Y-38365363D01*
X91294174Y-38366496D01*
X91296122Y-38367912D01*
X91296086Y-38367960D01*
X91313034Y-38380934D01*
X91323315Y-38390643D01*
X91358541Y-38450983D01*
X91355552Y-38520789D01*
X91319383Y-38574507D01*
X91312227Y-38580708D01*
X91295814Y-38592723D01*
X91292190Y-38594943D01*
X91120210Y-38719892D01*
X90969892Y-38870210D01*
X90963367Y-38879191D01*
X90868120Y-39010290D01*
X90844949Y-39042182D01*
X90748445Y-39231580D01*
X90682752Y-39433759D01*
X90649500Y-39643707D01*
X90649500Y-39856291D01*
X90677567Y-40033497D01*
X90682753Y-40066241D01*
X90719450Y-40179184D01*
X90748443Y-40268414D01*
X90841407Y-40450864D01*
X90844951Y-40457820D01*
X90969890Y-40629786D01*
X90969892Y-40629788D01*
X91120216Y-40780112D01*
X91292285Y-40905126D01*
X91292861Y-40905480D01*
X91293029Y-40905667D01*
X91293918Y-40906312D01*
X91294420Y-40906541D01*
X91295256Y-40907099D01*
X91295172Y-40907223D01*
X91296311Y-40908051D01*
X91296143Y-40908280D01*
X91313083Y-40920978D01*
X91323319Y-40930645D01*
X91337502Y-40954943D01*
X91339674Y-40957349D01*
X91339974Y-40959178D01*
X91358542Y-40990986D01*
X91355552Y-41060792D01*
X91319385Y-41114506D01*
X91311981Y-41120922D01*
X91293435Y-41134215D01*
X91292199Y-41134938D01*
X91120210Y-41259893D01*
X90969892Y-41410211D01*
X90844949Y-41582183D01*
X90748445Y-41771581D01*
X90682752Y-41973761D01*
X90673099Y-42034712D01*
X90649500Y-42183713D01*
X90649500Y-42396287D01*
X90682753Y-42606243D01*
X90688473Y-42623845D01*
X90748445Y-42808419D01*
X90813707Y-42936502D01*
X90844951Y-42997821D01*
X90969890Y-43169787D01*
X90969892Y-43169789D01*
X91120216Y-43320113D01*
X91292285Y-43445127D01*
X91292816Y-43445453D01*
X91292973Y-43445626D01*
X91293879Y-43446285D01*
X91294367Y-43446507D01*
X91295198Y-43447061D01*
X91295116Y-43447183D01*
X91296311Y-43448052D01*
X91296142Y-43448283D01*
X91313073Y-43460971D01*
X91323319Y-43470648D01*
X91337472Y-43494891D01*
X91339650Y-43497303D01*
X91339953Y-43499142D01*
X91358542Y-43530986D01*
X91355551Y-43600792D01*
X91319380Y-43654510D01*
X91312227Y-43660708D01*
X91295824Y-43672716D01*
X91292192Y-43674941D01*
X91120210Y-43799892D01*
X90969892Y-43950210D01*
X90844949Y-44122182D01*
X90748445Y-44311580D01*
X90682752Y-44513759D01*
X90649500Y-44723707D01*
X90649500Y-44936291D01*
X90680473Y-45131847D01*
X90680474Y-45131853D01*
X90682753Y-45146239D01*
X90682753Y-45146241D01*
X90682754Y-45146243D01*
X90687141Y-45159746D01*
X90687145Y-45159761D01*
X90738076Y-45316508D01*
X90748442Y-45348409D01*
X90748443Y-45348412D01*
X90810983Y-45471155D01*
X90844951Y-45537820D01*
X90969890Y-45709786D01*
X91070824Y-45810720D01*
X91091973Y-45838971D01*
X91098625Y-45851153D01*
X91113477Y-45919426D01*
X91089061Y-45984891D01*
X91089055Y-45984899D01*
X91086305Y-45988572D01*
X91030376Y-46030436D01*
X90907673Y-46076201D01*
X90907664Y-46076206D01*
X90907661Y-46076208D01*
X90792456Y-46162450D01*
X90792450Y-46162456D01*
X90706205Y-46277665D01*
X90706203Y-46277668D01*
X90655908Y-46412516D01*
X90649500Y-46472125D01*
X90649500Y-47959698D01*
X90629815Y-48026737D01*
X90577011Y-48072492D01*
X90557897Y-48079391D01*
X90474119Y-48102066D01*
X90351459Y-48177259D01*
X90297690Y-48221883D01*
X90297689Y-48221884D01*
X90201181Y-48328585D01*
X90201179Y-48328589D01*
X90138637Y-48458165D01*
X90117533Y-48524764D01*
X90117531Y-48524773D01*
X90094028Y-48666725D01*
X90037248Y-51335401D01*
X89955652Y-55170401D01*
X89947104Y-55572119D01*
X89947105Y-55572142D01*
X89949339Y-55631548D01*
X89952143Y-55660532D01*
X89952146Y-55660549D01*
X89961346Y-55719304D01*
X89961346Y-55719306D01*
X89961347Y-55719307D01*
X90011629Y-55854116D01*
X90045114Y-55915439D01*
X90045115Y-55915440D01*
X90131328Y-56030612D01*
X90169581Y-56059249D01*
X90246510Y-56116840D01*
X90284929Y-56137819D01*
X90334333Y-56187225D01*
X90349500Y-56246650D01*
X90349500Y-57685932D01*
X90329815Y-57752971D01*
X90277011Y-57798726D01*
X90274601Y-57799796D01*
X90267726Y-57802760D01*
X90145058Y-57877956D01*
X90091292Y-57922577D01*
X90091291Y-57922578D01*
X89994781Y-58029281D01*
X89994779Y-58029284D01*
X89932239Y-58158859D01*
X89911134Y-58225456D01*
X89911133Y-58225461D01*
X89887630Y-58367417D01*
X89881499Y-58655617D01*
X88300500Y-58655617D01*
X88300500Y-32878848D01*
X104699499Y-32878848D01*
X104730257Y-33033471D01*
X104730264Y-33033502D01*
X104790598Y-33179165D01*
X104790603Y-33179174D01*
X104790613Y-33179191D01*
X104878211Y-33310290D01*
X104878212Y-33310291D01*
X104878217Y-33310297D01*
X104989701Y-33421781D01*
X104989707Y-33421786D01*
X104989711Y-33421789D01*
X105120814Y-33509390D01*
X105120827Y-33509397D01*
X105266498Y-33569735D01*
X105266503Y-33569737D01*
X105421153Y-33600499D01*
X105421156Y-33600500D01*
X105421158Y-33600500D01*
X105578844Y-33600500D01*
X105578845Y-33600499D01*
X105733497Y-33569737D01*
X105879179Y-33509394D01*
X106010289Y-33421789D01*
X106121789Y-33310289D01*
X106209394Y-33179179D01*
X106269737Y-33033497D01*
X106300500Y-32878842D01*
X106300500Y-32721158D01*
X106300500Y-32721155D01*
X106300500Y-32720973D01*
X106300065Y-32718972D01*
X106270397Y-32569824D01*
X106269994Y-32567467D01*
X106269738Y-32566508D01*
X106269737Y-32566506D01*
X106269737Y-32566503D01*
X106269735Y-32566498D01*
X106209397Y-32420827D01*
X106209390Y-32420814D01*
X106121789Y-32289711D01*
X106121786Y-32289707D01*
X106121781Y-32289701D01*
X106010297Y-32178217D01*
X106010291Y-32178212D01*
X106010290Y-32178211D01*
X105879191Y-32090613D01*
X105879190Y-32090612D01*
X105879185Y-32090609D01*
X105879172Y-32090602D01*
X105879165Y-32090598D01*
X105733502Y-32030264D01*
X105733471Y-32030257D01*
X105578847Y-31999500D01*
X105578845Y-31999500D01*
X105578842Y-31999500D01*
X105421158Y-31999500D01*
X105421155Y-31999500D01*
X105421153Y-31999500D01*
X105266527Y-32030257D01*
X105266496Y-32030264D01*
X105120833Y-32090598D01*
X105120824Y-32090603D01*
X105120807Y-32090613D01*
X104989708Y-32178211D01*
X104989707Y-32178212D01*
X104989701Y-32178217D01*
X104878217Y-32289701D01*
X104878212Y-32289707D01*
X104878211Y-32289708D01*
X104790613Y-32420807D01*
X104790603Y-32420824D01*
X104790598Y-32420833D01*
X104730264Y-32566496D01*
X104730257Y-32566527D01*
X104699500Y-32721150D01*
X104699500Y-32721153D01*
X104699500Y-32878846D01*
X104699500Y-32878848D01*
X104699499Y-32878848D01*
X88300500Y-32878848D01*
X88300500Y-30042329D01*
X88305523Y-30007393D01*
X88309927Y-29992395D01*
X88347672Y-29933644D01*
X88347700Y-29933619D01*
X88347699Y-29933619D01*
X88349041Y-29932456D01*
X88403920Y-29904977D01*
X88411479Y-29903333D01*
X88437832Y-29900500D01*
X140457670Y-29900500D01*
X140492606Y-29905523D01*
G37*
%TD.AperFunction*%
%TD*%
%TA.AperFunction,Conductor*%
%TO.N,+3V3*%
G36*
X120982256Y-33712337D02*
G01*
X121029018Y-33764251D01*
X121040289Y-33833206D01*
X121016502Y-33892232D01*
X121001206Y-33912664D01*
X121001202Y-33912671D01*
X120950908Y-34047517D01*
X120944501Y-34107116D01*
X120944500Y-34107135D01*
X120944500Y-35902870D01*
X120944501Y-35902876D01*
X120950908Y-35962483D01*
X121001202Y-36097328D01*
X121001206Y-36097335D01*
X121087452Y-36212544D01*
X121087455Y-36212547D01*
X121202664Y-36298793D01*
X121202671Y-36298797D01*
X121337517Y-36349091D01*
X121337516Y-36349091D01*
X121344444Y-36349835D01*
X121397127Y-36355500D01*
X123192872Y-36355499D01*
X123252483Y-36349091D01*
X123387331Y-36298796D01*
X123502546Y-36212546D01*
X123588796Y-36097331D01*
X123637810Y-35965916D01*
X123679681Y-35909984D01*
X123745145Y-35885566D01*
X123813418Y-35900417D01*
X123841673Y-35921569D01*
X123955213Y-36035109D01*
X124127179Y-36160048D01*
X124127181Y-36160049D01*
X124127184Y-36160051D01*
X124316588Y-36256557D01*
X124518757Y-36322246D01*
X124728713Y-36355500D01*
X124728714Y-36355500D01*
X124941286Y-36355500D01*
X124941287Y-36355500D01*
X125151243Y-36322246D01*
X125353412Y-36256557D01*
X125542816Y-36160051D01*
X125629138Y-36097335D01*
X125714786Y-36035109D01*
X125714788Y-36035106D01*
X125714792Y-36035104D01*
X125865104Y-35884792D01*
X125865106Y-35884788D01*
X125865109Y-35884786D01*
X125990048Y-35712820D01*
X125990047Y-35712820D01*
X125990051Y-35712816D01*
X125994512Y-35704058D01*
X126042483Y-35653262D01*
X126110303Y-35636464D01*
X126176440Y-35658998D01*
X126215483Y-35704054D01*
X126219948Y-35712817D01*
X126344889Y-35884786D01*
X126495212Y-36035109D01*
X126667178Y-36160048D01*
X126667180Y-36160049D01*
X126667183Y-36160051D01*
X126856587Y-36256557D01*
X127058756Y-36322246D01*
X127268712Y-36355500D01*
X127268713Y-36355500D01*
X127481285Y-36355500D01*
X127481286Y-36355500D01*
X127691242Y-36322246D01*
X127893411Y-36256557D01*
X128082815Y-36160051D01*
X128169137Y-36097335D01*
X128254785Y-36035109D01*
X128254787Y-36035106D01*
X128254791Y-36035104D01*
X128405103Y-35884792D01*
X128405105Y-35884788D01*
X128405108Y-35884786D01*
X128530047Y-35712821D01*
X128530187Y-35712547D01*
X128534512Y-35704056D01*
X128582483Y-35653260D01*
X128650303Y-35636462D01*
X128716439Y-35658996D01*
X128755483Y-35704052D01*
X128759949Y-35712817D01*
X128884890Y-35884786D01*
X129035213Y-36035109D01*
X129207179Y-36160048D01*
X129207181Y-36160049D01*
X129207184Y-36160051D01*
X129396588Y-36256557D01*
X129598757Y-36322246D01*
X129808713Y-36355500D01*
X129808714Y-36355500D01*
X130021286Y-36355500D01*
X130021287Y-36355500D01*
X130231243Y-36322246D01*
X130433412Y-36256557D01*
X130622816Y-36160051D01*
X130709138Y-36097335D01*
X130794786Y-36035109D01*
X130794788Y-36035106D01*
X130794792Y-36035104D01*
X130945104Y-35884792D01*
X130945106Y-35884788D01*
X130945109Y-35884786D01*
X131016110Y-35787060D01*
X131070051Y-35712816D01*
X131074793Y-35703508D01*
X131122763Y-35652711D01*
X131190583Y-35635911D01*
X131256719Y-35658445D01*
X131295763Y-35703500D01*
X131300373Y-35712547D01*
X131339728Y-35766716D01*
X131972037Y-35134408D01*
X131989075Y-35197993D01*
X132054901Y-35312007D01*
X132147993Y-35405099D01*
X132262007Y-35470925D01*
X132325590Y-35487962D01*
X131693282Y-36120269D01*
X131693282Y-36120270D01*
X131747449Y-36159624D01*
X131936782Y-36256095D01*
X132138870Y-36321757D01*
X132348754Y-36355000D01*
X132561246Y-36355000D01*
X132771127Y-36321757D01*
X132771130Y-36321757D01*
X132973217Y-36256095D01*
X133162554Y-36159622D01*
X133216716Y-36120270D01*
X133216717Y-36120270D01*
X132584408Y-35487962D01*
X132647993Y-35470925D01*
X132762007Y-35405099D01*
X132855099Y-35312007D01*
X132920925Y-35197993D01*
X132937962Y-35134408D01*
X133590614Y-35787060D01*
X133600000Y-35804249D01*
X133600000Y-35953036D01*
X133600000Y-36550000D01*
X133599999Y-36550000D01*
X136087578Y-41873418D01*
X136099191Y-41929330D01*
X136013803Y-45027004D01*
X135992953Y-45092477D01*
X135940608Y-45170817D01*
X135940602Y-45170828D01*
X135880264Y-45316498D01*
X135880261Y-45316510D01*
X135849500Y-45471153D01*
X135849500Y-45628846D01*
X135880261Y-45783489D01*
X135880264Y-45783501D01*
X135940602Y-45929171D01*
X135940609Y-45929184D01*
X135965080Y-45965807D01*
X135971228Y-45985442D01*
X135981873Y-46003055D01*
X135984881Y-46029046D01*
X135985958Y-46032485D01*
X135985931Y-46038115D01*
X135979296Y-46278817D01*
X135958445Y-46344290D01*
X135890612Y-46445809D01*
X135890602Y-46445827D01*
X135830264Y-46591498D01*
X135830261Y-46591510D01*
X135799500Y-46746153D01*
X135799500Y-46903846D01*
X135830261Y-47058489D01*
X135830264Y-47058501D01*
X135890602Y-47204172D01*
X135890612Y-47204190D01*
X135929346Y-47262160D01*
X135950224Y-47328837D01*
X135950197Y-47334467D01*
X135812374Y-52334397D01*
X135790850Y-52400868D01*
X135736805Y-52445151D01*
X135667399Y-52453185D01*
X135604667Y-52422420D01*
X135600740Y-52418661D01*
X135560292Y-52378213D01*
X135560288Y-52378210D01*
X135429185Y-52290609D01*
X135429172Y-52290602D01*
X135283501Y-52230264D01*
X135283489Y-52230261D01*
X135128845Y-52199500D01*
X135128842Y-52199500D01*
X134971158Y-52199500D01*
X134971155Y-52199500D01*
X134816510Y-52230261D01*
X134816498Y-52230264D01*
X134670827Y-52290602D01*
X134670809Y-52290612D01*
X134582051Y-52349917D01*
X134582037Y-52349929D01*
X134539711Y-52378211D01*
X134430062Y-52487859D01*
X134430041Y-52487879D01*
X134428211Y-52489709D01*
X134428210Y-52489711D01*
X134340609Y-52620814D01*
X134340602Y-52620827D01*
X134280264Y-52766498D01*
X134280261Y-52766510D01*
X134249500Y-52921153D01*
X134249500Y-53078846D01*
X134280261Y-53233489D01*
X134280264Y-53233501D01*
X134340602Y-53379172D01*
X134340609Y-53379185D01*
X134428210Y-53510288D01*
X134428213Y-53510292D01*
X134539707Y-53621786D01*
X134539711Y-53621789D01*
X134670814Y-53709390D01*
X134670827Y-53709397D01*
X134784541Y-53756498D01*
X134816503Y-53769737D01*
X134971153Y-53800499D01*
X134971156Y-53800500D01*
X134971158Y-53800500D01*
X135128844Y-53800500D01*
X135128845Y-53800499D01*
X135283497Y-53769737D01*
X135429179Y-53709394D01*
X135560289Y-53621789D01*
X135562806Y-53619271D01*
X135564451Y-53618373D01*
X135564999Y-53617924D01*
X135565084Y-53618027D01*
X135624125Y-53585784D01*
X135693817Y-53590763D01*
X135749754Y-53632630D01*
X135774175Y-53698093D01*
X135774445Y-53710365D01*
X135201704Y-74488164D01*
X135180180Y-74554635D01*
X135149573Y-74585829D01*
X133332255Y-75877082D01*
X133266204Y-75899866D01*
X133260433Y-75900000D01*
X132146309Y-75900000D01*
X132079270Y-75880315D01*
X132033515Y-75827511D01*
X132023020Y-75762744D01*
X132029998Y-75697844D01*
X132029999Y-75697827D01*
X132029999Y-75050000D01*
X131113011Y-75050000D01*
X131145924Y-74992993D01*
X131179999Y-74865826D01*
X131179999Y-74734174D01*
X131145924Y-74607007D01*
X131113011Y-74550000D01*
X132029999Y-74550000D01*
X132029999Y-73902172D01*
X132029998Y-73902155D01*
X132023597Y-73842627D01*
X132023595Y-73842620D01*
X131973353Y-73707913D01*
X131973349Y-73707906D01*
X131887189Y-73592812D01*
X131887186Y-73592809D01*
X131772092Y-73506649D01*
X131772085Y-73506645D01*
X131637378Y-73456403D01*
X131637371Y-73456401D01*
X131577843Y-73450000D01*
X130929999Y-73450000D01*
X130929999Y-74366988D01*
X130872992Y-74334075D01*
X130745825Y-74300000D01*
X130614173Y-74300000D01*
X130487006Y-74334075D01*
X130429999Y-74366988D01*
X130429999Y-73450000D01*
X129782154Y-73450000D01*
X129722626Y-73456401D01*
X129722619Y-73456403D01*
X129587912Y-73506645D01*
X129587905Y-73506649D01*
X129472811Y-73592809D01*
X129472808Y-73592812D01*
X129386648Y-73707906D01*
X129386645Y-73707912D01*
X129337576Y-73839471D01*
X129295704Y-73895404D01*
X129230240Y-73919821D01*
X129161967Y-73904969D01*
X129133713Y-73883818D01*
X129019785Y-73769890D01*
X128847819Y-73644951D01*
X128658413Y-73548444D01*
X128658412Y-73548443D01*
X128658411Y-73548443D01*
X128456242Y-73482754D01*
X128456240Y-73482753D01*
X128456239Y-73482753D01*
X128294956Y-73457208D01*
X128246286Y-73449500D01*
X128033712Y-73449500D01*
X127985041Y-73457208D01*
X127823759Y-73482753D01*
X127621584Y-73548444D01*
X127432178Y-73644951D01*
X127260212Y-73769890D01*
X127109889Y-73920213D01*
X126984947Y-74092183D01*
X126980481Y-74100949D01*
X126932505Y-74151742D01*
X126864683Y-74168535D01*
X126798549Y-74145995D01*
X126759513Y-74100942D01*
X126755051Y-74092184D01*
X126755049Y-74092181D01*
X126755048Y-74092179D01*
X126630109Y-73920213D01*
X126479786Y-73769890D01*
X126307820Y-73644951D01*
X126118414Y-73548444D01*
X126118413Y-73548443D01*
X126118412Y-73548443D01*
X125916243Y-73482754D01*
X125916241Y-73482753D01*
X125916240Y-73482753D01*
X125754957Y-73457208D01*
X125706287Y-73449500D01*
X125493713Y-73449500D01*
X125445042Y-73457208D01*
X125283760Y-73482753D01*
X125081585Y-73548444D01*
X124892179Y-73644951D01*
X124720213Y-73769890D01*
X124569890Y-73920213D01*
X124444948Y-74092184D01*
X124444946Y-74092187D01*
X124440481Y-74100950D01*
X124392505Y-74151744D01*
X124324683Y-74168537D01*
X124258549Y-74145997D01*
X124219513Y-74100944D01*
X124219512Y-74100942D01*
X124215050Y-74092184D01*
X124215048Y-74092181D01*
X124215047Y-74092179D01*
X124090108Y-73920213D01*
X123939785Y-73769890D01*
X123767819Y-73644951D01*
X123578413Y-73548444D01*
X123578412Y-73548443D01*
X123578411Y-73548443D01*
X123376242Y-73482754D01*
X123376240Y-73482753D01*
X123376239Y-73482753D01*
X123214956Y-73457208D01*
X123166286Y-73449500D01*
X122953712Y-73449500D01*
X122905041Y-73457208D01*
X122743759Y-73482753D01*
X122541584Y-73548444D01*
X122352178Y-73644951D01*
X122180212Y-73769890D01*
X122029889Y-73920213D01*
X121904948Y-74092182D01*
X121900483Y-74100946D01*
X121852508Y-74151742D01*
X121784687Y-74168536D01*
X121718552Y-74145998D01*
X121679515Y-74100946D01*
X121675049Y-74092182D01*
X121550108Y-73920213D01*
X121399785Y-73769890D01*
X121227819Y-73644951D01*
X121038413Y-73548444D01*
X121038412Y-73548443D01*
X121038411Y-73548443D01*
X120836242Y-73482754D01*
X120836240Y-73482753D01*
X120836239Y-73482753D01*
X120674956Y-73457208D01*
X120626286Y-73449500D01*
X120413712Y-73449500D01*
X120365041Y-73457208D01*
X120203759Y-73482753D01*
X120001584Y-73548444D01*
X119812178Y-73644951D01*
X119640212Y-73769890D01*
X119489889Y-73920213D01*
X119364950Y-74092179D01*
X119268443Y-74281585D01*
X119202752Y-74483760D01*
X119201290Y-74492993D01*
X119169499Y-74693713D01*
X119169499Y-74906287D01*
X119202753Y-75116243D01*
X119249999Y-75261652D01*
X119268443Y-75318414D01*
X119364950Y-75507820D01*
X119489889Y-75679786D01*
X119498422Y-75688319D01*
X119531907Y-75749642D01*
X119526923Y-75819334D01*
X119485051Y-75875267D01*
X119419587Y-75899684D01*
X119410741Y-75900000D01*
X113839632Y-75900000D01*
X113772593Y-75880315D01*
X113767715Y-75877015D01*
X113765260Y-75875267D01*
X97378272Y-64208653D01*
X100999500Y-64208653D01*
X100999500Y-64366346D01*
X101030261Y-64520989D01*
X101030264Y-64521001D01*
X101090602Y-64666672D01*
X101090609Y-64666685D01*
X101178210Y-64797788D01*
X101178213Y-64797792D01*
X101289707Y-64909286D01*
X101289711Y-64909289D01*
X101420814Y-64996890D01*
X101420827Y-64996897D01*
X101566498Y-65057235D01*
X101566503Y-65057237D01*
X101721153Y-65087999D01*
X101721156Y-65088000D01*
X101721158Y-65088000D01*
X101878844Y-65088000D01*
X101878845Y-65087999D01*
X102033497Y-65057237D01*
X102179179Y-64996894D01*
X102310289Y-64909289D01*
X102421789Y-64797789D01*
X102509394Y-64666679D01*
X102569737Y-64520997D01*
X102600500Y-64366342D01*
X102600500Y-64208658D01*
X102600500Y-64208655D01*
X102600499Y-64208653D01*
X102569738Y-64054010D01*
X102569737Y-64054003D01*
X102569735Y-64053998D01*
X102509397Y-63908327D01*
X102509390Y-63908314D01*
X102421789Y-63777211D01*
X102421786Y-63777207D01*
X102310292Y-63665713D01*
X102310288Y-63665710D01*
X102179185Y-63578109D01*
X102179172Y-63578102D01*
X102033501Y-63517764D01*
X102033489Y-63517761D01*
X101878845Y-63487000D01*
X101878842Y-63487000D01*
X101721158Y-63487000D01*
X101721155Y-63487000D01*
X101566510Y-63517761D01*
X101566498Y-63517764D01*
X101420827Y-63578102D01*
X101420814Y-63578109D01*
X101289711Y-63665710D01*
X101289707Y-63665713D01*
X101178213Y-63777207D01*
X101178210Y-63777211D01*
X101090609Y-63908314D01*
X101090602Y-63908327D01*
X101030264Y-64053998D01*
X101030261Y-64054010D01*
X100999500Y-64208653D01*
X97378272Y-64208653D01*
X94007220Y-61808653D01*
X106399500Y-61808653D01*
X106399500Y-61966346D01*
X106430261Y-62120989D01*
X106430264Y-62121001D01*
X106490602Y-62266672D01*
X106490609Y-62266685D01*
X106578210Y-62397788D01*
X106578213Y-62397792D01*
X106689707Y-62509286D01*
X106689711Y-62509289D01*
X106820814Y-62596890D01*
X106820827Y-62596897D01*
X106966498Y-62657235D01*
X106966503Y-62657237D01*
X107121153Y-62687999D01*
X107121156Y-62688000D01*
X107121158Y-62688000D01*
X107278844Y-62688000D01*
X107278845Y-62687999D01*
X107433497Y-62657237D01*
X107579179Y-62596894D01*
X107710289Y-62509289D01*
X107821789Y-62397789D01*
X107909394Y-62266679D01*
X107969737Y-62120997D01*
X108000500Y-61966342D01*
X108000500Y-61808658D01*
X108000500Y-61808655D01*
X108000499Y-61808653D01*
X107969738Y-61654010D01*
X107969737Y-61654003D01*
X107969735Y-61653998D01*
X107909397Y-61508327D01*
X107909390Y-61508314D01*
X107821789Y-61377211D01*
X107821786Y-61377207D01*
X107710292Y-61265713D01*
X107710288Y-61265710D01*
X107579185Y-61178109D01*
X107579172Y-61178102D01*
X107433501Y-61117764D01*
X107433489Y-61117761D01*
X107278845Y-61087000D01*
X107278842Y-61087000D01*
X107121158Y-61087000D01*
X107121155Y-61087000D01*
X106966510Y-61117761D01*
X106966498Y-61117764D01*
X106820827Y-61178102D01*
X106820814Y-61178109D01*
X106689711Y-61265710D01*
X106689707Y-61265713D01*
X106578213Y-61377207D01*
X106578210Y-61377211D01*
X106490609Y-61508314D01*
X106490602Y-61508327D01*
X106430264Y-61653998D01*
X106430261Y-61654010D01*
X106399500Y-61808653D01*
X94007220Y-61808653D01*
X92514970Y-60746255D01*
X92471775Y-60691339D01*
X92467100Y-60660654D01*
X91829408Y-60022962D01*
X91892993Y-60005925D01*
X92007007Y-59940099D01*
X92100099Y-59847007D01*
X92165925Y-59732993D01*
X92182962Y-59669409D01*
X92815270Y-60301717D01*
X92815270Y-60301716D01*
X92854622Y-60247554D01*
X92951095Y-60058217D01*
X93016757Y-59856130D01*
X93016757Y-59856127D01*
X93050000Y-59646246D01*
X93050000Y-59433753D01*
X93016757Y-59223872D01*
X93016757Y-59223869D01*
X92951095Y-59021782D01*
X92854624Y-58832449D01*
X92815270Y-58778282D01*
X92815269Y-58778282D01*
X92182962Y-59410590D01*
X92165925Y-59347007D01*
X92100099Y-59232993D01*
X92007007Y-59139901D01*
X91892993Y-59074075D01*
X91829409Y-59057037D01*
X92499627Y-58386818D01*
X92560950Y-58353333D01*
X92587307Y-58350499D01*
X92597872Y-58350499D01*
X92657483Y-58344091D01*
X92792331Y-58293796D01*
X92907546Y-58207546D01*
X92993796Y-58092331D01*
X93001695Y-58071153D01*
X132399500Y-58071153D01*
X132399500Y-58228846D01*
X132430261Y-58383489D01*
X132430264Y-58383501D01*
X132490602Y-58529172D01*
X132490609Y-58529185D01*
X132578210Y-58660288D01*
X132578213Y-58660292D01*
X132689707Y-58771786D01*
X132689711Y-58771789D01*
X132820814Y-58859390D01*
X132820827Y-58859397D01*
X132966498Y-58919735D01*
X132966503Y-58919737D01*
X133121153Y-58950499D01*
X133121156Y-58950500D01*
X133121158Y-58950500D01*
X133278844Y-58950500D01*
X133278845Y-58950499D01*
X133433497Y-58919737D01*
X133579179Y-58859394D01*
X133710289Y-58771789D01*
X133821789Y-58660289D01*
X133909394Y-58529179D01*
X133969737Y-58383497D01*
X134000500Y-58228842D01*
X134000500Y-58071158D01*
X134000500Y-58071155D01*
X134000499Y-58071153D01*
X133969738Y-57916510D01*
X133969737Y-57916503D01*
X133969735Y-57916498D01*
X133909397Y-57770827D01*
X133909390Y-57770814D01*
X133821789Y-57639711D01*
X133821786Y-57639707D01*
X133710292Y-57528213D01*
X133710288Y-57528210D01*
X133579185Y-57440609D01*
X133579172Y-57440602D01*
X133433501Y-57380264D01*
X133433489Y-57380261D01*
X133278845Y-57349500D01*
X133278842Y-57349500D01*
X133121158Y-57349500D01*
X133121155Y-57349500D01*
X132966510Y-57380261D01*
X132966498Y-57380264D01*
X132820827Y-57440602D01*
X132820814Y-57440609D01*
X132689711Y-57528210D01*
X132689707Y-57528213D01*
X132578213Y-57639707D01*
X132578210Y-57639711D01*
X132490609Y-57770814D01*
X132490602Y-57770827D01*
X132430264Y-57916498D01*
X132430261Y-57916510D01*
X132399500Y-58071153D01*
X93001695Y-58071153D01*
X93020128Y-58021733D01*
X93020128Y-58021732D01*
X93044090Y-57957485D01*
X93044091Y-57957483D01*
X93048496Y-57916510D01*
X93050500Y-57897873D01*
X93050499Y-56321153D01*
X100799500Y-56321153D01*
X100799500Y-56478846D01*
X100830261Y-56633489D01*
X100830264Y-56633501D01*
X100890602Y-56779172D01*
X100890609Y-56779185D01*
X100978210Y-56910288D01*
X100978213Y-56910292D01*
X101089707Y-57021786D01*
X101089711Y-57021789D01*
X101220814Y-57109390D01*
X101220827Y-57109397D01*
X101366498Y-57169735D01*
X101366503Y-57169737D01*
X101521153Y-57200499D01*
X101521156Y-57200500D01*
X101521158Y-57200500D01*
X101678844Y-57200500D01*
X101678845Y-57200499D01*
X101833497Y-57169737D01*
X101979179Y-57109394D01*
X102110289Y-57021789D01*
X102221789Y-56910289D01*
X102309394Y-56779179D01*
X102369737Y-56633497D01*
X102400500Y-56478842D01*
X102400500Y-56321158D01*
X102400500Y-56321155D01*
X102400499Y-56321153D01*
X102369738Y-56166510D01*
X102369737Y-56166503D01*
X102343070Y-56102123D01*
X102309397Y-56020827D01*
X102309390Y-56020814D01*
X102221789Y-55889711D01*
X102221786Y-55889707D01*
X102110292Y-55778213D01*
X102110288Y-55778210D01*
X101979185Y-55690609D01*
X101979172Y-55690602D01*
X101833501Y-55630264D01*
X101833489Y-55630261D01*
X101678845Y-55599500D01*
X101678842Y-55599500D01*
X101521158Y-55599500D01*
X101521155Y-55599500D01*
X101366510Y-55630261D01*
X101366498Y-55630264D01*
X101220827Y-55690602D01*
X101220814Y-55690609D01*
X101089711Y-55778210D01*
X101089707Y-55778213D01*
X100978213Y-55889707D01*
X100978210Y-55889711D01*
X100890609Y-56020814D01*
X100890602Y-56020827D01*
X100830264Y-56166498D01*
X100830261Y-56166510D01*
X100799500Y-56321153D01*
X93050499Y-56321153D01*
X93050499Y-56102128D01*
X93044091Y-56042517D01*
X93039324Y-56029737D01*
X92993797Y-55907671D01*
X92993793Y-55907664D01*
X92907547Y-55792455D01*
X92907544Y-55792452D01*
X92792335Y-55706206D01*
X92792328Y-55706202D01*
X92657482Y-55655908D01*
X92657483Y-55655908D01*
X92597883Y-55649501D01*
X92597881Y-55649500D01*
X92597873Y-55649500D01*
X92597864Y-55649500D01*
X90802129Y-55649500D01*
X90802123Y-55649501D01*
X90742515Y-55655909D01*
X90619794Y-55701680D01*
X90550102Y-55706664D01*
X90488780Y-55673178D01*
X90455295Y-55611855D01*
X90452491Y-55582879D01*
X90461038Y-55181153D01*
X115999500Y-55181153D01*
X115999500Y-55338846D01*
X116030261Y-55493489D01*
X116030264Y-55493501D01*
X116090602Y-55639172D01*
X116090609Y-55639185D01*
X116178210Y-55770288D01*
X116178213Y-55770292D01*
X116289707Y-55881786D01*
X116289711Y-55881789D01*
X116420814Y-55969390D01*
X116420827Y-55969397D01*
X116544992Y-56020827D01*
X116566503Y-56029737D01*
X116721153Y-56060499D01*
X116721156Y-56060500D01*
X116721158Y-56060500D01*
X116878844Y-56060500D01*
X116878845Y-56060499D01*
X117033497Y-56029737D01*
X117179179Y-55969394D01*
X117310289Y-55881789D01*
X117421789Y-55770289D01*
X117509394Y-55639179D01*
X117569737Y-55493497D01*
X117600500Y-55338842D01*
X117600500Y-55181158D01*
X117600500Y-55181155D01*
X117600499Y-55181153D01*
X117569738Y-55026510D01*
X117569737Y-55026503D01*
X117569735Y-55026498D01*
X117509397Y-54880827D01*
X117509390Y-54880814D01*
X117422482Y-54750747D01*
X117401604Y-54684069D01*
X117420089Y-54616689D01*
X117437899Y-54594178D01*
X117531789Y-54500289D01*
X117619394Y-54369179D01*
X117679737Y-54223497D01*
X117710500Y-54068842D01*
X117710500Y-53911158D01*
X117710500Y-53911155D01*
X117710499Y-53911153D01*
X117679737Y-53756503D01*
X117660224Y-53709394D01*
X117619397Y-53610827D01*
X117619390Y-53610814D01*
X117531789Y-53479711D01*
X117531786Y-53479707D01*
X117420292Y-53368213D01*
X117420288Y-53368210D01*
X117289185Y-53280609D01*
X117289172Y-53280602D01*
X117143501Y-53220264D01*
X117143489Y-53220261D01*
X116988845Y-53189500D01*
X116988842Y-53189500D01*
X116831158Y-53189500D01*
X116831155Y-53189500D01*
X116676510Y-53220261D01*
X116676498Y-53220264D01*
X116530827Y-53280602D01*
X116530814Y-53280609D01*
X116399711Y-53368210D01*
X116399707Y-53368213D01*
X116288213Y-53479707D01*
X116288210Y-53479711D01*
X116200609Y-53610814D01*
X116200602Y-53610827D01*
X116140264Y-53756498D01*
X116140261Y-53756510D01*
X116109500Y-53911153D01*
X116109500Y-54068846D01*
X116140261Y-54223489D01*
X116140264Y-54223501D01*
X116200602Y-54369172D01*
X116200609Y-54369185D01*
X116287518Y-54499252D01*
X116308396Y-54565929D01*
X116289912Y-54633309D01*
X116272097Y-54655824D01*
X116178213Y-54749707D01*
X116178210Y-54749711D01*
X116090609Y-54880814D01*
X116090602Y-54880827D01*
X116030264Y-55026498D01*
X116030261Y-55026510D01*
X115999500Y-55181153D01*
X90461038Y-55181153D01*
X90542634Y-51346154D01*
X130599499Y-51346154D01*
X130599499Y-51503847D01*
X130630260Y-51658490D01*
X130630263Y-51658502D01*
X130690601Y-51804173D01*
X130690608Y-51804186D01*
X130778209Y-51935289D01*
X130778212Y-51935293D01*
X130889706Y-52046787D01*
X130889710Y-52046790D01*
X131020813Y-52134391D01*
X131020826Y-52134398D01*
X131166497Y-52194736D01*
X131166502Y-52194738D01*
X131321152Y-52225500D01*
X131321155Y-52225501D01*
X131321157Y-52225501D01*
X131478843Y-52225501D01*
X131478844Y-52225500D01*
X131633496Y-52194738D01*
X131779178Y-52134395D01*
X131910288Y-52046790D01*
X132021788Y-51935290D01*
X132109393Y-51804180D01*
X132169736Y-51658498D01*
X132191951Y-51546818D01*
X132224336Y-51484907D01*
X132285051Y-51450333D01*
X132354821Y-51454072D01*
X132401249Y-51483328D01*
X132439707Y-51521786D01*
X132439711Y-51521789D01*
X132570814Y-51609390D01*
X132570827Y-51609397D01*
X132689350Y-51658490D01*
X132716503Y-51669737D01*
X132871153Y-51700499D01*
X132871156Y-51700500D01*
X132871158Y-51700500D01*
X132892098Y-51700500D01*
X132959137Y-51720185D01*
X133004892Y-51772989D01*
X133013715Y-51800308D01*
X133030261Y-51883491D01*
X133030264Y-51883501D01*
X133090602Y-52029172D01*
X133090609Y-52029185D01*
X133178210Y-52160288D01*
X133178213Y-52160292D01*
X133289707Y-52271786D01*
X133289711Y-52271789D01*
X133420814Y-52359390D01*
X133420827Y-52359397D01*
X133563905Y-52418661D01*
X133566503Y-52419737D01*
X133694267Y-52445151D01*
X133721153Y-52450499D01*
X133721156Y-52450500D01*
X133721158Y-52450500D01*
X133878844Y-52450500D01*
X133878845Y-52450499D01*
X134033497Y-52419737D01*
X134179179Y-52359394D01*
X134310289Y-52271789D01*
X134421789Y-52160289D01*
X134509394Y-52029179D01*
X134569737Y-51883497D01*
X134600500Y-51728842D01*
X134600500Y-51571158D01*
X134600500Y-51571155D01*
X134600499Y-51571153D01*
X134569738Y-51416510D01*
X134569737Y-51416503D01*
X134512856Y-51279179D01*
X134509397Y-51270827D01*
X134509390Y-51270814D01*
X134421789Y-51139711D01*
X134421786Y-51139707D01*
X134310292Y-51028213D01*
X134310288Y-51028210D01*
X134179185Y-50940609D01*
X134179172Y-50940602D01*
X134033501Y-50880264D01*
X134033489Y-50880261D01*
X133878845Y-50849500D01*
X133878842Y-50849500D01*
X133857902Y-50849500D01*
X133790863Y-50829815D01*
X133745108Y-50777011D01*
X133736285Y-50749692D01*
X133719738Y-50666508D01*
X133719737Y-50666507D01*
X133719737Y-50666503D01*
X133715081Y-50655262D01*
X133659397Y-50520827D01*
X133659390Y-50520814D01*
X133571789Y-50389711D01*
X133571786Y-50389707D01*
X133460292Y-50278213D01*
X133460288Y-50278210D01*
X133329185Y-50190609D01*
X133329172Y-50190602D01*
X133183501Y-50130264D01*
X133183489Y-50130261D01*
X133028845Y-50099500D01*
X133028842Y-50099500D01*
X132871158Y-50099500D01*
X132871155Y-50099500D01*
X132716510Y-50130261D01*
X132716498Y-50130264D01*
X132570827Y-50190602D01*
X132570814Y-50190609D01*
X132439711Y-50278210D01*
X132439707Y-50278213D01*
X132328213Y-50389707D01*
X132328210Y-50389711D01*
X132240609Y-50520814D01*
X132240602Y-50520827D01*
X132180264Y-50666498D01*
X132180261Y-50666508D01*
X132158047Y-50778183D01*
X132125661Y-50840094D01*
X132064945Y-50874668D01*
X131995176Y-50870927D01*
X131948749Y-50841672D01*
X131910291Y-50803214D01*
X131910287Y-50803211D01*
X131779184Y-50715610D01*
X131779171Y-50715603D01*
X131633500Y-50655265D01*
X131633488Y-50655262D01*
X131478844Y-50624501D01*
X131478841Y-50624501D01*
X131321157Y-50624501D01*
X131321154Y-50624501D01*
X131166509Y-50655262D01*
X131166497Y-50655265D01*
X131020826Y-50715603D01*
X131020813Y-50715610D01*
X130889710Y-50803211D01*
X130889706Y-50803214D01*
X130778212Y-50914708D01*
X130778209Y-50914712D01*
X130690608Y-51045815D01*
X130690601Y-51045828D01*
X130630263Y-51191499D01*
X130630260Y-51191511D01*
X130599499Y-51346154D01*
X90542634Y-51346154D01*
X90599415Y-48677473D01*
X90620521Y-48610870D01*
X90674287Y-48566248D01*
X90743641Y-48557778D01*
X90797699Y-48580847D01*
X90907910Y-48663352D01*
X90907913Y-48663354D01*
X91042620Y-48713596D01*
X91042627Y-48713598D01*
X91102155Y-48719999D01*
X91102172Y-48720000D01*
X91750000Y-48720000D01*
X91750000Y-47803012D01*
X91807007Y-47835925D01*
X91934174Y-47870000D01*
X92065826Y-47870000D01*
X92192993Y-47835925D01*
X92250000Y-47803012D01*
X92250000Y-48720000D01*
X92897828Y-48720000D01*
X92897844Y-48719999D01*
X92957372Y-48713598D01*
X92957379Y-48713596D01*
X93092086Y-48663354D01*
X93092093Y-48663350D01*
X93207187Y-48577190D01*
X93207190Y-48577187D01*
X93293350Y-48462093D01*
X93293354Y-48462086D01*
X93343596Y-48327379D01*
X93343598Y-48327372D01*
X93349999Y-48267844D01*
X93350000Y-48267827D01*
X93350000Y-47620000D01*
X92433012Y-47620000D01*
X92465925Y-47562993D01*
X92500000Y-47435826D01*
X92500000Y-47304174D01*
X92465925Y-47177007D01*
X92433012Y-47120000D01*
X93350000Y-47120000D01*
X93350000Y-46971153D01*
X101799499Y-46971153D01*
X101799499Y-47128846D01*
X101830260Y-47283489D01*
X101830263Y-47283501D01*
X101890601Y-47429172D01*
X101890608Y-47429185D01*
X101978209Y-47560288D01*
X101978212Y-47560292D01*
X102089706Y-47671786D01*
X102089712Y-47671791D01*
X102089872Y-47671898D01*
X102089936Y-47671975D01*
X102094418Y-47675653D01*
X102093720Y-47676502D01*
X102134676Y-47725510D01*
X102143383Y-47794836D01*
X102113228Y-47857863D01*
X102094330Y-47874239D01*
X102094418Y-47874346D01*
X102090446Y-47877605D01*
X102089886Y-47878091D01*
X102089716Y-47878204D01*
X102089706Y-47878212D01*
X101978212Y-47989706D01*
X101978209Y-47989710D01*
X101890608Y-48120813D01*
X101890601Y-48120826D01*
X101830263Y-48266497D01*
X101830260Y-48266509D01*
X101799499Y-48421152D01*
X101799499Y-48578845D01*
X101830260Y-48733488D01*
X101830263Y-48733500D01*
X101890601Y-48879171D01*
X101890608Y-48879184D01*
X101978209Y-49010287D01*
X101978212Y-49010291D01*
X102089706Y-49121785D01*
X102089710Y-49121788D01*
X102220813Y-49209389D01*
X102220826Y-49209396D01*
X102366497Y-49269734D01*
X102366502Y-49269736D01*
X102521152Y-49300498D01*
X102521155Y-49300499D01*
X102521157Y-49300499D01*
X102678843Y-49300499D01*
X102678844Y-49300498D01*
X102833496Y-49269736D01*
X102979178Y-49209393D01*
X103073823Y-49146153D01*
X127649500Y-49146153D01*
X127649500Y-49303846D01*
X127680261Y-49458489D01*
X127680264Y-49458501D01*
X127740602Y-49604172D01*
X127740609Y-49604185D01*
X127828210Y-49735288D01*
X127828213Y-49735292D01*
X127939707Y-49846786D01*
X127939711Y-49846789D01*
X128070814Y-49934390D01*
X128070827Y-49934397D01*
X128216498Y-49994735D01*
X128216503Y-49994737D01*
X128371153Y-50025499D01*
X128371156Y-50025500D01*
X128371158Y-50025500D01*
X128528844Y-50025500D01*
X128528845Y-50025499D01*
X128683497Y-49994737D01*
X128829179Y-49934394D01*
X128960289Y-49846789D01*
X129071789Y-49735289D01*
X129159394Y-49604179D01*
X129219737Y-49458497D01*
X129250500Y-49303842D01*
X129250500Y-49146158D01*
X129250500Y-49146155D01*
X129250499Y-49146153D01*
X129223474Y-49010291D01*
X129219737Y-48991503D01*
X129219735Y-48991498D01*
X129159397Y-48845827D01*
X129159390Y-48845814D01*
X129071789Y-48714711D01*
X129071786Y-48714707D01*
X128960292Y-48603213D01*
X128960288Y-48603210D01*
X128829185Y-48515609D01*
X128829172Y-48515602D01*
X128683501Y-48455264D01*
X128683489Y-48455261D01*
X128528845Y-48424500D01*
X128528842Y-48424500D01*
X128371158Y-48424500D01*
X128371155Y-48424500D01*
X128216510Y-48455261D01*
X128216498Y-48455264D01*
X128070827Y-48515602D01*
X128070814Y-48515609D01*
X127939711Y-48603210D01*
X127939707Y-48603213D01*
X127828213Y-48714707D01*
X127828210Y-48714711D01*
X127740609Y-48845814D01*
X127740602Y-48845827D01*
X127680264Y-48991498D01*
X127680261Y-48991510D01*
X127649500Y-49146153D01*
X103073823Y-49146153D01*
X103110288Y-49121788D01*
X103110291Y-49121785D01*
X103179692Y-49052385D01*
X103221785Y-49010291D01*
X103221788Y-49010288D01*
X103309393Y-48879178D01*
X103369736Y-48733496D01*
X103400499Y-48578841D01*
X103400499Y-48421157D01*
X103400499Y-48421154D01*
X103400498Y-48421152D01*
X103370003Y-48267844D01*
X103369736Y-48266502D01*
X103355070Y-48231095D01*
X103309393Y-48120819D01*
X103277712Y-48073406D01*
X129547247Y-48073406D01*
X129547247Y-48231099D01*
X129578008Y-48385742D01*
X129578011Y-48385754D01*
X129638349Y-48531425D01*
X129638356Y-48531438D01*
X129725957Y-48662541D01*
X129725960Y-48662545D01*
X129837454Y-48774039D01*
X129837458Y-48774042D01*
X129968561Y-48861643D01*
X129968574Y-48861650D01*
X130114245Y-48921988D01*
X130114250Y-48921990D01*
X130268900Y-48952752D01*
X130268903Y-48952753D01*
X130268905Y-48952753D01*
X130426591Y-48952753D01*
X130426592Y-48952752D01*
X130581244Y-48921990D01*
X130726926Y-48861647D01*
X130858036Y-48774042D01*
X130969536Y-48662542D01*
X131057141Y-48531432D01*
X131117484Y-48385750D01*
X131148247Y-48231095D01*
X131148247Y-48073411D01*
X131148247Y-48073408D01*
X131148246Y-48073406D01*
X131117485Y-47918763D01*
X131117484Y-47918756D01*
X131100690Y-47878212D01*
X131057144Y-47773080D01*
X131057137Y-47773067D01*
X130969536Y-47641964D01*
X130969533Y-47641960D01*
X130858039Y-47530466D01*
X130858035Y-47530463D01*
X130726932Y-47442862D01*
X130726919Y-47442855D01*
X130581248Y-47382517D01*
X130581236Y-47382514D01*
X130426592Y-47351753D01*
X130426589Y-47351753D01*
X130268905Y-47351753D01*
X130268902Y-47351753D01*
X130114257Y-47382514D01*
X130114245Y-47382517D01*
X129968574Y-47442855D01*
X129968561Y-47442862D01*
X129837458Y-47530463D01*
X129837454Y-47530466D01*
X129725960Y-47641960D01*
X129725957Y-47641964D01*
X129638356Y-47773067D01*
X129638349Y-47773080D01*
X129578011Y-47918751D01*
X129578008Y-47918763D01*
X129547247Y-48073406D01*
X103277712Y-48073406D01*
X103221788Y-47989710D01*
X103221785Y-47989706D01*
X103110291Y-47878212D01*
X103110285Y-47878207D01*
X103110120Y-47878097D01*
X103110053Y-47878016D01*
X103105580Y-47874346D01*
X103106276Y-47873497D01*
X103065318Y-47824483D01*
X103056615Y-47755157D01*
X103086773Y-47692131D01*
X103105668Y-47675760D01*
X103105580Y-47675653D01*
X103109615Y-47672341D01*
X103110134Y-47671892D01*
X103110289Y-47671788D01*
X103221785Y-47560292D01*
X103221788Y-47560289D01*
X103309393Y-47429179D01*
X103369736Y-47283497D01*
X103400499Y-47128842D01*
X103400499Y-46971158D01*
X103400499Y-46971155D01*
X103400498Y-46971153D01*
X103369737Y-46816510D01*
X103369736Y-46816503D01*
X103369734Y-46816498D01*
X103309396Y-46670827D01*
X103309389Y-46670814D01*
X103221788Y-46539711D01*
X103221785Y-46539707D01*
X103110291Y-46428213D01*
X103110287Y-46428210D01*
X102979184Y-46340609D01*
X102979171Y-46340602D01*
X102833500Y-46280264D01*
X102833488Y-46280261D01*
X102678844Y-46249500D01*
X102678841Y-46249500D01*
X102521157Y-46249500D01*
X102521154Y-46249500D01*
X102366509Y-46280261D01*
X102366497Y-46280264D01*
X102220826Y-46340602D01*
X102220813Y-46340609D01*
X102089710Y-46428210D01*
X102089706Y-46428213D01*
X101978212Y-46539707D01*
X101978209Y-46539711D01*
X101890608Y-46670814D01*
X101890601Y-46670827D01*
X101830263Y-46816498D01*
X101830260Y-46816510D01*
X101799499Y-46971153D01*
X93350000Y-46971153D01*
X93350000Y-46472172D01*
X93349999Y-46472155D01*
X93343598Y-46412627D01*
X93343596Y-46412620D01*
X93293354Y-46277913D01*
X93293350Y-46277906D01*
X93207190Y-46162812D01*
X93207187Y-46162809D01*
X93092093Y-46076649D01*
X93092088Y-46076646D01*
X92960528Y-46027577D01*
X92904595Y-45985705D01*
X92880178Y-45920241D01*
X92895030Y-45851968D01*
X92916175Y-45823720D01*
X93030104Y-45709792D01*
X93155051Y-45537816D01*
X93251557Y-45348412D01*
X93260414Y-45321153D01*
X104999500Y-45321153D01*
X104999500Y-45478846D01*
X105030261Y-45633489D01*
X105030264Y-45633501D01*
X105090602Y-45779172D01*
X105090609Y-45779185D01*
X105178210Y-45910288D01*
X105178213Y-45910292D01*
X105289707Y-46021786D01*
X105289711Y-46021789D01*
X105420814Y-46109390D01*
X105420827Y-46109397D01*
X105549777Y-46162809D01*
X105566503Y-46169737D01*
X105721153Y-46200499D01*
X105721156Y-46200500D01*
X105721158Y-46200500D01*
X105878844Y-46200500D01*
X105878845Y-46200499D01*
X106033497Y-46169737D01*
X106179179Y-46109394D01*
X106310289Y-46021789D01*
X106421789Y-45910289D01*
X106509394Y-45779179D01*
X106569737Y-45633497D01*
X106600500Y-45478842D01*
X106600500Y-45321158D01*
X106600500Y-45321155D01*
X106600499Y-45321153D01*
X106569738Y-45166510D01*
X106569737Y-45166503D01*
X106539075Y-45092477D01*
X106509397Y-45020827D01*
X106509390Y-45020814D01*
X106421789Y-44889711D01*
X106421786Y-44889707D01*
X106310292Y-44778213D01*
X106310288Y-44778210D01*
X106179185Y-44690609D01*
X106179172Y-44690602D01*
X106033501Y-44630264D01*
X106033489Y-44630261D01*
X105878845Y-44599500D01*
X105878842Y-44599500D01*
X105721158Y-44599500D01*
X105721155Y-44599500D01*
X105566510Y-44630261D01*
X105566498Y-44630264D01*
X105420827Y-44690602D01*
X105420814Y-44690609D01*
X105289711Y-44778210D01*
X105289707Y-44778213D01*
X105178213Y-44889707D01*
X105178210Y-44889711D01*
X105090609Y-45020814D01*
X105090602Y-45020827D01*
X105030264Y-45166498D01*
X105030261Y-45166510D01*
X104999500Y-45321153D01*
X93260414Y-45321153D01*
X93317246Y-45146243D01*
X93350500Y-44936287D01*
X93350500Y-44723713D01*
X93317246Y-44513757D01*
X93251557Y-44311588D01*
X93167797Y-44147200D01*
X93154902Y-44078534D01*
X93181178Y-44013794D01*
X93195111Y-43998940D01*
X93281148Y-43921153D01*
X112099500Y-43921153D01*
X112099500Y-44078846D01*
X112130261Y-44233489D01*
X112130264Y-44233501D01*
X112190602Y-44379172D01*
X112190609Y-44379185D01*
X112278210Y-44510288D01*
X112278213Y-44510292D01*
X112389707Y-44621786D01*
X112389711Y-44621789D01*
X112520814Y-44709390D01*
X112520827Y-44709397D01*
X112617646Y-44749500D01*
X112666503Y-44769737D01*
X112821153Y-44800499D01*
X112821156Y-44800500D01*
X112821158Y-44800500D01*
X112978844Y-44800500D01*
X112978845Y-44800499D01*
X113133497Y-44769737D01*
X113279179Y-44709394D01*
X113410289Y-44621789D01*
X113521789Y-44510289D01*
X113609394Y-44379179D01*
X113669737Y-44233497D01*
X113700500Y-44078842D01*
X113700500Y-43921158D01*
X113700500Y-43921155D01*
X113700499Y-43921153D01*
X113669738Y-43766510D01*
X113669737Y-43766503D01*
X113646080Y-43709390D01*
X113609397Y-43620827D01*
X113609390Y-43620814D01*
X113521789Y-43489711D01*
X113521786Y-43489707D01*
X113410292Y-43378213D01*
X113410288Y-43378210D01*
X113279185Y-43290609D01*
X113279172Y-43290602D01*
X113133501Y-43230264D01*
X113133489Y-43230261D01*
X112978845Y-43199500D01*
X112978842Y-43199500D01*
X112821158Y-43199500D01*
X112821155Y-43199500D01*
X112666510Y-43230261D01*
X112666498Y-43230264D01*
X112520827Y-43290602D01*
X112520814Y-43290609D01*
X112389711Y-43378210D01*
X112389707Y-43378213D01*
X112278213Y-43489707D01*
X112278210Y-43489711D01*
X112190609Y-43620814D01*
X112190602Y-43620827D01*
X112130264Y-43766498D01*
X112130261Y-43766510D01*
X112099500Y-43921153D01*
X93281148Y-43921153D01*
X94890466Y-42466153D01*
X124012001Y-42466153D01*
X124012001Y-42623846D01*
X124042762Y-42778489D01*
X124042765Y-42778501D01*
X124103103Y-42924172D01*
X124103110Y-42924185D01*
X124190711Y-43055288D01*
X124190714Y-43055292D01*
X124302208Y-43166786D01*
X124302212Y-43166789D01*
X124433315Y-43254390D01*
X124433328Y-43254397D01*
X124520746Y-43290606D01*
X124579004Y-43314737D01*
X124733654Y-43345499D01*
X124733657Y-43345500D01*
X124733659Y-43345500D01*
X124891345Y-43345500D01*
X124891346Y-43345499D01*
X125045998Y-43314737D01*
X125191680Y-43254394D01*
X125322790Y-43166789D01*
X125434290Y-43055289D01*
X125521895Y-42924179D01*
X125521896Y-42924176D01*
X125521898Y-42924173D01*
X125523149Y-42921153D01*
X133149500Y-42921153D01*
X133149500Y-43078846D01*
X133180261Y-43233489D01*
X133180264Y-43233501D01*
X133240602Y-43379172D01*
X133240609Y-43379185D01*
X133328210Y-43510288D01*
X133328213Y-43510292D01*
X133439707Y-43621786D01*
X133439711Y-43621789D01*
X133570814Y-43709390D01*
X133570827Y-43709397D01*
X133708683Y-43766498D01*
X133716503Y-43769737D01*
X133868122Y-43799896D01*
X133871153Y-43800499D01*
X133871156Y-43800500D01*
X133871158Y-43800500D01*
X134028844Y-43800500D01*
X134028845Y-43800499D01*
X134183497Y-43769737D01*
X134329179Y-43709394D01*
X134460289Y-43621789D01*
X134571789Y-43510289D01*
X134659394Y-43379179D01*
X134719737Y-43233497D01*
X134750500Y-43078842D01*
X134750500Y-42921158D01*
X134750500Y-42921155D01*
X134750499Y-42921153D01*
X134728073Y-42808413D01*
X134719737Y-42766503D01*
X134660647Y-42623846D01*
X134659397Y-42620827D01*
X134659390Y-42620814D01*
X134571789Y-42489711D01*
X134571786Y-42489707D01*
X134460292Y-42378213D01*
X134460288Y-42378210D01*
X134329185Y-42290609D01*
X134329172Y-42290602D01*
X134183501Y-42230264D01*
X134183489Y-42230261D01*
X134028845Y-42199500D01*
X134028842Y-42199500D01*
X133871158Y-42199500D01*
X133871155Y-42199500D01*
X133716510Y-42230261D01*
X133716498Y-42230264D01*
X133570827Y-42290602D01*
X133570814Y-42290609D01*
X133439711Y-42378210D01*
X133439707Y-42378213D01*
X133328213Y-42489707D01*
X133328210Y-42489711D01*
X133240609Y-42620814D01*
X133240602Y-42620827D01*
X133180264Y-42766498D01*
X133180261Y-42766510D01*
X133149500Y-42921153D01*
X125523149Y-42921153D01*
X125545325Y-42867614D01*
X125582236Y-42778501D01*
X125582238Y-42778497D01*
X125613001Y-42623842D01*
X125613001Y-42466158D01*
X125613001Y-42466155D01*
X125613000Y-42466153D01*
X125599103Y-42396288D01*
X125582238Y-42311503D01*
X125582236Y-42311498D01*
X125521898Y-42165827D01*
X125521891Y-42165814D01*
X125434290Y-42034711D01*
X125434287Y-42034707D01*
X125322793Y-41923213D01*
X125322789Y-41923210D01*
X125191686Y-41835609D01*
X125191673Y-41835602D01*
X125046002Y-41775264D01*
X125045990Y-41775261D01*
X124891346Y-41744500D01*
X124891343Y-41744500D01*
X124733659Y-41744500D01*
X124733656Y-41744500D01*
X124579011Y-41775261D01*
X124578999Y-41775264D01*
X124433328Y-41835602D01*
X124433315Y-41835609D01*
X124302212Y-41923210D01*
X124302208Y-41923213D01*
X124190714Y-42034707D01*
X124190711Y-42034711D01*
X124103110Y-42165814D01*
X124103103Y-42165827D01*
X124042765Y-42311498D01*
X124042762Y-42311510D01*
X124012001Y-42466153D01*
X94890466Y-42466153D01*
X97926603Y-39721153D01*
X101799500Y-39721153D01*
X101799500Y-39878846D01*
X101830261Y-40033489D01*
X101830264Y-40033501D01*
X101890602Y-40179172D01*
X101890609Y-40179185D01*
X101978210Y-40310288D01*
X101978213Y-40310292D01*
X102089707Y-40421786D01*
X102089711Y-40421789D01*
X102220814Y-40509390D01*
X102220827Y-40509397D01*
X102366498Y-40569735D01*
X102366503Y-40569737D01*
X102521153Y-40600499D01*
X102521156Y-40600500D01*
X102521158Y-40600500D01*
X102678844Y-40600500D01*
X102678845Y-40600499D01*
X102833497Y-40569737D01*
X102979179Y-40509394D01*
X103110289Y-40421789D01*
X103221789Y-40310289D01*
X103309394Y-40179179D01*
X103369737Y-40033497D01*
X103400500Y-39878842D01*
X103400500Y-39721158D01*
X103400500Y-39721155D01*
X103400499Y-39721153D01*
X103369738Y-39566510D01*
X103369737Y-39566503D01*
X103369735Y-39566498D01*
X103309397Y-39420827D01*
X103309390Y-39420814D01*
X103221789Y-39289711D01*
X103221786Y-39289707D01*
X103110292Y-39178213D01*
X103110288Y-39178210D01*
X102979185Y-39090609D01*
X102979172Y-39090602D01*
X102833501Y-39030264D01*
X102833489Y-39030261D01*
X102678845Y-38999500D01*
X102678842Y-38999500D01*
X102521158Y-38999500D01*
X102521155Y-38999500D01*
X102366510Y-39030261D01*
X102366498Y-39030264D01*
X102220827Y-39090602D01*
X102220814Y-39090609D01*
X102089711Y-39178210D01*
X102089707Y-39178213D01*
X101978213Y-39289707D01*
X101978210Y-39289711D01*
X101890609Y-39420814D01*
X101890602Y-39420827D01*
X101830264Y-39566498D01*
X101830261Y-39566510D01*
X101799500Y-39721153D01*
X97926603Y-39721153D01*
X101563622Y-36432889D01*
X101626548Y-36402532D01*
X101649027Y-36400891D01*
X115350000Y-36650000D01*
X120572818Y-33715273D01*
X120631174Y-33699400D01*
X120914851Y-33693945D01*
X120982256Y-33712337D01*
G37*
%TD.AperFunction*%
%TA.AperFunction,Conductor*%
G36*
X90591300Y-58281542D02*
G01*
X90607668Y-58293795D01*
X90607671Y-58293797D01*
X90652618Y-58310561D01*
X90742517Y-58344091D01*
X90802127Y-58350500D01*
X90812685Y-58350499D01*
X90879723Y-58370179D01*
X90900372Y-58386818D01*
X91570591Y-59057037D01*
X91507007Y-59074075D01*
X91392993Y-59139901D01*
X91299901Y-59232993D01*
X91234075Y-59347007D01*
X91217037Y-59410591D01*
X90584728Y-58778282D01*
X90561602Y-58780102D01*
X90555840Y-58784546D01*
X90486227Y-58790522D01*
X90424433Y-58757914D01*
X90390078Y-58697073D01*
X90386885Y-58666364D01*
X90393017Y-58378165D01*
X90414122Y-58311565D01*
X90467887Y-58266944D01*
X90537242Y-58258473D01*
X90591300Y-58281542D01*
G37*
%TD.AperFunction*%
%TA.AperFunction,Conductor*%
G36*
X132059102Y-33499320D02*
G01*
X132105864Y-33551234D01*
X132117135Y-33620189D01*
X132089338Y-33684291D01*
X132032400Y-33722836D01*
X131936781Y-33753905D01*
X131747439Y-33850380D01*
X131693282Y-33889727D01*
X131693282Y-33889728D01*
X132325591Y-34522037D01*
X132262007Y-34539075D01*
X132147993Y-34604901D01*
X132054901Y-34697993D01*
X131989075Y-34812007D01*
X131972037Y-34875591D01*
X131339728Y-34243282D01*
X131339727Y-34243282D01*
X131300380Y-34297440D01*
X131300376Y-34297446D01*
X131295760Y-34306505D01*
X131247781Y-34357297D01*
X131179959Y-34374087D01*
X131113826Y-34351543D01*
X131074794Y-34306493D01*
X131070051Y-34297184D01*
X131070049Y-34297181D01*
X131070048Y-34297179D01*
X130945109Y-34125213D01*
X130794786Y-33974890D01*
X130622820Y-33849951D01*
X130433416Y-33753445D01*
X130433415Y-33753444D01*
X130433412Y-33753443D01*
X130429544Y-33752186D01*
X130371871Y-33712751D01*
X130344671Y-33648393D01*
X130356585Y-33579546D01*
X130403828Y-33528070D01*
X130465478Y-33510279D01*
X131991700Y-33480928D01*
X132059102Y-33499320D01*
G37*
%TD.AperFunction*%
%TA.AperFunction,Conductor*%
G36*
X133541021Y-33470822D02*
G01*
X133587783Y-33522736D01*
X133600000Y-33576407D01*
X133600000Y-34208333D01*
X133590613Y-34222939D01*
X132937962Y-34875590D01*
X132920925Y-34812007D01*
X132855099Y-34697993D01*
X132762007Y-34604901D01*
X132647993Y-34539075D01*
X132584409Y-34522037D01*
X133216716Y-33889728D01*
X133162550Y-33850375D01*
X132973218Y-33753905D01*
X132826088Y-33706099D01*
X132768413Y-33666661D01*
X132741215Y-33602303D01*
X132753130Y-33533456D01*
X132800374Y-33481981D01*
X132862019Y-33464191D01*
X133473617Y-33452430D01*
X133541021Y-33470822D01*
G37*
%TD.AperFunction*%
%TD*%
M02*
