M48
; DRILL file KiCad 10.0.3 date 2026-06-20T18:51:00
; FORMAT={-:-/ absolute / metric / decimal}
; #@! TF.CreationDate,2026-06-20T18:51:00-04:00
; #@! TF.GenerationSoftware,Kicad,Pcbnew,10.0.3
; #@! TF.FileFunction,Plated,1,4,PTH
FMAT,2
METRIC
; #@! TA.AperFunction,Plated,PTH,ViaDrill
T1C0.300
; #@! TA.AperFunction,Plated,PTH,ComponentDrill
T2C1.000
%
G90
G05
T1
X101.6Y-56.4
X101.8Y-64.287
X102.6Y-47.05
X102.6Y-48.5
X102.6Y-39.8
X105.5Y-32.8
X105.8Y-45.4
X106.4Y-57.8
X107.2Y-61.887
X110.6Y-44.15
X110.6Y-45.3
X112.9Y-44.0
X116.8Y-55.26
X116.91Y-53.99
X124.813Y-42.545
X128.45Y-49.225
X130.15Y-51.45
X130.348Y-48.152
X130.6Y-54.25
X131.4Y-51.425
X132.95Y-50.9
X133.2Y-58.15
X133.8Y-51.65
X133.95Y-43.0
X135.05Y-53.0
X136.6Y-46.825
X136.65Y-45.55
X138.4Y-38.5
T2
X91.7Y-57.0
X91.7Y-59.54
X91.7Y-62.08
X91.7Y-64.62
X91.7Y-67.16
X91.7Y-69.7
X91.7Y-72.24
X91.7Y-74.78
X92.0Y-37.21
X92.0Y-39.75
X92.0Y-42.29
X92.0Y-44.83
X92.0Y-47.37
X103.8Y-74.8
X106.34Y-74.8
X108.46Y-35.0
X111.0Y-35.0
X120.52Y-74.8
X122.295Y-35.005
X123.06Y-74.8
X124.835Y-35.005
X125.6Y-74.8
X127.375Y-35.005
X128.14Y-74.8
X129.915Y-35.005
X130.68Y-74.8
X132.455Y-35.005
X134.995Y-35.005
M30
