%TF.GenerationSoftware,KiCad,Pcbnew,10.0.3*%
%TF.CreationDate,2026-06-20T21:24:58-04:00*%
%TF.ProjectId,SpyderDumbKeyboard,53707964-6572-4447-956d-624b6579626f,rev?*%
%TF.SameCoordinates,Original*%
%TF.FileFunction,Legend,Top*%
%TF.FilePolarity,Positive*%
%FSLAX46Y46*%
G04 Gerber Fmt 4.6, Leading zero omitted, Abs format (unit mm)*
G04 Created by KiCad (PCBNEW 10.0.3) date 2026-06-20 21:24:58*
%MOMM*%
%LPD*%
G01*
G04 APERTURE LIST*
G04 Aperture macros list*
%AMRoundRect*
0 Rectangle with rounded corners*
0 $1 Rounding radius*
0 $2 $3 $4 $5 $6 $7 $8 $9 X,Y pos of 4 corners*
0 Add a 4 corners polygon primitive as box body*
4,1,4,$2,$3,$4,$5,$6,$7,$8,$9,$2,$3,0*
0 Add four circle primitives for the rounded corners*
1,1,$1+$1,$2,$3*
1,1,$1+$1,$4,$5*
1,1,$1+$1,$6,$7*
1,1,$1+$1,$8,$9*
0 Add four rect primitives between the rounded corners*
20,1,$1+$1,$2,$3,$4,$5,0*
20,1,$1+$1,$4,$5,$6,$7,0*
20,1,$1+$1,$6,$7,$8,$9,0*
20,1,$1+$1,$8,$9,$2,$3,0*%
G04 Aperture macros list end*
%ADD10C,0.100000*%
%ADD11C,0.300000*%
%ADD12C,0.120000*%
%ADD13C,0.000000*%
%ADD14RoundRect,0.112500X-0.187500X-0.112500X0.187500X-0.112500X0.187500X0.112500X-0.187500X0.112500X0*%
%ADD15RoundRect,0.185860X-0.502206X-0.433672X0.502206X-0.433672X0.502206X0.433672X-0.502206X0.433672X0*%
%ADD16R,1.700000X1.700000*%
%ADD17C,1.700000*%
G04 APERTURE END LIST*
D10*
X92654649Y-42501503D02*
X92654649Y-43306265D01*
X92654649Y-43306265D02*
X92045125Y-42872931D01*
X92045125Y-42872931D02*
X92045125Y-43058646D01*
X92045125Y-43058646D02*
X91968935Y-43182455D01*
X91968935Y-43182455D02*
X91892744Y-43244360D01*
X91892744Y-43244360D02*
X91740363Y-43306265D01*
X91740363Y-43306265D02*
X91359411Y-43306265D01*
X91359411Y-43306265D02*
X91207030Y-43244360D01*
X91207030Y-43244360D02*
X91130840Y-43182455D01*
X91130840Y-43182455D02*
X91054649Y-43058646D01*
X91054649Y-43058646D02*
X91054649Y-42687217D01*
X91054649Y-42687217D02*
X91130840Y-42563408D01*
X91130840Y-42563408D02*
X91207030Y-42501503D01*
X92121316Y-43739598D02*
X91054649Y-44049122D01*
X91054649Y-44049122D02*
X92121316Y-44358645D01*
X92654649Y-44730074D02*
X92654649Y-45534836D01*
X92654649Y-45534836D02*
X92045125Y-45101502D01*
X92045125Y-45101502D02*
X92045125Y-45287217D01*
X92045125Y-45287217D02*
X91968935Y-45411026D01*
X91968935Y-45411026D02*
X91892744Y-45472931D01*
X91892744Y-45472931D02*
X91740363Y-45534836D01*
X91740363Y-45534836D02*
X91359411Y-45534836D01*
X91359411Y-45534836D02*
X91207030Y-45472931D01*
X91207030Y-45472931D02*
X91130840Y-45411026D01*
X91130840Y-45411026D02*
X91054649Y-45287217D01*
X91054649Y-45287217D02*
X91054649Y-44915788D01*
X91054649Y-44915788D02*
X91130840Y-44791979D01*
X91130840Y-44791979D02*
X91207030Y-44730074D01*
X88478739Y-42625312D02*
X90078739Y-42625312D01*
X90078739Y-42625312D02*
X90078739Y-42934836D01*
X90078739Y-42934836D02*
X90002549Y-43120550D01*
X90002549Y-43120550D02*
X89850168Y-43244360D01*
X89850168Y-43244360D02*
X89697787Y-43306265D01*
X89697787Y-43306265D02*
X89393025Y-43368169D01*
X89393025Y-43368169D02*
X89164453Y-43368169D01*
X89164453Y-43368169D02*
X88859691Y-43306265D01*
X88859691Y-43306265D02*
X88707310Y-43244360D01*
X88707310Y-43244360D02*
X88554930Y-43120550D01*
X88554930Y-43120550D02*
X88478739Y-42934836D01*
X88478739Y-42934836D02*
X88478739Y-42625312D01*
X88478739Y-43925312D02*
X90078739Y-43925312D01*
X90078739Y-44791979D02*
X90078739Y-45039598D01*
X90078739Y-45039598D02*
X90002549Y-45163408D01*
X90002549Y-45163408D02*
X89850168Y-45287217D01*
X89850168Y-45287217D02*
X89545406Y-45349122D01*
X89545406Y-45349122D02*
X89012072Y-45349122D01*
X89012072Y-45349122D02*
X88707310Y-45287217D01*
X88707310Y-45287217D02*
X88554930Y-45163408D01*
X88554930Y-45163408D02*
X88478739Y-45039598D01*
X88478739Y-45039598D02*
X88478739Y-44791979D01*
X88478739Y-44791979D02*
X88554930Y-44668170D01*
X88554930Y-44668170D02*
X88707310Y-44544360D01*
X88707310Y-44544360D02*
X89012072Y-44482456D01*
X89012072Y-44482456D02*
X89545406Y-44482456D01*
X89545406Y-44482456D02*
X89850168Y-44544360D01*
X89850168Y-44544360D02*
X90002549Y-44668170D01*
X90002549Y-44668170D02*
X90078739Y-44791979D01*
X86055210Y-43368169D02*
X85979020Y-43306265D01*
X85979020Y-43306265D02*
X85902829Y-43120550D01*
X85902829Y-43120550D02*
X85902829Y-42996741D01*
X85902829Y-42996741D02*
X85979020Y-42811027D01*
X85979020Y-42811027D02*
X86131400Y-42687217D01*
X86131400Y-42687217D02*
X86283781Y-42625312D01*
X86283781Y-42625312D02*
X86588543Y-42563408D01*
X86588543Y-42563408D02*
X86817115Y-42563408D01*
X86817115Y-42563408D02*
X87121877Y-42625312D01*
X87121877Y-42625312D02*
X87274258Y-42687217D01*
X87274258Y-42687217D02*
X87426639Y-42811027D01*
X87426639Y-42811027D02*
X87502829Y-42996741D01*
X87502829Y-42996741D02*
X87502829Y-43120550D01*
X87502829Y-43120550D02*
X87426639Y-43306265D01*
X87426639Y-43306265D02*
X87350448Y-43368169D01*
X85902829Y-44544360D02*
X85902829Y-43925312D01*
X85902829Y-43925312D02*
X87502829Y-43925312D01*
X85902829Y-44977693D02*
X87502829Y-44977693D01*
X85902829Y-45720550D02*
X86817115Y-45163408D01*
X87502829Y-45720550D02*
X86588543Y-44977693D01*
X83326919Y-43368169D02*
X84088824Y-42934836D01*
X83326919Y-42625312D02*
X84926919Y-42625312D01*
X84926919Y-42625312D02*
X84926919Y-43120550D01*
X84926919Y-43120550D02*
X84850729Y-43244360D01*
X84850729Y-43244360D02*
X84774538Y-43306265D01*
X84774538Y-43306265D02*
X84622157Y-43368169D01*
X84622157Y-43368169D02*
X84393586Y-43368169D01*
X84393586Y-43368169D02*
X84241205Y-43306265D01*
X84241205Y-43306265D02*
X84165014Y-43244360D01*
X84165014Y-43244360D02*
X84088824Y-43120550D01*
X84088824Y-43120550D02*
X84088824Y-42625312D01*
X83403110Y-43863408D02*
X83326919Y-44049122D01*
X83326919Y-44049122D02*
X83326919Y-44358646D01*
X83326919Y-44358646D02*
X83403110Y-44482455D01*
X83403110Y-44482455D02*
X83479300Y-44544360D01*
X83479300Y-44544360D02*
X83631681Y-44606265D01*
X83631681Y-44606265D02*
X83784062Y-44606265D01*
X83784062Y-44606265D02*
X83936443Y-44544360D01*
X83936443Y-44544360D02*
X84012633Y-44482455D01*
X84012633Y-44482455D02*
X84088824Y-44358646D01*
X84088824Y-44358646D02*
X84165014Y-44111027D01*
X84165014Y-44111027D02*
X84241205Y-43987217D01*
X84241205Y-43987217D02*
X84317395Y-43925312D01*
X84317395Y-43925312D02*
X84469776Y-43863408D01*
X84469776Y-43863408D02*
X84622157Y-43863408D01*
X84622157Y-43863408D02*
X84774538Y-43925312D01*
X84774538Y-43925312D02*
X84850729Y-43987217D01*
X84850729Y-43987217D02*
X84926919Y-44111027D01*
X84926919Y-44111027D02*
X84926919Y-44420550D01*
X84926919Y-44420550D02*
X84850729Y-44606265D01*
X84926919Y-44977693D02*
X84926919Y-45720550D01*
X83326919Y-45349122D02*
X84926919Y-45349122D01*
X82274819Y-43306265D02*
X82351009Y-43182455D01*
X82351009Y-43182455D02*
X82351009Y-42996741D01*
X82351009Y-42996741D02*
X82274819Y-42811027D01*
X82274819Y-42811027D02*
X82122438Y-42687217D01*
X82122438Y-42687217D02*
X81970057Y-42625312D01*
X81970057Y-42625312D02*
X81665295Y-42563408D01*
X81665295Y-42563408D02*
X81436723Y-42563408D01*
X81436723Y-42563408D02*
X81131961Y-42625312D01*
X81131961Y-42625312D02*
X80979580Y-42687217D01*
X80979580Y-42687217D02*
X80827200Y-42811027D01*
X80827200Y-42811027D02*
X80751009Y-42996741D01*
X80751009Y-42996741D02*
X80751009Y-43120550D01*
X80751009Y-43120550D02*
X80827200Y-43306265D01*
X80827200Y-43306265D02*
X80903390Y-43368169D01*
X80903390Y-43368169D02*
X81436723Y-43368169D01*
X81436723Y-43368169D02*
X81436723Y-43120550D01*
X80751009Y-43925312D02*
X82351009Y-43925312D01*
X82351009Y-43925312D02*
X80751009Y-44668169D01*
X80751009Y-44668169D02*
X82351009Y-44668169D01*
X80751009Y-45287217D02*
X82351009Y-45287217D01*
X82351009Y-45287217D02*
X82351009Y-45596741D01*
X82351009Y-45596741D02*
X82274819Y-45782455D01*
X82274819Y-45782455D02*
X82122438Y-45906265D01*
X82122438Y-45906265D02*
X81970057Y-45968170D01*
X81970057Y-45968170D02*
X81665295Y-46030074D01*
X81665295Y-46030074D02*
X81436723Y-46030074D01*
X81436723Y-46030074D02*
X81131961Y-45968170D01*
X81131961Y-45968170D02*
X80979580Y-45906265D01*
X80979580Y-45906265D02*
X80827200Y-45782455D01*
X80827200Y-45782455D02*
X80751009Y-45596741D01*
X80751009Y-45596741D02*
X80751009Y-45287217D01*
X127304649Y-42501503D02*
X127304649Y-43306265D01*
X127304649Y-43306265D02*
X126695125Y-42872931D01*
X126695125Y-42872931D02*
X126695125Y-43058646D01*
X126695125Y-43058646D02*
X126618935Y-43182455D01*
X126618935Y-43182455D02*
X126542744Y-43244360D01*
X126542744Y-43244360D02*
X126390363Y-43306265D01*
X126390363Y-43306265D02*
X126009411Y-43306265D01*
X126009411Y-43306265D02*
X125857030Y-43244360D01*
X125857030Y-43244360D02*
X125780840Y-43182455D01*
X125780840Y-43182455D02*
X125704649Y-43058646D01*
X125704649Y-43058646D02*
X125704649Y-42687217D01*
X125704649Y-42687217D02*
X125780840Y-42563408D01*
X125780840Y-42563408D02*
X125857030Y-42501503D01*
X126771316Y-43739598D02*
X125704649Y-44049122D01*
X125704649Y-44049122D02*
X126771316Y-44358645D01*
X127304649Y-44730074D02*
X127304649Y-45534836D01*
X127304649Y-45534836D02*
X126695125Y-45101502D01*
X126695125Y-45101502D02*
X126695125Y-45287217D01*
X126695125Y-45287217D02*
X126618935Y-45411026D01*
X126618935Y-45411026D02*
X126542744Y-45472931D01*
X126542744Y-45472931D02*
X126390363Y-45534836D01*
X126390363Y-45534836D02*
X126009411Y-45534836D01*
X126009411Y-45534836D02*
X125857030Y-45472931D01*
X125857030Y-45472931D02*
X125780840Y-45411026D01*
X125780840Y-45411026D02*
X125704649Y-45287217D01*
X125704649Y-45287217D02*
X125704649Y-44915788D01*
X125704649Y-44915788D02*
X125780840Y-44791979D01*
X125780840Y-44791979D02*
X125857030Y-44730074D01*
X123128739Y-42625312D02*
X124728739Y-42625312D01*
X124728739Y-42625312D02*
X123585882Y-43058646D01*
X123585882Y-43058646D02*
X124728739Y-43491979D01*
X124728739Y-43491979D02*
X123128739Y-43491979D01*
X123128739Y-44111026D02*
X124728739Y-44111026D01*
X123204930Y-44668170D02*
X123128739Y-44853884D01*
X123128739Y-44853884D02*
X123128739Y-45163408D01*
X123128739Y-45163408D02*
X123204930Y-45287217D01*
X123204930Y-45287217D02*
X123281120Y-45349122D01*
X123281120Y-45349122D02*
X123433501Y-45411027D01*
X123433501Y-45411027D02*
X123585882Y-45411027D01*
X123585882Y-45411027D02*
X123738263Y-45349122D01*
X123738263Y-45349122D02*
X123814453Y-45287217D01*
X123814453Y-45287217D02*
X123890644Y-45163408D01*
X123890644Y-45163408D02*
X123966834Y-44915789D01*
X123966834Y-44915789D02*
X124043025Y-44791979D01*
X124043025Y-44791979D02*
X124119215Y-44730074D01*
X124119215Y-44730074D02*
X124271596Y-44668170D01*
X124271596Y-44668170D02*
X124423977Y-44668170D01*
X124423977Y-44668170D02*
X124576358Y-44730074D01*
X124576358Y-44730074D02*
X124652549Y-44791979D01*
X124652549Y-44791979D02*
X124728739Y-44915789D01*
X124728739Y-44915789D02*
X124728739Y-45225312D01*
X124728739Y-45225312D02*
X124652549Y-45411027D01*
X124728739Y-46215788D02*
X124728739Y-46463407D01*
X124728739Y-46463407D02*
X124652549Y-46587217D01*
X124652549Y-46587217D02*
X124500168Y-46711026D01*
X124500168Y-46711026D02*
X124195406Y-46772931D01*
X124195406Y-46772931D02*
X123662072Y-46772931D01*
X123662072Y-46772931D02*
X123357310Y-46711026D01*
X123357310Y-46711026D02*
X123204930Y-46587217D01*
X123204930Y-46587217D02*
X123128739Y-46463407D01*
X123128739Y-46463407D02*
X123128739Y-46215788D01*
X123128739Y-46215788D02*
X123204930Y-46091979D01*
X123204930Y-46091979D02*
X123357310Y-45968169D01*
X123357310Y-45968169D02*
X123662072Y-45906265D01*
X123662072Y-45906265D02*
X124195406Y-45906265D01*
X124195406Y-45906265D02*
X124500168Y-45968169D01*
X124500168Y-45968169D02*
X124652549Y-46091979D01*
X124652549Y-46091979D02*
X124728739Y-46215788D01*
X120705210Y-43368169D02*
X120629020Y-43306265D01*
X120629020Y-43306265D02*
X120552829Y-43120550D01*
X120552829Y-43120550D02*
X120552829Y-42996741D01*
X120552829Y-42996741D02*
X120629020Y-42811027D01*
X120629020Y-42811027D02*
X120781400Y-42687217D01*
X120781400Y-42687217D02*
X120933781Y-42625312D01*
X120933781Y-42625312D02*
X121238543Y-42563408D01*
X121238543Y-42563408D02*
X121467115Y-42563408D01*
X121467115Y-42563408D02*
X121771877Y-42625312D01*
X121771877Y-42625312D02*
X121924258Y-42687217D01*
X121924258Y-42687217D02*
X122076639Y-42811027D01*
X122076639Y-42811027D02*
X122152829Y-42996741D01*
X122152829Y-42996741D02*
X122152829Y-43120550D01*
X122152829Y-43120550D02*
X122076639Y-43306265D01*
X122076639Y-43306265D02*
X122000448Y-43368169D01*
X120629020Y-43863408D02*
X120552829Y-44049122D01*
X120552829Y-44049122D02*
X120552829Y-44358646D01*
X120552829Y-44358646D02*
X120629020Y-44482455D01*
X120629020Y-44482455D02*
X120705210Y-44544360D01*
X120705210Y-44544360D02*
X120857591Y-44606265D01*
X120857591Y-44606265D02*
X121009972Y-44606265D01*
X121009972Y-44606265D02*
X121162353Y-44544360D01*
X121162353Y-44544360D02*
X121238543Y-44482455D01*
X121238543Y-44482455D02*
X121314734Y-44358646D01*
X121314734Y-44358646D02*
X121390924Y-44111027D01*
X121390924Y-44111027D02*
X121467115Y-43987217D01*
X121467115Y-43987217D02*
X121543305Y-43925312D01*
X121543305Y-43925312D02*
X121695686Y-43863408D01*
X121695686Y-43863408D02*
X121848067Y-43863408D01*
X121848067Y-43863408D02*
X122000448Y-43925312D01*
X122000448Y-43925312D02*
X122076639Y-43987217D01*
X122076639Y-43987217D02*
X122152829Y-44111027D01*
X122152829Y-44111027D02*
X122152829Y-44420550D01*
X122152829Y-44420550D02*
X122076639Y-44606265D01*
X118053110Y-42563408D02*
X117976919Y-42749122D01*
X117976919Y-42749122D02*
X117976919Y-43058646D01*
X117976919Y-43058646D02*
X118053110Y-43182455D01*
X118053110Y-43182455D02*
X118129300Y-43244360D01*
X118129300Y-43244360D02*
X118281681Y-43306265D01*
X118281681Y-43306265D02*
X118434062Y-43306265D01*
X118434062Y-43306265D02*
X118586443Y-43244360D01*
X118586443Y-43244360D02*
X118662633Y-43182455D01*
X118662633Y-43182455D02*
X118738824Y-43058646D01*
X118738824Y-43058646D02*
X118815014Y-42811027D01*
X118815014Y-42811027D02*
X118891205Y-42687217D01*
X118891205Y-42687217D02*
X118967395Y-42625312D01*
X118967395Y-42625312D02*
X119119776Y-42563408D01*
X119119776Y-42563408D02*
X119272157Y-42563408D01*
X119272157Y-42563408D02*
X119424538Y-42625312D01*
X119424538Y-42625312D02*
X119500729Y-42687217D01*
X119500729Y-42687217D02*
X119576919Y-42811027D01*
X119576919Y-42811027D02*
X119576919Y-43120550D01*
X119576919Y-43120550D02*
X119500729Y-43306265D01*
X118129300Y-44606264D02*
X118053110Y-44544360D01*
X118053110Y-44544360D02*
X117976919Y-44358645D01*
X117976919Y-44358645D02*
X117976919Y-44234836D01*
X117976919Y-44234836D02*
X118053110Y-44049122D01*
X118053110Y-44049122D02*
X118205490Y-43925312D01*
X118205490Y-43925312D02*
X118357871Y-43863407D01*
X118357871Y-43863407D02*
X118662633Y-43801503D01*
X118662633Y-43801503D02*
X118891205Y-43801503D01*
X118891205Y-43801503D02*
X119195967Y-43863407D01*
X119195967Y-43863407D02*
X119348348Y-43925312D01*
X119348348Y-43925312D02*
X119500729Y-44049122D01*
X119500729Y-44049122D02*
X119576919Y-44234836D01*
X119576919Y-44234836D02*
X119576919Y-44358645D01*
X119576919Y-44358645D02*
X119500729Y-44544360D01*
X119500729Y-44544360D02*
X119424538Y-44606264D01*
X117976919Y-45163407D02*
X119576919Y-45163407D01*
X117976919Y-45906264D02*
X118891205Y-45349122D01*
X119576919Y-45906264D02*
X118662633Y-45163407D01*
X116924819Y-43306265D02*
X117001009Y-43182455D01*
X117001009Y-43182455D02*
X117001009Y-42996741D01*
X117001009Y-42996741D02*
X116924819Y-42811027D01*
X116924819Y-42811027D02*
X116772438Y-42687217D01*
X116772438Y-42687217D02*
X116620057Y-42625312D01*
X116620057Y-42625312D02*
X116315295Y-42563408D01*
X116315295Y-42563408D02*
X116086723Y-42563408D01*
X116086723Y-42563408D02*
X115781961Y-42625312D01*
X115781961Y-42625312D02*
X115629580Y-42687217D01*
X115629580Y-42687217D02*
X115477200Y-42811027D01*
X115477200Y-42811027D02*
X115401009Y-42996741D01*
X115401009Y-42996741D02*
X115401009Y-43120550D01*
X115401009Y-43120550D02*
X115477200Y-43306265D01*
X115477200Y-43306265D02*
X115553390Y-43368169D01*
X115553390Y-43368169D02*
X116086723Y-43368169D01*
X116086723Y-43368169D02*
X116086723Y-43120550D01*
X115401009Y-43925312D02*
X117001009Y-43925312D01*
X117001009Y-43925312D02*
X115401009Y-44668169D01*
X115401009Y-44668169D02*
X117001009Y-44668169D01*
X115401009Y-45287217D02*
X117001009Y-45287217D01*
X117001009Y-45287217D02*
X117001009Y-45596741D01*
X117001009Y-45596741D02*
X116924819Y-45782455D01*
X116924819Y-45782455D02*
X116772438Y-45906265D01*
X116772438Y-45906265D02*
X116620057Y-45968170D01*
X116620057Y-45968170D02*
X116315295Y-46030074D01*
X116315295Y-46030074D02*
X116086723Y-46030074D01*
X116086723Y-46030074D02*
X115781961Y-45968170D01*
X115781961Y-45968170D02*
X115629580Y-45906265D01*
X115629580Y-45906265D02*
X115477200Y-45782455D01*
X115477200Y-45782455D02*
X115401009Y-45596741D01*
X115401009Y-45596741D02*
X115401009Y-45287217D01*
D11*
X367878572Y-170249757D02*
X367735715Y-170178328D01*
X367735715Y-170178328D02*
X367521429Y-170178328D01*
X367521429Y-170178328D02*
X367307143Y-170249757D01*
X367307143Y-170249757D02*
X367164286Y-170392614D01*
X367164286Y-170392614D02*
X367092857Y-170535471D01*
X367092857Y-170535471D02*
X367021429Y-170821185D01*
X367021429Y-170821185D02*
X367021429Y-171035471D01*
X367021429Y-171035471D02*
X367092857Y-171321185D01*
X367092857Y-171321185D02*
X367164286Y-171464042D01*
X367164286Y-171464042D02*
X367307143Y-171606900D01*
X367307143Y-171606900D02*
X367521429Y-171678328D01*
X367521429Y-171678328D02*
X367664286Y-171678328D01*
X367664286Y-171678328D02*
X367878572Y-171606900D01*
X367878572Y-171606900D02*
X367950000Y-171535471D01*
X367950000Y-171535471D02*
X367950000Y-171035471D01*
X367950000Y-171035471D02*
X367664286Y-171035471D01*
X368807143Y-170178328D02*
X368807143Y-170535471D01*
X368450000Y-170392614D02*
X368807143Y-170535471D01*
X368807143Y-170535471D02*
X369164286Y-170392614D01*
X368592857Y-170821185D02*
X368807143Y-170535471D01*
X368807143Y-170535471D02*
X369021429Y-170821185D01*
X369950000Y-170178328D02*
X369950000Y-170535471D01*
X369592857Y-170392614D02*
X369950000Y-170535471D01*
X369950000Y-170535471D02*
X370307143Y-170392614D01*
X369735714Y-170821185D02*
X369950000Y-170535471D01*
X369950000Y-170535471D02*
X370164286Y-170821185D01*
X371092857Y-170178328D02*
X371092857Y-170535471D01*
X370735714Y-170392614D02*
X371092857Y-170535471D01*
X371092857Y-170535471D02*
X371450000Y-170392614D01*
X370878571Y-170821185D02*
X371092857Y-170535471D01*
X371092857Y-170535471D02*
X371307143Y-170821185D01*
%TO.C,D1*%
D12*
X59640000Y-54000000D02*
X62300000Y-54000000D01*
X59640000Y-52300000D02*
X62300000Y-52300000D01*
X59640000Y-52300000D02*
X59640000Y-54000000D01*
%TO.C,D2*%
X67240000Y-54000000D02*
X69900000Y-54000000D01*
X67240000Y-52300000D02*
X69900000Y-52300000D01*
X67240000Y-52300000D02*
X67240000Y-54000000D01*
%TO.C,D3*%
X74840000Y-54000000D02*
X77500000Y-54000000D01*
X74840000Y-52300000D02*
X77500000Y-52300000D01*
X74840000Y-52300000D02*
X74840000Y-54000000D01*
%TO.C,D4*%
X89040000Y-54000000D02*
X91700000Y-54000000D01*
X89040000Y-52300000D02*
X91700000Y-52300000D01*
X89040000Y-52300000D02*
X89040000Y-54000000D01*
%TO.C,D5*%
X103590000Y-54000000D02*
X106250000Y-54000000D01*
X103590000Y-52300000D02*
X106250000Y-52300000D01*
X103590000Y-52300000D02*
X103590000Y-54000000D01*
%TO.C,D6*%
X117740000Y-54000000D02*
X120400000Y-54000000D01*
X117740000Y-52300000D02*
X120400000Y-52300000D01*
X117740000Y-52300000D02*
X117740000Y-54000000D01*
%TO.C,D7*%
X63290000Y-61700000D02*
X65950000Y-61700000D01*
X63290000Y-60000000D02*
X65950000Y-60000000D01*
X63290000Y-60000000D02*
X63290000Y-61700000D01*
%TO.C,D8*%
X71140000Y-61700000D02*
X73800000Y-61700000D01*
X71140000Y-60000000D02*
X73800000Y-60000000D01*
X71140000Y-60000000D02*
X71140000Y-61700000D01*
%TO.C,D9*%
X76840000Y-61700000D02*
X79500000Y-61700000D01*
X76840000Y-60000000D02*
X79500000Y-60000000D01*
X76840000Y-60000000D02*
X76840000Y-61700000D01*
%TO.C,D10*%
X91690000Y-61700000D02*
X94350000Y-61700000D01*
X91690000Y-60000000D02*
X94350000Y-60000000D01*
X91690000Y-60000000D02*
X91690000Y-61700000D01*
%TO.C,D11*%
X107140000Y-61700000D02*
X109800000Y-61700000D01*
X107140000Y-60000000D02*
X109800000Y-60000000D01*
X107140000Y-60000000D02*
X107140000Y-61700000D01*
%TO.C,D12*%
X121340000Y-61700000D02*
X124000000Y-61700000D01*
X121340000Y-60000000D02*
X124000000Y-60000000D01*
X121340000Y-60000000D02*
X121340000Y-61700000D01*
%TO.C,D13*%
X61540000Y-69750000D02*
X64200000Y-69750000D01*
X61540000Y-68050000D02*
X64200000Y-68050000D01*
X61540000Y-68050000D02*
X61540000Y-69750000D01*
%TO.C,D14*%
X81290000Y-77800000D02*
X83950000Y-77800000D01*
X81290000Y-76100000D02*
X83950000Y-76100000D01*
X81290000Y-76100000D02*
X81290000Y-77800000D01*
%TO.C,D15*%
X80590000Y-69750000D02*
X83250000Y-69750000D01*
X80590000Y-68050000D02*
X83250000Y-68050000D01*
X80590000Y-68050000D02*
X80590000Y-69750000D01*
%TO.C,D16*%
X95140000Y-69750000D02*
X97800000Y-69750000D01*
X95140000Y-68050000D02*
X97800000Y-68050000D01*
X95140000Y-68050000D02*
X95140000Y-69750000D01*
%TO.C,D17*%
X109490000Y-69750000D02*
X112150000Y-69750000D01*
X109490000Y-68050000D02*
X112150000Y-68050000D01*
X109490000Y-68050000D02*
X109490000Y-69750000D01*
%TO.C,D18*%
X124940000Y-69750000D02*
X127600000Y-69750000D01*
X124940000Y-68050000D02*
X127600000Y-68050000D01*
X124940000Y-68050000D02*
X124940000Y-69750000D01*
%TO.C,D19*%
X60540000Y-77800000D02*
X63200000Y-77800000D01*
X60540000Y-76100000D02*
X63200000Y-76100000D01*
X60540000Y-76100000D02*
X60540000Y-77800000D01*
%TO.C,D20*%
X132140000Y-77800000D02*
X134800000Y-77800000D01*
X132140000Y-76100000D02*
X134800000Y-76100000D01*
X132140000Y-76100000D02*
X132140000Y-77800000D01*
%TO.C,D21*%
X87940000Y-69750000D02*
X90600000Y-69750000D01*
X87940000Y-68050000D02*
X90600000Y-68050000D01*
X87940000Y-68050000D02*
X87940000Y-69750000D01*
%TO.C,D22*%
X102190000Y-69750000D02*
X104850000Y-69750000D01*
X102190000Y-68050000D02*
X104850000Y-68050000D01*
X102190000Y-68050000D02*
X102190000Y-69750000D01*
%TO.C,D23*%
X116690000Y-69750000D02*
X119350000Y-69750000D01*
X116690000Y-68050000D02*
X119350000Y-68050000D01*
X116690000Y-68050000D02*
X116690000Y-69750000D01*
%TO.C,D24*%
X128540000Y-61700000D02*
X131200000Y-61700000D01*
X128540000Y-60000000D02*
X131200000Y-60000000D01*
X128540000Y-60000000D02*
X128540000Y-61700000D01*
%TO.C,D25*%
X68390000Y-77800000D02*
X71050000Y-77800000D01*
X68390000Y-76100000D02*
X71050000Y-76100000D01*
X68390000Y-76100000D02*
X68390000Y-77800000D01*
%TO.C,D26*%
X117690000Y-77800000D02*
X120350000Y-77800000D01*
X117690000Y-76100000D02*
X120350000Y-76100000D01*
X117690000Y-76100000D02*
X117690000Y-77800000D01*
%TO.C,D27*%
X85540000Y-61700000D02*
X88200000Y-61700000D01*
X85540000Y-60000000D02*
X88200000Y-60000000D01*
X85540000Y-60000000D02*
X85540000Y-61700000D01*
%TO.C,D28*%
X99890000Y-61700000D02*
X102550000Y-61700000D01*
X99890000Y-60000000D02*
X102550000Y-60000000D01*
X99890000Y-60000000D02*
X99890000Y-61700000D01*
%TO.C,D29*%
X114290000Y-61700000D02*
X116950000Y-61700000D01*
X114290000Y-60000000D02*
X116950000Y-60000000D01*
X114290000Y-60000000D02*
X114290000Y-61700000D01*
%TO.C,D30*%
X125140000Y-54000000D02*
X127800000Y-54000000D01*
X125140000Y-52300000D02*
X127800000Y-52300000D01*
X125140000Y-52300000D02*
X125140000Y-54000000D01*
%TO.C,D31*%
X73390000Y-69750000D02*
X76050000Y-69750000D01*
X73390000Y-68050000D02*
X76050000Y-68050000D01*
X73390000Y-68050000D02*
X73390000Y-69750000D01*
%TO.C,D32*%
X124940000Y-77800000D02*
X127600000Y-77800000D01*
X124940000Y-76100000D02*
X127600000Y-76100000D01*
X124940000Y-76100000D02*
X124940000Y-77800000D01*
%TO.C,D33*%
X81940000Y-54000000D02*
X84600000Y-54000000D01*
X81940000Y-52300000D02*
X84600000Y-52300000D01*
X81940000Y-52300000D02*
X81940000Y-54000000D01*
%TO.C,D34*%
X96140000Y-54000000D02*
X98800000Y-54000000D01*
X96140000Y-52300000D02*
X98800000Y-52300000D01*
X96140000Y-52300000D02*
X96140000Y-54000000D01*
%TO.C,D35*%
X110690000Y-54000000D02*
X113350000Y-54000000D01*
X110690000Y-52300000D02*
X113350000Y-52300000D01*
X110690000Y-52300000D02*
X110690000Y-54000000D01*
%TO.C,D36*%
X132290000Y-54000000D02*
X134950000Y-54000000D01*
X132290000Y-52300000D02*
X134950000Y-52300000D01*
X132290000Y-52300000D02*
X132290000Y-54000000D01*
D13*
%TO.C,G\u002A\u002A\u002A*%
G36*
X362152072Y-174113655D02*
G01*
X362100905Y-174178702D01*
X362029279Y-174254158D01*
X361955997Y-174320698D01*
X361899863Y-174358999D01*
X361887795Y-174362157D01*
X361890602Y-174338181D01*
X361937311Y-174276117D01*
X361997311Y-174210812D01*
X362080905Y-174131416D01*
X362142506Y-174084372D01*
X362163972Y-174078344D01*
X362152072Y-174113655D01*
G37*
G36*
X368243273Y-176939075D02*
G01*
X368346397Y-177026975D01*
X368397635Y-177168473D01*
X368402770Y-177243907D01*
X368377100Y-177400909D01*
X368299261Y-177502743D01*
X368168009Y-177550676D01*
X368098686Y-177555045D01*
X367946643Y-177555045D01*
X367946643Y-177231955D01*
X367946643Y-176908865D01*
X368092060Y-176908865D01*
X368243273Y-176939075D01*
G37*
G36*
X355808828Y-161191886D02*
G01*
X355908827Y-161256636D01*
X355961850Y-161378561D01*
X355973318Y-161510378D01*
X355952719Y-161680203D01*
X355886069Y-161793815D01*
X355766090Y-161860387D01*
X355680605Y-161879402D01*
X355578789Y-161890620D01*
X355527471Y-161877205D01*
X355502819Y-161830481D01*
X355498119Y-161812935D01*
X355488087Y-161729081D01*
X355484089Y-161598402D01*
X355486749Y-161456778D01*
X355498187Y-161191498D01*
X355657647Y-161179913D01*
X355808828Y-161191886D01*
G37*
G36*
X327041620Y-186042106D02*
G01*
X327170815Y-186137808D01*
X327242517Y-186224372D01*
X327271885Y-186325952D01*
X327275343Y-186403366D01*
X327243288Y-186564304D01*
X327157793Y-186687943D01*
X327034869Y-186767911D01*
X326890526Y-186797831D01*
X326740773Y-186771328D01*
X326601617Y-186682027D01*
X326594076Y-186674656D01*
X326502914Y-186538559D01*
X326473584Y-186389180D01*
X326501875Y-186244433D01*
X326583584Y-186122236D01*
X326714496Y-186040501D01*
X326745318Y-186030828D01*
X326907619Y-186007511D01*
X327041620Y-186042106D01*
G37*
G36*
X328855163Y-169628814D02*
G01*
X328909979Y-169703847D01*
X328940239Y-169845277D01*
X328947808Y-170014740D01*
X328938973Y-170229999D01*
X328911307Y-170376554D01*
X328863073Y-170459779D01*
X328795513Y-170485082D01*
X328723268Y-170463598D01*
X328698088Y-170434863D01*
X328690914Y-170377095D01*
X328687279Y-170262505D01*
X328687553Y-170110220D01*
X328689778Y-170007685D01*
X328696242Y-169834074D01*
X328705509Y-169722267D01*
X328720652Y-169658048D01*
X328744743Y-169627196D01*
X328774248Y-169616649D01*
X328855163Y-169628814D01*
G37*
G36*
X368256195Y-177839181D02*
G01*
X368351000Y-177899568D01*
X368403656Y-178011578D01*
X368421601Y-178184507D01*
X368421775Y-178208572D01*
X368417091Y-178344049D01*
X368398136Y-178428396D01*
X368357566Y-178486184D01*
X368332040Y-178508667D01*
X368242588Y-178554325D01*
X368130570Y-178579166D01*
X368027958Y-178578985D01*
X367971984Y-178555989D01*
X367960927Y-178509156D01*
X367952315Y-178404589D01*
X367947366Y-178260567D01*
X367946643Y-178175883D01*
X367946643Y-177821119D01*
X368111800Y-177821119D01*
X368256195Y-177839181D01*
G37*
G36*
X398794687Y-161180948D02*
G01*
X398867872Y-161213884D01*
X398924830Y-161275048D01*
X398977077Y-161357911D01*
X398994964Y-161447695D01*
X398987472Y-161566126D01*
X398966020Y-161686095D01*
X398936394Y-161778621D01*
X398921913Y-161803692D01*
X398857969Y-161838127D01*
X398757083Y-161854951D01*
X398648125Y-161854021D01*
X398559966Y-161835202D01*
X398523163Y-161805613D01*
X398515028Y-161744393D01*
X398511873Y-161630717D01*
X398514282Y-161488024D01*
X398514853Y-161473020D01*
X398526141Y-161191498D01*
X398683374Y-161180022D01*
X398794687Y-161180948D01*
G37*
G36*
X337342996Y-169300544D02*
G01*
X337346425Y-169306754D01*
X337367196Y-169370982D01*
X337392366Y-169486516D01*
X337419037Y-169634195D01*
X337444309Y-169794860D01*
X337465284Y-169949351D01*
X337479062Y-170078507D01*
X337482745Y-170163172D01*
X337479202Y-170184198D01*
X337430033Y-170207877D01*
X337339083Y-170218905D01*
X337329138Y-170219008D01*
X337235913Y-170209657D01*
X337181105Y-170186873D01*
X337179072Y-170184198D01*
X337176784Y-170136579D01*
X337184661Y-170032879D01*
X337200189Y-169891969D01*
X337220849Y-169732725D01*
X337244124Y-169574017D01*
X337267497Y-169434720D01*
X337288453Y-169333706D01*
X337296090Y-169306754D01*
X337316360Y-169268812D01*
X337342996Y-169300544D01*
G37*
G36*
X398165041Y-169914923D02*
G01*
X398165041Y-173183832D01*
X394896133Y-173183832D01*
X391627225Y-173183832D01*
X391627225Y-170903197D01*
X394592049Y-170903197D01*
X395048174Y-170903197D01*
X395504301Y-170903197D01*
X395504301Y-170790904D01*
X395501454Y-170731341D01*
X395481661Y-170696892D01*
X395428053Y-170679438D01*
X395323763Y-170670855D01*
X395247730Y-170667368D01*
X394991160Y-170656129D01*
X394981004Y-169696362D01*
X394970848Y-168736597D01*
X394781448Y-168736597D01*
X394592049Y-168736597D01*
X394592049Y-169819896D01*
X394592049Y-170903197D01*
X391627225Y-170903197D01*
X391627225Y-169914923D01*
X391627225Y-169819896D01*
X391627225Y-166646015D01*
X394896133Y-166646015D01*
X398165041Y-166646015D01*
X398165041Y-169914923D01*
G37*
G36*
X351915240Y-169007231D02*
G01*
X351981264Y-169027064D01*
X352029012Y-169071388D01*
X352061412Y-169149426D01*
X352081394Y-169270403D01*
X352091885Y-169443536D01*
X352095815Y-169678051D01*
X352096240Y-169847360D01*
X352095664Y-170091179D01*
X352093150Y-170270605D01*
X352087521Y-170397264D01*
X352077605Y-170482779D01*
X352062223Y-170538775D01*
X352040202Y-170576877D01*
X352020220Y-170599113D01*
X351936717Y-170649561D01*
X351831438Y-170674614D01*
X351738197Y-170668862D01*
X351703466Y-170649794D01*
X351695970Y-170605879D01*
X351689356Y-170497428D01*
X351683968Y-170335917D01*
X351680157Y-170132832D01*
X351678266Y-169899650D01*
X351678125Y-169813562D01*
X351678125Y-169002670D01*
X351828011Y-169002670D01*
X351915240Y-169007231D01*
G37*
G36*
X362191483Y-173338473D02*
G01*
X362223751Y-173411804D01*
X362244324Y-173484843D01*
X362290654Y-173677970D01*
X362647961Y-173677970D01*
X362817021Y-173681798D01*
X362938289Y-173692445D01*
X362999936Y-173708653D01*
X363005270Y-173715980D01*
X362968379Y-173731470D01*
X362862033Y-173743251D01*
X362692736Y-173750889D01*
X362466985Y-173753951D01*
X362435113Y-173753990D01*
X362202759Y-173751530D01*
X362026047Y-173744441D01*
X361911478Y-173733155D01*
X361865547Y-173718105D01*
X361864955Y-173715980D01*
X361898930Y-173693310D01*
X361984885Y-173679714D01*
X362036003Y-173677970D01*
X362144806Y-173674886D01*
X362194128Y-173653260D01*
X362197090Y-173594530D01*
X362169408Y-173489198D01*
X362152230Y-173390574D01*
X362162211Y-173328040D01*
X362164880Y-173324830D01*
X362191483Y-173338473D01*
G37*
G36*
X360766941Y-173680428D02*
G01*
X360943652Y-173687518D01*
X361058222Y-173698805D01*
X361104153Y-173713855D01*
X361104744Y-173715980D01*
X361070986Y-173739618D01*
X360986497Y-173752921D01*
X360950141Y-173753990D01*
X360852757Y-173758456D01*
X360813703Y-173778513D01*
X360815493Y-173824153D01*
X360817104Y-173830011D01*
X360846185Y-173932711D01*
X360859222Y-173978854D01*
X360860895Y-174048178D01*
X360844610Y-174073407D01*
X360815833Y-174053616D01*
X360782368Y-173978803D01*
X360766495Y-173924565D01*
X360723545Y-173753990D01*
X360343986Y-173753990D01*
X360167585Y-173750371D01*
X360040075Y-173740247D01*
X359972425Y-173724718D01*
X359964427Y-173715980D01*
X360001320Y-173700489D01*
X360107664Y-173688708D01*
X360276962Y-173681070D01*
X360502715Y-173678009D01*
X360534586Y-173677970D01*
X360766941Y-173680428D01*
G37*
G36*
X365856063Y-162027732D02*
G01*
X365856063Y-165315646D01*
X362587154Y-165315646D01*
X359318248Y-165315646D01*
X359318248Y-162027732D01*
X359318248Y-161153357D01*
X362400702Y-161153357D01*
X362421945Y-161195648D01*
X362487744Y-161212113D01*
X362556487Y-161217716D01*
X362720191Y-161229509D01*
X362730358Y-162170272D01*
X362740524Y-163111033D01*
X362929913Y-163111033D01*
X363119301Y-163111033D01*
X363119301Y-162162953D01*
X363119301Y-161214875D01*
X363280847Y-161203188D01*
X363382120Y-161192027D01*
X363428686Y-161165504D01*
X363441771Y-161104603D01*
X363442391Y-161058462D01*
X363442391Y-160925425D01*
X362929250Y-160925425D01*
X362416109Y-160925425D01*
X362404449Y-161065673D01*
X362400702Y-161153357D01*
X359318248Y-161153357D01*
X359318248Y-158739818D01*
X362587154Y-158739818D01*
X365856063Y-158739818D01*
X365856063Y-162027732D01*
G37*
G36*
X391357787Y-161155605D02*
G01*
X391445548Y-161215727D01*
X391457842Y-161227719D01*
X391555800Y-161325676D01*
X391543998Y-162050440D01*
X391539332Y-162303876D01*
X391533972Y-162492065D01*
X391526736Y-162625777D01*
X391516441Y-162715783D01*
X391501901Y-162772855D01*
X391481935Y-162807765D01*
X391458415Y-162829086D01*
X391347427Y-162878701D01*
X391235691Y-162857347D01*
X391179556Y-162823798D01*
X391150365Y-162800657D01*
X391128811Y-162770793D01*
X391113738Y-162723368D01*
X391103989Y-162647552D01*
X391098406Y-162532503D01*
X391095831Y-162367388D01*
X391095106Y-162141373D01*
X391095076Y-162032840D01*
X391096018Y-161761167D01*
X391100212Y-161555477D01*
X391109715Y-161405741D01*
X391126582Y-161301932D01*
X391152866Y-161234019D01*
X391190626Y-161191976D01*
X391241915Y-161165774D01*
X391274994Y-161154965D01*
X391357787Y-161155605D01*
G37*
G36*
X333584968Y-161164275D02*
G01*
X333639577Y-161183680D01*
X333679346Y-161227117D01*
X333706604Y-161303663D01*
X333723679Y-161422394D01*
X333732900Y-161592389D01*
X333736594Y-161822725D01*
X333737140Y-162032840D01*
X333736829Y-162285921D01*
X333735123Y-162473815D01*
X333730867Y-162607360D01*
X333722902Y-162697392D01*
X333710072Y-162754745D01*
X333691219Y-162790257D01*
X333665187Y-162814760D01*
X333652660Y-162823798D01*
X333532290Y-162877700D01*
X333423772Y-162857912D01*
X333354796Y-162804710D01*
X333327832Y-162773991D01*
X333308145Y-162736260D01*
X333294830Y-162680447D01*
X333286986Y-162595483D01*
X333283711Y-162470300D01*
X333284096Y-162293826D01*
X333287245Y-162054995D01*
X333288277Y-161989295D01*
X333294854Y-161697056D01*
X333304298Y-161476514D01*
X333316927Y-161323383D01*
X333333056Y-161233383D01*
X333346264Y-161205981D01*
X333415087Y-161173186D01*
X333513188Y-161159824D01*
X333584968Y-161164275D01*
G37*
G36*
X398554650Y-158749108D02*
G01*
X401833061Y-158758822D01*
X401833061Y-162027732D01*
X401833061Y-165296640D01*
X398554650Y-165306354D01*
X395276238Y-165316067D01*
X395276238Y-163111033D01*
X398125864Y-163111033D01*
X398315365Y-163111033D01*
X398504866Y-163111033D01*
X398515503Y-162626397D01*
X398526141Y-162141763D01*
X398775764Y-162120276D01*
X398972237Y-162089726D01*
X399115174Y-162030800D01*
X399224882Y-161933200D01*
X399272567Y-161868280D01*
X399323941Y-161735493D01*
X399341936Y-161562068D01*
X399326602Y-161375641D01*
X399277988Y-161203847D01*
X399271330Y-161188603D01*
X399211168Y-161085196D01*
X399131204Y-161011846D01*
X399018762Y-160963960D01*
X398861164Y-160936942D01*
X398645730Y-160926196D01*
X398545147Y-160925425D01*
X398146037Y-160925425D01*
X398135951Y-162018229D01*
X398125864Y-163111033D01*
X395276238Y-163111033D01*
X395276238Y-162027732D01*
X395276238Y-158739395D01*
X398554650Y-158749108D01*
G37*
G36*
X373315636Y-166655307D02*
G01*
X376594047Y-166665021D01*
X376603761Y-169924426D01*
X376613476Y-173183832D01*
X373325350Y-173183832D01*
X370037225Y-173183832D01*
X370037225Y-170903197D01*
X373038874Y-170903197D01*
X373247390Y-170903197D01*
X373455903Y-170903197D01*
X373466542Y-170418563D01*
X373477180Y-169933929D01*
X373686238Y-169933929D01*
X373895297Y-169933929D01*
X373905936Y-170418563D01*
X373916572Y-170903197D01*
X374105490Y-170903197D01*
X374294408Y-170903197D01*
X374294408Y-169819896D01*
X374294408Y-168736597D01*
X374104354Y-168736597D01*
X373914301Y-168736597D01*
X373914301Y-169192722D01*
X373914301Y-169648849D01*
X373686238Y-169648849D01*
X373458174Y-169648849D01*
X373458174Y-169190736D01*
X373458174Y-168732624D01*
X373258620Y-168744112D01*
X373059064Y-168755601D01*
X373048969Y-169829399D01*
X373038874Y-170903197D01*
X370037225Y-170903197D01*
X370037225Y-169914712D01*
X370037225Y-166645593D01*
X373315636Y-166655307D01*
G37*
G36*
X355023054Y-169914923D02*
G01*
X355023054Y-173183832D01*
X351735140Y-173183832D01*
X348447226Y-173183832D01*
X348447226Y-170903197D01*
X351298019Y-170903197D01*
X351706633Y-170903056D01*
X351901373Y-170900606D01*
X352038032Y-170891753D01*
X352134451Y-170873993D01*
X352208471Y-170844826D01*
X352236936Y-170828715D01*
X352321912Y-170770342D01*
X352386118Y-170705256D01*
X352432400Y-170622339D01*
X352463607Y-170510468D01*
X352482587Y-170358522D01*
X352492192Y-170155383D01*
X352495268Y-169889924D01*
X352495351Y-169819896D01*
X352492514Y-169510125D01*
X352479951Y-169267734D01*
X352451588Y-169084173D01*
X352401350Y-168950890D01*
X352323160Y-168859335D01*
X352210946Y-168800953D01*
X352058633Y-168767195D01*
X351860146Y-168749506D01*
X351730788Y-168743595D01*
X351298019Y-168727029D01*
X351298019Y-169815114D01*
X351298019Y-170903197D01*
X348447226Y-170903197D01*
X348447226Y-169914923D01*
X348447226Y-169815114D01*
X348447226Y-166646015D01*
X351735140Y-166646015D01*
X355023054Y-166646015D01*
X355023054Y-169914923D01*
G37*
G36*
X383797049Y-169914923D02*
G01*
X383797049Y-173183832D01*
X380509135Y-173183832D01*
X377221221Y-173183832D01*
X377221221Y-170979220D01*
X380376098Y-170979220D01*
X380556648Y-170978659D01*
X380687645Y-170968246D01*
X380801946Y-170942763D01*
X380832225Y-170930617D01*
X380897757Y-170891899D01*
X380949501Y-170842798D01*
X380989057Y-170774517D01*
X381018023Y-170678263D01*
X381038000Y-170545244D01*
X381050588Y-170366664D01*
X381057387Y-170133730D01*
X381059995Y-169837646D01*
X381060229Y-169677358D01*
X381060287Y-168736597D01*
X380872682Y-168736597D01*
X380685077Y-168736597D01*
X380673127Y-169662099D01*
X380668425Y-169972284D01*
X380662191Y-170214745D01*
X380652790Y-170397784D01*
X380638593Y-170529695D01*
X380617967Y-170618780D01*
X380589280Y-170673339D01*
X380550902Y-170701666D01*
X380501199Y-170712061D01*
X380466470Y-170713146D01*
X380405177Y-170723973D01*
X380380122Y-170771160D01*
X380376098Y-170846183D01*
X380376098Y-170979220D01*
X377221221Y-170979220D01*
X377221221Y-170846183D01*
X377221221Y-169914923D01*
X377221221Y-166646015D01*
X380509135Y-166646015D01*
X383797049Y-166646015D01*
X383797049Y-169914923D01*
G37*
G36*
X340617052Y-169914923D02*
G01*
X340617052Y-173183832D01*
X337348142Y-173183832D01*
X334079234Y-173183832D01*
X334079234Y-170855684D01*
X336700799Y-170855684D01*
X336737682Y-170888839D01*
X336841539Y-170902862D01*
X336866357Y-170903197D01*
X337030752Y-170903197D01*
X337084919Y-170665632D01*
X337139084Y-170428066D01*
X337317234Y-170416579D01*
X337429970Y-170416671D01*
X337502805Y-170443883D01*
X337548273Y-170512139D01*
X337578908Y-170635371D01*
X337592682Y-170722647D01*
X337618874Y-170903197D01*
X337787594Y-170903197D01*
X337905558Y-170893081D01*
X337953260Y-170863274D01*
X337954155Y-170855684D01*
X337946607Y-170807132D01*
X337926402Y-170694084D01*
X337895431Y-170526659D01*
X337855585Y-170314979D01*
X337808757Y-170069162D01*
X337756834Y-169799329D01*
X337753461Y-169781886D01*
X337554925Y-168755601D01*
X337326450Y-168744491D01*
X337097975Y-168733382D01*
X336898805Y-169770776D01*
X336846844Y-170043278D01*
X336800023Y-170292418D01*
X336760173Y-170508134D01*
X336729135Y-170680365D01*
X336708743Y-170799048D01*
X336700835Y-170854123D01*
X336700799Y-170855684D01*
X334079234Y-170855684D01*
X334079234Y-169914923D01*
X334079234Y-166646015D01*
X337348142Y-166646015D01*
X340617052Y-166646015D01*
X340617052Y-169914923D01*
G37*
G36*
X376261665Y-186059907D02*
G01*
X376271378Y-189338319D01*
X358290981Y-189338319D01*
X356848380Y-189338284D01*
X355480068Y-189338177D01*
X354184318Y-189337991D01*
X352959395Y-189337726D01*
X351803568Y-189337372D01*
X350715109Y-189336929D01*
X349692286Y-189336390D01*
X348733368Y-189335751D01*
X347836623Y-189335006D01*
X347000322Y-189334153D01*
X346222732Y-189333187D01*
X345502124Y-189332101D01*
X344836766Y-189330892D01*
X344224926Y-189329558D01*
X343664876Y-189328089D01*
X343154883Y-189326486D01*
X342693217Y-189324740D01*
X342278147Y-189322849D01*
X341907941Y-189320808D01*
X341580870Y-189318611D01*
X341295202Y-189316255D01*
X341049207Y-189313734D01*
X340841151Y-189311046D01*
X340669306Y-189308185D01*
X340531943Y-189305146D01*
X340427325Y-189301922D01*
X340353727Y-189298514D01*
X340309414Y-189294915D01*
X340292659Y-189291119D01*
X340292457Y-189290806D01*
X340289827Y-189246402D01*
X340287537Y-189131608D01*
X340285603Y-188952050D01*
X340284039Y-188713355D01*
X340282857Y-188421154D01*
X340282075Y-188081076D01*
X340281704Y-187698746D01*
X340281761Y-187279793D01*
X340282257Y-186829847D01*
X340283211Y-186354535D01*
X340284147Y-186012395D01*
X340293961Y-182781496D01*
X358272957Y-182781496D01*
X376251951Y-182781496D01*
X376261665Y-186059907D01*
G37*
G36*
X387446063Y-162027732D02*
G01*
X387446063Y-165315646D01*
X384183490Y-165315646D01*
X383692057Y-165315357D01*
X383222505Y-165314519D01*
X382780384Y-165313176D01*
X382371245Y-165311370D01*
X382000635Y-165309143D01*
X381674108Y-165306539D01*
X381397208Y-165303600D01*
X381175491Y-165300368D01*
X381014503Y-165296888D01*
X380919794Y-165293201D01*
X380895576Y-165290306D01*
X380891761Y-165249332D01*
X380888119Y-165137887D01*
X380884697Y-164961522D01*
X380881534Y-164725785D01*
X380878671Y-164436226D01*
X380876157Y-164098395D01*
X380874028Y-163717843D01*
X380872332Y-163300117D01*
X380871108Y-162850770D01*
X380870581Y-162496894D01*
X384106704Y-162496894D01*
X384107600Y-162715236D01*
X384109876Y-162889214D01*
X384113446Y-163008465D01*
X384118223Y-163062622D01*
X384118512Y-163063484D01*
X384164018Y-163097073D01*
X384270594Y-163105812D01*
X384319306Y-163103628D01*
X384500244Y-163092027D01*
X384500244Y-162008726D01*
X384500244Y-160925425D01*
X384310191Y-160925425D01*
X384120137Y-160925425D01*
X384109397Y-161968582D01*
X384107273Y-162244555D01*
X384106704Y-162496894D01*
X380870581Y-162496894D01*
X380870400Y-162375350D01*
X380870235Y-162002392D01*
X380870235Y-158739818D01*
X384158149Y-158739818D01*
X387446063Y-158739818D01*
X387446063Y-162027732D01*
G37*
G36*
X394630059Y-162027732D02*
G01*
X394630059Y-165315646D01*
X391361150Y-165315646D01*
X388092242Y-165315646D01*
X388092242Y-162027732D01*
X388092242Y-162008726D01*
X390695965Y-162008726D01*
X390698257Y-162299679D01*
X390706611Y-162525130D01*
X390723252Y-162695495D01*
X390750406Y-162821197D01*
X390790293Y-162912655D01*
X390845138Y-162980289D01*
X390914515Y-163032848D01*
X391081319Y-163100995D01*
X391280648Y-163127457D01*
X391481681Y-163111676D01*
X391653602Y-163053090D01*
X391665235Y-163046503D01*
X391758227Y-162973965D01*
X391836283Y-162889263D01*
X391862794Y-162847973D01*
X391882684Y-162797069D01*
X391897126Y-162725191D01*
X391907287Y-162620983D01*
X391914340Y-162473089D01*
X391919455Y-162270152D01*
X391923142Y-162046736D01*
X391925551Y-161751715D01*
X391921427Y-161522371D01*
X391908281Y-161348466D01*
X391883624Y-161219766D01*
X391844966Y-161126033D01*
X391789818Y-161057030D01*
X391715690Y-161002521D01*
X391662012Y-160972997D01*
X391507491Y-160923242D01*
X391322182Y-160905635D01*
X391137030Y-160919832D01*
X390982985Y-160965485D01*
X390954382Y-160980902D01*
X390870339Y-161038413D01*
X390806606Y-161102264D01*
X390760429Y-161183410D01*
X390729051Y-161292815D01*
X390709716Y-161441434D01*
X390699673Y-161640230D01*
X390696161Y-161900164D01*
X390695965Y-162008726D01*
X388092242Y-162008726D01*
X388092242Y-158739818D01*
X391361150Y-158739818D01*
X394630059Y-158739818D01*
X394630059Y-162027732D01*
G37*
G36*
X371842957Y-174599722D02*
G01*
X371845988Y-174650064D01*
X371848640Y-174770676D01*
X371850896Y-174955801D01*
X371852738Y-175199691D01*
X371854148Y-175496591D01*
X371855107Y-175840749D01*
X371855598Y-176226415D01*
X371855603Y-176647833D01*
X371855103Y-177099253D01*
X371854081Y-177574923D01*
X371853182Y-177878133D01*
X371842725Y-181071020D01*
X368564315Y-181080734D01*
X365285904Y-181090448D01*
X365285904Y-178855608D01*
X367566537Y-178855608D01*
X368001127Y-178841812D01*
X368199107Y-178833542D01*
X368337385Y-178821688D01*
X368432279Y-178803465D01*
X368500106Y-178776092D01*
X368540430Y-178749837D01*
X368682927Y-178622024D01*
X368764864Y-178485978D01*
X368798858Y-178316383D01*
X368801881Y-178225273D01*
X368781151Y-178013373D01*
X368716912Y-177859559D01*
X368606080Y-177757539D01*
X368562305Y-177735670D01*
X368485802Y-177702419D01*
X368449352Y-177685788D01*
X368468015Y-177658318D01*
X368527079Y-177593320D01*
X368591892Y-177526908D01*
X368683451Y-177426192D01*
X368729451Y-177342640D01*
X368744317Y-177246716D01*
X368744865Y-177213663D01*
X368717850Y-177022289D01*
X368643138Y-176860200D01*
X368530233Y-176746430D01*
X368504024Y-176731209D01*
X368390189Y-176695362D01*
X368207235Y-176668221D01*
X367977002Y-176651479D01*
X367566537Y-176632025D01*
X367566537Y-177743816D01*
X367566537Y-178855608D01*
X365285904Y-178855608D01*
X365285904Y-177802323D01*
X365285904Y-177743816D01*
X365285904Y-174514199D01*
X368554089Y-174514199D01*
X371822273Y-174514199D01*
X371842957Y-174599722D01*
G37*
G36*
X358672068Y-162027732D02*
G01*
X358672068Y-165315646D01*
X355403160Y-165315646D01*
X352134252Y-165315646D01*
X352134252Y-163111033D01*
X355097910Y-163111033D01*
X355287443Y-163111033D01*
X355476974Y-163111033D01*
X355487581Y-162607393D01*
X355498187Y-162103752D01*
X355599051Y-162092079D01*
X355647292Y-162090642D01*
X355684765Y-162106656D01*
X355717045Y-162151351D01*
X355749704Y-162235951D01*
X355788314Y-162371684D01*
X355838449Y-162569779D01*
X355840705Y-162578884D01*
X355891759Y-162786947D01*
X355929072Y-162932739D01*
X355959317Y-163027221D01*
X355989171Y-163081351D01*
X356025306Y-163106086D01*
X356074400Y-163112386D01*
X356143128Y-163111210D01*
X356164837Y-163111033D01*
X356272787Y-163105647D01*
X356341030Y-163091889D01*
X356353425Y-163081324D01*
X356343440Y-163035385D01*
X356316183Y-162931401D01*
X356275687Y-162784298D01*
X356225991Y-162609006D01*
X356220388Y-162589512D01*
X356169799Y-162410409D01*
X356128059Y-162256183D01*
X356099246Y-162142380D01*
X356087439Y-162084542D01*
X356087351Y-162082587D01*
X356110733Y-162028570D01*
X356169529Y-161945751D01*
X356198813Y-161910819D01*
X356295766Y-161751773D01*
X356340889Y-161568647D01*
X356335629Y-161380992D01*
X356281435Y-161208361D01*
X356179753Y-161070304D01*
X356133924Y-161034247D01*
X356012071Y-160980710D01*
X355835921Y-160939747D01*
X355626600Y-160914393D01*
X355405229Y-160907685D01*
X355289128Y-160912811D01*
X355118080Y-160925425D01*
X355107994Y-162018229D01*
X355097910Y-163111033D01*
X352134252Y-163111033D01*
X352134252Y-162027732D01*
X352134252Y-158739818D01*
X355403160Y-158739818D01*
X358672068Y-158739818D01*
X358672068Y-162027732D01*
G37*
G36*
X390981045Y-169914923D02*
G01*
X390981045Y-173183832D01*
X387693131Y-173183832D01*
X384405217Y-173183832D01*
X384405217Y-170903197D01*
X387256010Y-170903197D01*
X387446063Y-170903197D01*
X387636115Y-170903197D01*
X387636115Y-170492346D01*
X387639828Y-170280280D01*
X387651758Y-170133332D01*
X387673093Y-170040927D01*
X387690573Y-170007712D01*
X387727952Y-169968435D01*
X387762865Y-169964597D01*
X387800110Y-170003726D01*
X387844492Y-170093353D01*
X387900812Y-170241003D01*
X387972227Y-170449292D01*
X388117645Y-170884193D01*
X388318896Y-170895852D01*
X388434476Y-170899984D01*
X388490035Y-170891500D01*
X388501206Y-170865280D01*
X388493071Y-170838835D01*
X388470837Y-170779811D01*
X388428039Y-170664034D01*
X388370085Y-170506203D01*
X388302379Y-170321012D01*
X388273732Y-170242446D01*
X388081467Y-169714732D01*
X388262345Y-169273176D01*
X388333030Y-169100461D01*
X388394067Y-168951001D01*
X388439196Y-168840157D01*
X388462153Y-168783289D01*
X388462730Y-168781825D01*
X388456026Y-168752026D01*
X388396528Y-168740884D01*
X388298406Y-168743813D01*
X388114578Y-168755601D01*
X387941865Y-169154712D01*
X387869912Y-169318855D01*
X387806353Y-169459960D01*
X387758656Y-169561680D01*
X387735893Y-169605393D01*
X387697276Y-169636551D01*
X387668263Y-169594745D01*
X387648705Y-169479274D01*
X387638445Y-169289433D01*
X387636698Y-169145209D01*
X387636115Y-168736597D01*
X387446063Y-168736597D01*
X387256010Y-168736597D01*
X387256010Y-169819896D01*
X387256010Y-170903197D01*
X384405217Y-170903197D01*
X384405217Y-169914923D01*
X384405217Y-169819896D01*
X384405217Y-166646015D01*
X387693131Y-166646015D01*
X390981045Y-166646015D01*
X390981045Y-169914923D01*
G37*
G36*
X333822663Y-158749108D02*
G01*
X337101074Y-158758822D01*
X337101074Y-162027732D01*
X337101074Y-165296640D01*
X333822663Y-165306354D01*
X330544252Y-165316067D01*
X330544252Y-162027732D01*
X330544252Y-162000443D01*
X332900966Y-162000443D01*
X332903009Y-162290295D01*
X332910758Y-162514688D01*
X332926547Y-162684115D01*
X332952719Y-162809062D01*
X332991608Y-162900021D01*
X333045556Y-162967480D01*
X333116901Y-163021928D01*
X333130610Y-163030451D01*
X333248719Y-163083967D01*
X333388023Y-163123424D01*
X333416353Y-163128397D01*
X333577598Y-163180094D01*
X333668997Y-163255672D01*
X333763588Y-163353875D01*
X333867234Y-163444769D01*
X333957868Y-163496263D01*
X334014216Y-163480316D01*
X334038966Y-163395540D01*
X334040641Y-163355224D01*
X334014552Y-163275568D01*
X333950634Y-163191275D01*
X333947227Y-163188021D01*
X333853231Y-163099716D01*
X333965683Y-162971640D01*
X334043262Y-162867290D01*
X334098553Y-162764463D01*
X334107192Y-162739733D01*
X334116756Y-162668321D01*
X334124995Y-162535719D01*
X334131349Y-162356755D01*
X334135259Y-162146254D01*
X334136250Y-161970716D01*
X334134115Y-161692604D01*
X334125749Y-161479154D01*
X334108202Y-161319075D01*
X334078529Y-161201081D01*
X334033779Y-161113882D01*
X333971010Y-161046186D01*
X333887270Y-160986708D01*
X333877833Y-160980902D01*
X333735661Y-160927851D01*
X333554736Y-160906221D01*
X333365681Y-160916355D01*
X333199119Y-160958592D01*
X333166980Y-160972997D01*
X333081258Y-161023205D01*
X333015935Y-161084028D01*
X332968323Y-161165861D01*
X332935727Y-161279101D01*
X332915457Y-161434146D01*
X332904820Y-161641397D01*
X332901124Y-161911246D01*
X332900966Y-162000443D01*
X330544252Y-162000443D01*
X330544252Y-158739395D01*
X333822663Y-158749108D01*
G37*
G36*
X351488072Y-162027732D02*
G01*
X351488072Y-165315646D01*
X348225498Y-165315646D01*
X347734066Y-165315357D01*
X347264514Y-165314519D01*
X346822395Y-165313176D01*
X346413254Y-165311370D01*
X346042646Y-165309143D01*
X345716117Y-165306539D01*
X345439219Y-165303600D01*
X345217500Y-165300368D01*
X345056511Y-165296888D01*
X344961803Y-165293201D01*
X344937585Y-165290306D01*
X344933770Y-165249332D01*
X344930130Y-165137887D01*
X344926706Y-164961522D01*
X344923543Y-164725785D01*
X344920681Y-164436226D01*
X344918165Y-164098395D01*
X344916037Y-163717843D01*
X344914340Y-163300117D01*
X344913116Y-162850770D01*
X344912593Y-162498236D01*
X348073418Y-162498236D01*
X348074214Y-162716191D01*
X348076296Y-162889685D01*
X348079586Y-163008407D01*
X348084004Y-163062049D01*
X348084307Y-163062979D01*
X348117900Y-163085637D01*
X348203575Y-163100622D01*
X348349503Y-163108792D01*
X348541061Y-163111033D01*
X348979375Y-163111033D01*
X348979375Y-162977996D01*
X348979375Y-162844959D01*
X348732306Y-162844959D01*
X348485238Y-162844959D01*
X348485238Y-162464853D01*
X348485238Y-162084746D01*
X348675290Y-162084746D01*
X348865343Y-162084746D01*
X348865343Y-161951710D01*
X348865343Y-161818673D01*
X348675290Y-161818673D01*
X348485238Y-161818673D01*
X348485238Y-161495584D01*
X348485238Y-161172494D01*
X348732306Y-161172494D01*
X348979375Y-161172494D01*
X348979375Y-161038250D01*
X348979375Y-160904006D01*
X348532751Y-160914716D01*
X348086127Y-160925425D01*
X348075997Y-161970177D01*
X348073986Y-162246127D01*
X348073418Y-162498236D01*
X344912593Y-162498236D01*
X344912409Y-162375350D01*
X344912244Y-162002392D01*
X344912244Y-158739818D01*
X348200158Y-158739818D01*
X351488072Y-158739818D01*
X351488072Y-162027732D01*
G37*
G36*
X401738035Y-186050405D02*
G01*
X401738035Y-189338319D01*
X398469125Y-189338319D01*
X395200217Y-189338319D01*
X395200217Y-186050405D01*
X395200217Y-185936373D01*
X396568598Y-185936373D01*
X396568598Y-186183442D01*
X398146037Y-186183442D01*
X398561697Y-186184323D01*
X398918892Y-186186919D01*
X399214573Y-186191157D01*
X399445690Y-186196966D01*
X399609198Y-186204274D01*
X399702043Y-186213010D01*
X399723475Y-186220506D01*
X399697610Y-186256755D01*
X399625049Y-186338300D01*
X399513345Y-186457188D01*
X399370047Y-186605454D01*
X399202711Y-186775139D01*
X399096299Y-186881544D01*
X398918576Y-187059315D01*
X398760401Y-187219354D01*
X398629299Y-187353903D01*
X398532793Y-187455194D01*
X398478409Y-187515465D01*
X398469125Y-187528671D01*
X398503236Y-187542161D01*
X398590022Y-187550506D01*
X398650007Y-187551822D01*
X398830888Y-187551822D01*
X399647449Y-186734599D01*
X400464009Y-185917375D01*
X399666462Y-185119151D01*
X398868916Y-184320924D01*
X398669021Y-184320924D01*
X398557425Y-184325815D01*
X398484908Y-184338380D01*
X398469217Y-184349433D01*
X398495021Y-184383255D01*
X398567371Y-184462679D01*
X398678754Y-184579858D01*
X398821651Y-184726950D01*
X398988548Y-184896105D01*
X399096391Y-185004237D01*
X399274033Y-185182865D01*
X399432144Y-185344168D01*
X399563209Y-185480287D01*
X399659713Y-185583366D01*
X399714140Y-185645547D01*
X399723475Y-185659921D01*
X399686781Y-185666216D01*
X399581965Y-185672050D01*
X399416929Y-185677274D01*
X399199571Y-185681743D01*
X398937790Y-185685308D01*
X398639484Y-185687823D01*
X398312555Y-185689140D01*
X398146037Y-185689305D01*
X396568598Y-185689305D01*
X396568598Y-185936373D01*
X395200217Y-185936373D01*
X395200217Y-185689305D01*
X395200217Y-182762492D01*
X398469125Y-182762492D01*
X401738035Y-182762492D01*
X401738035Y-186050405D01*
G37*
G36*
X394630059Y-178467297D02*
G01*
X394630059Y-181736207D01*
X391342145Y-181736207D01*
X388054231Y-181736207D01*
X388054231Y-178467297D01*
X388054231Y-178134374D01*
X389688686Y-178134374D01*
X389694264Y-178239761D01*
X389708461Y-178304961D01*
X389718278Y-178315256D01*
X389752375Y-178289423D01*
X389831933Y-178216955D01*
X389949089Y-178105398D01*
X390095981Y-177962298D01*
X390264747Y-177795204D01*
X390370342Y-177689474D01*
X390548084Y-177512932D01*
X390708802Y-177357381D01*
X390844640Y-177230091D01*
X390947742Y-177138336D01*
X391010251Y-177089386D01*
X391024939Y-177083548D01*
X391031890Y-177124629D01*
X391038325Y-177233624D01*
X391044078Y-177402429D01*
X391048980Y-177622934D01*
X391052868Y-177887036D01*
X391055575Y-178186629D01*
X391056936Y-178513605D01*
X391057066Y-178653258D01*
X391057708Y-178989432D01*
X391059539Y-179301819D01*
X391062421Y-179582266D01*
X391066212Y-179822615D01*
X391070774Y-180014715D01*
X391075970Y-180150406D01*
X391081654Y-180221534D01*
X391084065Y-180230112D01*
X391134217Y-180243151D01*
X391234784Y-180248146D01*
X391321631Y-180245949D01*
X391532199Y-180234789D01*
X391542118Y-178647847D01*
X391544877Y-178308830D01*
X391548672Y-177994580D01*
X391553313Y-177712976D01*
X391558617Y-177471893D01*
X391564393Y-177279206D01*
X391570457Y-177142791D01*
X391576625Y-177070524D01*
X391579732Y-177060907D01*
X391613205Y-177086673D01*
X391692561Y-177159081D01*
X391810149Y-177270798D01*
X391958317Y-177414494D01*
X392129414Y-177582835D01*
X392263505Y-177716181D01*
X392919584Y-178371456D01*
X392919584Y-178145171D01*
X392919584Y-177918884D01*
X392117592Y-177123391D01*
X391315600Y-176327896D01*
X390502143Y-177140695D01*
X389688686Y-177953492D01*
X389688686Y-178134374D01*
X388054231Y-178134374D01*
X388054231Y-177953492D01*
X388054231Y-175198389D01*
X391342145Y-175198389D01*
X394630059Y-175198389D01*
X394630059Y-178467297D01*
G37*
G36*
X326904739Y-182771782D02*
G01*
X330183152Y-182781496D01*
X330192864Y-186059907D01*
X330202578Y-189338319D01*
X326914453Y-189338319D01*
X323626328Y-189338319D01*
X323626328Y-186050195D01*
X323626328Y-185968924D01*
X324956699Y-185968924D01*
X324991915Y-185979420D01*
X325086414Y-185989690D01*
X325223465Y-185998188D01*
X325308297Y-186001466D01*
X325659894Y-186012395D01*
X325669596Y-186886637D01*
X325673110Y-187138727D01*
X325677647Y-187366505D01*
X325682869Y-187558579D01*
X325688439Y-187703555D01*
X325694020Y-187790043D01*
X325696910Y-187808394D01*
X325719368Y-187822421D01*
X325779448Y-187833617D01*
X325883466Y-187842233D01*
X326037746Y-187848518D01*
X326248611Y-187852723D01*
X326522379Y-187855102D01*
X326865374Y-187855902D01*
X326893368Y-187855907D01*
X328072213Y-187855907D01*
X328082392Y-186934150D01*
X328092570Y-186012395D01*
X328448176Y-185993389D01*
X328803780Y-185974383D01*
X328220113Y-185481354D01*
X328041555Y-185330330D01*
X327883162Y-185195989D01*
X327753996Y-185086048D01*
X327663121Y-185008226D01*
X327619596Y-184970237D01*
X327617439Y-184968170D01*
X327582149Y-184936220D01*
X327502536Y-184866524D01*
X327392015Y-184770780D01*
X327313353Y-184703038D01*
X327182065Y-184590124D01*
X327065092Y-184489353D01*
X326979487Y-184415422D01*
X326952195Y-184391739D01*
X326909494Y-184359929D01*
X326868718Y-184354985D01*
X326812553Y-184383357D01*
X326723684Y-184451491D01*
X326667117Y-184497911D01*
X326542051Y-184602277D01*
X326423082Y-184703455D01*
X326344084Y-184772369D01*
X326258928Y-184847239D01*
X326133213Y-184956143D01*
X325978472Y-185089251D01*
X325806237Y-185236734D01*
X325628041Y-185388762D01*
X325455418Y-185535506D01*
X325299897Y-185667134D01*
X325173012Y-185773817D01*
X325086295Y-185845724D01*
X325061227Y-185865859D01*
X324991360Y-185925875D01*
X324957337Y-185966040D01*
X324956699Y-185968924D01*
X323626328Y-185968924D01*
X323626328Y-182762068D01*
X326904739Y-182771782D01*
G37*
G36*
X343068962Y-174599722D02*
G01*
X343071993Y-174650064D01*
X343074646Y-174770676D01*
X343076902Y-174955801D01*
X343078743Y-175199691D01*
X343080153Y-175496591D01*
X343081113Y-175840749D01*
X343081603Y-176226415D01*
X343081608Y-176647833D01*
X343081110Y-177099253D01*
X343080088Y-177574923D01*
X343079189Y-177878133D01*
X343068732Y-181071020D01*
X339790321Y-181080734D01*
X336511910Y-181090448D01*
X336511910Y-178722960D01*
X339026217Y-178722960D01*
X339026829Y-178781083D01*
X339041425Y-178816764D01*
X339047057Y-178823173D01*
X339093297Y-178832588D01*
X339199716Y-178838716D01*
X339350523Y-178841042D01*
X339529927Y-178839051D01*
X339531692Y-178839011D01*
X339989877Y-178828397D01*
X339989877Y-178714367D01*
X339989877Y-178600334D01*
X339704798Y-178581330D01*
X339555449Y-178568303D01*
X339469303Y-178551542D01*
X339433544Y-178527484D01*
X339431432Y-178505307D01*
X339446870Y-178454227D01*
X339483704Y-178342364D01*
X339538220Y-178180696D01*
X339606702Y-177980193D01*
X339685438Y-177751830D01*
X339729458Y-177624967D01*
X339811054Y-177385745D01*
X339882419Y-177167690D01*
X339940146Y-176981949D01*
X339980825Y-176839676D01*
X340001055Y-176752021D01*
X340002359Y-176731719D01*
X339989626Y-176702060D01*
X339956374Y-176681508D01*
X339889933Y-176667929D01*
X339777632Y-176659189D01*
X339606803Y-176653154D01*
X339523785Y-176651122D01*
X339058617Y-176640450D01*
X339058617Y-176774658D01*
X339058617Y-176908865D01*
X339324691Y-176908865D01*
X339470988Y-176914305D01*
X339563354Y-176929446D01*
X339590765Y-176949148D01*
X339578771Y-176995252D01*
X339545147Y-177102387D01*
X339493433Y-177259857D01*
X339427169Y-177456958D01*
X339349897Y-177682990D01*
X339305687Y-177810864D01*
X339205193Y-178103271D01*
X339129077Y-178332547D01*
X339075264Y-178506827D01*
X339041670Y-178634252D01*
X339026217Y-178722960D01*
X336511910Y-178722960D01*
X336511910Y-177802323D01*
X336511910Y-174514199D01*
X339780094Y-174514199D01*
X343048279Y-174514199D01*
X343068962Y-174599722D01*
G37*
G36*
X379036437Y-177811616D02*
G01*
X379046151Y-181090026D01*
X375775837Y-181090026D01*
X375178880Y-181089816D01*
X374653953Y-181089144D01*
X374197067Y-181087954D01*
X373804233Y-181086188D01*
X373471463Y-181083787D01*
X373194766Y-181080697D01*
X372970154Y-181076857D01*
X372793636Y-181072210D01*
X372661224Y-181066701D01*
X372568930Y-181060268D01*
X372512762Y-181052858D01*
X372488732Y-181044409D01*
X372487401Y-181042513D01*
X372484771Y-180998111D01*
X372482481Y-180883317D01*
X372480547Y-180703758D01*
X372478983Y-180465064D01*
X372477801Y-180172863D01*
X372477019Y-179832783D01*
X372476649Y-179450453D01*
X372476705Y-179031500D01*
X372476909Y-178847403D01*
X374864566Y-178847403D01*
X375016608Y-178847403D01*
X375168650Y-178847403D01*
X375168650Y-178258240D01*
X375169988Y-178025484D01*
X375174528Y-177859471D01*
X375183061Y-177750958D01*
X375196372Y-177690705D01*
X375215253Y-177669470D01*
X375218975Y-177669076D01*
X375250851Y-177703280D01*
X375304033Y-177799687D01*
X375374016Y-177948998D01*
X375456303Y-178141910D01*
X375499436Y-178248737D01*
X375585168Y-178463334D01*
X375649275Y-178617441D01*
X375697831Y-178721362D01*
X375736912Y-178785401D01*
X375772592Y-178819863D01*
X375810949Y-178835051D01*
X375848223Y-178840309D01*
X375966873Y-178852220D01*
X375966873Y-177747505D01*
X375966873Y-176642791D01*
X375814830Y-176642791D01*
X375662787Y-176642791D01*
X375662787Y-177212949D01*
X375660682Y-177411362D01*
X375654880Y-177579746D01*
X375646154Y-177704963D01*
X375635276Y-177773872D01*
X375629268Y-177783107D01*
X375603610Y-177749926D01*
X375555298Y-177658541D01*
X375490257Y-177521194D01*
X375414417Y-177350128D01*
X375376266Y-177260462D01*
X375296474Y-177073042D01*
X375224501Y-176908759D01*
X375166513Y-176781334D01*
X375128671Y-176704484D01*
X375120050Y-176690304D01*
X375057810Y-176655430D01*
X374973944Y-176642791D01*
X374864566Y-176642791D01*
X374864566Y-177745096D01*
X374864566Y-178847403D01*
X372476909Y-178847403D01*
X372477203Y-178581554D01*
X372478155Y-178106244D01*
X372479092Y-177764102D01*
X372479149Y-177745096D01*
X372488906Y-174533205D01*
X375757814Y-174533205D01*
X379026723Y-174533205D01*
X379036437Y-177811616D01*
G37*
G36*
X380262066Y-162027732D02*
G01*
X380262066Y-165315646D01*
X376999492Y-165315646D01*
X376508059Y-165315357D01*
X376038509Y-165314519D01*
X375596388Y-165313176D01*
X375187249Y-165311370D01*
X374816639Y-165309143D01*
X374490112Y-165306539D01*
X374213212Y-165303600D01*
X373991495Y-165300368D01*
X373830507Y-165296888D01*
X373735798Y-165293201D01*
X373711580Y-165290306D01*
X373707765Y-165249332D01*
X373704123Y-165137887D01*
X373700700Y-164961522D01*
X373697536Y-164725785D01*
X373694675Y-164436226D01*
X373692159Y-164098395D01*
X373690032Y-163717843D01*
X373688334Y-163300117D01*
X373687112Y-162850770D01*
X373686404Y-162375350D01*
X373686256Y-162042918D01*
X376693199Y-162042918D01*
X376693402Y-162295895D01*
X376698437Y-162492257D01*
X376709392Y-162641683D01*
X376727358Y-162753855D01*
X376753422Y-162838450D01*
X376788673Y-162905148D01*
X376834199Y-162963631D01*
X376836479Y-162966195D01*
X376964693Y-163058751D01*
X377136417Y-163114870D01*
X377327347Y-163132463D01*
X377513172Y-163109442D01*
X377669586Y-163043715D01*
X377677348Y-163038475D01*
X377744573Y-162986732D01*
X377797193Y-162929300D01*
X377836976Y-162856626D01*
X377865689Y-162759160D01*
X377885103Y-162627354D01*
X377896985Y-162451656D01*
X377903103Y-162222516D01*
X377905225Y-161930383D01*
X377905352Y-161807087D01*
X377905412Y-160902254D01*
X377724861Y-160913839D01*
X377544311Y-160925425D01*
X377525305Y-161845361D01*
X377518021Y-162125050D01*
X377508708Y-162368128D01*
X377497894Y-162565748D01*
X377486107Y-162709068D01*
X377473873Y-162789243D01*
X377468289Y-162802439D01*
X377364293Y-162860242D01*
X377250582Y-162859023D01*
X377162542Y-162805203D01*
X377138759Y-162773719D01*
X377120224Y-162731683D01*
X377105999Y-162669252D01*
X377095146Y-162576585D01*
X377086729Y-162443836D01*
X377079810Y-162261161D01*
X377073455Y-162018717D01*
X377069178Y-161824278D01*
X377050174Y-160925425D01*
X376879125Y-160925425D01*
X376708078Y-160925425D01*
X376696742Y-161723646D01*
X376693199Y-162042918D01*
X373686256Y-162042918D01*
X373686238Y-162002392D01*
X373686238Y-158739818D01*
X376974152Y-158739818D01*
X380262066Y-158739818D01*
X380262066Y-162027732D01*
G37*
G36*
X373078070Y-162027732D02*
G01*
X373078070Y-165315646D01*
X369815496Y-165315646D01*
X369324063Y-165315357D01*
X368854511Y-165314519D01*
X368412392Y-165313176D01*
X368003252Y-165311370D01*
X367632643Y-165309143D01*
X367306114Y-165306539D01*
X367029216Y-165303600D01*
X366807497Y-165300368D01*
X366646509Y-165296888D01*
X366551800Y-165293201D01*
X366527582Y-165290306D01*
X366523767Y-165249332D01*
X366520127Y-165137887D01*
X366516704Y-164961522D01*
X366513540Y-164725785D01*
X366510679Y-164436226D01*
X366508163Y-164098395D01*
X366506034Y-163717843D01*
X366504338Y-163300117D01*
X366503114Y-162850770D01*
X366502408Y-162375350D01*
X366502242Y-162002392D01*
X366502242Y-160947256D01*
X369429055Y-160947256D01*
X369440343Y-160996587D01*
X369471664Y-161105557D01*
X369519208Y-161261617D01*
X369579160Y-161452221D01*
X369638113Y-161635355D01*
X369713550Y-161869367D01*
X369768256Y-162048101D01*
X369805558Y-162188401D01*
X369828776Y-162307103D01*
X369841236Y-162421051D01*
X369846259Y-162547082D01*
X369847172Y-162694640D01*
X369847172Y-163111033D01*
X370018219Y-163111033D01*
X370189266Y-163111033D01*
X370189266Y-162705875D01*
X370190419Y-162556641D01*
X370196053Y-162433170D01*
X370209433Y-162318903D01*
X370233832Y-162197276D01*
X370272510Y-162051726D01*
X370328738Y-161865693D01*
X370398326Y-161645954D01*
X370465401Y-161433510D01*
X370523549Y-161244814D01*
X370569057Y-161092300D01*
X370598206Y-160988398D01*
X370607383Y-160946620D01*
X370571998Y-160917763D01*
X370469620Y-160912432D01*
X370448792Y-160913737D01*
X370341773Y-160929855D01*
X370285685Y-160966849D01*
X370260983Y-161020451D01*
X370236113Y-161103396D01*
X370198057Y-161232610D01*
X370154695Y-161381315D01*
X370151176Y-161393448D01*
X370108010Y-161523685D01*
X370066530Y-161617354D01*
X370034458Y-161657657D01*
X370029660Y-161657774D01*
X370001117Y-161617955D01*
X369957244Y-161521718D01*
X369904980Y-161385327D01*
X369870438Y-161284777D01*
X369752145Y-160925425D01*
X369590599Y-160913737D01*
X369475807Y-160915401D01*
X369429832Y-160941425D01*
X369429055Y-160947256D01*
X366502242Y-160947256D01*
X366502242Y-158739818D01*
X369790156Y-158739818D01*
X373078070Y-158739818D01*
X373078070Y-162027732D01*
G37*
G36*
X347839058Y-169914923D02*
G01*
X347839058Y-173183832D01*
X344551144Y-173183832D01*
X341263230Y-173183832D01*
X341263230Y-170399559D01*
X344038837Y-170399559D01*
X344055273Y-170500704D01*
X344095194Y-170624086D01*
X344109770Y-170658421D01*
X344210914Y-170803980D01*
X344360288Y-170896142D01*
X344562675Y-170937444D01*
X344641140Y-170940342D01*
X344768241Y-170935309D01*
X344855248Y-170909093D01*
X344937722Y-170847043D01*
X344989584Y-170796791D01*
X345113145Y-170633956D01*
X345165420Y-170457692D01*
X345149636Y-170255516D01*
X345139856Y-170215557D01*
X345107090Y-170126173D01*
X345051185Y-170034538D01*
X344961468Y-169926670D01*
X344827263Y-169788584D01*
X344774657Y-169737164D01*
X344602530Y-169562559D01*
X344485777Y-169423254D01*
X344418699Y-169309284D01*
X344395592Y-169210682D01*
X344410760Y-169117480D01*
X344414440Y-169107341D01*
X344480585Y-169011481D01*
X344569779Y-168975406D01*
X344662910Y-168995637D01*
X344740872Y-169068702D01*
X344781802Y-169174180D01*
X344810729Y-169265210D01*
X344864462Y-169303133D01*
X344961182Y-169296354D01*
X345016774Y-169282796D01*
X345079331Y-169233818D01*
X345098126Y-169145355D01*
X345078773Y-169035723D01*
X345026889Y-168923238D01*
X344948091Y-168826217D01*
X344858699Y-168767217D01*
X344680959Y-168723364D01*
X344494430Y-168728863D01*
X344319111Y-168778114D01*
X344175002Y-168865519D01*
X344082539Y-168984519D01*
X344045622Y-169130908D01*
X344042487Y-169306812D01*
X344071941Y-169474249D01*
X344100175Y-169546208D01*
X344154089Y-169623272D01*
X344249661Y-169733650D01*
X344371571Y-169860337D01*
X344459937Y-169945482D01*
X344610284Y-170092064D01*
X344708528Y-170204637D01*
X344763624Y-170294485D01*
X344781480Y-170350791D01*
X344789113Y-170506630D01*
X344745757Y-170611909D01*
X344666183Y-170659273D01*
X344542666Y-170658175D01*
X344447145Y-170587234D01*
X344381581Y-170448031D01*
X344375291Y-170424729D01*
X344339543Y-170315279D01*
X344301643Y-170272319D01*
X344276914Y-170273895D01*
X344195773Y-170290820D01*
X344129920Y-170295029D01*
X344062190Y-170309360D01*
X344039685Y-170367371D01*
X344038837Y-170399559D01*
X341263230Y-170399559D01*
X341263230Y-169914923D01*
X341263230Y-166646015D01*
X344551144Y-166646015D01*
X347839058Y-166646015D01*
X347839058Y-169914923D01*
G37*
G36*
X387360750Y-186059907D02*
G01*
X387370464Y-189338319D01*
X384100150Y-189338319D01*
X383503194Y-189338107D01*
X382978266Y-189337435D01*
X382521381Y-189336245D01*
X382128547Y-189334479D01*
X381795777Y-189332080D01*
X381519080Y-189328990D01*
X381294467Y-189325149D01*
X381117949Y-189320503D01*
X380985538Y-189314994D01*
X380893243Y-189308561D01*
X380837075Y-189301149D01*
X380813046Y-189292700D01*
X380811715Y-189290806D01*
X380809085Y-189246402D01*
X380806795Y-189131608D01*
X380804860Y-188952050D01*
X380803296Y-188713355D01*
X380802115Y-188421154D01*
X380801333Y-188081076D01*
X380800962Y-187698746D01*
X380801018Y-187279793D01*
X380801516Y-186829847D01*
X380802468Y-186354535D01*
X380803405Y-186012395D01*
X380803658Y-185928940D01*
X382194126Y-185928940D01*
X382218087Y-185975490D01*
X382273002Y-186048041D01*
X382363420Y-186151763D01*
X382493888Y-186291833D01*
X382668958Y-186473416D01*
X382893174Y-186701689D01*
X382944208Y-186753294D01*
X383734625Y-187551822D01*
X383964985Y-187551822D01*
X384195345Y-187551822D01*
X383540070Y-186895744D01*
X383358435Y-186712782D01*
X383196131Y-186547171D01*
X383060487Y-186406567D01*
X382958838Y-186298629D01*
X382898519Y-186231013D01*
X382884795Y-186211554D01*
X382921488Y-186205530D01*
X383026303Y-186199949D01*
X383191341Y-186194951D01*
X383408699Y-186190676D01*
X383670481Y-186187266D01*
X383968786Y-186184858D01*
X384295715Y-186183599D01*
X384462233Y-186183442D01*
X386039672Y-186183442D01*
X386039672Y-185936373D01*
X386039672Y-185689305D01*
X384462233Y-185689305D01*
X384057117Y-185688829D01*
X383722504Y-185687292D01*
X383452877Y-185684528D01*
X383242725Y-185680375D01*
X383086531Y-185674665D01*
X382978783Y-185667236D01*
X382913967Y-185657921D01*
X382886566Y-185646559D01*
X382884795Y-185642198D01*
X382910630Y-185603067D01*
X382983148Y-185518635D01*
X383094871Y-185396949D01*
X383238315Y-185246050D01*
X383406003Y-185073985D01*
X383521052Y-184958009D01*
X384157310Y-184320924D01*
X383959222Y-184320924D01*
X383761133Y-184320924D01*
X383000242Y-185086301D01*
X382801772Y-185286232D01*
X382619583Y-185470318D01*
X382460937Y-185631175D01*
X382333094Y-185761424D01*
X382243317Y-185853687D01*
X382198864Y-185900578D01*
X382196572Y-185903223D01*
X382194126Y-185928940D01*
X380803658Y-185928940D01*
X380813219Y-182781496D01*
X384082127Y-182781496D01*
X387351037Y-182781496D01*
X387360750Y-186059907D01*
G37*
G36*
X369391045Y-169914923D02*
G01*
X369391045Y-173183832D01*
X366122137Y-173183832D01*
X362853227Y-173183832D01*
X362853227Y-169914923D01*
X362853227Y-169838902D01*
X365647004Y-169838902D01*
X365647465Y-170095735D01*
X365649615Y-170288453D01*
X365654605Y-170428964D01*
X365663588Y-170529170D01*
X365677709Y-170600978D01*
X365698126Y-170656294D01*
X365725986Y-170707022D01*
X365731851Y-170716537D01*
X365827736Y-170837363D01*
X365943214Y-170906749D01*
X366100396Y-170935863D01*
X366171378Y-170938635D01*
X366301696Y-170930615D01*
X366391534Y-170894507D01*
X366448682Y-170846183D01*
X366539703Y-170769633D01*
X366594865Y-170758937D01*
X366615941Y-170813889D01*
X366616274Y-170827177D01*
X366631015Y-170879407D01*
X366688691Y-170900610D01*
X366750384Y-170903197D01*
X366884494Y-170903197D01*
X366873918Y-170380553D01*
X366863342Y-169857908D01*
X366587765Y-169846739D01*
X366445834Y-169842076D01*
X366363576Y-169845816D01*
X366324716Y-169863008D01*
X366312981Y-169898705D01*
X366312189Y-169932263D01*
X366330271Y-170008598D01*
X366383556Y-170028955D01*
X366473391Y-170054671D01*
X366520775Y-170135069D01*
X366527849Y-170275018D01*
X366520872Y-170341419D01*
X366480466Y-170517224D01*
X366413211Y-170625723D01*
X366315376Y-170672028D01*
X366277791Y-170674552D01*
X366189086Y-170663932D01*
X366121644Y-170627515D01*
X366072745Y-170556679D01*
X366039672Y-170442812D01*
X366019702Y-170277296D01*
X366010119Y-170051516D01*
X366008104Y-169819896D01*
X366011663Y-169536749D01*
X366023908Y-169321118D01*
X366047194Y-169164757D01*
X366083873Y-169059427D01*
X366136301Y-168996885D01*
X366206831Y-168968890D01*
X366252180Y-168965241D01*
X366361302Y-168997728D01*
X366434138Y-169090965D01*
X366463881Y-169235630D01*
X366464231Y-169255630D01*
X366464231Y-169420785D01*
X366654285Y-169420785D01*
X366844338Y-169420785D01*
X366844338Y-169267524D01*
X366820033Y-169061558D01*
X366743977Y-168906903D01*
X366611455Y-168798584D01*
X366417757Y-168731629D01*
X366320575Y-168715115D01*
X366115045Y-168719984D01*
X365927511Y-168784387D01*
X365776898Y-168900159D01*
X365722195Y-168973354D01*
X365696012Y-169022839D01*
X365676674Y-169080070D01*
X365663163Y-169156770D01*
X365654460Y-169264671D01*
X365649549Y-169415500D01*
X365647407Y-169620982D01*
X365647004Y-169838902D01*
X362853227Y-169838902D01*
X362853227Y-166646015D01*
X366122137Y-166646015D01*
X369391045Y-166646015D01*
X369391045Y-169914923D01*
G37*
G36*
X331295171Y-177811616D02*
G01*
X331304885Y-181090026D01*
X328034573Y-181090026D01*
X327437615Y-181089816D01*
X326912687Y-181089144D01*
X326455802Y-181087954D01*
X326062969Y-181086188D01*
X325730197Y-181083787D01*
X325453500Y-181080697D01*
X325228888Y-181076857D01*
X325052372Y-181072210D01*
X324919960Y-181066701D01*
X324827664Y-181060268D01*
X324771496Y-181052858D01*
X324747467Y-181044409D01*
X324746135Y-181042513D01*
X324743506Y-180998111D01*
X324741216Y-180883317D01*
X324739283Y-180703758D01*
X324737717Y-180465064D01*
X324736537Y-180172863D01*
X324735754Y-179832783D01*
X324735385Y-179450453D01*
X324735430Y-179113477D01*
X326629164Y-179113477D01*
X326875266Y-179113477D01*
X327121370Y-179113477D01*
X327131839Y-178514810D01*
X327142306Y-177916145D01*
X327379872Y-177904828D01*
X327617439Y-177893511D01*
X327617439Y-177743282D01*
X327617439Y-177593055D01*
X327390100Y-177593055D01*
X327275630Y-177590129D01*
X327198680Y-177573099D01*
X327152497Y-177529586D01*
X327130338Y-177447209D01*
X327125450Y-177313589D01*
X327131037Y-177117795D01*
X327138760Y-176909505D01*
X327959533Y-176909505D01*
X327964042Y-177004520D01*
X327975297Y-177057169D01*
X327979760Y-177060907D01*
X328024687Y-177047562D01*
X328110792Y-177014467D01*
X328135840Y-177004143D01*
X328231343Y-176972558D01*
X328297464Y-176965548D01*
X328305667Y-176968376D01*
X328314490Y-177010392D01*
X328322461Y-177118544D01*
X328329270Y-177282951D01*
X328334606Y-177493731D01*
X328338159Y-177741001D01*
X328339619Y-178014879D01*
X328339640Y-178051424D01*
X328339640Y-179113477D01*
X328567701Y-179113477D01*
X328795765Y-179113477D01*
X328795765Y-177802113D01*
X328795765Y-176490748D01*
X328588951Y-176490748D01*
X328469810Y-176497340D01*
X328384249Y-176514291D01*
X328358197Y-176529482D01*
X328312951Y-176567217D01*
X328222199Y-176622863D01*
X328146895Y-176663158D01*
X328039007Y-176721820D01*
X327983194Y-176771260D01*
X327962405Y-176833895D01*
X327959533Y-176909505D01*
X327138760Y-176909505D01*
X327142306Y-176813838D01*
X327427386Y-176794832D01*
X327712464Y-176775828D01*
X327724262Y-176633288D01*
X327736058Y-176490748D01*
X327182611Y-176490748D01*
X326629164Y-176490748D01*
X326629164Y-177802113D01*
X326629164Y-179113477D01*
X324735430Y-179113477D01*
X324735441Y-179031500D01*
X324735937Y-178581554D01*
X324736889Y-178106244D01*
X324737722Y-177802113D01*
X324737826Y-177764102D01*
X324747640Y-174533205D01*
X328016550Y-174533205D01*
X331285457Y-174533205D01*
X331295171Y-177811616D01*
G37*
G36*
X361505666Y-174130451D02*
G01*
X361519473Y-174219104D01*
X361522861Y-174305141D01*
X361522861Y-174514199D01*
X363081291Y-174514199D01*
X364639725Y-174514199D01*
X364639725Y-177802113D01*
X364639725Y-181090026D01*
X361370818Y-181090026D01*
X358101910Y-181090026D01*
X358101910Y-177802509D01*
X358101910Y-176671298D01*
X360305202Y-176671298D01*
X360311565Y-176714617D01*
X360330197Y-176822999D01*
X360359361Y-176986793D01*
X360397315Y-177196341D01*
X360442321Y-177441990D01*
X360492641Y-177714083D01*
X360504012Y-177775241D01*
X360704143Y-178850674D01*
X360911167Y-178839536D01*
X361118191Y-178828397D01*
X361318645Y-177783107D01*
X361370859Y-177509532D01*
X361418139Y-177259309D01*
X361458630Y-177042456D01*
X361490478Y-176868994D01*
X361511826Y-176748946D01*
X361520821Y-176692334D01*
X361520981Y-176690304D01*
X361486255Y-176657038D01*
X361380418Y-176643172D01*
X361351814Y-176642791D01*
X361249732Y-176648457D01*
X361188454Y-176662793D01*
X361180573Y-176671298D01*
X361174344Y-176730059D01*
X361157618Y-176845696D01*
X361132810Y-177004003D01*
X361102341Y-177190781D01*
X361068630Y-177391823D01*
X361034094Y-177592926D01*
X361001153Y-177779885D01*
X360972226Y-177938498D01*
X360949733Y-178054563D01*
X360936091Y-178113872D01*
X360934136Y-178118428D01*
X360909059Y-178126537D01*
X360883926Y-178094666D01*
X360856752Y-178015651D01*
X360825545Y-177882334D01*
X360788315Y-177687556D01*
X360745879Y-177441012D01*
X360702036Y-177176519D01*
X360668461Y-176977560D01*
X360641775Y-176834882D01*
X360618600Y-176739230D01*
X360595559Y-176681354D01*
X360569270Y-176651996D01*
X360536358Y-176641908D01*
X360493443Y-176641835D01*
X360454445Y-176642791D01*
X360360364Y-176649293D01*
X360308585Y-176665484D01*
X360305202Y-176671298D01*
X358101910Y-176671298D01*
X358101910Y-174514989D01*
X359783877Y-174505092D01*
X360184881Y-174502530D01*
X360515461Y-174499847D01*
X360781209Y-174496813D01*
X360987725Y-174493197D01*
X361140599Y-174488770D01*
X361245431Y-174483299D01*
X361307816Y-174476559D01*
X361333348Y-174468314D01*
X361327623Y-174458337D01*
X361296237Y-174446396D01*
X361285767Y-174443287D01*
X361186921Y-174407338D01*
X361131723Y-174372363D01*
X361127421Y-174356218D01*
X361176343Y-174337608D01*
X361231478Y-174344622D01*
X361352079Y-174378343D01*
X361416492Y-174385918D01*
X361442262Y-174359696D01*
X361446942Y-174292019D01*
X361446839Y-174250687D01*
X361455140Y-174154535D01*
X361475912Y-174100429D01*
X361484851Y-174096082D01*
X361505666Y-174130451D01*
G37*
G36*
X394544746Y-186059907D02*
G01*
X394554460Y-189338319D01*
X391284148Y-189338319D01*
X390687190Y-189338107D01*
X390162262Y-189337435D01*
X389705377Y-189336245D01*
X389312544Y-189334479D01*
X388979773Y-189332080D01*
X388703076Y-189328990D01*
X388478463Y-189325149D01*
X388301947Y-189320503D01*
X388169534Y-189314994D01*
X388077239Y-189308561D01*
X388021071Y-189301149D01*
X387997042Y-189292700D01*
X387995711Y-189290806D01*
X387993081Y-189246402D01*
X387990791Y-189131608D01*
X387988858Y-188952050D01*
X387987292Y-188713355D01*
X387986112Y-188421154D01*
X387985329Y-188081076D01*
X387984958Y-187698746D01*
X387985016Y-187279793D01*
X387985512Y-186829847D01*
X387986464Y-186354535D01*
X387987401Y-186012395D01*
X387987631Y-185937187D01*
X389688686Y-185937187D01*
X389688686Y-186164513D01*
X389688686Y-186391837D01*
X390477065Y-187180887D01*
X390677542Y-187380912D01*
X390860520Y-187562282D01*
X391019169Y-187718323D01*
X391146664Y-187842365D01*
X391236178Y-187927738D01*
X391280879Y-187967764D01*
X391284466Y-187969938D01*
X391315093Y-187944100D01*
X391392608Y-187870973D01*
X391510263Y-187757148D01*
X391661312Y-187609209D01*
X391839004Y-187433746D01*
X392036594Y-187237344D01*
X392111535Y-187162545D01*
X392919584Y-186355153D01*
X392919584Y-186174271D01*
X392915529Y-186068869D01*
X392905217Y-186003672D01*
X392898089Y-185993389D01*
X392866229Y-186019073D01*
X392788471Y-186091143D01*
X392672570Y-186202127D01*
X392526282Y-186344558D01*
X392357360Y-186510964D01*
X392247009Y-186620563D01*
X392067472Y-186798059D01*
X391905044Y-186956069D01*
X391767642Y-187087098D01*
X391663182Y-187183654D01*
X391599581Y-187238245D01*
X391584314Y-187247738D01*
X391577186Y-187211031D01*
X391570591Y-187106121D01*
X391564696Y-186940828D01*
X391559662Y-186722970D01*
X391555655Y-186460364D01*
X391552838Y-186160829D01*
X391551376Y-185832183D01*
X391551203Y-185670299D01*
X391551203Y-184092861D01*
X391304135Y-184092861D01*
X391057066Y-184092861D01*
X391057066Y-185670299D01*
X391056413Y-186008268D01*
X391054544Y-186321442D01*
X391051603Y-186601925D01*
X391047729Y-186841817D01*
X391043064Y-187033216D01*
X391037748Y-187168227D01*
X391031923Y-187238947D01*
X391028954Y-187247738D01*
X390995362Y-187221971D01*
X390915899Y-187149557D01*
X390798217Y-187037833D01*
X390649977Y-186894129D01*
X390478833Y-186725778D01*
X390344764Y-186592462D01*
X389688686Y-185937187D01*
X387987631Y-185937187D01*
X387997215Y-182781496D01*
X391266125Y-182781496D01*
X394535033Y-182781496D01*
X394544746Y-186059907D01*
G37*
G36*
X362207052Y-169914923D02*
G01*
X362207091Y-170499350D01*
X362207033Y-171012140D01*
X362206618Y-171457673D01*
X362205579Y-171840331D01*
X362203655Y-172164500D01*
X362200581Y-172434559D01*
X362196097Y-172654893D01*
X362189936Y-172829882D01*
X362181839Y-172963910D01*
X362171539Y-173061361D01*
X362158775Y-173126614D01*
X362143285Y-173164054D01*
X362124802Y-173178062D01*
X362103068Y-173173022D01*
X362077814Y-173153316D01*
X362048783Y-173123324D01*
X362016526Y-173088302D01*
X361945444Y-173035154D01*
X361889854Y-173026722D01*
X361867946Y-173057162D01*
X361897915Y-173120631D01*
X361901630Y-173125204D01*
X361921419Y-173159651D01*
X361897806Y-173177238D01*
X361817559Y-173183368D01*
X361758139Y-173183832D01*
X361638906Y-173189170D01*
X361574429Y-173210062D01*
X361543890Y-173253825D01*
X361541865Y-173259853D01*
X361507741Y-173321282D01*
X361482289Y-173335873D01*
X361453479Y-173304015D01*
X361446839Y-173259853D01*
X361437535Y-173215491D01*
X361397489Y-173192635D01*
X361308515Y-173184499D01*
X361242907Y-173183832D01*
X361088130Y-173195780D01*
X360976969Y-173236848D01*
X360934243Y-173266214D01*
X360829509Y-173348598D01*
X360855657Y-173266214D01*
X360881805Y-173183832D01*
X358256513Y-173183832D01*
X355631224Y-173183832D01*
X355631224Y-173033292D01*
X361127881Y-173033292D01*
X361160914Y-173056732D01*
X361257806Y-173051435D01*
X361269908Y-173049015D01*
X361364715Y-173021504D01*
X361425087Y-172990607D01*
X361425300Y-172990408D01*
X361448663Y-172948051D01*
X361408337Y-172931375D01*
X361312814Y-172942193D01*
X361259477Y-172955045D01*
X361160227Y-172994826D01*
X361127881Y-173033292D01*
X355631224Y-173033292D01*
X355631224Y-170903197D01*
X358672068Y-170903197D01*
X358860986Y-170903197D01*
X359049903Y-170903197D01*
X359060540Y-170418563D01*
X359071179Y-169933929D01*
X359270735Y-169922440D01*
X359386699Y-169913671D01*
X359445872Y-169895750D01*
X359467367Y-169855215D01*
X359470290Y-169781886D01*
X359467056Y-169706700D01*
X359444614Y-169667136D01*
X359383855Y-169649736D01*
X359270735Y-169641333D01*
X359071179Y-169629845D01*
X359071179Y-169306754D01*
X359071179Y-168983664D01*
X359308745Y-168972347D01*
X359438214Y-168964619D01*
X359509262Y-168951031D01*
X359539417Y-168922468D01*
X359546208Y-168869814D01*
X359546312Y-168848814D01*
X359546312Y-168736597D01*
X359109189Y-168736597D01*
X358672068Y-168736597D01*
X358672068Y-169819896D01*
X358672068Y-170903197D01*
X355631224Y-170903197D01*
X355631224Y-169914923D01*
X355631224Y-169819896D01*
X355631224Y-166646015D01*
X358919138Y-166646015D01*
X362207052Y-166646015D01*
X362207052Y-169914923D01*
G37*
G36*
X350262442Y-177811616D02*
G01*
X350272156Y-181090026D01*
X347001844Y-181090026D01*
X346404885Y-181089816D01*
X345879959Y-181089144D01*
X345423072Y-181087954D01*
X345030240Y-181086188D01*
X344697470Y-181083787D01*
X344420773Y-181080697D01*
X344196160Y-181076857D01*
X344019642Y-181072210D01*
X343887231Y-181066701D01*
X343794936Y-181060268D01*
X343738768Y-181052858D01*
X343714737Y-181044409D01*
X343713408Y-181042513D01*
X343710776Y-180998111D01*
X343708488Y-180883317D01*
X343706553Y-180703758D01*
X343704989Y-180465064D01*
X343703808Y-180172863D01*
X343703026Y-179832783D01*
X343702655Y-179450453D01*
X343702711Y-179031500D01*
X343703208Y-178581554D01*
X343704161Y-178106244D01*
X343705098Y-177764102D01*
X343708503Y-176642791D01*
X345899499Y-176642791D01*
X345960092Y-176785331D01*
X346000278Y-176881880D01*
X346059277Y-177026100D01*
X346127732Y-177195044D01*
X346170445Y-177301206D01*
X346320205Y-177674543D01*
X346110362Y-178243825D01*
X346039234Y-178437811D01*
X345978427Y-178605592D01*
X345932385Y-178734748D01*
X345905558Y-178812858D01*
X345900519Y-178830256D01*
X345932372Y-178847290D01*
X346008044Y-178848546D01*
X346097705Y-178837091D01*
X346171530Y-178815991D01*
X346195882Y-178799890D01*
X346226037Y-178743324D01*
X346271818Y-178635325D01*
X346324633Y-178496522D01*
X346338986Y-178456432D01*
X346391459Y-178322459D01*
X346440089Y-178223677D01*
X346476647Y-178176011D01*
X346484836Y-178174268D01*
X346517208Y-178213256D01*
X346569267Y-178306142D01*
X346632138Y-178436374D01*
X346663952Y-178508223D01*
X346801723Y-178828397D01*
X346978565Y-178839995D01*
X347155410Y-178851591D01*
X347083144Y-178668946D01*
X347034767Y-178548462D01*
X346968901Y-178386741D01*
X346897345Y-178212703D01*
X346873815Y-178155862D01*
X346813849Y-178003656D01*
X346767786Y-177872136D01*
X346742243Y-177780934D01*
X346739229Y-177756751D01*
X346752860Y-177697197D01*
X346788497Y-177581810D01*
X346841132Y-177425819D01*
X346905760Y-177244451D01*
X346924307Y-177193944D01*
X346988565Y-177012692D01*
X347038762Y-176856669D01*
X347070841Y-176739674D01*
X347080746Y-176675511D01*
X347078704Y-176668530D01*
X347024761Y-176650405D01*
X346932121Y-176648890D01*
X346925107Y-176649524D01*
X346861784Y-176659735D01*
X346817132Y-176685619D01*
X346780005Y-176742486D01*
X346739253Y-176845642D01*
X346701714Y-176956249D01*
X346645984Y-177118854D01*
X346602299Y-177218756D01*
X346562700Y-177254626D01*
X346519222Y-177225143D01*
X346463909Y-177128977D01*
X346388796Y-176964808D01*
X346360012Y-176899362D01*
X346247382Y-176642791D01*
X346073440Y-176642791D01*
X345899499Y-176642791D01*
X343708503Y-176642791D01*
X343714912Y-174533205D01*
X346983820Y-174533205D01*
X350252728Y-174533205D01*
X350262442Y-177811616D01*
G37*
G36*
X353464956Y-174520827D02*
G01*
X353940626Y-174521849D01*
X354243838Y-174522748D01*
X357436726Y-174533205D01*
X357446440Y-177811616D01*
X357456153Y-181090026D01*
X354193369Y-181090026D01*
X353701919Y-181089737D01*
X353232352Y-181088901D01*
X352790214Y-181087558D01*
X352381058Y-181085751D01*
X352010431Y-181083524D01*
X351683883Y-181080920D01*
X351406965Y-181077982D01*
X351185226Y-181074750D01*
X351024215Y-181071270D01*
X350929483Y-181067583D01*
X350905244Y-181064686D01*
X350901417Y-181023704D01*
X350897766Y-180912268D01*
X350894335Y-180735945D01*
X350891165Y-180500302D01*
X350888299Y-180210905D01*
X350885781Y-179873325D01*
X350883656Y-179493125D01*
X350881963Y-179075872D01*
X350880749Y-178627134D01*
X350880055Y-178152481D01*
X350879902Y-177796503D01*
X350879902Y-177703779D01*
X353124591Y-177703779D01*
X353124672Y-177734373D01*
X353127782Y-178023374D01*
X353136409Y-178247013D01*
X353152597Y-178415869D01*
X353178380Y-178540523D01*
X353215806Y-178631554D01*
X353266913Y-178699543D01*
X353319620Y-178744897D01*
X353475209Y-178821973D01*
X353661866Y-178858380D01*
X353852160Y-178853029D01*
X354018665Y-178804830D01*
X354070442Y-178774739D01*
X354203739Y-178650273D01*
X354285844Y-178492297D01*
X354324344Y-178305753D01*
X354349330Y-178087192D01*
X354154044Y-178087192D01*
X353958759Y-178087192D01*
X353958759Y-178236760D01*
X353940538Y-178418516D01*
X353884622Y-178537138D01*
X353789122Y-178596553D01*
X353785525Y-178597486D01*
X353689443Y-178600344D01*
X353600550Y-178545823D01*
X353590525Y-178536618D01*
X353498281Y-178449959D01*
X353509959Y-177719234D01*
X353515751Y-177475434D01*
X353524438Y-177265975D01*
X353535329Y-177101541D01*
X353547733Y-176992809D01*
X353559648Y-176951376D01*
X353623374Y-176914696D01*
X353698893Y-176889255D01*
X353813715Y-176892393D01*
X353898283Y-176961056D01*
X353947698Y-177089100D01*
X353958759Y-177215031D01*
X353958759Y-177407167D01*
X354139309Y-177395581D01*
X354319859Y-177383996D01*
X354315186Y-177191892D01*
X354284081Y-176980576D01*
X354205160Y-176815179D01*
X354083156Y-176705339D01*
X354074034Y-176700450D01*
X353932745Y-176656831D01*
X353754553Y-176641638D01*
X353570832Y-176654023D01*
X353412962Y-176693138D01*
X353357805Y-176719785D01*
X353280610Y-176774823D01*
X353222142Y-176840530D01*
X353179941Y-176927609D01*
X353151544Y-177046767D01*
X353134493Y-177208712D01*
X353126330Y-177424146D01*
X353124591Y-177703779D01*
X350879902Y-177703779D01*
X350879902Y-174553657D01*
X350965426Y-174532973D01*
X351015770Y-174529942D01*
X351136380Y-174527290D01*
X351321506Y-174525034D01*
X351565395Y-174523192D01*
X351862295Y-174521782D01*
X352206453Y-174520824D01*
X352592118Y-174520332D01*
X353013537Y-174520327D01*
X353464956Y-174520827D01*
G37*
G36*
X338023040Y-186059907D02*
G01*
X338032754Y-189338319D01*
X334762442Y-189338319D01*
X334165484Y-189338107D01*
X333640558Y-189337435D01*
X333183672Y-189336245D01*
X332790838Y-189334479D01*
X332458068Y-189332080D01*
X332181371Y-189328990D01*
X331956759Y-189325149D01*
X331780241Y-189320503D01*
X331647829Y-189314994D01*
X331555535Y-189308561D01*
X331499367Y-189301149D01*
X331475336Y-189292700D01*
X331474006Y-189290806D01*
X331471376Y-189246402D01*
X331469086Y-189131608D01*
X331467152Y-188952050D01*
X331465588Y-188713355D01*
X331464406Y-188421154D01*
X331463624Y-188081076D01*
X331463254Y-187698746D01*
X331463304Y-187323758D01*
X333547086Y-187323758D01*
X333793189Y-187323758D01*
X334039293Y-187323758D01*
X334049761Y-186725093D01*
X334060228Y-186126426D01*
X334297795Y-186115109D01*
X334535361Y-186103794D01*
X334535361Y-185955379D01*
X334535361Y-185806964D01*
X334297795Y-185795647D01*
X334060228Y-185784332D01*
X334053341Y-185537262D01*
X334904831Y-185537262D01*
X335138212Y-185537262D01*
X335371593Y-185537262D01*
X335371593Y-185370426D01*
X335395838Y-185213059D01*
X335460737Y-185098506D01*
X335554542Y-185035351D01*
X335665497Y-185032180D01*
X335764731Y-185083228D01*
X335834221Y-185156423D01*
X335862053Y-185249411D01*
X335864895Y-185321461D01*
X335859627Y-185407210D01*
X335841566Y-185494839D01*
X335805944Y-185593818D01*
X335747993Y-185713627D01*
X335662942Y-185863735D01*
X335546025Y-186053622D01*
X335392472Y-186292757D01*
X335320305Y-186403438D01*
X335176190Y-186625966D01*
X335069931Y-186796214D01*
X334996143Y-186924421D01*
X334949439Y-187020833D01*
X334924428Y-187095690D01*
X334915728Y-187159234D01*
X334915466Y-187173152D01*
X334915466Y-187323758D01*
X335580652Y-187323758D01*
X336245836Y-187323758D01*
X336245836Y-187171717D01*
X336245836Y-187019674D01*
X335864537Y-187019674D01*
X335679633Y-187017076D01*
X335558832Y-187008233D01*
X335490367Y-186991573D01*
X335462621Y-186965944D01*
X335476231Y-186917990D01*
X335527228Y-186818088D01*
X335609564Y-186676682D01*
X335717189Y-186504212D01*
X335827803Y-186335359D01*
X335994187Y-186082777D01*
X336120096Y-185880778D01*
X336210240Y-185718815D01*
X336269337Y-185586339D01*
X336302100Y-185472803D01*
X336313241Y-185367660D01*
X336307628Y-185261707D01*
X336256983Y-185029945D01*
X336161188Y-184857859D01*
X336016280Y-184741963D01*
X335818288Y-184678779D01*
X335626651Y-184663855D01*
X335388025Y-184691561D01*
X335198645Y-184776964D01*
X335058065Y-184920489D01*
X334965842Y-185122556D01*
X334925907Y-185333055D01*
X334904831Y-185537262D01*
X334053341Y-185537262D01*
X334049414Y-185396346D01*
X334038599Y-185008360D01*
X334334494Y-184997235D01*
X334630388Y-184986109D01*
X334642184Y-184843570D01*
X334653982Y-184701030D01*
X334100533Y-184701030D01*
X333547086Y-184701030D01*
X333547086Y-186012395D01*
X333547086Y-187323758D01*
X331463304Y-187323758D01*
X331463310Y-187279793D01*
X331463808Y-186829847D01*
X331464760Y-186354535D01*
X331465697Y-186012395D01*
X331475511Y-182781496D01*
X334744419Y-182781496D01*
X338013326Y-182781496D01*
X338023040Y-186059907D01*
G37*
G36*
X386220433Y-177811616D02*
G01*
X386230147Y-181090026D01*
X382959835Y-181090026D01*
X382362876Y-181089816D01*
X381837949Y-181089144D01*
X381381063Y-181087954D01*
X380988231Y-181086188D01*
X380655459Y-181083787D01*
X380378762Y-181080697D01*
X380154150Y-181076857D01*
X379977633Y-181072210D01*
X379845220Y-181066701D01*
X379752926Y-181060268D01*
X379696758Y-181052858D01*
X379672728Y-181044409D01*
X379671397Y-181042513D01*
X379668767Y-180998111D01*
X379666477Y-180883317D01*
X379664544Y-180703758D01*
X379662979Y-180465064D01*
X379661799Y-180172863D01*
X379661015Y-179832783D01*
X379660645Y-179450453D01*
X379660702Y-179031500D01*
X379660905Y-178847403D01*
X382074842Y-178847403D01*
X382207937Y-178847403D01*
X382341031Y-178847403D01*
X382365671Y-178419784D01*
X382376638Y-178199788D01*
X382385694Y-177962997D01*
X382391545Y-177745914D01*
X382392915Y-177650070D01*
X382394794Y-177490202D01*
X382399079Y-177396829D01*
X382408229Y-177360425D01*
X382424695Y-177371467D01*
X382450938Y-177420425D01*
X382451717Y-177422008D01*
X382477443Y-177496658D01*
X382513054Y-177631076D01*
X382554983Y-177810205D01*
X382599656Y-178018990D01*
X382632090Y-178182219D01*
X382677312Y-178415745D01*
X382711973Y-178585148D01*
X382739712Y-178700988D01*
X382764163Y-178773821D01*
X382788963Y-178814211D01*
X382817749Y-178832717D01*
X382854156Y-178839898D01*
X382858756Y-178840445D01*
X382945082Y-178832331D01*
X382980954Y-178801143D01*
X382994076Y-178748453D01*
X383018253Y-178634157D01*
X383050839Y-178471425D01*
X383089188Y-178273422D01*
X383124043Y-178088811D01*
X383179524Y-177806951D01*
X383226690Y-177600537D01*
X383265617Y-177469462D01*
X383296379Y-177413617D01*
X383319051Y-177432891D01*
X383333711Y-177527177D01*
X383340431Y-177696362D01*
X383340922Y-177774100D01*
X383343820Y-177991382D01*
X383351518Y-178232163D01*
X383362512Y-178452465D01*
X383365759Y-178501442D01*
X383390596Y-178851349D01*
X383508299Y-178839874D01*
X383626000Y-178828397D01*
X383612381Y-177764102D01*
X383608255Y-177486759D01*
X383603395Y-177234326D01*
X383598084Y-177016764D01*
X383592600Y-176844037D01*
X383587223Y-176726104D01*
X383582235Y-176672933D01*
X383581630Y-176671298D01*
X383541427Y-176658237D01*
X383455815Y-176648117D01*
X383351827Y-176642174D01*
X383256503Y-176641643D01*
X383196881Y-176647763D01*
X383188879Y-176653339D01*
X383180840Y-176707596D01*
X383158952Y-176819851D01*
X383126559Y-176975107D01*
X383087005Y-177158363D01*
X383043631Y-177354623D01*
X382999785Y-177548887D01*
X382958806Y-177726158D01*
X382924041Y-177871437D01*
X382898834Y-177969726D01*
X382887586Y-178004831D01*
X382866653Y-178022949D01*
X382843550Y-178000166D01*
X382816530Y-177930311D01*
X382783851Y-177807214D01*
X382743763Y-177624702D01*
X382694519Y-177376606D01*
X382663462Y-177212949D01*
X382560025Y-176661795D01*
X382342305Y-176650397D01*
X382124584Y-176638996D01*
X382124429Y-177258565D01*
X382122649Y-177519097D01*
X382117877Y-177801240D01*
X382110787Y-178075087D01*
X382102052Y-178310722D01*
X382099558Y-178362769D01*
X382074842Y-178847403D01*
X379660905Y-178847403D01*
X379661199Y-178581554D01*
X379662151Y-178106244D01*
X379663088Y-177764102D01*
X379672902Y-174533205D01*
X382941811Y-174533205D01*
X386210719Y-174533205D01*
X386220433Y-177811616D01*
G37*
G36*
X344304076Y-162027732D02*
G01*
X344304076Y-165315646D01*
X341041502Y-165315646D01*
X340550070Y-165315357D01*
X340080518Y-165314519D01*
X339638397Y-165313176D01*
X339229258Y-165311370D01*
X338858650Y-165309143D01*
X338532121Y-165306539D01*
X338255221Y-165303600D01*
X338033504Y-165300368D01*
X337872515Y-165296888D01*
X337777807Y-165293201D01*
X337753589Y-165290306D01*
X337749774Y-165249332D01*
X337746132Y-165137887D01*
X337742710Y-164961522D01*
X337739547Y-164725785D01*
X337736685Y-164436226D01*
X337734169Y-164098395D01*
X337732041Y-163717843D01*
X337730344Y-163300117D01*
X337729120Y-162850770D01*
X337728413Y-162375350D01*
X337728248Y-162002392D01*
X337728248Y-160934928D01*
X340261967Y-160934928D01*
X340262749Y-160977139D01*
X340272096Y-161082908D01*
X340288557Y-161240436D01*
X340310686Y-161437925D01*
X340337034Y-161663575D01*
X340366154Y-161905585D01*
X340396594Y-162152155D01*
X340426910Y-162391486D01*
X340455650Y-162611779D01*
X340481368Y-162801232D01*
X340502614Y-162948049D01*
X340517942Y-163040427D01*
X340523246Y-163063520D01*
X340569958Y-163100445D01*
X340657680Y-163113617D01*
X340755800Y-163104765D01*
X340833708Y-163075619D01*
X340859693Y-163044514D01*
X340871599Y-162985119D01*
X340891464Y-162865137D01*
X340916984Y-162699307D01*
X340945860Y-162502370D01*
X340961965Y-162388832D01*
X340992260Y-162182320D01*
X341021536Y-162000086D01*
X341047276Y-161856542D01*
X341066974Y-161766092D01*
X341074277Y-161744281D01*
X341094369Y-161729411D01*
X341116488Y-161761129D01*
X341141923Y-161844921D01*
X341171969Y-161986272D01*
X341207917Y-162190665D01*
X341251061Y-162463588D01*
X341264208Y-162550376D01*
X341348521Y-163111033D01*
X341493685Y-163111033D01*
X341592138Y-163103507D01*
X341652862Y-163084877D01*
X341658361Y-163079461D01*
X341670411Y-163030990D01*
X341689313Y-162919773D01*
X341713580Y-162757654D01*
X341741727Y-162556483D01*
X341772268Y-162328107D01*
X341803711Y-162084371D01*
X341834571Y-161837121D01*
X341863362Y-161598208D01*
X341888595Y-161379478D01*
X341908785Y-161192775D01*
X341922442Y-161049950D01*
X341928081Y-160962847D01*
X341926730Y-160941704D01*
X341872762Y-160913945D01*
X341784323Y-160907791D01*
X341699549Y-160922320D01*
X341660056Y-160948128D01*
X341647029Y-160998443D01*
X341627652Y-161110580D01*
X341604002Y-161270814D01*
X341578148Y-161465411D01*
X341561351Y-161602079D01*
X341528211Y-161873147D01*
X341500759Y-162069676D01*
X341476777Y-162191563D01*
X341454045Y-162238702D01*
X341430342Y-162210992D01*
X341403451Y-162108327D01*
X341371149Y-161930606D01*
X341331220Y-161677724D01*
X341317960Y-161590723D01*
X341285296Y-161381662D01*
X341254990Y-161198727D01*
X341229392Y-161055266D01*
X341210846Y-160964628D01*
X341203478Y-160940002D01*
X341150556Y-160912916D01*
X341067461Y-160908285D01*
X340996641Y-160926064D01*
X340980734Y-160940250D01*
X340968212Y-160988236D01*
X340947975Y-161097196D01*
X340922453Y-161252765D01*
X340894075Y-161440577D01*
X340882695Y-161519911D01*
X340845305Y-161781925D01*
X340816246Y-161976941D01*
X340793736Y-162113310D01*
X340775993Y-162199379D01*
X340761234Y-162243498D01*
X340747674Y-162254012D01*
X340733532Y-162239275D01*
X340730275Y-162233666D01*
X340715476Y-162178099D01*
X340695161Y-162061953D01*
X340671622Y-161900273D01*
X340647157Y-161708101D01*
X340637914Y-161628621D01*
X340609623Y-161378442D01*
X340587453Y-161193797D01*
X340568268Y-161064760D01*
X340548931Y-160981409D01*
X340526302Y-160933823D01*
X340497244Y-160912078D01*
X340458618Y-160906249D01*
X340409512Y-160906420D01*
X340317070Y-160913946D01*
X340264101Y-160932328D01*
X340261967Y-160934928D01*
X337728248Y-160934928D01*
X337728248Y-158739818D01*
X341016162Y-158739818D01*
X344304076Y-158739818D01*
X344304076Y-162027732D01*
G37*
G36*
X329774749Y-162189276D02*
G01*
X329784463Y-165467687D01*
X326514151Y-165467687D01*
X325917192Y-165467476D01*
X325392265Y-165466805D01*
X324935379Y-165465615D01*
X324542545Y-165463848D01*
X324209775Y-165461448D01*
X323933078Y-165458357D01*
X323708466Y-165454519D01*
X323531948Y-165449873D01*
X323399537Y-165444361D01*
X323307242Y-165437930D01*
X323251074Y-165430518D01*
X323227044Y-165422069D01*
X323225713Y-165420174D01*
X323223083Y-165375771D01*
X323220793Y-165260977D01*
X323218861Y-165081418D01*
X323217295Y-164842724D01*
X323216115Y-164550523D01*
X323215331Y-164210443D01*
X323214961Y-163828113D01*
X323215017Y-163409162D01*
X323215344Y-163113445D01*
X324918689Y-163113445D01*
X325365313Y-163102735D01*
X325811937Y-163092027D01*
X325811937Y-162977996D01*
X325811937Y-162863964D01*
X325555364Y-162852725D01*
X325298794Y-162841484D01*
X325298794Y-162814074D01*
X326045779Y-162814074D01*
X326063511Y-162858688D01*
X326168874Y-163000011D01*
X326317411Y-163082890D01*
X326515472Y-163110819D01*
X326521711Y-163110844D01*
X326653986Y-163105678D01*
X326741706Y-163082602D01*
X326816020Y-163030683D01*
X326854304Y-162994076D01*
X326946381Y-162868322D01*
X326973792Y-162735755D01*
X326935010Y-162591712D01*
X326828513Y-162431531D01*
X326702815Y-162302086D01*
X327199535Y-162302086D01*
X327208959Y-162562122D01*
X327238774Y-162759653D01*
X327291840Y-162906151D01*
X327371022Y-163013088D01*
X327378995Y-163020670D01*
X327449300Y-163073055D01*
X327532888Y-163100617D01*
X327656177Y-163110460D01*
X327715090Y-163111033D01*
X327852557Y-163107164D01*
X327942064Y-163089436D01*
X328011529Y-163048665D01*
X328070642Y-162994076D01*
X328150448Y-162896556D01*
X328183253Y-162793985D01*
X328187597Y-162708998D01*
X328187597Y-162540873D01*
X328040412Y-162540873D01*
X327945177Y-162545926D01*
X327898578Y-162575603D01*
X327875795Y-162651690D01*
X327869204Y-162691118D01*
X327827732Y-162818990D01*
X327758605Y-162887265D01*
X327670246Y-162888843D01*
X327646927Y-162878408D01*
X327619380Y-162855751D01*
X327600439Y-162814018D01*
X327588544Y-162740603D01*
X327582142Y-162622900D01*
X327579673Y-162448305D01*
X327579427Y-162331816D01*
X327580258Y-162124584D01*
X327583925Y-161980470D01*
X327592185Y-161886572D01*
X327606802Y-161829996D01*
X327629533Y-161797844D01*
X327654577Y-161781128D01*
X327737559Y-161772914D01*
X327814318Y-161823399D01*
X327868158Y-161915987D01*
X327883513Y-162008726D01*
X327889515Y-162081845D01*
X327922052Y-162114349D01*
X328002907Y-162122578D01*
X328035554Y-162122758D01*
X328187597Y-162122758D01*
X328187597Y-161948786D01*
X328176404Y-161820691D01*
X328132614Y-161727325D01*
X328076488Y-161663707D01*
X328002615Y-161599504D01*
X327927152Y-161566071D01*
X327820976Y-161553804D01*
X327739519Y-161552599D01*
X327547275Y-161572339D01*
X327401925Y-161635591D01*
X327299109Y-161748405D01*
X327234471Y-161916832D01*
X327203650Y-162146921D01*
X327199535Y-162302086D01*
X326702815Y-162302086D01*
X326652772Y-162250551D01*
X326593888Y-162198067D01*
X326472407Y-162087120D01*
X326402068Y-162006745D01*
X326372456Y-161942893D01*
X326370771Y-161896912D01*
X326408766Y-161814606D01*
X326483930Y-161783064D01*
X326575473Y-161803861D01*
X326659873Y-161875040D01*
X326731771Y-161943619D01*
X326808397Y-161954557D01*
X326835330Y-161949039D01*
X326914200Y-161903358D01*
X326925843Y-161826263D01*
X326869546Y-161723165D01*
X326865884Y-161718594D01*
X326739724Y-161611339D01*
X326590945Y-161557459D01*
X326435337Y-161552912D01*
X326288683Y-161593650D01*
X326166773Y-161675630D01*
X326085394Y-161794808D01*
X326059850Y-161925089D01*
X326073176Y-162043600D01*
X326120830Y-162156418D01*
X326211787Y-162277375D01*
X326355014Y-162420306D01*
X326417611Y-162476719D01*
X326561071Y-162613994D01*
X326641561Y-162719088D01*
X326661480Y-162798627D01*
X326623223Y-162859246D01*
X326567772Y-162891879D01*
X326500537Y-162914501D01*
X326447001Y-162900109D01*
X326380668Y-162838640D01*
X326356098Y-162811515D01*
X326281701Y-162734962D01*
X326226706Y-162707762D01*
X326163084Y-162719863D01*
X326133335Y-162731627D01*
X326059646Y-162770526D01*
X326045779Y-162814074D01*
X325298794Y-162814074D01*
X325298794Y-162463115D01*
X325298794Y-162084746D01*
X325488847Y-162084746D01*
X325678900Y-162084746D01*
X325678900Y-161951710D01*
X325678900Y-161818673D01*
X325488847Y-161818673D01*
X325298794Y-161818673D01*
X325298794Y-161497320D01*
X325298794Y-161175967D01*
X325555364Y-161164729D01*
X325811937Y-161153488D01*
X325811937Y-161039457D01*
X325811937Y-160925425D01*
X325365313Y-160914716D01*
X324918689Y-160904006D01*
X324918689Y-162008726D01*
X324918689Y-163113445D01*
X323215344Y-163113445D01*
X323215515Y-162959216D01*
X323216467Y-162483905D01*
X323217404Y-162141763D01*
X323217808Y-162008726D01*
X323227218Y-158910865D01*
X326496127Y-158910865D01*
X329765035Y-158910865D01*
X329774749Y-162189276D01*
G37*
G36*
X332701563Y-169905421D02*
G01*
X332711276Y-173183832D01*
X329440963Y-173183832D01*
X328844006Y-173183620D01*
X328319078Y-173182948D01*
X327862193Y-173181758D01*
X327469359Y-173179992D01*
X327136589Y-173177593D01*
X326859892Y-173174503D01*
X326635279Y-173170662D01*
X326458761Y-173166016D01*
X326326350Y-173160507D01*
X326234055Y-173154074D01*
X326177887Y-173146662D01*
X326153858Y-173138214D01*
X326152527Y-173136319D01*
X326149897Y-173091917D01*
X326147607Y-172977121D01*
X326145672Y-172797563D01*
X326144108Y-172558868D01*
X326142929Y-172266669D01*
X326142145Y-171926589D01*
X326141774Y-171544259D01*
X326141830Y-171125306D01*
X326142328Y-170675360D01*
X326142481Y-170599113D01*
X327579427Y-170599113D01*
X327902517Y-170599113D01*
X328059798Y-170597622D01*
X328155887Y-170590890D01*
X328205593Y-170575526D01*
X328223723Y-170548144D01*
X328225607Y-170525175D01*
X328212619Y-170478604D01*
X328161437Y-170453180D01*
X328053734Y-170440223D01*
X328045057Y-170439651D01*
X327864507Y-170428066D01*
X327859056Y-170052424D01*
X328434665Y-170052424D01*
X328435498Y-170231724D01*
X328440407Y-170351716D01*
X328453009Y-170429111D01*
X328476916Y-170480621D01*
X328515746Y-170522960D01*
X328541314Y-170545420D01*
X328687205Y-170625689D01*
X328845133Y-170637479D01*
X328995824Y-170581505D01*
X329064763Y-170526017D01*
X329117663Y-170468847D01*
X329150404Y-170413371D01*
X329167805Y-170339877D01*
X329174686Y-170228653D01*
X329175871Y-170071678D01*
X329175205Y-170048067D01*
X329422939Y-170048067D01*
X329423747Y-170228460D01*
X329428537Y-170349415D01*
X329440867Y-170427512D01*
X329464292Y-170479331D01*
X329502367Y-170521455D01*
X329529589Y-170545420D01*
X329668139Y-170621747D01*
X329820918Y-170638455D01*
X329952341Y-170599113D01*
X330392209Y-170599113D01*
X330506240Y-170599113D01*
X330570378Y-170595854D01*
X330604451Y-170573877D01*
X330618058Y-170514875D01*
X330620797Y-170400548D01*
X330620854Y-170380553D01*
X330632108Y-170202544D01*
X330662166Y-170097307D01*
X330707187Y-170065543D01*
X330763330Y-170107953D01*
X330826753Y-170225241D01*
X330867885Y-170335390D01*
X330914264Y-170466285D01*
X330952756Y-170541182D01*
X330996729Y-170577071D01*
X331059561Y-170590940D01*
X331069892Y-170592019D01*
X331152378Y-170590581D01*
X331190176Y-170571005D01*
X331190431Y-170568739D01*
X331176778Y-170518984D01*
X331140600Y-170418857D01*
X331089073Y-170287972D01*
X331076400Y-170257019D01*
X331022187Y-170119353D01*
X330981945Y-170005352D01*
X330962969Y-169935989D01*
X330962367Y-169929272D01*
X330981219Y-169870514D01*
X331029823Y-169772920D01*
X331076400Y-169692729D01*
X331138421Y-169587605D01*
X331179836Y-169509121D01*
X331190431Y-169480692D01*
X331157470Y-169465711D01*
X331077194Y-169465070D01*
X331067995Y-169465891D01*
X330992510Y-169482914D01*
X330932221Y-169527788D01*
X330868888Y-169617251D01*
X330830429Y-169683842D01*
X330753748Y-169814009D01*
X330698065Y-169886322D01*
X330660135Y-169897357D01*
X330636715Y-169843689D01*
X330624562Y-169721894D01*
X330620433Y-169528550D01*
X330620273Y-169461964D01*
X330620273Y-169002670D01*
X330506240Y-169002670D01*
X330392209Y-169002670D01*
X330392209Y-169800892D01*
X330392209Y-170599113D01*
X329952341Y-170599113D01*
X329964010Y-170595620D01*
X330032836Y-170543826D01*
X330109744Y-170423665D01*
X330126136Y-170334767D01*
X330116993Y-170253133D01*
X330074095Y-170222716D01*
X330014512Y-170219008D01*
X329936116Y-170228960D01*
X329901707Y-170274459D01*
X329890978Y-170342542D01*
X329872645Y-170429202D01*
X329828070Y-170462460D01*
X329784040Y-170466076D01*
X329689015Y-170466076D01*
X329689015Y-170047960D01*
X329689015Y-169629845D01*
X329784040Y-169629845D01*
X329851951Y-169642814D01*
X329882721Y-169696593D01*
X329890978Y-169753378D01*
X329908233Y-169839077D01*
X329952550Y-169872304D01*
X330014512Y-169876912D01*
X330090094Y-169868995D01*
X330120675Y-169829793D01*
X330122572Y-169800892D01*
X330126136Y-169746635D01*
X330093628Y-169618919D01*
X330007880Y-169524433D01*
X329886553Y-169468979D01*
X329747308Y-169458360D01*
X329607806Y-169498384D01*
X329529589Y-169550606D01*
X329482344Y-169594349D01*
X329451627Y-169639021D01*
X329433882Y-169701209D01*
X329425554Y-169797497D01*
X329423087Y-169944470D01*
X329422939Y-170048067D01*
X329175205Y-170048067D01*
X329171196Y-169906156D01*
X329158725Y-169760102D01*
X329140782Y-169657226D01*
X329132929Y-169634202D01*
X329051224Y-169538317D01*
X328925864Y-169481810D01*
X328779533Y-169466930D01*
X328634913Y-169495922D01*
X328514685Y-169571038D01*
X328512958Y-169572752D01*
X328477420Y-169616569D01*
X328454490Y-169673359D01*
X328441504Y-169759464D01*
X328435793Y-169891235D01*
X328434665Y-170052424D01*
X327859056Y-170052424D01*
X327854166Y-169715368D01*
X327843824Y-169002670D01*
X327711626Y-169002670D01*
X327579427Y-169002670D01*
X327579427Y-169800892D01*
X327579427Y-170599113D01*
X326142481Y-170599113D01*
X326143280Y-170200048D01*
X326144217Y-169857908D01*
X326144391Y-169800892D01*
X326154031Y-166627009D01*
X329422939Y-166627009D01*
X332691849Y-166627009D01*
X332701563Y-169905421D01*
G37*
%TO.C,J2*%
D12*
X80240001Y-41930000D02*
X80240002Y-40550000D01*
X81620001Y-41929999D02*
X80240001Y-41930000D01*
X82890001Y-39170000D02*
X93160001Y-39170000D01*
X82890001Y-41930000D02*
X82890001Y-39170000D01*
X82890001Y-41930000D02*
X93160001Y-41930000D01*
X93160001Y-41930000D02*
X93160001Y-39170000D01*
%TO.C,J1*%
X114880000Y-41930000D02*
X114880001Y-40550000D01*
X116260000Y-41929999D02*
X114880000Y-41930000D01*
X117530000Y-39170000D02*
X127800000Y-39170000D01*
X117530000Y-41930000D02*
X117530000Y-39170000D01*
X117530000Y-41930000D02*
X127800000Y-41930000D01*
X127800000Y-41930000D02*
X127800000Y-39170000D01*
%TD*%
%LPC*%
D14*
%TO.C,D1*%
X62300000Y-53150000D03*
X60200000Y-53150000D03*
%TD*%
%TO.C,D2*%
X69900000Y-53150000D03*
X67800000Y-53150000D03*
%TD*%
%TO.C,D3*%
X77500000Y-53150000D03*
X75400000Y-53150000D03*
%TD*%
%TO.C,D4*%
X91700000Y-53150000D03*
X89600000Y-53150000D03*
%TD*%
%TO.C,D5*%
X106250000Y-53150000D03*
X104150000Y-53150000D03*
%TD*%
%TO.C,D6*%
X120400000Y-53150000D03*
X118300000Y-53150000D03*
%TD*%
%TO.C,D7*%
X65950000Y-60850000D03*
X63850000Y-60850000D03*
%TD*%
%TO.C,D8*%
X73800000Y-60850000D03*
X71700000Y-60850000D03*
%TD*%
%TO.C,D9*%
X79500000Y-60850000D03*
X77400000Y-60850000D03*
%TD*%
%TO.C,D10*%
X94350000Y-60850000D03*
X92250000Y-60850000D03*
%TD*%
%TO.C,D11*%
X109800000Y-60850000D03*
X107700000Y-60850000D03*
%TD*%
%TO.C,D12*%
X124000000Y-60850000D03*
X121900000Y-60850000D03*
%TD*%
%TO.C,D13*%
X64200000Y-68900000D03*
X62100000Y-68900000D03*
%TD*%
%TO.C,D14*%
X83950000Y-76950000D03*
X81850000Y-76950000D03*
%TD*%
%TO.C,D15*%
X83250000Y-68900000D03*
X81150000Y-68900000D03*
%TD*%
%TO.C,D16*%
X97800000Y-68900000D03*
X95700000Y-68900000D03*
%TD*%
%TO.C,D17*%
X112150000Y-68900000D03*
X110050000Y-68900000D03*
%TD*%
%TO.C,D18*%
X127600000Y-68900000D03*
X125500000Y-68900000D03*
%TD*%
%TO.C,D19*%
X63200000Y-76950000D03*
X61100000Y-76950000D03*
%TD*%
%TO.C,D20*%
X134800000Y-76950000D03*
X132700000Y-76950000D03*
%TD*%
%TO.C,D21*%
X90600000Y-68900000D03*
X88500000Y-68900000D03*
%TD*%
%TO.C,D22*%
X104850000Y-68900000D03*
X102750000Y-68900000D03*
%TD*%
%TO.C,D23*%
X119350000Y-68900000D03*
X117250000Y-68900000D03*
%TD*%
%TO.C,D24*%
X131200000Y-60850000D03*
X129100000Y-60850000D03*
%TD*%
%TO.C,D25*%
X71050000Y-76950000D03*
X68950000Y-76950000D03*
%TD*%
%TO.C,D26*%
X120350000Y-76950000D03*
X118250000Y-76950000D03*
%TD*%
%TO.C,D27*%
X88200000Y-60850000D03*
X86100000Y-60850000D03*
%TD*%
%TO.C,D28*%
X102550000Y-60850000D03*
X100450000Y-60850000D03*
%TD*%
%TO.C,D29*%
X116950000Y-60850000D03*
X114850000Y-60850000D03*
%TD*%
%TO.C,D30*%
X127800000Y-53150000D03*
X125700000Y-53150000D03*
%TD*%
%TO.C,D31*%
X76050000Y-68900000D03*
X73950000Y-68900000D03*
%TD*%
%TO.C,D32*%
X127600000Y-76950000D03*
X125500000Y-76950000D03*
%TD*%
%TO.C,D33*%
X84600000Y-53150000D03*
X82500000Y-53150000D03*
%TD*%
%TO.C,D34*%
X98800000Y-53150000D03*
X96700000Y-53150000D03*
%TD*%
%TO.C,D35*%
X113350000Y-53150000D03*
X111250000Y-53150000D03*
%TD*%
%TO.C,D36*%
X134950000Y-53150000D03*
X132850000Y-53150000D03*
%TD*%
D15*
%TO.C,SW29*%
X113400000Y-55500000D03*
X118221780Y-55505468D03*
X113400000Y-59000000D03*
X118200000Y-59000000D03*
%TD*%
%TO.C,SW14*%
X80500000Y-71600000D03*
X85321780Y-71605468D03*
X80500000Y-75100000D03*
X85300000Y-75100000D03*
%TD*%
%TO.C,SW13*%
X60850000Y-63450000D03*
X65671780Y-63455468D03*
X60850000Y-66950000D03*
X65650000Y-66950000D03*
%TD*%
%TO.C,SW16*%
X94250000Y-63450000D03*
X99071780Y-63455468D03*
X94250000Y-66950000D03*
X99050000Y-66950000D03*
%TD*%
%TO.C,SW6*%
X117000000Y-47800000D03*
X121821780Y-47805468D03*
X117000000Y-51300000D03*
X121800000Y-51300000D03*
%TD*%
%TO.C,SW33*%
X81050000Y-47800000D03*
X85871780Y-47805468D03*
X81050000Y-51300000D03*
X85850000Y-51300000D03*
%TD*%
%TO.C,SW25*%
X67600000Y-71600000D03*
X72421780Y-71605468D03*
X67600000Y-75100000D03*
X72400000Y-75100000D03*
%TD*%
%TO.C,SW8*%
X70150000Y-55500000D03*
X74971780Y-55505468D03*
X70150000Y-59000000D03*
X74950000Y-59000000D03*
%TD*%
%TO.C,SW35*%
X109850000Y-47800000D03*
X114671780Y-47805468D03*
X109850000Y-51300000D03*
X114650000Y-51300000D03*
%TD*%
%TO.C,SW18*%
X124200000Y-63450000D03*
X129021780Y-63455468D03*
X124200000Y-66950000D03*
X129000000Y-66950000D03*
%TD*%
%TO.C,SW7*%
X62300000Y-55500000D03*
X67121780Y-55505468D03*
X62300000Y-59000000D03*
X67100000Y-59000000D03*
%TD*%
%TO.C,SW12*%
X120500000Y-55500000D03*
X125321780Y-55505468D03*
X120500000Y-59000000D03*
X125300000Y-59000000D03*
%TD*%
%TO.C,SW32*%
X124150000Y-71600000D03*
X128971780Y-71605468D03*
X124150000Y-75100000D03*
X128950000Y-75100000D03*
%TD*%
D16*
%TO.C,J2*%
X81620001Y-40550000D03*
D17*
X84160001Y-40550000D03*
X86700000Y-40550000D03*
X89240001Y-40550000D03*
X91780001Y-40550000D03*
%TD*%
D15*
%TO.C,SW4*%
X88250000Y-47800000D03*
X93071780Y-47805468D03*
X88250000Y-51300000D03*
X93050000Y-51300000D03*
%TD*%
%TO.C,SW24*%
X127800000Y-55500000D03*
X132621780Y-55505468D03*
X127800000Y-59000000D03*
X132600000Y-59000000D03*
%TD*%
%TO.C,SW10*%
X91800000Y-55500000D03*
X96621780Y-55505468D03*
X91800000Y-59000000D03*
X96600000Y-59000000D03*
%TD*%
%TO.C,SW5*%
X102650000Y-47800000D03*
X107471780Y-47805468D03*
X102650000Y-51300000D03*
X107450000Y-51300000D03*
%TD*%
%TO.C,SW1*%
X59300000Y-47800000D03*
X64121780Y-47805468D03*
X59300000Y-51300000D03*
X64100000Y-51300000D03*
%TD*%
%TO.C,SW34*%
X95450000Y-47800000D03*
X100271780Y-47805468D03*
X95450000Y-51300000D03*
X100250000Y-51300000D03*
%TD*%
%TO.C,SW23*%
X115800000Y-63450000D03*
X120621780Y-63455468D03*
X115800000Y-66950000D03*
X120600000Y-66950000D03*
%TD*%
%TO.C,SW15*%
X79850000Y-63450000D03*
X84671780Y-63455468D03*
X79850000Y-66950000D03*
X84650000Y-66950000D03*
%TD*%
%TO.C,SW9*%
X77500000Y-55500000D03*
X82321780Y-55505468D03*
X77500000Y-59000000D03*
X82300000Y-59000000D03*
%TD*%
%TO.C,SW2*%
X66650000Y-47800000D03*
X71471780Y-47805468D03*
X66650000Y-51300000D03*
X71450000Y-51300000D03*
%TD*%
%TO.C,SW36*%
X131400000Y-47800000D03*
X136221780Y-47805468D03*
X131400000Y-51300000D03*
X136200000Y-51300000D03*
%TD*%
%TO.C,SW21*%
X87000000Y-63450000D03*
X91821780Y-63455468D03*
X87000000Y-66950000D03*
X91800000Y-66950000D03*
%TD*%
%TO.C,SW3*%
X73900000Y-47800000D03*
X78721780Y-47805468D03*
X73900000Y-51300000D03*
X78700000Y-51300000D03*
%TD*%
%TO.C,SW22*%
X101450000Y-63450000D03*
X106271780Y-63455468D03*
X101450000Y-66950000D03*
X106250000Y-66950000D03*
%TD*%
%TO.C,SW19*%
X59750000Y-71600000D03*
X64571780Y-71605468D03*
X59750000Y-75100000D03*
X64550000Y-75100000D03*
%TD*%
D16*
%TO.C,J1*%
X116260000Y-40550000D03*
D17*
X118800000Y-40550000D03*
X121339999Y-40550000D03*
X123880000Y-40550000D03*
X126420000Y-40550000D03*
%TD*%
D15*
%TO.C,SW20*%
X131350000Y-71600000D03*
X136171780Y-71605468D03*
X131350000Y-75100000D03*
X136150000Y-75100000D03*
%TD*%
%TO.C,SW26*%
X116900000Y-71600000D03*
X121721780Y-71605468D03*
X116900000Y-75100000D03*
X121700000Y-75100000D03*
%TD*%
%TO.C,SW31*%
X72600000Y-63450000D03*
X77421780Y-63455468D03*
X72600000Y-66950000D03*
X77400000Y-66950000D03*
%TD*%
%TO.C,SW28*%
X99050000Y-55500000D03*
X103871780Y-55505468D03*
X99050000Y-59000000D03*
X103850000Y-59000000D03*
%TD*%
%TO.C,SW30*%
X124250000Y-47800000D03*
X129071780Y-47805468D03*
X124250000Y-51300000D03*
X129050000Y-51300000D03*
%TD*%
%TO.C,SW27*%
X84600000Y-55500000D03*
X89421780Y-55505468D03*
X84600000Y-59000000D03*
X89400000Y-59000000D03*
%TD*%
%TO.C,SW11*%
X106200000Y-55500000D03*
X111021780Y-55505468D03*
X106200000Y-59000000D03*
X111000000Y-59000000D03*
%TD*%
%TO.C,SW17*%
X108650000Y-63450000D03*
X113471780Y-63455468D03*
X108650000Y-66950000D03*
X113450000Y-66950000D03*
%TD*%
%LPD*%
M02*
