%TF.GenerationSoftware,KiCad,Pcbnew,10.0.3*%
%TF.CreationDate,2026-06-20T21:24:58-04:00*%
%TF.ProjectId,SpyderDumbKeyboard,53707964-6572-4447-956d-624b6579626f,rev?*%
%TF.SameCoordinates,Original*%
%TF.FileFunction,Paste,Top*%
%TF.FilePolarity,Positive*%
%FSLAX46Y46*%
G04 Gerber Fmt 4.6, Leading zero omitted, Abs format (unit mm)*
G04 Created by KiCad (PCBNEW 10.0.3) date 2026-06-20 21:24:58*
%MOMM*%
%LPD*%
G01*
G04 APERTURE LIST*
G04 Aperture macros list*
%AMRoundRect*
0 Rectangle with rounded corners*
0 $1 Rounding radius*
0 $2 $3 $4 $5 $6 $7 $8 $9 X,Y pos of 4 corners*
0 Add a 4 corners polygon primitive as box body*
4,1,4,$2,$3,$4,$5,$6,$7,$8,$9,$2,$3,0*
0 Add four circle primitives for the rounded corners*
1,1,$1+$1,$2,$3*
1,1,$1+$1,$4,$5*
1,1,$1+$1,$6,$7*
1,1,$1+$1,$8,$9*
0 Add four rect primitives between the rounded corners*
20,1,$1+$1,$2,$3,$4,$5,0*
20,1,$1+$1,$4,$5,$6,$7,0*
20,1,$1+$1,$6,$7,$8,$9,0*
20,1,$1+$1,$8,$9,$2,$3,0*%
G04 Aperture macros list end*
%ADD10RoundRect,0.112500X-0.187500X-0.112500X0.187500X-0.112500X0.187500X0.112500X-0.187500X0.112500X0*%
%ADD11RoundRect,0.185860X-0.502206X-0.433672X0.502206X-0.433672X0.502206X0.433672X-0.502206X0.433672X0*%
G04 APERTURE END LIST*
D10*
%TO.C,D1*%
X62300000Y-53150000D03*
X60200000Y-53150000D03*
%TD*%
%TO.C,D2*%
X69900000Y-53150000D03*
X67800000Y-53150000D03*
%TD*%
%TO.C,D3*%
X77500000Y-53150000D03*
X75400000Y-53150000D03*
%TD*%
%TO.C,D4*%
X91700000Y-53150000D03*
X89600000Y-53150000D03*
%TD*%
%TO.C,D5*%
X106250000Y-53150000D03*
X104150000Y-53150000D03*
%TD*%
%TO.C,D6*%
X120400000Y-53150000D03*
X118300000Y-53150000D03*
%TD*%
%TO.C,D7*%
X65950000Y-60850000D03*
X63850000Y-60850000D03*
%TD*%
%TO.C,D8*%
X73800000Y-60850000D03*
X71700000Y-60850000D03*
%TD*%
%TO.C,D9*%
X79500000Y-60850000D03*
X77400000Y-60850000D03*
%TD*%
%TO.C,D10*%
X94350000Y-60850000D03*
X92250000Y-60850000D03*
%TD*%
%TO.C,D11*%
X109800000Y-60850000D03*
X107700000Y-60850000D03*
%TD*%
%TO.C,D12*%
X124000000Y-60850000D03*
X121900000Y-60850000D03*
%TD*%
%TO.C,D13*%
X64200000Y-68900000D03*
X62100000Y-68900000D03*
%TD*%
%TO.C,D14*%
X83950000Y-76950000D03*
X81850000Y-76950000D03*
%TD*%
%TO.C,D15*%
X83250000Y-68900000D03*
X81150000Y-68900000D03*
%TD*%
%TO.C,D16*%
X97800000Y-68900000D03*
X95700000Y-68900000D03*
%TD*%
%TO.C,D17*%
X112150000Y-68900000D03*
X110050000Y-68900000D03*
%TD*%
%TO.C,D18*%
X127600000Y-68900000D03*
X125500000Y-68900000D03*
%TD*%
%TO.C,D19*%
X63200000Y-76950000D03*
X61100000Y-76950000D03*
%TD*%
%TO.C,D20*%
X134800000Y-76950000D03*
X132700000Y-76950000D03*
%TD*%
%TO.C,D21*%
X90600000Y-68900000D03*
X88500000Y-68900000D03*
%TD*%
%TO.C,D22*%
X104850000Y-68900000D03*
X102750000Y-68900000D03*
%TD*%
%TO.C,D23*%
X119350000Y-68900000D03*
X117250000Y-68900000D03*
%TD*%
%TO.C,D24*%
X131200000Y-60850000D03*
X129100000Y-60850000D03*
%TD*%
%TO.C,D25*%
X71050000Y-76950000D03*
X68950000Y-76950000D03*
%TD*%
%TO.C,D26*%
X120350000Y-76950000D03*
X118250000Y-76950000D03*
%TD*%
%TO.C,D27*%
X88200000Y-60850000D03*
X86100000Y-60850000D03*
%TD*%
%TO.C,D28*%
X102550000Y-60850000D03*
X100450000Y-60850000D03*
%TD*%
%TO.C,D29*%
X116950000Y-60850000D03*
X114850000Y-60850000D03*
%TD*%
%TO.C,D30*%
X127800000Y-53150000D03*
X125700000Y-53150000D03*
%TD*%
%TO.C,D31*%
X76050000Y-68900000D03*
X73950000Y-68900000D03*
%TD*%
%TO.C,D32*%
X127600000Y-76950000D03*
X125500000Y-76950000D03*
%TD*%
%TO.C,D33*%
X84600000Y-53150000D03*
X82500000Y-53150000D03*
%TD*%
%TO.C,D34*%
X98800000Y-53150000D03*
X96700000Y-53150000D03*
%TD*%
%TO.C,D35*%
X113350000Y-53150000D03*
X111250000Y-53150000D03*
%TD*%
%TO.C,D36*%
X134950000Y-53150000D03*
X132850000Y-53150000D03*
%TD*%
D11*
%TO.C,SW29*%
X113400000Y-55500000D03*
X118221780Y-55505468D03*
X113400000Y-59000000D03*
X118200000Y-59000000D03*
%TD*%
%TO.C,SW14*%
X80500000Y-71600000D03*
X85321780Y-71605468D03*
X80500000Y-75100000D03*
X85300000Y-75100000D03*
%TD*%
%TO.C,SW13*%
X60850000Y-63450000D03*
X65671780Y-63455468D03*
X60850000Y-66950000D03*
X65650000Y-66950000D03*
%TD*%
%TO.C,SW16*%
X94250000Y-63450000D03*
X99071780Y-63455468D03*
X94250000Y-66950000D03*
X99050000Y-66950000D03*
%TD*%
%TO.C,SW6*%
X117000000Y-47800000D03*
X121821780Y-47805468D03*
X117000000Y-51300000D03*
X121800000Y-51300000D03*
%TD*%
%TO.C,SW33*%
X81050000Y-47800000D03*
X85871780Y-47805468D03*
X81050000Y-51300000D03*
X85850000Y-51300000D03*
%TD*%
%TO.C,SW25*%
X67600000Y-71600000D03*
X72421780Y-71605468D03*
X67600000Y-75100000D03*
X72400000Y-75100000D03*
%TD*%
%TO.C,SW8*%
X70150000Y-55500000D03*
X74971780Y-55505468D03*
X70150000Y-59000000D03*
X74950000Y-59000000D03*
%TD*%
%TO.C,SW35*%
X109850000Y-47800000D03*
X114671780Y-47805468D03*
X109850000Y-51300000D03*
X114650000Y-51300000D03*
%TD*%
%TO.C,SW18*%
X124200000Y-63450000D03*
X129021780Y-63455468D03*
X124200000Y-66950000D03*
X129000000Y-66950000D03*
%TD*%
%TO.C,SW7*%
X62300000Y-55500000D03*
X67121780Y-55505468D03*
X62300000Y-59000000D03*
X67100000Y-59000000D03*
%TD*%
%TO.C,SW12*%
X120500000Y-55500000D03*
X125321780Y-55505468D03*
X120500000Y-59000000D03*
X125300000Y-59000000D03*
%TD*%
%TO.C,SW32*%
X124150000Y-71600000D03*
X128971780Y-71605468D03*
X124150000Y-75100000D03*
X128950000Y-75100000D03*
%TD*%
%TO.C,SW4*%
X88250000Y-47800000D03*
X93071780Y-47805468D03*
X88250000Y-51300000D03*
X93050000Y-51300000D03*
%TD*%
%TO.C,SW24*%
X127800000Y-55500000D03*
X132621780Y-55505468D03*
X127800000Y-59000000D03*
X132600000Y-59000000D03*
%TD*%
%TO.C,SW10*%
X91800000Y-55500000D03*
X96621780Y-55505468D03*
X91800000Y-59000000D03*
X96600000Y-59000000D03*
%TD*%
%TO.C,SW5*%
X102650000Y-47800000D03*
X107471780Y-47805468D03*
X102650000Y-51300000D03*
X107450000Y-51300000D03*
%TD*%
%TO.C,SW1*%
X59300000Y-47800000D03*
X64121780Y-47805468D03*
X59300000Y-51300000D03*
X64100000Y-51300000D03*
%TD*%
%TO.C,SW34*%
X95450000Y-47800000D03*
X100271780Y-47805468D03*
X95450000Y-51300000D03*
X100250000Y-51300000D03*
%TD*%
%TO.C,SW23*%
X115800000Y-63450000D03*
X120621780Y-63455468D03*
X115800000Y-66950000D03*
X120600000Y-66950000D03*
%TD*%
%TO.C,SW15*%
X79850000Y-63450000D03*
X84671780Y-63455468D03*
X79850000Y-66950000D03*
X84650000Y-66950000D03*
%TD*%
%TO.C,SW9*%
X77500000Y-55500000D03*
X82321780Y-55505468D03*
X77500000Y-59000000D03*
X82300000Y-59000000D03*
%TD*%
%TO.C,SW2*%
X66650000Y-47800000D03*
X71471780Y-47805468D03*
X66650000Y-51300000D03*
X71450000Y-51300000D03*
%TD*%
%TO.C,SW36*%
X131400000Y-47800000D03*
X136221780Y-47805468D03*
X131400000Y-51300000D03*
X136200000Y-51300000D03*
%TD*%
%TO.C,SW21*%
X87000000Y-63450000D03*
X91821780Y-63455468D03*
X87000000Y-66950000D03*
X91800000Y-66950000D03*
%TD*%
%TO.C,SW3*%
X73900000Y-47800000D03*
X78721780Y-47805468D03*
X73900000Y-51300000D03*
X78700000Y-51300000D03*
%TD*%
%TO.C,SW22*%
X101450000Y-63450000D03*
X106271780Y-63455468D03*
X101450000Y-66950000D03*
X106250000Y-66950000D03*
%TD*%
%TO.C,SW19*%
X59750000Y-71600000D03*
X64571780Y-71605468D03*
X59750000Y-75100000D03*
X64550000Y-75100000D03*
%TD*%
%TO.C,SW20*%
X131350000Y-71600000D03*
X136171780Y-71605468D03*
X131350000Y-75100000D03*
X136150000Y-75100000D03*
%TD*%
%TO.C,SW26*%
X116900000Y-71600000D03*
X121721780Y-71605468D03*
X116900000Y-75100000D03*
X121700000Y-75100000D03*
%TD*%
%TO.C,SW31*%
X72600000Y-63450000D03*
X77421780Y-63455468D03*
X72600000Y-66950000D03*
X77400000Y-66950000D03*
%TD*%
%TO.C,SW28*%
X99050000Y-55500000D03*
X103871780Y-55505468D03*
X99050000Y-59000000D03*
X103850000Y-59000000D03*
%TD*%
%TO.C,SW30*%
X124250000Y-47800000D03*
X129071780Y-47805468D03*
X124250000Y-51300000D03*
X129050000Y-51300000D03*
%TD*%
%TO.C,SW27*%
X84600000Y-55500000D03*
X89421780Y-55505468D03*
X84600000Y-59000000D03*
X89400000Y-59000000D03*
%TD*%
%TO.C,SW11*%
X106200000Y-55500000D03*
X111021780Y-55505468D03*
X106200000Y-59000000D03*
X111000000Y-59000000D03*
%TD*%
%TO.C,SW17*%
X108650000Y-63450000D03*
X113471780Y-63455468D03*
X108650000Y-66950000D03*
X113450000Y-66950000D03*
%TD*%
M02*
