%TF.GenerationSoftware,KiCad,Pcbnew,10.0.3*%
%TF.CreationDate,2026-06-20T21:24:58-04:00*%
%TF.ProjectId,SpyderDumbKeyboard,53707964-6572-4447-956d-624b6579626f,rev?*%
%TF.SameCoordinates,Original*%
%TF.FileFunction,Copper,L1,Top*%
%TF.FilePolarity,Positive*%
%FSLAX46Y46*%
G04 Gerber Fmt 4.6, Leading zero omitted, Abs format (unit mm)*
G04 Created by KiCad (PCBNEW 10.0.3) date 2026-06-20 21:24:58*
%MOMM*%
%LPD*%
G01*
G04 APERTURE LIST*
G04 Aperture macros list*
%AMRoundRect*
0 Rectangle with rounded corners*
0 $1 Rounding radius*
0 $2 $3 $4 $5 $6 $7 $8 $9 X,Y pos of 4 corners*
0 Add a 4 corners polygon primitive as box body*
4,1,4,$2,$3,$4,$5,$6,$7,$8,$9,$2,$3,0*
0 Add four circle primitives for the rounded corners*
1,1,$1+$1,$2,$3*
1,1,$1+$1,$4,$5*
1,1,$1+$1,$6,$7*
1,1,$1+$1,$8,$9*
0 Add four rect primitives between the rounded corners*
20,1,$1+$1,$2,$3,$4,$5,0*
20,1,$1+$1,$4,$5,$6,$7,0*
20,1,$1+$1,$6,$7,$8,$9,0*
20,1,$1+$1,$8,$9,$2,$3,0*%
G04 Aperture macros list end*
%TA.AperFunction,SMDPad,CuDef*%
%ADD10RoundRect,0.112500X-0.187500X-0.112500X0.187500X-0.112500X0.187500X0.112500X-0.187500X0.112500X0*%
%TD*%
%TA.AperFunction,SMDPad,CuDef*%
%ADD11RoundRect,0.185860X-0.502206X-0.433672X0.502206X-0.433672X0.502206X0.433672X-0.502206X0.433672X0*%
%TD*%
%TA.AperFunction,ComponentPad*%
%ADD12R,1.700000X1.700000*%
%TD*%
%TA.AperFunction,ComponentPad*%
%ADD13C,1.700000*%
%TD*%
%TA.AperFunction,ViaPad*%
%ADD14C,0.600000*%
%TD*%
%TA.AperFunction,Conductor*%
%ADD15C,0.200000*%
%TD*%
%TA.AperFunction,Conductor*%
%ADD16C,0.400000*%
%TD*%
G04 APERTURE END LIST*
D10*
%TO.P,D1,2,A_2*%
%TO.N,Net-(D1-A)*%
X62300000Y-53150000D03*
%TO.P,D1,1,K_1*%
%TO.N,/c0*%
X60200000Y-53150000D03*
%TD*%
%TO.P,D2,2,A_2*%
%TO.N,Net-(D2-A)*%
X69900000Y-53150000D03*
%TO.P,D2,1,K_1*%
%TO.N,/c1*%
X67800000Y-53150000D03*
%TD*%
%TO.P,D3,2,A_2*%
%TO.N,Net-(D3-A)*%
X77500000Y-53150000D03*
%TO.P,D3,1,K_1*%
%TO.N,/c2*%
X75400000Y-53150000D03*
%TD*%
%TO.P,D4,2,A_2*%
%TO.N,Net-(D4-A)*%
X91700000Y-53150000D03*
%TO.P,D4,1,K_1*%
%TO.N,/c3*%
X89600000Y-53150000D03*
%TD*%
%TO.P,D5,2,A_2*%
%TO.N,Net-(D5-A)*%
X106250000Y-53150000D03*
%TO.P,D5,1,K_1*%
%TO.N,/c4*%
X104150000Y-53150000D03*
%TD*%
%TO.P,D6,2,A_2*%
%TO.N,Net-(D6-A)*%
X120400000Y-53150000D03*
%TO.P,D6,1,K_1*%
%TO.N,/c5*%
X118300000Y-53150000D03*
%TD*%
%TO.P,D7,2,A_2*%
%TO.N,Net-(D7-A)*%
X65950000Y-60850000D03*
%TO.P,D7,1,K_1*%
%TO.N,/c0*%
X63850000Y-60850000D03*
%TD*%
%TO.P,D8,2,A_2*%
%TO.N,Net-(D8-A)*%
X73800000Y-60850000D03*
%TO.P,D8,1,K_1*%
%TO.N,/c1*%
X71700000Y-60850000D03*
%TD*%
%TO.P,D9,2,A_2*%
%TO.N,Net-(D9-A)*%
X79500000Y-60850000D03*
%TO.P,D9,1,K_1*%
%TO.N,/c2*%
X77400000Y-60850000D03*
%TD*%
%TO.P,D10,2,A_2*%
%TO.N,Net-(D10-A)*%
X94350000Y-60850000D03*
%TO.P,D10,1,K_1*%
%TO.N,/c3*%
X92250000Y-60850000D03*
%TD*%
%TO.P,D11,2,A_2*%
%TO.N,Net-(D11-A)*%
X109800000Y-60850000D03*
%TO.P,D11,1,K_1*%
%TO.N,/c4*%
X107700000Y-60850000D03*
%TD*%
%TO.P,D12,2,A_2*%
%TO.N,Net-(D12-A)*%
X124000000Y-60850000D03*
%TO.P,D12,1,K_1*%
%TO.N,/c5*%
X121900000Y-60850000D03*
%TD*%
%TO.P,D13,2,A_2*%
%TO.N,Net-(D13-A)*%
X64200000Y-68900000D03*
%TO.P,D13,1,K_1*%
%TO.N,/c0*%
X62100000Y-68900000D03*
%TD*%
%TO.P,D14,2,A_2*%
%TO.N,Net-(D14-A)*%
X83950000Y-76950000D03*
%TO.P,D14,1,K_1*%
%TO.N,/c0*%
X81850000Y-76950000D03*
%TD*%
%TO.P,D15,2,A_2*%
%TO.N,Net-(D15-A)*%
X83250000Y-68900000D03*
%TO.P,D15,1,K_1*%
%TO.N,/c1*%
X81150000Y-68900000D03*
%TD*%
%TO.P,D16,2,A_2*%
%TO.N,Net-(D16-A)*%
X97800000Y-68900000D03*
%TO.P,D16,1,K_1*%
%TO.N,/c1*%
X95700000Y-68900000D03*
%TD*%
%TO.P,D17,2,A_2*%
%TO.N,Net-(D17-A)*%
X112150000Y-68900000D03*
%TO.P,D17,1,K_1*%
%TO.N,/c2*%
X110050000Y-68900000D03*
%TD*%
%TO.P,D18,2,A_2*%
%TO.N,Net-(D18-A)*%
X127600000Y-68900000D03*
%TO.P,D18,1,K_1*%
%TO.N,/c2*%
X125500000Y-68900000D03*
%TD*%
%TO.P,D19,2,A_2*%
%TO.N,Net-(D19-A)*%
X63200000Y-76950000D03*
%TO.P,D19,1,K_1*%
%TO.N,/c3*%
X61100000Y-76950000D03*
%TD*%
%TO.P,D20,2,A_2*%
%TO.N,Net-(D20-A)*%
X134800000Y-76950000D03*
%TO.P,D20,1,K_1*%
%TO.N,/c3*%
X132700000Y-76950000D03*
%TD*%
%TO.P,D21,2,A_2*%
%TO.N,Net-(D21-A)*%
X90600000Y-68900000D03*
%TO.P,D21,1,K_1*%
%TO.N,/c4*%
X88500000Y-68900000D03*
%TD*%
%TO.P,D22,2,A_2*%
%TO.N,Net-(D22-A)*%
X104850000Y-68900000D03*
%TO.P,D22,1,K_1*%
%TO.N,/c4*%
X102750000Y-68900000D03*
%TD*%
%TO.P,D23,2,A_2*%
%TO.N,Net-(D23-A)*%
X119350000Y-68900000D03*
%TO.P,D23,1,K_1*%
%TO.N,/c5*%
X117250000Y-68900000D03*
%TD*%
%TO.P,D24,2,A_2*%
%TO.N,Net-(D24-A)*%
X131200000Y-60850000D03*
%TO.P,D24,1,K_1*%
%TO.N,/c5*%
X129100000Y-60850000D03*
%TD*%
%TO.P,D25,2,A_2*%
%TO.N,Net-(D25-A)*%
X71050000Y-76950000D03*
%TO.P,D25,1,K_1*%
%TO.N,/c0*%
X68950000Y-76950000D03*
%TD*%
%TO.P,D26,2,A_2*%
%TO.N,Net-(D26-A)*%
X120350000Y-76950000D03*
%TO.P,D26,1,K_1*%
%TO.N,/c0*%
X118250000Y-76950000D03*
%TD*%
%TO.P,D27,2,A_2*%
%TO.N,Net-(D27-A)*%
X88200000Y-60850000D03*
%TO.P,D27,1,K_1*%
%TO.N,/c1*%
X86100000Y-60850000D03*
%TD*%
%TO.P,D28,2,A_2*%
%TO.N,Net-(D28-A)*%
X102550000Y-60850000D03*
%TO.P,D28,1,K_1*%
%TO.N,/c1*%
X100450000Y-60850000D03*
%TD*%
%TO.P,D29,2,A_2*%
%TO.N,Net-(D29-A)*%
X116950000Y-60850000D03*
%TO.P,D29,1,K_1*%
%TO.N,/c2*%
X114850000Y-60850000D03*
%TD*%
%TO.P,D30,2,A_2*%
%TO.N,Net-(D30-A)*%
X127800000Y-53150000D03*
%TO.P,D30,1,K_1*%
%TO.N,/c2*%
X125700000Y-53150000D03*
%TD*%
%TO.P,D31,2,A_2*%
%TO.N,Net-(D31-A)*%
X76050000Y-68900000D03*
%TO.P,D31,1,K_1*%
%TO.N,/c3*%
X73950000Y-68900000D03*
%TD*%
%TO.P,D32,2,A_2*%
%TO.N,Net-(D32-A)*%
X127600000Y-76950000D03*
%TO.P,D32,1,K_1*%
%TO.N,/c3*%
X125500000Y-76950000D03*
%TD*%
%TO.P,D33,2,A_2*%
%TO.N,Net-(D33-A)*%
X84600000Y-53150000D03*
%TO.P,D33,1,K_1*%
%TO.N,/c4*%
X82500000Y-53150000D03*
%TD*%
%TO.P,D34,2,A_2*%
%TO.N,Net-(D34-A)*%
X98800000Y-53150000D03*
%TO.P,D34,1,K_1*%
%TO.N,/c4*%
X96700000Y-53150000D03*
%TD*%
%TO.P,D35,2,A_2*%
%TO.N,Net-(D35-A)*%
X113350000Y-53150000D03*
%TO.P,D35,1,K_1*%
%TO.N,/c5*%
X111250000Y-53150000D03*
%TD*%
%TO.P,D36,2,A_2*%
%TO.N,Net-(D36-A)*%
X134950000Y-53150000D03*
%TO.P,D36,1,K_1*%
%TO.N,/c5*%
X132850000Y-53150000D03*
%TD*%
D11*
%TO.P,SW29,1,1_1*%
%TO.N,/r4*%
X113400000Y-55500000D03*
X118221780Y-55505468D03*
%TO.P,SW29,2,2_2*%
%TO.N,Net-(D29-A)*%
X113400000Y-59000000D03*
X118200000Y-59000000D03*
%TD*%
%TO.P,SW14,1,1_1*%
%TO.N,/r3*%
X80500000Y-71600000D03*
X85321780Y-71605468D03*
%TO.P,SW14,2,2_2*%
%TO.N,Net-(D14-A)*%
X80500000Y-75100000D03*
X85300000Y-75100000D03*
%TD*%
%TO.P,SW13,1,1_1*%
%TO.N,/r2*%
X60850000Y-63450000D03*
X65671780Y-63455468D03*
%TO.P,SW13,2,2_2*%
%TO.N,Net-(D13-A)*%
X60850000Y-66950000D03*
X65650000Y-66950000D03*
%TD*%
%TO.P,SW16,1,1_1*%
%TO.N,/r3*%
X94250000Y-63450000D03*
X99071780Y-63455468D03*
%TO.P,SW16,2,2_2*%
%TO.N,Net-(D16-A)*%
X94250000Y-66950000D03*
X99050000Y-66950000D03*
%TD*%
%TO.P,SW6,1,1_1*%
%TO.N,/r0*%
X117000000Y-47800000D03*
X121821780Y-47805468D03*
%TO.P,SW6,2,2_2*%
%TO.N,Net-(D6-A)*%
X117000000Y-51300000D03*
X121800000Y-51300000D03*
%TD*%
%TO.P,SW33,1,1_1*%
%TO.N,/r4*%
X81050000Y-47800000D03*
X85871780Y-47805468D03*
%TO.P,SW33,2,2_2*%
%TO.N,Net-(D33-A)*%
X81050000Y-51300000D03*
X85850000Y-51300000D03*
%TD*%
%TO.P,SW25,1,1_1*%
%TO.N,/r4*%
X67600000Y-71600000D03*
X72421780Y-71605468D03*
%TO.P,SW25,2,2_2*%
%TO.N,Net-(D25-A)*%
X67600000Y-75100000D03*
X72400000Y-75100000D03*
%TD*%
%TO.P,SW8,1,1_1*%
%TO.N,/r1*%
X70150000Y-55500000D03*
X74971780Y-55505468D03*
%TO.P,SW8,2,2_2*%
%TO.N,Net-(D8-A)*%
X70150000Y-59000000D03*
X74950000Y-59000000D03*
%TD*%
%TO.P,SW35,1,1_1*%
%TO.N,/r4*%
X109850000Y-47800000D03*
X114671780Y-47805468D03*
%TO.P,SW35,2,2_2*%
%TO.N,Net-(D35-A)*%
X109850000Y-51300000D03*
X114650000Y-51300000D03*
%TD*%
%TO.P,SW18,1,1_1*%
%TO.N,/r3*%
X124200000Y-63450000D03*
X129021780Y-63455468D03*
%TO.P,SW18,2,2_2*%
%TO.N,Net-(D18-A)*%
X124200000Y-66950000D03*
X129000000Y-66950000D03*
%TD*%
%TO.P,SW7,1,1_1*%
%TO.N,/r1*%
X62300000Y-55500000D03*
X67121780Y-55505468D03*
%TO.P,SW7,2,2_2*%
%TO.N,Net-(D7-A)*%
X62300000Y-59000000D03*
X67100000Y-59000000D03*
%TD*%
%TO.P,SW12,1,1_1*%
%TO.N,/r1*%
X120500000Y-55500000D03*
X125321780Y-55505468D03*
%TO.P,SW12,2,2_2*%
%TO.N,Net-(D12-A)*%
X120500000Y-59000000D03*
X125300000Y-59000000D03*
%TD*%
%TO.P,SW32,1,1_1*%
%TO.N,/r5*%
X124150000Y-71600000D03*
X128971780Y-71605468D03*
%TO.P,SW32,2,2_2*%
%TO.N,Net-(D32-A)*%
X124150000Y-75100000D03*
X128950000Y-75100000D03*
%TD*%
D12*
%TO.P,J2,1,Pin_1_1*%
%TO.N,GND*%
X81620001Y-40550000D03*
D13*
%TO.P,J2,2,Pin_2_2*%
%TO.N,/RESET*%
X84160001Y-40550000D03*
%TO.P,J2,3,Pin_3_3*%
%TO.N,/SWCLK*%
X86700000Y-40550000D03*
%TO.P,J2,4,Pin_4_4*%
%TO.N,/SWDIO*%
X89240001Y-40550000D03*
%TO.P,J2,5,Pin_5_5*%
%TO.N,+3V3*%
X91780001Y-40550000D03*
%TD*%
D11*
%TO.P,SW4,1,1_1*%
%TO.N,/r0*%
X88250000Y-47800000D03*
X93071780Y-47805468D03*
%TO.P,SW4,2,2_2*%
%TO.N,Net-(D4-A)*%
X88250000Y-51300000D03*
X93050000Y-51300000D03*
%TD*%
%TO.P,SW24,1,1_1*%
%TO.N,/r3*%
X127800000Y-55500000D03*
X132621780Y-55505468D03*
%TO.P,SW24,2,2_2*%
%TO.N,Net-(D24-A)*%
X127800000Y-59000000D03*
X132600000Y-59000000D03*
%TD*%
%TO.P,SW10,1,1_1*%
%TO.N,/r1*%
X91800000Y-55500000D03*
X96621780Y-55505468D03*
%TO.P,SW10,2,2_2*%
%TO.N,Net-(D10-A)*%
X91800000Y-59000000D03*
X96600000Y-59000000D03*
%TD*%
%TO.P,SW5,1,1_1*%
%TO.N,/r0*%
X102650000Y-47800000D03*
X107471780Y-47805468D03*
%TO.P,SW5,2,2_2*%
%TO.N,Net-(D5-A)*%
X102650000Y-51300000D03*
X107450000Y-51300000D03*
%TD*%
%TO.P,SW1,1,1_1*%
%TO.N,/r0*%
X59300000Y-47800000D03*
X64121780Y-47805468D03*
%TO.P,SW1,2,2_2*%
%TO.N,Net-(D1-A)*%
X59300000Y-51300000D03*
X64100000Y-51300000D03*
%TD*%
%TO.P,SW34,1,1_1*%
%TO.N,/r5*%
X95450000Y-47800000D03*
X100271780Y-47805468D03*
%TO.P,SW34,2,2_2*%
%TO.N,Net-(D34-A)*%
X95450000Y-51300000D03*
X100250000Y-51300000D03*
%TD*%
%TO.P,SW23,1,1_1*%
%TO.N,/r2*%
X115800000Y-63450000D03*
X120621780Y-63455468D03*
%TO.P,SW23,2,2_2*%
%TO.N,Net-(D23-A)*%
X115800000Y-66950000D03*
X120600000Y-66950000D03*
%TD*%
%TO.P,SW15,1,1_1*%
%TO.N,/r2*%
X79850000Y-63450000D03*
X84671780Y-63455468D03*
%TO.P,SW15,2,2_2*%
%TO.N,Net-(D15-A)*%
X79850000Y-66950000D03*
X84650000Y-66950000D03*
%TD*%
%TO.P,SW9,1,1_1*%
%TO.N,/r1*%
X77500000Y-55500000D03*
X82321780Y-55505468D03*
%TO.P,SW9,2,2_2*%
%TO.N,Net-(D9-A)*%
X77500000Y-59000000D03*
X82300000Y-59000000D03*
%TD*%
%TO.P,SW2,1,1_1*%
%TO.N,/r0*%
X66650000Y-47800000D03*
X71471780Y-47805468D03*
%TO.P,SW2,2,2_2*%
%TO.N,Net-(D2-A)*%
X66650000Y-51300000D03*
X71450000Y-51300000D03*
%TD*%
%TO.P,SW36,1,1_1*%
%TO.N,/r5*%
X131400000Y-47800000D03*
X136221780Y-47805468D03*
%TO.P,SW36,2,2_2*%
%TO.N,Net-(D36-A)*%
X131400000Y-51300000D03*
X136200000Y-51300000D03*
%TD*%
%TO.P,SW21,1,1_1*%
%TO.N,/r2*%
X87000000Y-63450000D03*
X91821780Y-63455468D03*
%TO.P,SW21,2,2_2*%
%TO.N,Net-(D21-A)*%
X87000000Y-66950000D03*
X91800000Y-66950000D03*
%TD*%
%TO.P,SW3,1,1_1*%
%TO.N,/r0*%
X73900000Y-47800000D03*
X78721780Y-47805468D03*
%TO.P,SW3,2,2_2*%
%TO.N,Net-(D3-A)*%
X73900000Y-51300000D03*
X78700000Y-51300000D03*
%TD*%
%TO.P,SW22,1,1_1*%
%TO.N,/r3*%
X101450000Y-63450000D03*
X106271780Y-63455468D03*
%TO.P,SW22,2,2_2*%
%TO.N,Net-(D22-A)*%
X101450000Y-66950000D03*
X106250000Y-66950000D03*
%TD*%
%TO.P,SW19,1,1_1*%
%TO.N,/r2*%
X59750000Y-71600000D03*
X64571780Y-71605468D03*
%TO.P,SW19,2,2_2*%
%TO.N,Net-(D19-A)*%
X59750000Y-75100000D03*
X64550000Y-75100000D03*
%TD*%
D12*
%TO.P,J1,1,Pin_1_1*%
%TO.N,GND*%
X116260000Y-40550000D03*
D13*
%TO.P,J1,2,Pin_2_2*%
%TO.N,/SCLK*%
X118800000Y-40550000D03*
%TO.P,J1,3,Pin_3_3*%
%TO.N,/CS*%
X121339999Y-40550000D03*
%TO.P,J1,4,Pin_4_4*%
%TO.N,/MISO*%
X123880000Y-40550000D03*
%TO.P,J1,5,Pin_5_5*%
%TO.N,+3V3*%
X126420000Y-40550000D03*
%TD*%
D11*
%TO.P,SW20,1,1_1*%
%TO.N,/r3*%
X131350000Y-71600000D03*
X136171780Y-71605468D03*
%TO.P,SW20,2,2_2*%
%TO.N,Net-(D20-A)*%
X131350000Y-75100000D03*
X136150000Y-75100000D03*
%TD*%
%TO.P,SW26,1,1_1*%
%TO.N,/r5*%
X116900000Y-71600000D03*
X121721780Y-71605468D03*
%TO.P,SW26,2,2_2*%
%TO.N,Net-(D26-A)*%
X116900000Y-75100000D03*
X121700000Y-75100000D03*
%TD*%
%TO.P,SW31,1,1_1*%
%TO.N,/r4*%
X72600000Y-63450000D03*
X77421780Y-63455468D03*
%TO.P,SW31,2,2_2*%
%TO.N,Net-(D31-A)*%
X72600000Y-66950000D03*
X77400000Y-66950000D03*
%TD*%
%TO.P,SW28,1,1_1*%
%TO.N,/r5*%
X99050000Y-55500000D03*
X103871780Y-55505468D03*
%TO.P,SW28,2,2_2*%
%TO.N,Net-(D28-A)*%
X99050000Y-59000000D03*
X103850000Y-59000000D03*
%TD*%
%TO.P,SW30,1,1_1*%
%TO.N,/r5*%
X124250000Y-47800000D03*
X129071780Y-47805468D03*
%TO.P,SW30,2,2_2*%
%TO.N,Net-(D30-A)*%
X124250000Y-51300000D03*
X129050000Y-51300000D03*
%TD*%
%TO.P,SW27,1,1_1*%
%TO.N,/r4*%
X84600000Y-55500000D03*
X89421780Y-55505468D03*
%TO.P,SW27,2,2_2*%
%TO.N,Net-(D27-A)*%
X84600000Y-59000000D03*
X89400000Y-59000000D03*
%TD*%
%TO.P,SW11,1,1_1*%
%TO.N,/r1*%
X106200000Y-55500000D03*
X111021780Y-55505468D03*
%TO.P,SW11,2,2_2*%
%TO.N,Net-(D11-A)*%
X106200000Y-59000000D03*
X111000000Y-59000000D03*
%TD*%
%TO.P,SW17,1,1_1*%
%TO.N,/r2*%
X108650000Y-63450000D03*
X113471780Y-63455468D03*
%TO.P,SW17,2,2_2*%
%TO.N,Net-(D17-A)*%
X108650000Y-66950000D03*
X113450000Y-66950000D03*
%TD*%
D14*
%TO.N,GND*%
X94650000Y-52950000D03*
X82125000Y-67725000D03*
X111775000Y-65300000D03*
X122875000Y-60000000D03*
X91150000Y-49300000D03*
X64725000Y-57800000D03*
%TO.N,/c5*%
X119625000Y-62050000D03*
%TO.N,/c2*%
X124600000Y-53150000D03*
X124550000Y-68900000D03*
X74250000Y-53150000D03*
X114000000Y-60850000D03*
X76050000Y-60600000D03*
X109150000Y-68900000D03*
%TO.N,/c1*%
X68100000Y-54050000D03*
X72400736Y-61699264D03*
X81050000Y-69900000D03*
%TO.N,/c0*%
X62521863Y-60850000D03*
X62950000Y-69750000D03*
%TO.N,/c4*%
X88050000Y-53800000D03*
X88250000Y-68200000D03*
X102625000Y-53525000D03*
X87650000Y-71450000D03*
X99400000Y-70600000D03*
X108350000Y-59950000D03*
%TO.N,/c3*%
X61050000Y-77850000D03*
X89250000Y-60800000D03*
X73950000Y-69650000D03*
X88650000Y-53150000D03*
X124450000Y-76950000D03*
%TO.N,/r4*%
X112100000Y-47800000D03*
X75000000Y-63450000D03*
X115550000Y-55500000D03*
X87000000Y-55500000D03*
X83500000Y-47800000D03*
%TO.N,/r3*%
X104750000Y-63450000D03*
X96750000Y-63450000D03*
X126300000Y-63450000D03*
%TO.N,/r2*%
X90900000Y-64900000D03*
%TO.N,/r0*%
X122350000Y-49200000D03*
%TO.N,/r1*%
X61250000Y-56900000D03*
%TO.N,/r5*%
X126700000Y-71600000D03*
X126750000Y-47800000D03*
X97750000Y-48950000D03*
X101450000Y-55500000D03*
X97900000Y-56450000D03*
%TO.N,GND*%
X82550000Y-50000000D03*
X99550000Y-40450000D03*
X100100000Y-61800000D03*
X105350000Y-60300000D03*
%TO.N,/c0*%
X90650000Y-60100000D03*
X97750000Y-60350000D03*
%TD*%
%TO.N,/c5*%
D15*
X120200000Y-62050000D02*
X121400000Y-60850000D01*
X119625000Y-62050000D02*
X120200000Y-62050000D01*
X121400000Y-60850000D02*
X121900000Y-60850000D01*
%TO.N,/r4*%
X112100000Y-47800000D02*
X114666312Y-47800000D01*
X67600000Y-71600000D02*
X72416312Y-71600000D01*
X118216312Y-55500000D02*
X118221780Y-55505468D01*
X72416312Y-71600000D02*
X72421780Y-71605468D01*
X71611933Y-64438067D02*
X72600000Y-63450000D01*
X89416312Y-55500000D02*
X89421780Y-55505468D01*
X87000000Y-55500000D02*
X89416312Y-55500000D01*
X81050000Y-47800000D02*
X83500000Y-47800000D01*
X77500000Y-63533688D02*
X77416312Y-63450000D01*
X71611933Y-70795621D02*
X71611933Y-64438067D01*
X109850000Y-47800000D02*
X112100000Y-47800000D01*
X72421780Y-71605468D02*
X71611933Y-70795621D01*
X85866312Y-47800000D02*
X85871780Y-47805468D01*
X83500000Y-47800000D02*
X85866312Y-47800000D01*
X77416312Y-63450000D02*
X75000000Y-63450000D01*
X75000000Y-63450000D02*
X72600000Y-63450000D01*
X84600000Y-55500000D02*
X87000000Y-55500000D01*
X115550000Y-55500000D02*
X118216312Y-55500000D01*
X114666312Y-47800000D02*
X114671780Y-47805468D01*
X113400000Y-55500000D02*
X115550000Y-55500000D01*
%TO.N,Net-(D29-A)*%
X116950000Y-60850000D02*
X116950000Y-60250000D01*
X118200000Y-59000000D02*
X113400000Y-59000000D01*
X116950000Y-60250000D02*
X118200000Y-59000000D01*
%TO.N,/c5*%
X126600000Y-53750000D02*
X132250000Y-53750000D01*
X112150000Y-54050000D02*
X117700000Y-54050000D01*
X126750000Y-61375000D02*
X126750000Y-53900000D01*
X118300000Y-53450000D02*
X118300000Y-53150000D01*
X118900000Y-53750000D02*
X126600000Y-53750000D01*
X122425000Y-61375000D02*
X121900000Y-60850000D01*
X126750000Y-53900000D02*
X126600000Y-53750000D01*
X122700000Y-61650000D02*
X122425000Y-61375000D01*
X128575000Y-61375000D02*
X126750000Y-61375000D01*
X126750000Y-61375000D02*
X122425000Y-61375000D01*
X111250000Y-53150000D02*
X112150000Y-54050000D01*
X129100000Y-60850000D02*
X128575000Y-61375000D01*
X120750000Y-70050000D02*
X122700000Y-68100000D01*
X117700000Y-54050000D02*
X118300000Y-53450000D01*
X118400000Y-70050000D02*
X120750000Y-70050000D01*
X117250000Y-68900000D02*
X118400000Y-70050000D01*
X122700000Y-68100000D02*
X122700000Y-61650000D01*
X132250000Y-53750000D02*
X132850000Y-53150000D01*
X118300000Y-53150000D02*
X118900000Y-53750000D01*
%TO.N,Net-(D35-A)*%
X113350000Y-52600000D02*
X114650000Y-51300000D01*
X114650000Y-51300000D02*
X109850000Y-51300000D01*
X113350000Y-53150000D02*
X113350000Y-52600000D01*
%TO.N,/r3*%
X99071780Y-63455468D02*
X101444532Y-63455468D01*
X93261933Y-64438067D02*
X94250000Y-63450000D01*
X104750000Y-63450000D02*
X106266312Y-63450000D01*
X129016312Y-63450000D02*
X129021780Y-63455468D01*
X86566312Y-72850000D02*
X90450000Y-72850000D01*
X96750000Y-63450000D02*
X99066312Y-63450000D01*
X124200000Y-63450000D02*
X126300000Y-63450000D01*
X106266312Y-63450000D02*
X106271780Y-63455468D01*
X127800000Y-55500000D02*
X132616312Y-55500000D01*
X136171780Y-71605468D02*
X131355468Y-71605468D01*
X132616312Y-55500000D02*
X132621780Y-55505468D01*
X136171780Y-70605468D02*
X129021780Y-63455468D01*
X133588067Y-56471755D02*
X132621780Y-55505468D01*
X93261933Y-70038067D02*
X93261933Y-64438067D01*
X129772669Y-63455468D02*
X133588067Y-59640070D01*
X80500000Y-71600000D02*
X85316312Y-71600000D01*
X126300000Y-63450000D02*
X129016312Y-63450000D01*
X101450000Y-63450000D02*
X104750000Y-63450000D01*
X101444532Y-63455468D02*
X101450000Y-63450000D01*
X136171780Y-71605468D02*
X136171780Y-70605468D01*
X85321780Y-71605468D02*
X86566312Y-72850000D01*
X129021780Y-63455468D02*
X129772669Y-63455468D01*
X90450000Y-72850000D02*
X93261933Y-70038067D01*
X131355468Y-71605468D02*
X131350000Y-71600000D01*
X94250000Y-63450000D02*
X96750000Y-63450000D01*
X85316312Y-71600000D02*
X85321780Y-71605468D01*
X99066312Y-63450000D02*
X99071780Y-63455468D01*
X133588067Y-59640070D02*
X133588067Y-56471755D01*
%TO.N,Net-(D14-A)*%
X83950000Y-76450000D02*
X85300000Y-75100000D01*
X85300000Y-75100000D02*
X80500000Y-75100000D01*
X83950000Y-76950000D02*
X83950000Y-76450000D01*
%TO.N,/r2*%
X115800000Y-63450000D02*
X120616312Y-63450000D01*
X90900000Y-64900000D02*
X90900000Y-64377248D01*
X65666312Y-63450000D02*
X65671780Y-63455468D01*
X65000000Y-63450000D02*
X65919532Y-62530468D01*
X64566312Y-71600000D02*
X64571780Y-71605468D01*
X60850000Y-63450000D02*
X65000000Y-63450000D01*
X92746780Y-62530468D02*
X107730468Y-62530468D01*
X79850000Y-63450000D02*
X84666312Y-63450000D01*
X115794532Y-63455468D02*
X115800000Y-63450000D01*
X65000000Y-63450000D02*
X65666312Y-63450000D01*
X113471780Y-63455468D02*
X115794532Y-63455468D01*
X59750000Y-64550000D02*
X60850000Y-63450000D01*
X90900000Y-64377248D02*
X91821780Y-63455468D01*
X65919532Y-62530468D02*
X78930468Y-62530468D01*
X86994532Y-63455468D02*
X87000000Y-63450000D01*
X59750000Y-71600000D02*
X64566312Y-71600000D01*
X84671780Y-63455468D02*
X86994532Y-63455468D01*
X87000000Y-63450000D02*
X91816312Y-63450000D01*
X120616312Y-63450000D02*
X120621780Y-63455468D01*
X84666312Y-63450000D02*
X84671780Y-63455468D01*
X107730468Y-62530468D02*
X108650000Y-63450000D01*
X91821780Y-63455468D02*
X92746780Y-62530468D01*
X59750000Y-71600000D02*
X59750000Y-64550000D01*
X113466312Y-63450000D02*
X113471780Y-63455468D01*
X108650000Y-63450000D02*
X113466312Y-63450000D01*
X78930468Y-62530468D02*
X79850000Y-63450000D01*
X91816312Y-63450000D02*
X91821780Y-63455468D01*
%TO.N,Net-(D13-A)*%
X64200000Y-68400000D02*
X65650000Y-66950000D01*
X64200000Y-68900000D02*
X64200000Y-68400000D01*
X65650000Y-66950000D02*
X60850000Y-66950000D01*
%TO.N,Net-(D16-A)*%
X99050000Y-66950000D02*
X94250000Y-66950000D01*
X97800000Y-68200000D02*
X99050000Y-66950000D01*
X97800000Y-68900000D02*
X97800000Y-68200000D01*
%TO.N,/r0*%
X93996780Y-46880468D02*
X101730468Y-46880468D01*
X102805468Y-47805468D02*
X107471780Y-47805468D01*
X122350000Y-48333688D02*
X121821780Y-47805468D01*
X102800000Y-47800000D02*
X102805468Y-47805468D01*
X101730468Y-46880468D02*
X102650000Y-47800000D01*
X78721780Y-47805468D02*
X79646780Y-46880468D01*
X107471780Y-47805468D02*
X108396780Y-46880468D01*
X88250000Y-47800000D02*
X93066312Y-47800000D01*
X117000000Y-47800000D02*
X121816312Y-47800000D01*
X121816312Y-47800000D02*
X121821780Y-47805468D01*
X78716312Y-47800000D02*
X78721780Y-47805468D01*
X93071780Y-47805468D02*
X93996780Y-46880468D01*
X87330468Y-46880468D02*
X88250000Y-47800000D01*
X79646780Y-46880468D02*
X87330468Y-46880468D01*
X116080468Y-46880468D02*
X117000000Y-47800000D01*
X93066312Y-47800000D02*
X93071780Y-47805468D01*
X59300000Y-47800000D02*
X78716312Y-47800000D01*
X108396780Y-46880468D02*
X116080468Y-46880468D01*
X122350000Y-49200000D02*
X122350000Y-48333688D01*
X102650000Y-47800000D02*
X102800000Y-47800000D01*
%TO.N,Net-(D6-A)*%
X120400000Y-52700000D02*
X121800000Y-51300000D01*
X121800000Y-51300000D02*
X117000000Y-51300000D01*
X120400000Y-53150000D02*
X120400000Y-52700000D01*
%TO.N,/c2*%
X77400000Y-60850000D02*
X76300000Y-60850000D01*
X125700000Y-53150000D02*
X124600000Y-53150000D01*
X110050000Y-68900000D02*
X109150000Y-68900000D01*
X125500000Y-68900000D02*
X124550000Y-68900000D01*
X76300000Y-60850000D02*
X76050000Y-60600000D01*
X75400000Y-53150000D02*
X74250000Y-53150000D01*
X114850000Y-60850000D02*
X114000000Y-60850000D01*
%TO.N,Net-(D17-A)*%
X112150000Y-68250000D02*
X113450000Y-66950000D01*
X112150000Y-68900000D02*
X112150000Y-68250000D01*
X108650000Y-66950000D02*
X113450000Y-66950000D01*
%TO.N,Net-(D33-A)*%
X85850000Y-51300000D02*
X81050000Y-51300000D01*
X84600000Y-52550000D02*
X85850000Y-51300000D01*
X84600000Y-53150000D02*
X84600000Y-52550000D01*
%TO.N,/c1*%
X79511933Y-70959930D02*
X80571863Y-69900000D01*
X72725000Y-61375000D02*
X75225000Y-61375000D01*
X99050000Y-60850000D02*
X100450000Y-60850000D01*
X91350000Y-73250000D02*
X80521863Y-73250000D01*
X80521863Y-73250000D02*
X79511933Y-72240070D01*
X81150000Y-69800000D02*
X81050000Y-69900000D01*
X67800000Y-53150000D02*
X67800000Y-53750000D01*
X72400736Y-61699264D02*
X72725000Y-61375000D01*
X71700000Y-60998528D02*
X71700000Y-60850000D01*
X86100000Y-60850000D02*
X86950000Y-61700000D01*
X75650000Y-61800000D02*
X85150000Y-61800000D01*
X79511933Y-72240070D02*
X79511933Y-70959930D01*
X81150000Y-68900000D02*
X81150000Y-69800000D01*
X86950000Y-61700000D02*
X98200000Y-61700000D01*
X95700000Y-68900000D02*
X91350000Y-73250000D01*
X98200000Y-61700000D02*
X99050000Y-60850000D01*
X67800000Y-53750000D02*
X68100000Y-54050000D01*
X85150000Y-61800000D02*
X86100000Y-60850000D01*
X72400736Y-61699264D02*
X71700000Y-60998528D01*
X75225000Y-61375000D02*
X75650000Y-61800000D01*
X80571863Y-69900000D02*
X81050000Y-69900000D01*
%TO.N,Net-(D28-A)*%
X102550000Y-60300000D02*
X103850000Y-59000000D01*
X103850000Y-59000000D02*
X99050000Y-59000000D01*
X102550000Y-60850000D02*
X102550000Y-60300000D01*
%TO.N,/c0*%
X62100000Y-68900000D02*
X62950000Y-69750000D01*
X68950000Y-76950000D02*
X69475000Y-77475000D01*
X63885936Y-70685936D02*
X65285936Y-70685936D01*
X117725000Y-77475000D02*
X118250000Y-76950000D01*
X62521863Y-60850000D02*
X63850000Y-60850000D01*
X66611933Y-72011933D02*
X66611933Y-75740070D01*
X69475000Y-77475000D02*
X81325000Y-77475000D01*
X62950000Y-69750000D02*
X63885936Y-70685936D01*
X65285936Y-70685936D02*
X66611933Y-72011933D01*
X60200000Y-58528137D02*
X62521863Y-60850000D01*
X67821863Y-76950000D02*
X68950000Y-76950000D01*
X82375000Y-77475000D02*
X117725000Y-77475000D01*
X81850000Y-76950000D02*
X82375000Y-77475000D01*
X81325000Y-77475000D02*
X81850000Y-76950000D01*
X60200000Y-53150000D02*
X60200000Y-58528137D01*
X66611933Y-75740070D02*
X67821863Y-76950000D01*
%TO.N,Net-(D25-A)*%
X71050000Y-76950000D02*
X71050000Y-76450000D01*
X71050000Y-76450000D02*
X72400000Y-75100000D01*
X72400000Y-75100000D02*
X67600000Y-75100000D01*
%TO.N,Net-(D9-A)*%
X79500000Y-60850000D02*
X79550000Y-60850000D01*
X82300000Y-59000000D02*
X77500000Y-59000000D01*
X79550000Y-60850000D02*
X81400000Y-59000000D01*
X81400000Y-59000000D02*
X82300000Y-59000000D01*
%TO.N,Net-(D8-A)*%
X73800000Y-60850000D02*
X73800000Y-60150000D01*
X74950000Y-59000000D02*
X70150000Y-59000000D01*
X73800000Y-60150000D02*
X74950000Y-59000000D01*
%TO.N,/c4*%
X102750000Y-68900000D02*
X101100000Y-68900000D01*
X88500000Y-68900000D02*
X88500000Y-68450000D01*
X87800000Y-53800000D02*
X88050000Y-53800000D01*
X108350000Y-60200000D02*
X107700000Y-60850000D01*
X87650000Y-69750000D02*
X88500000Y-68900000D01*
X87450000Y-54150000D02*
X87800000Y-53800000D01*
X88500000Y-68450000D02*
X88250000Y-68200000D01*
X83500000Y-54150000D02*
X87450000Y-54150000D01*
X101100000Y-68900000D02*
X99400000Y-70600000D01*
X103000000Y-53150000D02*
X104150000Y-53150000D01*
X96050000Y-53800000D02*
X96700000Y-53150000D01*
X97400000Y-53850000D02*
X102300000Y-53850000D01*
X96700000Y-53150000D02*
X97400000Y-53850000D01*
X102300000Y-53850000D02*
X102625000Y-53525000D01*
X87650000Y-71450000D02*
X87650000Y-69750000D01*
X82500000Y-53150000D02*
X83500000Y-54150000D01*
X108350000Y-59950000D02*
X108350000Y-60200000D01*
X88050000Y-53800000D02*
X96050000Y-53800000D01*
X102625000Y-53525000D02*
X103000000Y-53150000D01*
%TO.N,Net-(D34-A)*%
X98800000Y-53150000D02*
X98800000Y-52750000D01*
X98800000Y-52750000D02*
X100250000Y-51300000D01*
X100250000Y-51300000D02*
X95450000Y-51300000D01*
%TO.N,/r1*%
X105280468Y-54580468D02*
X106200000Y-55500000D01*
X70150000Y-55500000D02*
X74966312Y-55500000D01*
X96621780Y-55505468D02*
X97546780Y-54580468D01*
X111021780Y-55505468D02*
X111946780Y-54580468D01*
X62300000Y-55850000D02*
X61250000Y-56900000D01*
X77605468Y-55505468D02*
X82321780Y-55505468D01*
X96616312Y-55500000D02*
X96621780Y-55505468D01*
X111016312Y-55500000D02*
X111021780Y-55505468D01*
X90850000Y-54550000D02*
X91800000Y-55500000D01*
X82321780Y-55505468D02*
X83277248Y-54550000D01*
X83277248Y-54550000D02*
X90850000Y-54550000D01*
X125316312Y-55500000D02*
X125321780Y-55505468D01*
X91800000Y-55500000D02*
X96616312Y-55500000D01*
X77494532Y-55505468D02*
X77500000Y-55500000D01*
X97546780Y-54580468D02*
X105280468Y-54580468D01*
X62300000Y-55500000D02*
X67116312Y-55500000D01*
X67116312Y-55500000D02*
X67121780Y-55505468D01*
X120500000Y-55500000D02*
X125316312Y-55500000D01*
X77500000Y-55500000D02*
X77600000Y-55500000D01*
X62300000Y-55500000D02*
X62300000Y-55850000D01*
X70144532Y-55505468D02*
X70150000Y-55500000D01*
X74971780Y-55505468D02*
X77494532Y-55505468D01*
X67121780Y-55505468D02*
X70144532Y-55505468D01*
X106200000Y-55500000D02*
X111016312Y-55500000D01*
X77600000Y-55500000D02*
X77605468Y-55505468D01*
X74966312Y-55500000D02*
X74971780Y-55505468D01*
X111946780Y-54580468D02*
X119580468Y-54580468D01*
X119580468Y-54580468D02*
X120500000Y-55500000D01*
%TO.N,Net-(D3-A)*%
X77500000Y-52500000D02*
X78700000Y-51300000D01*
X77500000Y-53150000D02*
X77500000Y-52500000D01*
X78700000Y-51300000D02*
X73900000Y-51300000D01*
%TO.N,Net-(D18-A)*%
X124200000Y-66950000D02*
X129000000Y-66950000D01*
X129000000Y-66950000D02*
X127600000Y-68350000D01*
X127600000Y-68350000D02*
X127600000Y-68900000D01*
%TO.N,/c3*%
X89600000Y-53150000D02*
X88650000Y-53150000D01*
X125500000Y-76950000D02*
X124450000Y-76950000D01*
X89250000Y-60800000D02*
X89800000Y-60800000D01*
X89850000Y-60850000D02*
X92250000Y-60850000D01*
X61100000Y-76950000D02*
X61100000Y-77800000D01*
X125500000Y-76950000D02*
X125500000Y-77350000D01*
X89800000Y-60800000D02*
X89850000Y-60850000D01*
X126150000Y-78000000D02*
X131650000Y-78000000D01*
X131650000Y-78000000D02*
X132700000Y-76950000D01*
X125500000Y-77350000D02*
X126150000Y-78000000D01*
X61100000Y-77800000D02*
X61050000Y-77850000D01*
X73950000Y-68900000D02*
X73950000Y-69650000D01*
%TO.N,Net-(D4-A)*%
X91700000Y-53150000D02*
X91700000Y-52650000D01*
X91700000Y-52650000D02*
X93050000Y-51300000D01*
X93050000Y-51300000D02*
X88250000Y-51300000D01*
%TO.N,Net-(D7-A)*%
X65950000Y-60150000D02*
X67100000Y-59000000D01*
X65950000Y-60850000D02*
X65950000Y-60150000D01*
X67100000Y-59000000D02*
X62300000Y-59000000D01*
%TO.N,Net-(D19-A)*%
X63200000Y-76950000D02*
X63200000Y-76450000D01*
X63200000Y-76450000D02*
X64550000Y-75100000D01*
X64550000Y-75100000D02*
X59750000Y-75100000D01*
%TO.N,Net-(D12-A)*%
X124000000Y-60300000D02*
X125300000Y-59000000D01*
X124000000Y-60850000D02*
X124000000Y-60300000D01*
X125300000Y-59000000D02*
X120500000Y-59000000D01*
%TO.N,/r5*%
X136216312Y-47800000D02*
X136221780Y-47805468D01*
X121716312Y-71600000D02*
X121721780Y-71605468D01*
X129066312Y-47800000D02*
X129071780Y-47805468D01*
X131400000Y-47800000D02*
X136216312Y-47800000D01*
X116900000Y-71600000D02*
X121716312Y-71600000D01*
X103866312Y-55500000D02*
X103871780Y-55505468D01*
X126700000Y-71600000D02*
X128966312Y-71600000D01*
X129071780Y-47805468D02*
X131394532Y-47805468D01*
X124144532Y-71605468D02*
X124150000Y-71600000D01*
X98464798Y-55500000D02*
X99050000Y-55500000D01*
X131394532Y-47805468D02*
X131400000Y-47800000D01*
X128966312Y-71600000D02*
X128971780Y-71605468D01*
X95450000Y-47800000D02*
X97850000Y-47800000D01*
X99050000Y-55500000D02*
X101450000Y-55500000D01*
X97750000Y-47900000D02*
X97850000Y-47800000D01*
X101450000Y-55500000D02*
X103866312Y-55500000D01*
X124250000Y-47800000D02*
X126750000Y-47800000D01*
X100266312Y-47800000D02*
X100271780Y-47805468D01*
X121721780Y-71605468D02*
X124144532Y-71605468D01*
X97750000Y-48950000D02*
X97750000Y-47900000D01*
X97900000Y-56450000D02*
X97900000Y-56064798D01*
X124150000Y-71600000D02*
X126700000Y-71600000D01*
X126750000Y-47800000D02*
X129066312Y-47800000D01*
X97850000Y-47800000D02*
X100266312Y-47800000D01*
X97900000Y-56064798D02*
X98464798Y-55500000D01*
%TO.N,Net-(D32-A)*%
X125750000Y-75100000D02*
X127600000Y-76950000D01*
X124150000Y-75100000D02*
X125750000Y-75100000D01*
X127600000Y-76450000D02*
X128950000Y-75100000D01*
X127600000Y-76950000D02*
X127600000Y-76450000D01*
%TO.N,Net-(D31-A)*%
X77400000Y-66950000D02*
X72600000Y-66950000D01*
X76050000Y-68300000D02*
X77400000Y-66950000D01*
X76050000Y-68900000D02*
X76050000Y-68300000D01*
%TO.N,Net-(D20-A)*%
X134800000Y-76950000D02*
X134800000Y-76450000D01*
X131350000Y-75100000D02*
X136150000Y-75100000D01*
X134800000Y-76450000D02*
X136150000Y-75100000D01*
%TO.N,Net-(D22-A)*%
X104850000Y-68350000D02*
X106250000Y-66950000D01*
X104850000Y-68900000D02*
X104850000Y-68350000D01*
X101450000Y-66950000D02*
X106250000Y-66950000D01*
%TO.N,Net-(D27-A)*%
X89400000Y-59000000D02*
X84600000Y-59000000D01*
X88200000Y-60850000D02*
X88200000Y-60200000D01*
X88200000Y-60200000D02*
X89400000Y-59000000D01*
%TO.N,Net-(D21-A)*%
X90600000Y-68150000D02*
X91800000Y-66950000D01*
X90600000Y-68900000D02*
X90600000Y-68150000D01*
X91800000Y-66950000D02*
X87000000Y-66950000D01*
%TO.N,+3V3*%
D16*
X126420000Y-40550000D02*
X122770000Y-44200000D01*
X122770000Y-44200000D02*
X95430000Y-44200000D01*
X95430000Y-44200000D02*
X91780001Y-40550000D01*
%TO.N,Net-(D2-A)*%
D15*
X69900000Y-52850000D02*
X71450000Y-51300000D01*
X69900000Y-53150000D02*
X69900000Y-52850000D01*
X71450000Y-51300000D02*
X66650000Y-51300000D01*
%TO.N,Net-(D10-A)*%
X94750000Y-60850000D02*
X96600000Y-59000000D01*
X94350000Y-60850000D02*
X94750000Y-60850000D01*
X96600000Y-59000000D02*
X91800000Y-59000000D01*
%TO.N,Net-(D24-A)*%
X131200000Y-60400000D02*
X132600000Y-59000000D01*
X131200000Y-60850000D02*
X131200000Y-60400000D01*
X132600000Y-59000000D02*
X127800000Y-59000000D01*
%TO.N,Net-(D5-A)*%
X106250000Y-53150000D02*
X106250000Y-52500000D01*
X106250000Y-52500000D02*
X107450000Y-51300000D01*
X107450000Y-51300000D02*
X102650000Y-51300000D01*
%TO.N,Net-(D1-A)*%
X59300000Y-51300000D02*
X64100000Y-51300000D01*
X62300000Y-53100000D02*
X62300000Y-53150000D01*
X64100000Y-51300000D02*
X62300000Y-53100000D01*
%TO.N,Net-(D23-A)*%
X119350000Y-68200000D02*
X120600000Y-66950000D01*
X119350000Y-68900000D02*
X119350000Y-68200000D01*
X120600000Y-66950000D02*
X115800000Y-66950000D01*
%TO.N,Net-(D36-A)*%
X134950000Y-53150000D02*
X134950000Y-52550000D01*
X134950000Y-52550000D02*
X136200000Y-51300000D01*
X136200000Y-51300000D02*
X131400000Y-51300000D01*
%TO.N,Net-(D15-A)*%
X79850000Y-66950000D02*
X84650000Y-66950000D01*
X83250000Y-68900000D02*
X83250000Y-68350000D01*
X83250000Y-68350000D02*
X84650000Y-66950000D01*
%TO.N,Net-(D26-A)*%
X121700000Y-75100000D02*
X116900000Y-75100000D01*
X120350000Y-76450000D02*
X121700000Y-75100000D01*
X120350000Y-76950000D02*
X120350000Y-76450000D01*
%TO.N,Net-(D30-A)*%
X129050000Y-51300000D02*
X124250000Y-51300000D01*
X127800000Y-53150000D02*
X127800000Y-52550000D01*
X127800000Y-52550000D02*
X129050000Y-51300000D01*
%TO.N,Net-(D11-A)*%
X106200000Y-59000000D02*
X111000000Y-59000000D01*
X109800000Y-60200000D02*
X111000000Y-59000000D01*
X109800000Y-60850000D02*
X109800000Y-60200000D01*
%TD*%
M02*
