%TF.GenerationSoftware,KiCad,Pcbnew,10.0.3*%
%TF.CreationDate,2026-06-20T21:24:58-04:00*%
%TF.ProjectId,SpyderDumbKeyboard,53707964-6572-4447-956d-624b6579626f,rev?*%
%TF.SameCoordinates,Original*%
%TF.FileFunction,Legend,Bot*%
%TF.FilePolarity,Positive*%
%FSLAX46Y46*%
G04 Gerber Fmt 4.6, Leading zero omitted, Abs format (unit mm)*
G04 Created by KiCad (PCBNEW 10.0.3) date 2026-06-20 21:24:58*
%MOMM*%
%LPD*%
G01*
G04 APERTURE LIST*
G04 Aperture macros list*
%AMRoundRect*
0 Rectangle with rounded corners*
0 $1 Rounding radius*
0 $2 $3 $4 $5 $6 $7 $8 $9 X,Y pos of 4 corners*
0 Add a 4 corners polygon primitive as box body*
4,1,4,$2,$3,$4,$5,$6,$7,$8,$9,$2,$3,0*
0 Add four circle primitives for the rounded corners*
1,1,$1+$1,$2,$3*
1,1,$1+$1,$4,$5*
1,1,$1+$1,$6,$7*
1,1,$1+$1,$8,$9*
0 Add four rect primitives between the rounded corners*
20,1,$1+$1,$2,$3,$4,$5,0*
20,1,$1+$1,$4,$5,$6,$7,0*
20,1,$1+$1,$6,$7,$8,$9,0*
20,1,$1+$1,$8,$9,$2,$3,0*%
G04 Aperture macros list end*
%ADD10C,0.010000*%
%ADD11C,0.100000*%
%ADD12C,0.150000*%
%ADD13C,0.120000*%
%ADD14RoundRect,0.237500X0.237500X-0.250000X0.237500X0.250000X-0.237500X0.250000X-0.237500X-0.250000X0*%
%ADD15RoundRect,0.237500X-0.250000X-0.237500X0.250000X-0.237500X0.250000X0.237500X-0.250000X0.237500X0*%
%ADD16R,1.700000X1.700000*%
%ADD17C,1.700000*%
%ADD18RoundRect,0.237500X0.237500X-0.300000X0.237500X0.300000X-0.237500X0.300000X-0.237500X-0.300000X0*%
%ADD19RoundRect,0.237500X0.250000X0.237500X-0.250000X0.237500X-0.250000X-0.237500X0.250000X-0.237500X0*%
%ADD20RoundRect,0.125000X0.625000X0.125000X-0.625000X0.125000X-0.625000X-0.125000X0.625000X-0.125000X0*%
%ADD21RoundRect,0.125000X0.125000X0.625000X-0.125000X0.625000X-0.125000X-0.625000X0.125000X-0.625000X0*%
%ADD22RoundRect,0.237500X-0.287500X-0.237500X0.287500X-0.237500X0.287500X0.237500X-0.287500X0.237500X0*%
G04 APERTURE END LIST*
D10*
G36*
X135717602Y-76910000D02*
G01*
X135717602Y-74807557D01*
X135250000Y-74807557D01*
X135250000Y-75665338D01*
X134493946Y-74807557D01*
X134082397Y-74807557D01*
X135017602Y-75858778D01*
X134082397Y-76910000D01*
X134550000Y-76910000D01*
X135250000Y-76091420D01*
X135250000Y-76910000D01*
X135717602Y-76910000D01*
G37*
G36*
X133243855Y-75285166D02*
G01*
X133328392Y-75310605D01*
X133406842Y-75352985D01*
X133480460Y-75413768D01*
X133541839Y-75486808D01*
X133584622Y-75564862D01*
X133610312Y-75649208D01*
X133619068Y-75741664D01*
X133619068Y-76442030D01*
X133610263Y-76535973D01*
X133584491Y-76621247D01*
X133541693Y-76699728D01*
X133480460Y-76772735D01*
X133406842Y-76833518D01*
X133328392Y-76875898D01*
X133243855Y-76901337D01*
X133151465Y-76910000D01*
X132683862Y-76910000D01*
X132554084Y-76896400D01*
X132450377Y-76858464D01*
X132366935Y-76797758D01*
X132300378Y-76712119D01*
X132250246Y-76595985D01*
X132219068Y-76441053D01*
X132451465Y-76441053D01*
X132461919Y-76529967D01*
X132489899Y-76592983D01*
X132533662Y-76637014D01*
X132596062Y-76665067D01*
X132683862Y-76675526D01*
X132919068Y-76675526D01*
X132979734Y-76667828D01*
X133033753Y-76645150D01*
X133082955Y-76606528D01*
X133121381Y-76557087D01*
X133143863Y-76503366D01*
X133151465Y-76443618D01*
X133151465Y-76214396D01*
X132219068Y-76214396D01*
X132219068Y-75744106D01*
X132683862Y-75744106D01*
X132683862Y-75979923D01*
X133151465Y-75979923D01*
X133151465Y-75744106D01*
X133143808Y-75683243D01*
X133121274Y-75629101D01*
X133082955Y-75579853D01*
X133033761Y-75541304D01*
X132979742Y-75518664D01*
X132919068Y-75510976D01*
X132856541Y-75518743D01*
X132801669Y-75541461D01*
X132752494Y-75579853D01*
X132714102Y-75629110D01*
X132691531Y-75683251D01*
X132683862Y-75744106D01*
X132219068Y-75744106D01*
X132219068Y-75743984D01*
X132227758Y-75651009D01*
X132253240Y-75566217D01*
X132295625Y-75487807D01*
X132356332Y-75414501D01*
X132429279Y-75353408D01*
X132507244Y-75310810D01*
X132591502Y-75285225D01*
X132683862Y-75276503D01*
X133151465Y-75276503D01*
X133243855Y-75285166D01*
G37*
G36*
X131517847Y-77144473D02*
G01*
X131501457Y-77234329D01*
X131470246Y-77297860D01*
X131425741Y-77341673D01*
X131365874Y-77368981D01*
X131285450Y-77378946D01*
X131053053Y-77378946D01*
X130990493Y-77371226D01*
X130935619Y-77348658D01*
X130886479Y-77310558D01*
X130848218Y-77261483D01*
X130825583Y-77206769D01*
X130817847Y-77144473D01*
X130817847Y-76677602D01*
X130838225Y-76766972D01*
X130871736Y-76830205D01*
X130917090Y-76873596D01*
X130976048Y-76900353D01*
X131053053Y-76910000D01*
X131285450Y-76910000D01*
X131377840Y-76901337D01*
X131462376Y-76875898D01*
X131540827Y-76833518D01*
X131614445Y-76772735D01*
X131675678Y-76699728D01*
X131718476Y-76621247D01*
X131744247Y-76535973D01*
X131753053Y-76442030D01*
X131753053Y-75276503D01*
X131285450Y-75276503D01*
X131285450Y-76440443D01*
X131277828Y-76501105D01*
X131255321Y-76555554D01*
X131216939Y-76605551D01*
X131167668Y-76644761D01*
X131113654Y-76667736D01*
X131053053Y-76675526D01*
X130990599Y-76667655D01*
X130935732Y-76644602D01*
X130886479Y-76605551D01*
X130848024Y-76555546D01*
X130825480Y-76501097D01*
X130817847Y-76440443D01*
X130817847Y-75276503D01*
X130353053Y-75276503D01*
X130353053Y-77144961D01*
X130361718Y-77237543D01*
X130387163Y-77322245D01*
X130429545Y-77400834D01*
X130490317Y-77474567D01*
X130563315Y-77536073D01*
X130641295Y-77578928D01*
X130725532Y-77604652D01*
X130817847Y-77613419D01*
X131285450Y-77613419D01*
X131415233Y-77599837D01*
X131519183Y-77561916D01*
X131603034Y-77501191D01*
X131670136Y-77415510D01*
X131720963Y-77299350D01*
X131753053Y-77144473D01*
X131517847Y-77144473D01*
G37*
G36*
X129887037Y-76910000D02*
G01*
X128951831Y-76910000D01*
X128859504Y-76901246D01*
X128775260Y-76875561D01*
X128697285Y-76832779D01*
X128624302Y-76771392D01*
X128563527Y-76697717D01*
X128521146Y-76619188D01*
X128495703Y-76534548D01*
X128487037Y-76442030D01*
X128487037Y-75742763D01*
X128951831Y-75742763D01*
X128951831Y-76440931D01*
X128959464Y-76501501D01*
X128982006Y-76555868D01*
X129020464Y-76605795D01*
X129069700Y-76644700D01*
X129124568Y-76667679D01*
X129187037Y-76675526D01*
X129419434Y-76675526D01*
X129419434Y-75742763D01*
X129411786Y-75682315D01*
X129389264Y-75628496D01*
X129350924Y-75579487D01*
X129301757Y-75541158D01*
X129247736Y-75518629D01*
X129187037Y-75510976D01*
X129124486Y-75518708D01*
X129069613Y-75541314D01*
X129020464Y-75579487D01*
X128982050Y-75628505D01*
X128959491Y-75682323D01*
X128951831Y-75742763D01*
X128487037Y-75742763D01*
X128487037Y-75741664D01*
X128495723Y-75649135D01*
X128521193Y-75564758D01*
X128563573Y-75486727D01*
X128624302Y-75413768D01*
X128697204Y-75353030D01*
X128775156Y-75310652D01*
X128859431Y-75285186D01*
X128951831Y-75276503D01*
X129187037Y-75276503D01*
X129251904Y-75283412D01*
X129304182Y-75302771D01*
X129346650Y-75333900D01*
X129379090Y-75375809D01*
X129403762Y-75432771D01*
X129419434Y-75508900D01*
X129419434Y-74807557D01*
X129887037Y-74807557D01*
X129887037Y-76910000D01*
G37*
G36*
X127645809Y-75285166D02*
G01*
X127730346Y-75310605D01*
X127808796Y-75352985D01*
X127882414Y-75413768D01*
X127943793Y-75486808D01*
X127986576Y-75564862D01*
X128012266Y-75649208D01*
X128021022Y-75741664D01*
X128021022Y-76442030D01*
X128012217Y-76535973D01*
X127986445Y-76621247D01*
X127943647Y-76699728D01*
X127882414Y-76772735D01*
X127808796Y-76833518D01*
X127730346Y-76875898D01*
X127645809Y-76901337D01*
X127553419Y-76910000D01*
X127085816Y-76910000D01*
X126993488Y-76901246D01*
X126909245Y-76875561D01*
X126831269Y-76832779D01*
X126758286Y-76771392D01*
X126697512Y-76697717D01*
X126655131Y-76619188D01*
X126629687Y-76534548D01*
X126621022Y-76442030D01*
X126621022Y-75742763D01*
X127085816Y-75742763D01*
X127085816Y-76440931D01*
X127093448Y-76501501D01*
X127115991Y-76555868D01*
X127154448Y-76605795D01*
X127203684Y-76644700D01*
X127258552Y-76667679D01*
X127321022Y-76675526D01*
X127381640Y-76667759D01*
X127435655Y-76644858D01*
X127484909Y-76605795D01*
X127523293Y-76555876D01*
X127545798Y-76501509D01*
X127553419Y-76440931D01*
X127553419Y-75742763D01*
X127545771Y-75682315D01*
X127523249Y-75628496D01*
X127484909Y-75579487D01*
X127435741Y-75541158D01*
X127381720Y-75518629D01*
X127321022Y-75510976D01*
X127258471Y-75518708D01*
X127203597Y-75541314D01*
X127154448Y-75579487D01*
X127116035Y-75628505D01*
X127093475Y-75682323D01*
X127085816Y-75742763D01*
X126621022Y-75742763D01*
X126621022Y-75741664D01*
X126629707Y-75649135D01*
X126655178Y-75564758D01*
X126697557Y-75486727D01*
X126758286Y-75413768D01*
X126831189Y-75353030D01*
X126909141Y-75310652D01*
X126993416Y-75285186D01*
X127085816Y-75276503D01*
X127553419Y-75276503D01*
X127645809Y-75285166D01*
G37*
G36*
X125817652Y-75289963D02*
G01*
X125921797Y-75327492D01*
X126005609Y-75387451D01*
X126072512Y-75471815D01*
X126123091Y-75585881D01*
X126155006Y-75737634D01*
X125919801Y-75737634D01*
X125900643Y-75650862D01*
X125868127Y-75589293D01*
X125823468Y-75546843D01*
X125764766Y-75520514D01*
X125687404Y-75510976D01*
X125455006Y-75510976D01*
X125392350Y-75518556D01*
X125337469Y-75540675D01*
X125288433Y-75577899D01*
X125249954Y-75625970D01*
X125227432Y-75678614D01*
X125219801Y-75737634D01*
X125219801Y-75979923D01*
X125687404Y-75979923D01*
X125779813Y-75988566D01*
X125864359Y-76013945D01*
X125942803Y-76056215D01*
X126016399Y-76116821D01*
X126077794Y-76189630D01*
X126120573Y-76267425D01*
X126146254Y-76351482D01*
X126155006Y-76443618D01*
X126146209Y-76537175D01*
X126120452Y-76622141D01*
X126077658Y-76700386D01*
X126016399Y-76773224D01*
X125942810Y-76833771D01*
X125864368Y-76876004D01*
X125779820Y-76901362D01*
X125687404Y-76910000D01*
X125455006Y-76910000D01*
X125378141Y-76900306D01*
X125319222Y-76873391D01*
X125273827Y-76829676D01*
X125240238Y-76765857D01*
X125219801Y-76675526D01*
X125219801Y-76910000D01*
X124755006Y-76910000D01*
X124755006Y-76443618D01*
X125219801Y-76443618D01*
X125227414Y-76503358D01*
X125249934Y-76557078D01*
X125288433Y-76606528D01*
X125337617Y-76644993D01*
X125392488Y-76667748D01*
X125455006Y-76675526D01*
X125515673Y-76667828D01*
X125569691Y-76645150D01*
X125618893Y-76606528D01*
X125657319Y-76557087D01*
X125679801Y-76503366D01*
X125687404Y-76443618D01*
X125679768Y-76383839D01*
X125657262Y-76330588D01*
X125618893Y-76282051D01*
X125569786Y-76244236D01*
X125515761Y-76221968D01*
X125455006Y-76214396D01*
X125219801Y-76214396D01*
X125219801Y-76443618D01*
X124755006Y-76443618D01*
X124755006Y-75741664D01*
X124763692Y-75649135D01*
X124789162Y-75564758D01*
X124831542Y-75486727D01*
X124892271Y-75413768D01*
X124965173Y-75353030D01*
X125043126Y-75310652D01*
X125127401Y-75285186D01*
X125219801Y-75276503D01*
X125687404Y-75276503D01*
X125817652Y-75289963D01*
G37*
G36*
X123821388Y-76910000D02*
G01*
X124288991Y-76910000D01*
X124288991Y-75276503D01*
X123821388Y-75276503D01*
X123821388Y-75737634D01*
X123790408Y-75588421D01*
X123741609Y-75475692D01*
X123677285Y-75391786D01*
X123593091Y-75329556D01*
X123487329Y-75290538D01*
X123353785Y-75276503D01*
X123121388Y-75276503D01*
X123121388Y-75737634D01*
X123588991Y-75737634D01*
X123649665Y-75745321D01*
X123703685Y-75767962D01*
X123752878Y-75806510D01*
X123791044Y-75855893D01*
X123813654Y-75911011D01*
X123821388Y-75973817D01*
X123821388Y-76910000D01*
G37*
G36*
X121954762Y-75276503D02*
G01*
X122422365Y-75276503D01*
X122514755Y-75285166D01*
X122599292Y-75310605D01*
X122677742Y-75352985D01*
X122751360Y-75413768D01*
X122812739Y-75486808D01*
X122855522Y-75564862D01*
X122881212Y-75649208D01*
X122889968Y-75741664D01*
X122889968Y-76442030D01*
X122881163Y-76535973D01*
X122855391Y-76621247D01*
X122812593Y-76699728D01*
X122751360Y-76772735D01*
X122677742Y-76833518D01*
X122599292Y-76875898D01*
X122514755Y-76901337D01*
X122422365Y-76910000D01*
X122189968Y-76910000D01*
X122113103Y-76900306D01*
X122054184Y-76873391D01*
X122008789Y-76829676D01*
X121975200Y-76765857D01*
X121954762Y-76675526D01*
X121954762Y-76910000D01*
X121489968Y-76910000D01*
X121489968Y-76440931D01*
X121954762Y-76440931D01*
X121962395Y-76501501D01*
X121984937Y-76555868D01*
X122023394Y-76605795D01*
X122072631Y-76644700D01*
X122127499Y-76667679D01*
X122189968Y-76675526D01*
X122250586Y-76667759D01*
X122304601Y-76644858D01*
X122353855Y-76605795D01*
X122392239Y-76555876D01*
X122414744Y-76501509D01*
X122422365Y-76440931D01*
X122422365Y-75742763D01*
X122414717Y-75682315D01*
X122392195Y-75628496D01*
X122353855Y-75579487D01*
X122304687Y-75541158D01*
X122250666Y-75518629D01*
X122189968Y-75510976D01*
X121954762Y-75510976D01*
X121954762Y-76440931D01*
X121489968Y-76440931D01*
X121489968Y-74807557D01*
X121954762Y-74807557D01*
X121954762Y-75276503D01*
G37*
D11*
G36*
X136167602Y-55110000D02*
G01*
X135232397Y-55110000D01*
X135140049Y-55101265D01*
X135055797Y-55075640D01*
X134977828Y-55032968D01*
X134904867Y-54971758D01*
X134844070Y-54898313D01*
X134801693Y-54820062D01*
X134776262Y-54735752D01*
X134767602Y-54643618D01*
X134767602Y-54529068D01*
X134780615Y-54410854D01*
X135232397Y-54410854D01*
X135232397Y-54641786D01*
X135240024Y-54702106D01*
X135262560Y-54756270D01*
X135301029Y-54806039D01*
X135350248Y-54844798D01*
X135405117Y-54867702D01*
X135467602Y-54875526D01*
X135700000Y-54875526D01*
X135700000Y-54179923D01*
X135467602Y-54179923D01*
X135378235Y-54190358D01*
X135314991Y-54218254D01*
X135270888Y-54261805D01*
X135242842Y-54323780D01*
X135232397Y-54410854D01*
X134780615Y-54410854D01*
X134780669Y-54410368D01*
X134819119Y-54302884D01*
X134883862Y-54203736D01*
X134946661Y-54143892D01*
X135023509Y-54100245D01*
X135117367Y-54072596D01*
X135232397Y-54062686D01*
X135081971Y-54031547D01*
X134968373Y-53982492D01*
X134883862Y-53917850D01*
X134821084Y-53833187D01*
X134781747Y-53726904D01*
X134767602Y-53592763D01*
X134767602Y-53478335D01*
X135232397Y-53478335D01*
X135232397Y-53711953D01*
X135240063Y-53772898D01*
X135262634Y-53827163D01*
X135301029Y-53876573D01*
X135350204Y-53914965D01*
X135405076Y-53937683D01*
X135467602Y-53945450D01*
X135700000Y-53945450D01*
X135700000Y-53242030D01*
X135467602Y-53242030D01*
X135405084Y-53249808D01*
X135350213Y-53272563D01*
X135301029Y-53311029D01*
X135262789Y-53360420D01*
X135240142Y-53415538D01*
X135232397Y-53478335D01*
X134767602Y-53478335D01*
X134767602Y-53477480D01*
X134776274Y-53384578D01*
X134801729Y-53299609D01*
X134844115Y-53220802D01*
X134904867Y-53146898D01*
X134977894Y-53085155D01*
X135055882Y-53042154D01*
X135140108Y-53016349D01*
X135232397Y-53007557D01*
X136167602Y-53007557D01*
X136167602Y-55110000D01*
G37*
G36*
X134066381Y-55344473D02*
G01*
X134049992Y-55434329D01*
X134018781Y-55497860D01*
X133974275Y-55541673D01*
X133914409Y-55568981D01*
X133833984Y-55578946D01*
X133601587Y-55578946D01*
X133539028Y-55571226D01*
X133484154Y-55548658D01*
X133435013Y-55510558D01*
X133396752Y-55461483D01*
X133374117Y-55406769D01*
X133366381Y-55344473D01*
X133366381Y-54877602D01*
X133386760Y-54966972D01*
X133420271Y-55030205D01*
X133465625Y-55073596D01*
X133524582Y-55100353D01*
X133601587Y-55110000D01*
X133833984Y-55110000D01*
X133926374Y-55101337D01*
X134010911Y-55075898D01*
X134089361Y-55033518D01*
X134162979Y-54972735D01*
X134224212Y-54899728D01*
X134267010Y-54821247D01*
X134292782Y-54735973D01*
X134301587Y-54642030D01*
X134301587Y-53476503D01*
X133833984Y-53476503D01*
X133833984Y-54640443D01*
X133826362Y-54701105D01*
X133803855Y-54755554D01*
X133765474Y-54805551D01*
X133716203Y-54844761D01*
X133662189Y-54867736D01*
X133601587Y-54875526D01*
X133539134Y-54867655D01*
X133484267Y-54844602D01*
X133435013Y-54805551D01*
X133396559Y-54755546D01*
X133374014Y-54701097D01*
X133366381Y-54640443D01*
X133366381Y-53476503D01*
X132901587Y-53476503D01*
X132901587Y-55344961D01*
X132910253Y-55437543D01*
X132935698Y-55522245D01*
X132978080Y-55600834D01*
X133038852Y-55674567D01*
X133111849Y-55736073D01*
X133189829Y-55778928D01*
X133274067Y-55804652D01*
X133366381Y-55813419D01*
X133833984Y-55813419D01*
X133963768Y-55799837D01*
X134067718Y-55761916D01*
X134151569Y-55701191D01*
X134218670Y-55615510D01*
X134269498Y-55499350D01*
X134301587Y-55344473D01*
X134066381Y-55344473D01*
G37*
G36*
X132435572Y-55110000D02*
G01*
X132435572Y-54641053D01*
X131967969Y-54641053D01*
X131967969Y-55110000D01*
X132435572Y-55110000D01*
G37*
G36*
X132435572Y-53937634D02*
G01*
X132435572Y-53476503D01*
X131967969Y-53476503D01*
X131967969Y-53937634D01*
X132435572Y-53937634D01*
G37*
G36*
X130804030Y-55110000D02*
G01*
X130804030Y-53007557D01*
X130336427Y-53007557D01*
X130336427Y-54875526D01*
X129636427Y-54875526D01*
X129636427Y-55110000D01*
X130804030Y-55110000D01*
G37*
G36*
X127772487Y-53476503D02*
G01*
X127772487Y-55110000D01*
X128237281Y-55110000D01*
X128237281Y-54875526D01*
X128257719Y-54965857D01*
X128291308Y-55029676D01*
X128336703Y-55073391D01*
X128395622Y-55100306D01*
X128472487Y-55110000D01*
X128704884Y-55110000D01*
X128797274Y-55101337D01*
X128881811Y-55075898D01*
X128960262Y-55033518D01*
X129033879Y-54972735D01*
X129095112Y-54899728D01*
X129137911Y-54821247D01*
X129163682Y-54735973D01*
X129172487Y-54642030D01*
X129172487Y-53476503D01*
X128704884Y-53476503D01*
X128704884Y-54640443D01*
X128697263Y-54701105D01*
X128674756Y-54755554D01*
X128636374Y-54805551D01*
X128587103Y-54844761D01*
X128533089Y-54867736D01*
X128472487Y-54875526D01*
X128410034Y-54867655D01*
X128355167Y-54844602D01*
X128305914Y-54805551D01*
X128267459Y-54755546D01*
X128244915Y-54701097D01*
X128237281Y-54640443D01*
X128237281Y-53476503D01*
X127772487Y-53476503D01*
G37*
G36*
X127306472Y-55110000D02*
G01*
X127306472Y-53007557D01*
X126838869Y-53007557D01*
X126838869Y-54058778D01*
X126138869Y-53475648D01*
X125671266Y-53475648D01*
X126648482Y-54291420D01*
X125671266Y-55110000D01*
X126138869Y-55110000D01*
X126838869Y-54526870D01*
X126838869Y-55110000D01*
X127306472Y-55110000D01*
G37*
G36*
X125065244Y-53485166D02*
G01*
X125149781Y-53510605D01*
X125228231Y-53552985D01*
X125301849Y-53613768D01*
X125363227Y-53686808D01*
X125406010Y-53764862D01*
X125431700Y-53849208D01*
X125440457Y-53941664D01*
X125440457Y-54642030D01*
X125431651Y-54735973D01*
X125405880Y-54821247D01*
X125363082Y-54899728D01*
X125301849Y-54972735D01*
X125228231Y-55033518D01*
X125149781Y-55075898D01*
X125065244Y-55101337D01*
X124972854Y-55110000D01*
X124505251Y-55110000D01*
X124375473Y-55096400D01*
X124271765Y-55058464D01*
X124188324Y-54997758D01*
X124121766Y-54912119D01*
X124071635Y-54795985D01*
X124040457Y-54641053D01*
X124272854Y-54641053D01*
X124283308Y-54729967D01*
X124311288Y-54792983D01*
X124355051Y-54837014D01*
X124417451Y-54865067D01*
X124505251Y-54875526D01*
X124740457Y-54875526D01*
X124801123Y-54867828D01*
X124855141Y-54845150D01*
X124904344Y-54806528D01*
X124942769Y-54757087D01*
X124965251Y-54703366D01*
X124972854Y-54643618D01*
X124972854Y-54414396D01*
X124040457Y-54414396D01*
X124040457Y-53944106D01*
X124505251Y-53944106D01*
X124505251Y-54179923D01*
X124972854Y-54179923D01*
X124972854Y-53944106D01*
X124965197Y-53883243D01*
X124942663Y-53829101D01*
X124904344Y-53779853D01*
X124855150Y-53741304D01*
X124801131Y-53718664D01*
X124740457Y-53710976D01*
X124677930Y-53718743D01*
X124623058Y-53741461D01*
X124573883Y-53779853D01*
X124535490Y-53829110D01*
X124512919Y-53883251D01*
X124505251Y-53944106D01*
X124040457Y-53944106D01*
X124040457Y-53943984D01*
X124049147Y-53851009D01*
X124074628Y-53766217D01*
X124117014Y-53687807D01*
X124177721Y-53614501D01*
X124250667Y-53553408D01*
X124328632Y-53510810D01*
X124412890Y-53485225D01*
X124505251Y-53476503D01*
X124972854Y-53476503D01*
X125065244Y-53485166D01*
G37*
G36*
X121239724Y-53707923D02*
G01*
X121007327Y-53707923D01*
X121007327Y-53940321D01*
X121016027Y-54038968D01*
X121041174Y-54126286D01*
X121082318Y-54204426D01*
X121140317Y-54274933D01*
X121235503Y-54349640D01*
X121338478Y-54393220D01*
X121452581Y-54407923D01*
X121474930Y-54407923D01*
X121474930Y-54640321D01*
X121488624Y-54740368D01*
X121531607Y-54843778D01*
X121609385Y-54953562D01*
X121682031Y-55023270D01*
X121760237Y-55071409D01*
X121845407Y-55100186D01*
X121939724Y-55110000D01*
X122407327Y-55110000D01*
X122501689Y-55100249D01*
X122587145Y-55071634D01*
X122665829Y-55023747D01*
X122739131Y-54954417D01*
X122817698Y-54845090D01*
X122861098Y-54741934D01*
X122874930Y-54641908D01*
X122874930Y-54409145D01*
X122862712Y-54308125D01*
X122824781Y-54204769D01*
X122757327Y-54096636D01*
X122692889Y-54029803D01*
X122615116Y-53981796D01*
X122521286Y-53951746D01*
X122407327Y-53941053D01*
X122561673Y-53909899D01*
X122677432Y-53859777D01*
X122762854Y-53793188D01*
X122823451Y-53709645D01*
X122861341Y-53605740D01*
X122874930Y-53475648D01*
X122866196Y-53383266D01*
X122840536Y-53298699D01*
X122797752Y-53220166D01*
X122736322Y-53146409D01*
X122662609Y-53084858D01*
X122584131Y-53042001D01*
X122499632Y-53016304D01*
X122407327Y-53007557D01*
X121939724Y-53007557D01*
X121847456Y-53016368D01*
X121763238Y-53042233D01*
X121685244Y-53085344D01*
X121612194Y-53147264D01*
X121551381Y-53221359D01*
X121509000Y-53300142D01*
X121483579Y-53384853D01*
X121474930Y-53477236D01*
X121474930Y-53709633D01*
X121939724Y-53709633D01*
X121939724Y-53477236D01*
X121947467Y-53414693D01*
X121970110Y-53359820D01*
X122008356Y-53310662D01*
X122057514Y-53272416D01*
X122112387Y-53249773D01*
X122174930Y-53242030D01*
X122235628Y-53249683D01*
X122289649Y-53272212D01*
X122338817Y-53310540D01*
X122376996Y-53359687D01*
X122399598Y-53414522D01*
X122407327Y-53476992D01*
X122407327Y-53591664D01*
X122397685Y-53668560D01*
X122370939Y-53727447D01*
X122327556Y-53772760D01*
X122264320Y-53806251D01*
X122174930Y-53826625D01*
X122174930Y-54058778D01*
X122264753Y-54080133D01*
X122328107Y-54113937D01*
X122371347Y-54158871D01*
X122397833Y-54216495D01*
X122407327Y-54290931D01*
X122407327Y-54640565D01*
X122398874Y-54715847D01*
X122375665Y-54773148D01*
X122338817Y-54816786D01*
X122290328Y-54849306D01*
X122236256Y-54868821D01*
X122174930Y-54875526D01*
X122111738Y-54868753D01*
X122056821Y-54849173D01*
X122008356Y-54816786D01*
X121971437Y-54773062D01*
X121948189Y-54715678D01*
X121939724Y-54640321D01*
X121939724Y-54175526D01*
X121474930Y-54175526D01*
X121412379Y-54167795D01*
X121357505Y-54145189D01*
X121308356Y-54107016D01*
X121270106Y-54057783D01*
X121247465Y-54002867D01*
X121239724Y-53940321D01*
X121239724Y-53707923D01*
G37*
G36*
X118444364Y-54641053D02*
G01*
X118462877Y-54775249D01*
X118497988Y-54880317D01*
X118547396Y-54962007D01*
X118610742Y-55024564D01*
X118689648Y-55070332D01*
X118787514Y-55099486D01*
X118909159Y-55110000D01*
X119376762Y-55110000D01*
X119469145Y-55101330D01*
X119553679Y-55075872D01*
X119632132Y-55033455D01*
X119705757Y-54972613D01*
X119767000Y-54899545D01*
X119809797Y-54821041D01*
X119835563Y-54735785D01*
X119844364Y-54641908D01*
X119844364Y-53475648D01*
X119835779Y-53383117D01*
X119810579Y-53298483D01*
X119768638Y-53219997D01*
X119708565Y-53146409D01*
X119636284Y-53085235D01*
X119557911Y-53042352D01*
X119472061Y-53016440D01*
X119376762Y-53007557D01*
X118909159Y-53007557D01*
X118786545Y-53018117D01*
X118688158Y-53047366D01*
X118609076Y-53093216D01*
X118545815Y-53155801D01*
X118496710Y-53237455D01*
X118462113Y-53342430D01*
X118444364Y-53476503D01*
X118676762Y-53476503D01*
X118697155Y-53385931D01*
X118730512Y-53322074D01*
X118775432Y-53278449D01*
X118833542Y-53251661D01*
X118909159Y-53242030D01*
X119144364Y-53242030D01*
X119205071Y-53249672D01*
X119259092Y-53272163D01*
X119308251Y-53310418D01*
X119346440Y-53359484D01*
X119369037Y-53414199D01*
X119376762Y-53476503D01*
X119376762Y-54640443D01*
X119369140Y-54701105D01*
X119346633Y-54755554D01*
X119308251Y-54805551D01*
X119258980Y-54844761D01*
X119204966Y-54867736D01*
X119144364Y-54875526D01*
X118909159Y-54875526D01*
X118832332Y-54865810D01*
X118773770Y-54838889D01*
X118728949Y-54795213D01*
X118696135Y-54731437D01*
X118676762Y-54641053D01*
X118444364Y-54641053D01*
G37*
G36*
X117603136Y-53485166D02*
G01*
X117687673Y-53510605D01*
X117766124Y-53552985D01*
X117839741Y-53613768D01*
X117901120Y-53686808D01*
X117943903Y-53764862D01*
X117969593Y-53849208D01*
X117978349Y-53941664D01*
X117978349Y-54642030D01*
X117969544Y-54735973D01*
X117943772Y-54821247D01*
X117900974Y-54899728D01*
X117839741Y-54972735D01*
X117766124Y-55033518D01*
X117687673Y-55075898D01*
X117603136Y-55101337D01*
X117510746Y-55110000D01*
X117043143Y-55110000D01*
X116950816Y-55101246D01*
X116866572Y-55075561D01*
X116788597Y-55032779D01*
X116715614Y-54971392D01*
X116654839Y-54897717D01*
X116612458Y-54819188D01*
X116587015Y-54734548D01*
X116578349Y-54642030D01*
X116578349Y-53942763D01*
X117043143Y-53942763D01*
X117043143Y-54640931D01*
X117050776Y-54701501D01*
X117073318Y-54755868D01*
X117111775Y-54805795D01*
X117161012Y-54844700D01*
X117215880Y-54867679D01*
X117278349Y-54875526D01*
X117338967Y-54867759D01*
X117392982Y-54844858D01*
X117442236Y-54805795D01*
X117480620Y-54755876D01*
X117503125Y-54701509D01*
X117510746Y-54640931D01*
X117510746Y-53942763D01*
X117503098Y-53882315D01*
X117480576Y-53828496D01*
X117442236Y-53779487D01*
X117393068Y-53741158D01*
X117339047Y-53718629D01*
X117278349Y-53710976D01*
X117215798Y-53718708D01*
X117160925Y-53741314D01*
X117111775Y-53779487D01*
X117073362Y-53828505D01*
X117050803Y-53882323D01*
X117043143Y-53942763D01*
X116578349Y-53942763D01*
X116578349Y-53941664D01*
X116587035Y-53849135D01*
X116612505Y-53764758D01*
X116654885Y-53686727D01*
X116715614Y-53613768D01*
X116788516Y-53553030D01*
X116866468Y-53510652D01*
X116950743Y-53485186D01*
X117043143Y-53476503D01*
X117510746Y-53476503D01*
X117603136Y-53485166D01*
G37*
G36*
X116112334Y-55110000D02*
G01*
X116112334Y-53007557D01*
X115644731Y-53007557D01*
X115644731Y-55110000D01*
X116112334Y-55110000D01*
G37*
G36*
X115180303Y-53242030D02*
G01*
X115180303Y-53007557D01*
X114712700Y-53007557D01*
X114712700Y-53242030D01*
X115180303Y-53242030D01*
G37*
G36*
X115180303Y-55110000D02*
G01*
X115180303Y-53477602D01*
X114712700Y-53477602D01*
X114712700Y-55110000D01*
X115180303Y-55110000D01*
G37*
G36*
X114248272Y-55110000D02*
G01*
X114248272Y-53476503D01*
X113780669Y-53476503D01*
X113780669Y-53710976D01*
X113764980Y-53634085D01*
X113740297Y-53576616D01*
X113707885Y-53534389D01*
X113665381Y-53502975D01*
X113613101Y-53483462D01*
X113548272Y-53476503D01*
X113313066Y-53476503D01*
X113220667Y-53485186D01*
X113136391Y-53510652D01*
X113058439Y-53553030D01*
X112985537Y-53613768D01*
X112924808Y-53686727D01*
X112882428Y-53764758D01*
X112856958Y-53849135D01*
X112848272Y-53941664D01*
X112848272Y-55110000D01*
X113313066Y-55110000D01*
X113313066Y-53943251D01*
X113320730Y-53882646D01*
X113343294Y-53828707D01*
X113381699Y-53779609D01*
X113430857Y-53741363D01*
X113485729Y-53718720D01*
X113548272Y-53710976D01*
X113608963Y-53718641D01*
X113662983Y-53741207D01*
X113712159Y-53779609D01*
X113750490Y-53828698D01*
X113773017Y-53882638D01*
X113780669Y-53943251D01*
X113780669Y-55110000D01*
X114248272Y-55110000D01*
G37*
G36*
X133250000Y-45766259D02*
G01*
X133830992Y-45766259D01*
X133884116Y-45536825D01*
X133966498Y-45376589D01*
X134074218Y-45268606D01*
X134210260Y-45203291D01*
X134383897Y-45180076D01*
X134584200Y-45198746D01*
X134734338Y-45249143D01*
X134846127Y-45326622D01*
X134928129Y-45434092D01*
X134980681Y-45576958D01*
X135000000Y-45766259D01*
X134982263Y-45905163D01*
X134927914Y-46041798D01*
X134832083Y-46179640D01*
X133592855Y-47566329D01*
X133397615Y-47837928D01*
X133286465Y-48111116D01*
X133250000Y-48393091D01*
X133250000Y-48680076D01*
X133271663Y-48911372D01*
X133335272Y-49122971D01*
X133441225Y-49319294D01*
X133593161Y-49503480D01*
X133775537Y-49656584D01*
X133971542Y-49763576D01*
X134184472Y-49827993D01*
X134419007Y-49850000D01*
X135000000Y-49850000D01*
X135292000Y-49828894D01*
X135528729Y-49770505D01*
X135720397Y-49679898D01*
X135875000Y-49558740D01*
X135996997Y-49405168D01*
X136088455Y-49213160D01*
X136147575Y-48974257D01*
X136169007Y-48677634D01*
X135580992Y-48677634D01*
X135580992Y-48775331D01*
X135559897Y-48923953D01*
X135499835Y-49042482D01*
X135399031Y-49138337D01*
X135207843Y-49232588D01*
X135000000Y-49263817D01*
X134800204Y-49244337D01*
X134656849Y-49192595D01*
X134555478Y-49113913D01*
X134483029Y-49005772D01*
X134436217Y-48863676D01*
X134419007Y-48677634D01*
X134437080Y-48534342D01*
X134491739Y-48397741D01*
X134586924Y-48264253D01*
X135826151Y-46877564D01*
X136020739Y-46610298D01*
X136132200Y-46337158D01*
X136169007Y-46050802D01*
X136169007Y-45763817D01*
X136147355Y-45532503D01*
X136083791Y-45320951D01*
X135977930Y-45124737D01*
X135826151Y-44940718D01*
X135643608Y-44787457D01*
X135447493Y-44680373D01*
X135234516Y-44615912D01*
X135000000Y-44593893D01*
X134419007Y-44593893D01*
X134112500Y-44620260D01*
X133866082Y-44693343D01*
X133667588Y-44807986D01*
X133508404Y-44964535D01*
X133384380Y-45168773D01*
X133296342Y-45431239D01*
X133250000Y-45766259D01*
G37*
G36*
X130526082Y-45784452D02*
G01*
X130667328Y-45833965D01*
X130774293Y-45910973D01*
X130852025Y-46016822D01*
X130902449Y-46160033D01*
X130921144Y-46352442D01*
X130921144Y-45766259D01*
X132090151Y-45766259D01*
X132090151Y-51022365D01*
X130921144Y-51022365D01*
X130921144Y-49850000D01*
X129752137Y-49850000D01*
X129521137Y-49828292D01*
X129310449Y-49764629D01*
X129115568Y-49658683D01*
X128933312Y-49506838D01*
X128781851Y-49324523D01*
X128675864Y-49128380D01*
X128611986Y-48915115D01*
X128590151Y-48680076D01*
X128590151Y-46931908D01*
X129752137Y-46931908D01*
X129752137Y-48677329D01*
X129771470Y-48833080D01*
X129828053Y-48969971D01*
X129923717Y-49092847D01*
X130046568Y-49188096D01*
X130183753Y-49244517D01*
X130340151Y-49263817D01*
X130921144Y-49263817D01*
X130921144Y-46931908D01*
X130902024Y-46780787D01*
X130845719Y-46646241D01*
X130749869Y-46523717D01*
X130626950Y-46427896D01*
X130491897Y-46371574D01*
X130340151Y-46352442D01*
X130183774Y-46371771D01*
X130046590Y-46428285D01*
X129923717Y-46523717D01*
X129827683Y-46646262D01*
X129771285Y-46780807D01*
X129752137Y-46931908D01*
X128590151Y-46931908D01*
X128590151Y-46929160D01*
X128611865Y-46697839D01*
X128675541Y-46486895D01*
X128781490Y-46291818D01*
X128933312Y-46109420D01*
X129115568Y-45957576D01*
X129310449Y-45851630D01*
X129521137Y-45787966D01*
X129752137Y-45766259D01*
X130340151Y-45766259D01*
X130526082Y-45784452D01*
G37*
G36*
X126837098Y-50436182D02*
G01*
X126796125Y-50660822D01*
X126718097Y-50819651D01*
X126606834Y-50929184D01*
X126457167Y-50997454D01*
X126256106Y-51022365D01*
X125675113Y-51022365D01*
X125518715Y-51003065D01*
X125381530Y-50946645D01*
X125258679Y-50851395D01*
X125163025Y-50728708D01*
X125106438Y-50591924D01*
X125087098Y-50436182D01*
X125087098Y-49269007D01*
X125138045Y-49492432D01*
X125221823Y-49650513D01*
X125335207Y-49758990D01*
X125482601Y-49825882D01*
X125675113Y-49850000D01*
X126256106Y-49850000D01*
X126487081Y-49828342D01*
X126698423Y-49764746D01*
X126894549Y-49658796D01*
X127078593Y-49506838D01*
X127231676Y-49324321D01*
X127338671Y-49128118D01*
X127403100Y-48914933D01*
X127425113Y-48680076D01*
X127425113Y-45766259D01*
X126256106Y-45766259D01*
X126256106Y-48676107D01*
X126237051Y-48827764D01*
X126180783Y-48963886D01*
X126084830Y-49088878D01*
X125961652Y-49186904D01*
X125826618Y-49244341D01*
X125675113Y-49263817D01*
X125518980Y-49244139D01*
X125381813Y-49186506D01*
X125258679Y-49088878D01*
X125162542Y-48963865D01*
X125106181Y-48827744D01*
X125087098Y-48676107D01*
X125087098Y-45766259D01*
X123925113Y-45766259D01*
X123925113Y-50437404D01*
X123946778Y-50668859D01*
X124010389Y-50880613D01*
X124116345Y-51077086D01*
X124268274Y-51261418D01*
X124450769Y-51415183D01*
X124645718Y-51522320D01*
X124856312Y-51586632D01*
X125087098Y-51608548D01*
X126256106Y-51608548D01*
X126580565Y-51574592D01*
X126840440Y-51479790D01*
X127050067Y-51327979D01*
X127217821Y-51113776D01*
X127344890Y-50823377D01*
X127425113Y-50436182D01*
X126837098Y-50436182D01*
G37*
G36*
X120422060Y-45766259D02*
G01*
X121591067Y-45766259D01*
X121822042Y-45787916D01*
X122033384Y-45851513D01*
X122229510Y-45957463D01*
X122413555Y-46109420D01*
X122567002Y-46292020D01*
X122673959Y-46487155D01*
X122738184Y-46698020D01*
X122760075Y-46929160D01*
X122760075Y-48680076D01*
X122738061Y-48914933D01*
X122673633Y-49128118D01*
X122566637Y-49324321D01*
X122413555Y-49506838D01*
X122229510Y-49658796D01*
X122033384Y-49764746D01*
X121822042Y-49828342D01*
X121591067Y-49850000D01*
X121010075Y-49850000D01*
X120817912Y-49825765D01*
X120670614Y-49758479D01*
X120557126Y-49649190D01*
X120473153Y-49489643D01*
X120422060Y-49263817D01*
X120422060Y-49850000D01*
X119260075Y-49850000D01*
X119260075Y-48677329D01*
X120422060Y-48677329D01*
X120441141Y-48828754D01*
X120497498Y-48964670D01*
X120593640Y-49089488D01*
X120716731Y-49186751D01*
X120853901Y-49244197D01*
X121010075Y-49263817D01*
X121161620Y-49244398D01*
X121296657Y-49187146D01*
X121419792Y-49089488D01*
X121515751Y-48964692D01*
X121572015Y-48828773D01*
X121591067Y-48677329D01*
X121591067Y-46931908D01*
X121571948Y-46780787D01*
X121515642Y-46646241D01*
X121419792Y-46523717D01*
X121296873Y-46427896D01*
X121161820Y-46371574D01*
X121010075Y-46352442D01*
X120422060Y-46352442D01*
X120422060Y-48677329D01*
X119260075Y-48677329D01*
X119260075Y-44593893D01*
X120422060Y-44593893D01*
X120422060Y-45766259D01*
G37*
G36*
X117157004Y-45787916D02*
G01*
X117368346Y-45851513D01*
X117564472Y-45957463D01*
X117748517Y-46109420D01*
X117901963Y-46292020D01*
X118008921Y-46487155D01*
X118073146Y-46698020D01*
X118095036Y-46929160D01*
X118095036Y-48680076D01*
X118073023Y-48914933D01*
X118008594Y-49128118D01*
X117901599Y-49324321D01*
X117748517Y-49506838D01*
X117564472Y-49658796D01*
X117368346Y-49764746D01*
X117157004Y-49828342D01*
X116926029Y-49850000D01*
X115757021Y-49850000D01*
X115432577Y-49816001D01*
X115173308Y-49721162D01*
X114964704Y-49569395D01*
X114798311Y-49355298D01*
X114672982Y-49064962D01*
X114595036Y-48677634D01*
X115176029Y-48677634D01*
X115202165Y-48899919D01*
X115272115Y-49057459D01*
X115381522Y-49167535D01*
X115537521Y-49237669D01*
X115757021Y-49263817D01*
X116345036Y-49263817D01*
X116496702Y-49244570D01*
X116631748Y-49187875D01*
X116754754Y-49091320D01*
X116850818Y-48967717D01*
X116907023Y-48833415D01*
X116926029Y-48684045D01*
X116926029Y-48110990D01*
X114595036Y-48110990D01*
X114595036Y-46935266D01*
X115757021Y-46935266D01*
X115757021Y-47524808D01*
X116926029Y-47524808D01*
X116926029Y-46935266D01*
X116906886Y-46783107D01*
X116850552Y-46647753D01*
X116754754Y-46524633D01*
X116631770Y-46428261D01*
X116496722Y-46371660D01*
X116345036Y-46352442D01*
X116188720Y-46371858D01*
X116051540Y-46428652D01*
X115928602Y-46524633D01*
X115832620Y-46647775D01*
X115776193Y-46783127D01*
X115757021Y-46935266D01*
X114595036Y-46935266D01*
X114595036Y-46934961D01*
X114616762Y-46702522D01*
X114680466Y-46490543D01*
X114786429Y-46294518D01*
X114938197Y-46111252D01*
X115120563Y-45958522D01*
X115315476Y-45852026D01*
X115526120Y-45788063D01*
X115757021Y-45766259D01*
X116926029Y-45766259D01*
X117157004Y-45787916D01*
G37*
G36*
X112260990Y-49850000D02*
G01*
X113429998Y-49850000D01*
X113429998Y-45766259D01*
X112260990Y-45766259D01*
X112260990Y-46919085D01*
X112183541Y-46546054D01*
X112061541Y-46264230D01*
X111900732Y-46054466D01*
X111690247Y-45898891D01*
X111425844Y-45801347D01*
X111091983Y-45766259D01*
X110510990Y-45766259D01*
X110510990Y-46919085D01*
X111679998Y-46919085D01*
X111831684Y-46938304D01*
X111966731Y-46994905D01*
X112089715Y-47091277D01*
X112185131Y-47214733D01*
X112241656Y-47352529D01*
X112260990Y-47509542D01*
X112260990Y-49850000D01*
G37*
G36*
X105845647Y-45766259D02*
G01*
X104683661Y-45766259D01*
X104683661Y-47853620D01*
X104720740Y-48251818D01*
X104829383Y-48614439D01*
X105009939Y-48949228D01*
X105268318Y-49261680D01*
X105579062Y-49521735D01*
X105912471Y-49703383D01*
X106274092Y-49812683D01*
X106671798Y-49850000D01*
X108183661Y-49850000D01*
X108183661Y-45766259D01*
X107014654Y-45766259D01*
X107014654Y-49263817D01*
X106433661Y-49263817D01*
X106277529Y-49244139D01*
X106140361Y-49186506D01*
X106017227Y-49088878D01*
X105921091Y-48963865D01*
X105864730Y-48827744D01*
X105845647Y-48676107D01*
X105845647Y-45766259D01*
G37*
G36*
X102930608Y-45766259D02*
G01*
X103518623Y-45766259D01*
X103438400Y-45379065D01*
X103311331Y-45088665D01*
X103143577Y-44874462D01*
X102933950Y-44722652D01*
X102674075Y-44627849D01*
X102349616Y-44593893D01*
X101180608Y-44593893D01*
X100949789Y-44615777D01*
X100739181Y-44679990D01*
X100544242Y-44786944D01*
X100361784Y-44940413D01*
X100209842Y-45124454D01*
X100103891Y-45320626D01*
X100040286Y-45532070D01*
X100018623Y-45763206D01*
X100018623Y-46050191D01*
X100049140Y-46260330D01*
X100151226Y-46510097D01*
X100347235Y-46812179D01*
X100666794Y-47179525D01*
X101145498Y-47625558D01*
X101222740Y-47688450D01*
X101708136Y-48138018D01*
X102028285Y-48499333D01*
X102221691Y-48788268D01*
X102320589Y-49019731D01*
X102349616Y-49207946D01*
X102349616Y-49263817D01*
X100018623Y-49263817D01*
X100018623Y-49850000D01*
X103518623Y-49850000D01*
X103518623Y-49269007D01*
X103487959Y-49058939D01*
X103385351Y-48809259D01*
X103188236Y-48507224D01*
X102866684Y-48139839D01*
X102384726Y-47693640D01*
X102307484Y-47630443D01*
X101828786Y-47184546D01*
X101509229Y-46817291D01*
X101313218Y-46515263D01*
X101211128Y-46265520D01*
X101180608Y-46055382D01*
X101180608Y-45768091D01*
X101200271Y-45612150D01*
X101257891Y-45474973D01*
X101355547Y-45351657D01*
X101480566Y-45255537D01*
X101616785Y-45199168D01*
X101768623Y-45180076D01*
X102349616Y-45180076D01*
X102550677Y-45204988D01*
X102700344Y-45273258D01*
X102811607Y-45382791D01*
X102889635Y-45541619D01*
X102930608Y-45766259D01*
G37*
D12*
X66534819Y-59733333D02*
X66058628Y-59400000D01*
X66534819Y-59161905D02*
X65534819Y-59161905D01*
X65534819Y-59161905D02*
X65534819Y-59542857D01*
X65534819Y-59542857D02*
X65582438Y-59638095D01*
X65582438Y-59638095D02*
X65630057Y-59685714D01*
X65630057Y-59685714D02*
X65725295Y-59733333D01*
X65725295Y-59733333D02*
X65868152Y-59733333D01*
X65868152Y-59733333D02*
X65963390Y-59685714D01*
X65963390Y-59685714D02*
X66011009Y-59638095D01*
X66011009Y-59638095D02*
X66058628Y-59542857D01*
X66058628Y-59542857D02*
X66058628Y-59161905D01*
X66534819Y-60685714D02*
X66534819Y-60114286D01*
X66534819Y-60400000D02*
X65534819Y-60400000D01*
X65534819Y-60400000D02*
X65677676Y-60304762D01*
X65677676Y-60304762D02*
X65772914Y-60209524D01*
X65772914Y-60209524D02*
X65820533Y-60114286D01*
X85059819Y-68633333D02*
X84583628Y-68300000D01*
X85059819Y-68061905D02*
X84059819Y-68061905D01*
X84059819Y-68061905D02*
X84059819Y-68442857D01*
X84059819Y-68442857D02*
X84107438Y-68538095D01*
X84107438Y-68538095D02*
X84155057Y-68585714D01*
X84155057Y-68585714D02*
X84250295Y-68633333D01*
X84250295Y-68633333D02*
X84393152Y-68633333D01*
X84393152Y-68633333D02*
X84488390Y-68585714D01*
X84488390Y-68585714D02*
X84536009Y-68538095D01*
X84536009Y-68538095D02*
X84583628Y-68442857D01*
X84583628Y-68442857D02*
X84583628Y-68061905D01*
X84155057Y-69014286D02*
X84107438Y-69061905D01*
X84107438Y-69061905D02*
X84059819Y-69157143D01*
X84059819Y-69157143D02*
X84059819Y-69395238D01*
X84059819Y-69395238D02*
X84107438Y-69490476D01*
X84107438Y-69490476D02*
X84155057Y-69538095D01*
X84155057Y-69538095D02*
X84250295Y-69585714D01*
X84250295Y-69585714D02*
X84345533Y-69585714D01*
X84345533Y-69585714D02*
X84488390Y-69538095D01*
X84488390Y-69538095D02*
X85059819Y-68966667D01*
X85059819Y-68966667D02*
X85059819Y-69585714D01*
X110241666Y-68209819D02*
X110574999Y-67733628D01*
X110813094Y-68209819D02*
X110813094Y-67209819D01*
X110813094Y-67209819D02*
X110432142Y-67209819D01*
X110432142Y-67209819D02*
X110336904Y-67257438D01*
X110336904Y-67257438D02*
X110289285Y-67305057D01*
X110289285Y-67305057D02*
X110241666Y-67400295D01*
X110241666Y-67400295D02*
X110241666Y-67543152D01*
X110241666Y-67543152D02*
X110289285Y-67638390D01*
X110289285Y-67638390D02*
X110336904Y-67686009D01*
X110336904Y-67686009D02*
X110432142Y-67733628D01*
X110432142Y-67733628D02*
X110813094Y-67733628D01*
X109908332Y-67209819D02*
X109289285Y-67209819D01*
X109289285Y-67209819D02*
X109622618Y-67590771D01*
X109622618Y-67590771D02*
X109479761Y-67590771D01*
X109479761Y-67590771D02*
X109384523Y-67638390D01*
X109384523Y-67638390D02*
X109336904Y-67686009D01*
X109336904Y-67686009D02*
X109289285Y-67781247D01*
X109289285Y-67781247D02*
X109289285Y-68019342D01*
X109289285Y-68019342D02*
X109336904Y-68114580D01*
X109336904Y-68114580D02*
X109384523Y-68162200D01*
X109384523Y-68162200D02*
X109479761Y-68209819D01*
X109479761Y-68209819D02*
X109765475Y-68209819D01*
X109765475Y-68209819D02*
X109860713Y-68162200D01*
X109860713Y-68162200D02*
X109908332Y-68114580D01*
X89004819Y-50033333D02*
X88528628Y-49700000D01*
X89004819Y-49461905D02*
X88004819Y-49461905D01*
X88004819Y-49461905D02*
X88004819Y-49842857D01*
X88004819Y-49842857D02*
X88052438Y-49938095D01*
X88052438Y-49938095D02*
X88100057Y-49985714D01*
X88100057Y-49985714D02*
X88195295Y-50033333D01*
X88195295Y-50033333D02*
X88338152Y-50033333D01*
X88338152Y-50033333D02*
X88433390Y-49985714D01*
X88433390Y-49985714D02*
X88481009Y-49938095D01*
X88481009Y-49938095D02*
X88528628Y-49842857D01*
X88528628Y-49842857D02*
X88528628Y-49461905D01*
X88338152Y-50890476D02*
X89004819Y-50890476D01*
X87957200Y-50652381D02*
X88671485Y-50414286D01*
X88671485Y-50414286D02*
X88671485Y-51033333D01*
X92491666Y-54884819D02*
X92824999Y-54408628D01*
X93063094Y-54884819D02*
X93063094Y-53884819D01*
X93063094Y-53884819D02*
X92682142Y-53884819D01*
X92682142Y-53884819D02*
X92586904Y-53932438D01*
X92586904Y-53932438D02*
X92539285Y-53980057D01*
X92539285Y-53980057D02*
X92491666Y-54075295D01*
X92491666Y-54075295D02*
X92491666Y-54218152D01*
X92491666Y-54218152D02*
X92539285Y-54313390D01*
X92539285Y-54313390D02*
X92586904Y-54361009D01*
X92586904Y-54361009D02*
X92682142Y-54408628D01*
X92682142Y-54408628D02*
X93063094Y-54408628D01*
X91586904Y-53884819D02*
X92063094Y-53884819D01*
X92063094Y-53884819D02*
X92110713Y-54361009D01*
X92110713Y-54361009D02*
X92063094Y-54313390D01*
X92063094Y-54313390D02*
X91967856Y-54265771D01*
X91967856Y-54265771D02*
X91729761Y-54265771D01*
X91729761Y-54265771D02*
X91634523Y-54313390D01*
X91634523Y-54313390D02*
X91586904Y-54361009D01*
X91586904Y-54361009D02*
X91539285Y-54456247D01*
X91539285Y-54456247D02*
X91539285Y-54694342D01*
X91539285Y-54694342D02*
X91586904Y-54789580D01*
X91586904Y-54789580D02*
X91634523Y-54837200D01*
X91634523Y-54837200D02*
X91729761Y-54884819D01*
X91729761Y-54884819D02*
X91967856Y-54884819D01*
X91967856Y-54884819D02*
X92063094Y-54837200D01*
X92063094Y-54837200D02*
X92110713Y-54789580D01*
X121141666Y-62559819D02*
X121474999Y-62083628D01*
X121713094Y-62559819D02*
X121713094Y-61559819D01*
X121713094Y-61559819D02*
X121332142Y-61559819D01*
X121332142Y-61559819D02*
X121236904Y-61607438D01*
X121236904Y-61607438D02*
X121189285Y-61655057D01*
X121189285Y-61655057D02*
X121141666Y-61750295D01*
X121141666Y-61750295D02*
X121141666Y-61893152D01*
X121141666Y-61893152D02*
X121189285Y-61988390D01*
X121189285Y-61988390D02*
X121236904Y-62036009D01*
X121236904Y-62036009D02*
X121332142Y-62083628D01*
X121332142Y-62083628D02*
X121713094Y-62083628D01*
X120284523Y-61559819D02*
X120474999Y-61559819D01*
X120474999Y-61559819D02*
X120570237Y-61607438D01*
X120570237Y-61607438D02*
X120617856Y-61655057D01*
X120617856Y-61655057D02*
X120713094Y-61797914D01*
X120713094Y-61797914D02*
X120760713Y-61988390D01*
X120760713Y-61988390D02*
X120760713Y-62369342D01*
X120760713Y-62369342D02*
X120713094Y-62464580D01*
X120713094Y-62464580D02*
X120665475Y-62512200D01*
X120665475Y-62512200D02*
X120570237Y-62559819D01*
X120570237Y-62559819D02*
X120379761Y-62559819D01*
X120379761Y-62559819D02*
X120284523Y-62512200D01*
X120284523Y-62512200D02*
X120236904Y-62464580D01*
X120236904Y-62464580D02*
X120189285Y-62369342D01*
X120189285Y-62369342D02*
X120189285Y-62131247D01*
X120189285Y-62131247D02*
X120236904Y-62036009D01*
X120236904Y-62036009D02*
X120284523Y-61988390D01*
X120284523Y-61988390D02*
X120379761Y-61940771D01*
X120379761Y-61940771D02*
X120570237Y-61940771D01*
X120570237Y-61940771D02*
X120665475Y-61988390D01*
X120665475Y-61988390D02*
X120713094Y-62036009D01*
X120713094Y-62036009D02*
X120760713Y-62131247D01*
X104959580Y-57183333D02*
X105007200Y-57135714D01*
X105007200Y-57135714D02*
X105054819Y-56992857D01*
X105054819Y-56992857D02*
X105054819Y-56897619D01*
X105054819Y-56897619D02*
X105007200Y-56754762D01*
X105007200Y-56754762D02*
X104911961Y-56659524D01*
X104911961Y-56659524D02*
X104816723Y-56611905D01*
X104816723Y-56611905D02*
X104626247Y-56564286D01*
X104626247Y-56564286D02*
X104483390Y-56564286D01*
X104483390Y-56564286D02*
X104292914Y-56611905D01*
X104292914Y-56611905D02*
X104197676Y-56659524D01*
X104197676Y-56659524D02*
X104102438Y-56754762D01*
X104102438Y-56754762D02*
X104054819Y-56897619D01*
X104054819Y-56897619D02*
X104054819Y-56992857D01*
X104054819Y-56992857D02*
X104102438Y-57135714D01*
X104102438Y-57135714D02*
X104150057Y-57183333D01*
X104150057Y-57564286D02*
X104102438Y-57611905D01*
X104102438Y-57611905D02*
X104054819Y-57707143D01*
X104054819Y-57707143D02*
X104054819Y-57945238D01*
X104054819Y-57945238D02*
X104102438Y-58040476D01*
X104102438Y-58040476D02*
X104150057Y-58088095D01*
X104150057Y-58088095D02*
X104245295Y-58135714D01*
X104245295Y-58135714D02*
X104340533Y-58135714D01*
X104340533Y-58135714D02*
X104483390Y-58088095D01*
X104483390Y-58088095D02*
X105054819Y-57516667D01*
X105054819Y-57516667D02*
X105054819Y-58135714D01*
X84566666Y-50174819D02*
X84899999Y-49698628D01*
X85138094Y-50174819D02*
X85138094Y-49174819D01*
X85138094Y-49174819D02*
X84757142Y-49174819D01*
X84757142Y-49174819D02*
X84661904Y-49222438D01*
X84661904Y-49222438D02*
X84614285Y-49270057D01*
X84614285Y-49270057D02*
X84566666Y-49365295D01*
X84566666Y-49365295D02*
X84566666Y-49508152D01*
X84566666Y-49508152D02*
X84614285Y-49603390D01*
X84614285Y-49603390D02*
X84661904Y-49651009D01*
X84661904Y-49651009D02*
X84757142Y-49698628D01*
X84757142Y-49698628D02*
X85138094Y-49698628D01*
X84233332Y-49174819D02*
X83566666Y-49174819D01*
X83566666Y-49174819D02*
X83995237Y-50174819D01*
X107314285Y-42324819D02*
X107314285Y-41324819D01*
X107314285Y-41324819D02*
X107076190Y-41324819D01*
X107076190Y-41324819D02*
X106933333Y-41372438D01*
X106933333Y-41372438D02*
X106838095Y-41467676D01*
X106838095Y-41467676D02*
X106790476Y-41562914D01*
X106790476Y-41562914D02*
X106742857Y-41753390D01*
X106742857Y-41753390D02*
X106742857Y-41896247D01*
X106742857Y-41896247D02*
X106790476Y-42086723D01*
X106790476Y-42086723D02*
X106838095Y-42181961D01*
X106838095Y-42181961D02*
X106933333Y-42277200D01*
X106933333Y-42277200D02*
X107076190Y-42324819D01*
X107076190Y-42324819D02*
X107314285Y-42324819D01*
X106409523Y-41324819D02*
X105790476Y-41324819D01*
X105790476Y-41324819D02*
X106123809Y-41705771D01*
X106123809Y-41705771D02*
X105980952Y-41705771D01*
X105980952Y-41705771D02*
X105885714Y-41753390D01*
X105885714Y-41753390D02*
X105838095Y-41801009D01*
X105838095Y-41801009D02*
X105790476Y-41896247D01*
X105790476Y-41896247D02*
X105790476Y-42134342D01*
X105790476Y-42134342D02*
X105838095Y-42229580D01*
X105838095Y-42229580D02*
X105885714Y-42277200D01*
X105885714Y-42277200D02*
X105980952Y-42324819D01*
X105980952Y-42324819D02*
X106266666Y-42324819D01*
X106266666Y-42324819D02*
X106361904Y-42277200D01*
X106361904Y-42277200D02*
X106409523Y-42229580D01*
X105457142Y-41324819D02*
X104790476Y-41324819D01*
X104790476Y-41324819D02*
X105219047Y-42324819D01*
X106699580Y-57483332D02*
X106747200Y-57435713D01*
X106747200Y-57435713D02*
X106794819Y-57292856D01*
X106794819Y-57292856D02*
X106794819Y-57197618D01*
X106794819Y-57197618D02*
X106747200Y-57054761D01*
X106747200Y-57054761D02*
X106651961Y-56959523D01*
X106651961Y-56959523D02*
X106556723Y-56911904D01*
X106556723Y-56911904D02*
X106366247Y-56864285D01*
X106366247Y-56864285D02*
X106223390Y-56864285D01*
X106223390Y-56864285D02*
X106032914Y-56911904D01*
X106032914Y-56911904D02*
X105937676Y-56959523D01*
X105937676Y-56959523D02*
X105842438Y-57054761D01*
X105842438Y-57054761D02*
X105794819Y-57197618D01*
X105794819Y-57197618D02*
X105794819Y-57292856D01*
X105794819Y-57292856D02*
X105842438Y-57435713D01*
X105842438Y-57435713D02*
X105890057Y-57483332D01*
X106794819Y-58435713D02*
X106794819Y-57864285D01*
X106794819Y-58149999D02*
X105794819Y-58149999D01*
X105794819Y-58149999D02*
X105937676Y-58054761D01*
X105937676Y-58054761D02*
X106032914Y-57959523D01*
X106032914Y-57959523D02*
X106080533Y-57864285D01*
X102379166Y-42284819D02*
X102712499Y-41808628D01*
X102950594Y-42284819D02*
X102950594Y-41284819D01*
X102950594Y-41284819D02*
X102569642Y-41284819D01*
X102569642Y-41284819D02*
X102474404Y-41332438D01*
X102474404Y-41332438D02*
X102426785Y-41380057D01*
X102426785Y-41380057D02*
X102379166Y-41475295D01*
X102379166Y-41475295D02*
X102379166Y-41618152D01*
X102379166Y-41618152D02*
X102426785Y-41713390D01*
X102426785Y-41713390D02*
X102474404Y-41761009D01*
X102474404Y-41761009D02*
X102569642Y-41808628D01*
X102569642Y-41808628D02*
X102950594Y-41808628D01*
X101807737Y-41713390D02*
X101902975Y-41665771D01*
X101902975Y-41665771D02*
X101950594Y-41618152D01*
X101950594Y-41618152D02*
X101998213Y-41522914D01*
X101998213Y-41522914D02*
X101998213Y-41475295D01*
X101998213Y-41475295D02*
X101950594Y-41380057D01*
X101950594Y-41380057D02*
X101902975Y-41332438D01*
X101902975Y-41332438D02*
X101807737Y-41284819D01*
X101807737Y-41284819D02*
X101617261Y-41284819D01*
X101617261Y-41284819D02*
X101522023Y-41332438D01*
X101522023Y-41332438D02*
X101474404Y-41380057D01*
X101474404Y-41380057D02*
X101426785Y-41475295D01*
X101426785Y-41475295D02*
X101426785Y-41522914D01*
X101426785Y-41522914D02*
X101474404Y-41618152D01*
X101474404Y-41618152D02*
X101522023Y-41665771D01*
X101522023Y-41665771D02*
X101617261Y-41713390D01*
X101617261Y-41713390D02*
X101807737Y-41713390D01*
X101807737Y-41713390D02*
X101902975Y-41761009D01*
X101902975Y-41761009D02*
X101950594Y-41808628D01*
X101950594Y-41808628D02*
X101998213Y-41903866D01*
X101998213Y-41903866D02*
X101998213Y-42094342D01*
X101998213Y-42094342D02*
X101950594Y-42189580D01*
X101950594Y-42189580D02*
X101902975Y-42237200D01*
X101902975Y-42237200D02*
X101807737Y-42284819D01*
X101807737Y-42284819D02*
X101617261Y-42284819D01*
X101617261Y-42284819D02*
X101522023Y-42237200D01*
X101522023Y-42237200D02*
X101474404Y-42189580D01*
X101474404Y-42189580D02*
X101426785Y-42094342D01*
X101426785Y-42094342D02*
X101426785Y-41903866D01*
X101426785Y-41903866D02*
X101474404Y-41808628D01*
X101474404Y-41808628D02*
X101522023Y-41761009D01*
X101522023Y-41761009D02*
X101617261Y-41713390D01*
%TO.C,R1*%
D13*
X65172500Y-60154724D02*
X65172500Y-59645276D01*
X64127500Y-60154724D02*
X64127500Y-59645276D01*
%TO.C,R2*%
X83697500Y-69054724D02*
X83697500Y-68545276D01*
X82652500Y-69054724D02*
X82652500Y-68545276D01*
%TO.C,R3*%
X109820276Y-66847500D02*
X110329724Y-66847500D01*
X109820276Y-65802500D02*
X110329724Y-65802500D01*
%TO.C,R4*%
X90572500Y-50504724D02*
X90572500Y-49995276D01*
X89527500Y-50504724D02*
X89527500Y-49995276D01*
%TO.C,R5*%
X92070276Y-53522500D02*
X92579724Y-53522500D01*
X92070276Y-52477500D02*
X92579724Y-52477500D01*
%TO.C,R6*%
X120720276Y-60152500D02*
X121229724Y-60152500D01*
X120720276Y-61197500D02*
X121229724Y-61197500D01*
%TO.C,C2*%
X104040000Y-60496267D02*
X104040000Y-60203733D01*
X105060000Y-60496267D02*
X105060000Y-60203733D01*
%TO.C,R7*%
X84654724Y-50627500D02*
X84145276Y-50627500D01*
X84654724Y-51672500D02*
X84145276Y-51672500D01*
%TO.C,U1*%
X93740000Y-58240000D02*
X93740000Y-58540000D01*
X93740000Y-65160000D02*
X93740000Y-65460000D01*
X93740000Y-65460000D02*
X94040000Y-65460000D01*
X94040000Y-58240000D02*
X93740000Y-58240000D01*
X100660000Y-65460000D02*
X100960000Y-65460000D01*
X100960000Y-58240000D02*
X100660000Y-58240000D01*
X100960000Y-58540000D02*
X100960000Y-58240000D01*
X100960000Y-65460000D02*
X100960000Y-65160000D01*
X101600000Y-58530000D02*
X101940000Y-58060000D01*
X101260000Y-58060000D01*
X101600000Y-58530000D01*
G36*
X101600000Y-58530000D02*
G01*
X101260000Y-58060000D01*
X101940000Y-58060000D01*
X101600000Y-58530000D01*
G37*
%TO.C,D37*%
X104440000Y-39705000D02*
X106900000Y-39705000D01*
X104440000Y-41175000D02*
X104440000Y-39705000D01*
X106900000Y-41175000D02*
X104440000Y-41175000D01*
%TO.C,C1*%
X105740000Y-60483766D02*
X105740000Y-60191232D01*
X106760000Y-60483766D02*
X106760000Y-60191232D01*
%TO.C,R8*%
X101957776Y-39877500D02*
X102467224Y-39877500D01*
X101957776Y-40922500D02*
X102467224Y-40922500D01*
%TD*%
%LPC*%
D14*
%TO.C,R1*%
X64650000Y-58987500D03*
X64650000Y-60812500D03*
%TD*%
%TO.C,R2*%
X83175000Y-67887500D03*
X83175000Y-69712500D03*
%TD*%
D15*
%TO.C,R3*%
X110987500Y-66325000D03*
X109162500Y-66325000D03*
%TD*%
D14*
%TO.C,R4*%
X90050000Y-49337500D03*
X90050000Y-51162500D03*
%TD*%
D15*
%TO.C,R5*%
X93237500Y-53000000D03*
X91412500Y-53000000D03*
%TD*%
%TO.C,R6*%
X121887500Y-60675000D03*
X120062500Y-60675000D03*
%TD*%
D16*
%TO.C,J2*%
X81620001Y-40550000D03*
D17*
X84160001Y-40550000D03*
X86700000Y-40550000D03*
X89240001Y-40550000D03*
X91780001Y-40550000D03*
%TD*%
D16*
%TO.C,J1*%
X116260000Y-40550000D03*
D17*
X118800000Y-40550000D03*
X121339999Y-40550000D03*
X123880000Y-40550000D03*
X126420000Y-40550000D03*
%TD*%
D18*
%TO.C,C2*%
X104550000Y-61212501D03*
X104550000Y-59487499D03*
%TD*%
D19*
%TO.C,R7*%
X85312500Y-51150000D03*
X83487500Y-51150000D03*
%TD*%
D20*
%TO.C,U1*%
X101525000Y-59050000D03*
X101525000Y-59850000D03*
X101525000Y-60650000D03*
X101525000Y-61450000D03*
X101525000Y-62250000D03*
X101525000Y-63050000D03*
X101525000Y-63850000D03*
X101525000Y-64650000D03*
D21*
X100150000Y-66025000D03*
X99350000Y-66025000D03*
X98550000Y-66025000D03*
X97750000Y-66025000D03*
X96950000Y-66025000D03*
X96150000Y-66025000D03*
X95350000Y-66025000D03*
X94550000Y-66025000D03*
D20*
X93175000Y-64650000D03*
X93175000Y-63850000D03*
X93175000Y-63050000D03*
X93175000Y-62250000D03*
X93175000Y-61450000D03*
X93175000Y-60650000D03*
X93175000Y-59850000D03*
X93175000Y-59050000D03*
D21*
X94550000Y-57675000D03*
X95350000Y-57675000D03*
X96150000Y-57675000D03*
X96950000Y-57675000D03*
X97750000Y-57675000D03*
X98550000Y-57675000D03*
X99350000Y-57675000D03*
X100150000Y-57675000D03*
%TD*%
D22*
%TO.C,D37*%
X105225000Y-40440000D03*
X106975000Y-40440000D03*
%TD*%
D18*
%TO.C,C1*%
X106250000Y-61200000D03*
X106250000Y-59474998D03*
%TD*%
D15*
%TO.C,R8*%
X101300000Y-40400000D03*
X103125000Y-40400000D03*
%TD*%
%LPD*%
M02*
