M48
; DRILL file KiCad 10.0.3 date 2026-06-20T21:25:00
; FORMAT={-:-/ absolute / metric / decimal}
; #@! TF.CreationDate,2026-06-20T21:25:00-04:00
; #@! TF.GenerationSoftware,Kicad,Pcbnew,10.0.3
; #@! TF.FileFunction,Plated,1,4,PTH
FMAT,2
METRIC
; #@! TA.AperFunction,Plated,PTH,ViaDrill
T1C0.300
; #@! TA.AperFunction,Plated,PTH,ComponentDrill
T2C1.000
%
G90
G05
T1
X61.05Y-77.85
X61.25Y-56.9
X62.522Y-60.85
X62.95Y-69.75
X64.725Y-57.8
X68.1Y-54.05
X72.401Y-61.699
X73.95Y-69.65
X74.25Y-53.15
X75.0Y-63.45
X76.05Y-60.6
X81.05Y-69.9
X82.125Y-67.725
X82.55Y-50.0
X83.5Y-47.8
X87.0Y-55.5
X87.65Y-71.45
X88.05Y-53.8
X88.25Y-68.2
X88.65Y-53.15
X89.25Y-60.8
X90.65Y-60.1
X90.9Y-64.9
X91.15Y-49.3
X94.65Y-52.95
X96.75Y-63.45
X97.75Y-48.95
X97.75Y-60.35
X97.9Y-56.45
X99.4Y-70.6
X99.55Y-40.45
X100.1Y-61.8
X101.45Y-55.5
X102.625Y-53.525
X104.75Y-63.45
X105.35Y-60.3
X108.35Y-59.95
X109.15Y-68.9
X111.775Y-65.3
X112.1Y-47.8
X114.0Y-60.85
X115.55Y-55.5
X119.625Y-62.05
X122.35Y-49.2
X122.875Y-60.0
X124.45Y-76.95
X124.55Y-68.9
X124.6Y-53.15
X126.3Y-63.45
X126.7Y-71.6
X126.75Y-47.8
T2
X81.62Y-40.55
X84.16Y-40.55
X86.7Y-40.55
X89.24Y-40.55
X91.78Y-40.55
X116.26Y-40.55
X118.8Y-40.55
X121.34Y-40.55
X123.88Y-40.55
X126.42Y-40.55
M30
