%TF.GenerationSoftware,KiCad,Pcbnew,10.0.3*%
%TF.CreationDate,2026-06-20T21:24:58-04:00*%
%TF.ProjectId,SpyderDumbKeyboard,53707964-6572-4447-956d-624b6579626f,rev?*%
%TF.SameCoordinates,Original*%
%TF.FileFunction,Copper,L4,Bot*%
%TF.FilePolarity,Positive*%
%FSLAX46Y46*%
G04 Gerber Fmt 4.6, Leading zero omitted, Abs format (unit mm)*
G04 Created by KiCad (PCBNEW 10.0.3) date 2026-06-20 21:24:58*
%MOMM*%
%LPD*%
G01*
G04 APERTURE LIST*
G04 Aperture macros list*
%AMRoundRect*
0 Rectangle with rounded corners*
0 $1 Rounding radius*
0 $2 $3 $4 $5 $6 $7 $8 $9 X,Y pos of 4 corners*
0 Add a 4 corners polygon primitive as box body*
4,1,4,$2,$3,$4,$5,$6,$7,$8,$9,$2,$3,0*
0 Add four circle primitives for the rounded corners*
1,1,$1+$1,$2,$3*
1,1,$1+$1,$4,$5*
1,1,$1+$1,$6,$7*
1,1,$1+$1,$8,$9*
0 Add four rect primitives between the rounded corners*
20,1,$1+$1,$2,$3,$4,$5,0*
20,1,$1+$1,$4,$5,$6,$7,0*
20,1,$1+$1,$6,$7,$8,$9,0*
20,1,$1+$1,$8,$9,$2,$3,0*%
G04 Aperture macros list end*
%TA.AperFunction,NonConductor*%
%ADD10C,0.000000*%
%TD*%
%TA.AperFunction,SMDPad,CuDef*%
%ADD11RoundRect,0.237500X0.237500X-0.250000X0.237500X0.250000X-0.237500X0.250000X-0.237500X-0.250000X0*%
%TD*%
%TA.AperFunction,SMDPad,CuDef*%
%ADD12RoundRect,0.237500X-0.250000X-0.237500X0.250000X-0.237500X0.250000X0.237500X-0.250000X0.237500X0*%
%TD*%
%TA.AperFunction,ComponentPad*%
%ADD13R,1.700000X1.700000*%
%TD*%
%TA.AperFunction,ComponentPad*%
%ADD14C,1.700000*%
%TD*%
%TA.AperFunction,SMDPad,CuDef*%
%ADD15RoundRect,0.237500X0.237500X-0.300000X0.237500X0.300000X-0.237500X0.300000X-0.237500X-0.300000X0*%
%TD*%
%TA.AperFunction,SMDPad,CuDef*%
%ADD16RoundRect,0.237500X0.250000X0.237500X-0.250000X0.237500X-0.250000X-0.237500X0.250000X-0.237500X0*%
%TD*%
%TA.AperFunction,SMDPad,CuDef*%
%ADD17RoundRect,0.125000X0.625000X0.125000X-0.625000X0.125000X-0.625000X-0.125000X0.625000X-0.125000X0*%
%TD*%
%TA.AperFunction,SMDPad,CuDef*%
%ADD18RoundRect,0.125000X0.125000X0.625000X-0.125000X0.625000X-0.125000X-0.625000X0.125000X-0.625000X0*%
%TD*%
%TA.AperFunction,SMDPad,CuDef*%
%ADD19RoundRect,0.237500X-0.287500X-0.237500X0.287500X-0.237500X0.287500X0.237500X-0.287500X0.237500X0*%
%TD*%
%TA.AperFunction,ViaPad*%
%ADD20C,0.600000*%
%TD*%
%TA.AperFunction,Conductor*%
%ADD21C,0.200000*%
%TD*%
%TA.AperFunction,Conductor*%
%ADD22C,0.400000*%
%TD*%
G04 APERTURE END LIST*
D10*
%TA.AperFunction,NonConductor*%
G36*
X59501724Y-51100000D02*
G01*
X59125862Y-51100000D01*
X59125862Y-50348276D01*
X59501724Y-50348276D01*
X59501724Y-51100000D01*
G37*
%TD.AperFunction*%
%TA.AperFunction,NonConductor*%
G36*
X61381034Y-48844828D02*
G01*
X61005172Y-48844828D01*
X61005172Y-48468966D01*
X61381034Y-48468966D01*
X61381034Y-48844828D01*
G37*
%TD.AperFunction*%
%TA.AperFunction,NonConductor*%
G36*
X62508621Y-48093103D02*
G01*
X62508621Y-48468966D01*
X62132759Y-48468966D01*
X62132759Y-49220690D01*
X62132759Y-49596552D01*
X61381034Y-49596552D01*
X61381034Y-49972414D01*
X61005172Y-49972414D01*
X61005172Y-49596552D01*
X60629310Y-49596552D01*
X60629310Y-49972414D01*
X60629310Y-50348276D01*
X60629310Y-50724138D01*
X61005172Y-50724138D01*
X61005172Y-51100000D01*
X60253448Y-51100000D01*
X60253448Y-50724138D01*
X60253448Y-50348276D01*
X59501724Y-50348276D01*
X59501724Y-49972414D01*
X59125862Y-49972414D01*
X59125862Y-49596552D01*
X60253448Y-49596552D01*
X60253448Y-49220690D01*
X59501724Y-49220690D01*
X59501724Y-48844828D01*
X60253448Y-48844828D01*
X60253448Y-48093103D01*
X60629310Y-48093103D01*
X60629310Y-48844828D01*
X60629310Y-49220690D01*
X61756897Y-49220690D01*
X61756897Y-48468966D01*
X61756897Y-48093103D01*
X60629310Y-48093103D01*
X60253448Y-48093103D01*
X60253448Y-47717241D01*
X61005172Y-47717241D01*
X61005172Y-47341379D01*
X60629310Y-47341379D01*
X60629310Y-46965517D01*
X60629310Y-46589655D01*
X60629310Y-46213793D01*
X61005172Y-46213793D01*
X61005172Y-46589655D01*
X61381034Y-46589655D01*
X61381034Y-46965517D01*
X62132759Y-46965517D01*
X62132759Y-47341379D01*
X61381034Y-47341379D01*
X61381034Y-47717241D01*
X62132759Y-47717241D01*
X62132759Y-48093103D01*
X62508621Y-48093103D01*
G37*
%TD.AperFunction*%
%TA.AperFunction,NonConductor*%
G36*
X62132759Y-51100000D02*
G01*
X61756897Y-51100000D01*
X61756897Y-50348276D01*
X62132759Y-50348276D01*
X62132759Y-51100000D01*
G37*
%TD.AperFunction*%
%TA.AperFunction,NonConductor*%
G36*
X64012069Y-47717241D02*
G01*
X64763793Y-47717241D01*
X64763793Y-48093103D01*
X64763793Y-48468966D01*
X64763793Y-48844828D01*
X64763793Y-49220690D01*
X65139655Y-49220690D01*
X65139655Y-49596552D01*
X65515517Y-49596552D01*
X65515517Y-49220690D01*
X65891379Y-49220690D01*
X65891379Y-48844828D01*
X66267241Y-48844828D01*
X66267241Y-49220690D01*
X66267241Y-49596552D01*
X66643103Y-49596552D01*
X66643103Y-49972414D01*
X66267241Y-49972414D01*
X66267241Y-50348276D01*
X65891379Y-50348276D01*
X65891379Y-49972414D01*
X65139655Y-49972414D01*
X65139655Y-50348276D01*
X65139655Y-50724138D01*
X66267241Y-50724138D01*
X66267241Y-50348276D01*
X66643103Y-50348276D01*
X66643103Y-50724138D01*
X66643103Y-51100000D01*
X62508621Y-51100000D01*
X62508621Y-50724138D01*
X62884483Y-50724138D01*
X62884483Y-50348276D01*
X62132759Y-50348276D01*
X62132759Y-49972414D01*
X62132759Y-49596552D01*
X62508621Y-49596552D01*
X62508621Y-49972414D01*
X63260345Y-49972414D01*
X63260345Y-50348276D01*
X63636207Y-50348276D01*
X63636207Y-50724138D01*
X64012069Y-50724138D01*
X64012069Y-50348276D01*
X64387931Y-50348276D01*
X64387931Y-49972414D01*
X64763793Y-49972414D01*
X64763793Y-49596552D01*
X64387931Y-49596552D01*
X64387931Y-49220690D01*
X64012069Y-49220690D01*
X64012069Y-48844828D01*
X64387931Y-48844828D01*
X64387931Y-48468966D01*
X64012069Y-48468966D01*
X64012069Y-48093103D01*
X63636207Y-48093103D01*
X63636207Y-47717241D01*
X63636207Y-47341379D01*
X64012069Y-47341379D01*
X64012069Y-47717241D01*
G37*
%TD.AperFunction*%
%TA.AperFunction,NonConductor*%
G36*
X68898276Y-50348276D02*
G01*
X67770690Y-50348276D01*
X67770690Y-49220690D01*
X68898276Y-49220690D01*
X68898276Y-50348276D01*
G37*
%TD.AperFunction*%
%TA.AperFunction,NonConductor*%
G36*
X69650000Y-50724138D02*
G01*
X69650000Y-51100000D01*
X67018966Y-51100000D01*
X67018966Y-50724138D01*
X67018966Y-48844828D01*
X67394828Y-48844828D01*
X67394828Y-50724138D01*
X69274138Y-50724138D01*
X69274138Y-48844828D01*
X67394828Y-48844828D01*
X67018966Y-48844828D01*
X67018966Y-48468966D01*
X69650000Y-48468966D01*
X69650000Y-48844828D01*
X69650000Y-50724138D01*
G37*
%TD.AperFunction*%
%TA.AperFunction,NonConductor*%
G36*
X59125862Y-50348276D02*
G01*
X58750000Y-50348276D01*
X58750000Y-49972414D01*
X59125862Y-49972414D01*
X59125862Y-50348276D01*
G37*
%TD.AperFunction*%
%TA.AperFunction,NonConductor*%
G36*
X61756897Y-50348276D02*
G01*
X61381034Y-50348276D01*
X61381034Y-49972414D01*
X61756897Y-49972414D01*
X61756897Y-50348276D01*
G37*
%TD.AperFunction*%
%TA.AperFunction,NonConductor*%
G36*
X64387931Y-49972414D02*
G01*
X64012069Y-49972414D01*
X64012069Y-49596552D01*
X64387931Y-49596552D01*
X64387931Y-49972414D01*
G37*
%TD.AperFunction*%
%TA.AperFunction,NonConductor*%
G36*
X63260345Y-49596552D02*
G01*
X62884483Y-49596552D01*
X62884483Y-49220690D01*
X63260345Y-49220690D01*
X63260345Y-49596552D01*
G37*
%TD.AperFunction*%
%TA.AperFunction,NonConductor*%
G36*
X59125862Y-49220690D02*
G01*
X58750000Y-49220690D01*
X58750000Y-48844828D01*
X59125862Y-48844828D01*
X59125862Y-49220690D01*
G37*
%TD.AperFunction*%
%TA.AperFunction,NonConductor*%
G36*
X63260345Y-48468966D02*
G01*
X63260345Y-48844828D01*
X62884483Y-48844828D01*
X62884483Y-49220690D01*
X62508621Y-49220690D01*
X62508621Y-48844828D01*
X62508621Y-48468966D01*
X62884483Y-48468966D01*
X62884483Y-48093103D01*
X63260345Y-48093103D01*
X63260345Y-48468966D01*
G37*
%TD.AperFunction*%
%TA.AperFunction,NonConductor*%
G36*
X63636207Y-49220690D02*
G01*
X63260345Y-49220690D01*
X63260345Y-48844828D01*
X63636207Y-48844828D01*
X63636207Y-49220690D01*
G37*
%TD.AperFunction*%
%TA.AperFunction,NonConductor*%
G36*
X59877586Y-48093103D02*
G01*
X59877586Y-48468966D01*
X59501724Y-48468966D01*
X59501724Y-48844828D01*
X59125862Y-48844828D01*
X59125862Y-48468966D01*
X58750000Y-48468966D01*
X58750000Y-48093103D01*
X59501724Y-48093103D01*
X59501724Y-47717241D01*
X59877586Y-47717241D01*
X59877586Y-48093103D01*
G37*
%TD.AperFunction*%
%TA.AperFunction,NonConductor*%
G36*
X66643103Y-48468966D02*
G01*
X66643103Y-48844828D01*
X66267241Y-48844828D01*
X66267241Y-48468966D01*
X65139655Y-48468966D01*
X65139655Y-48093103D01*
X66643103Y-48093103D01*
X66643103Y-48468966D01*
G37*
%TD.AperFunction*%
%TA.AperFunction,NonConductor*%
G36*
X68522414Y-48093103D02*
G01*
X66643103Y-48093103D01*
X66643103Y-47717241D01*
X68522414Y-47717241D01*
X68522414Y-48093103D01*
G37*
%TD.AperFunction*%
%TA.AperFunction,NonConductor*%
G36*
X69650000Y-48093103D02*
G01*
X69274138Y-48093103D01*
X69274138Y-47717241D01*
X69650000Y-47717241D01*
X69650000Y-48093103D01*
G37*
%TD.AperFunction*%
%TA.AperFunction,NonConductor*%
G36*
X59125862Y-46965517D02*
G01*
X59501724Y-46965517D01*
X59501724Y-47717241D01*
X58750000Y-47717241D01*
X58750000Y-46965517D01*
X58750000Y-46589655D01*
X59125862Y-46589655D01*
X59125862Y-46965517D01*
G37*
%TD.AperFunction*%
%TA.AperFunction,NonConductor*%
G36*
X62508621Y-47717241D02*
G01*
X62132759Y-47717241D01*
X62132759Y-47341379D01*
X62508621Y-47341379D01*
X62508621Y-47717241D01*
G37*
%TD.AperFunction*%
%TA.AperFunction,NonConductor*%
G36*
X63260345Y-47717241D02*
G01*
X62884483Y-47717241D01*
X62884483Y-47341379D01*
X63260345Y-47341379D01*
X63260345Y-47717241D01*
G37*
%TD.AperFunction*%
%TA.AperFunction,NonConductor*%
G36*
X64763793Y-46213793D02*
G01*
X65139655Y-46213793D01*
X65139655Y-46965517D01*
X65515517Y-46965517D01*
X65515517Y-46589655D01*
X65891379Y-46589655D01*
X65891379Y-46213793D01*
X66643103Y-46213793D01*
X66643103Y-46589655D01*
X66267241Y-46589655D01*
X66267241Y-46965517D01*
X67394828Y-46965517D01*
X67394828Y-47341379D01*
X66643103Y-47341379D01*
X66643103Y-47717241D01*
X65891379Y-47717241D01*
X65891379Y-47341379D01*
X65891379Y-46965517D01*
X65515517Y-46965517D01*
X65515517Y-47341379D01*
X65139655Y-47341379D01*
X65139655Y-47717241D01*
X64763793Y-47717241D01*
X64763793Y-47341379D01*
X64387931Y-47341379D01*
X64387931Y-46965517D01*
X64387931Y-46213793D01*
X64387931Y-45837931D01*
X64763793Y-45837931D01*
X64763793Y-46213793D01*
G37*
%TD.AperFunction*%
%TA.AperFunction,NonConductor*%
G36*
X69650000Y-43582759D02*
G01*
X69274138Y-43582759D01*
X69274138Y-43958621D01*
X69650000Y-43958621D01*
X69650000Y-45086207D01*
X69274138Y-45086207D01*
X69274138Y-45462069D01*
X69650000Y-45462069D01*
X69650000Y-45837931D01*
X69274138Y-45837931D01*
X69274138Y-46213793D01*
X69274138Y-46589655D01*
X69274138Y-46965517D01*
X68898276Y-46965517D01*
X68898276Y-47341379D01*
X68522414Y-47341379D01*
X68522414Y-46965517D01*
X68522414Y-46589655D01*
X67770690Y-46589655D01*
X67770690Y-46213793D01*
X67394828Y-46213793D01*
X67394828Y-45837931D01*
X67770690Y-45837931D01*
X67770690Y-45462069D01*
X67394828Y-45462069D01*
X67394828Y-45086207D01*
X67770690Y-45086207D01*
X67770690Y-44334483D01*
X67770690Y-43958621D01*
X67394828Y-43958621D01*
X67394828Y-43582759D01*
X68146552Y-43582759D01*
X68146552Y-43958621D01*
X68146552Y-44334483D01*
X68522414Y-44334483D01*
X68522414Y-45086207D01*
X68146552Y-45086207D01*
X68146552Y-45462069D01*
X68146552Y-45837931D01*
X68522414Y-45837931D01*
X68522414Y-45462069D01*
X68522414Y-45086207D01*
X68898276Y-45086207D01*
X68898276Y-43958621D01*
X68898276Y-43582759D01*
X68898276Y-43206897D01*
X69650000Y-43206897D01*
X69650000Y-43582759D01*
G37*
%TD.AperFunction*%
%TA.AperFunction,NonConductor*%
G36*
X69650000Y-47341379D02*
G01*
X69274138Y-47341379D01*
X69274138Y-46965517D01*
X69650000Y-46965517D01*
X69650000Y-47341379D01*
G37*
%TD.AperFunction*%
%TA.AperFunction,NonConductor*%
G36*
X60253448Y-46965517D02*
G01*
X59877586Y-46965517D01*
X59877586Y-46589655D01*
X60253448Y-46589655D01*
X60253448Y-46965517D01*
G37*
%TD.AperFunction*%
%TA.AperFunction,NonConductor*%
G36*
X62884483Y-46965517D02*
G01*
X62508621Y-46965517D01*
X62508621Y-46589655D01*
X62884483Y-46589655D01*
X62884483Y-46965517D01*
G37*
%TD.AperFunction*%
%TA.AperFunction,NonConductor*%
G36*
X64012069Y-46589655D02*
G01*
X64012069Y-46965517D01*
X63260345Y-46965517D01*
X63260345Y-46589655D01*
X63636207Y-46589655D01*
X63636207Y-46213793D01*
X64012069Y-46213793D01*
X64012069Y-46589655D01*
G37*
%TD.AperFunction*%
%TA.AperFunction,NonConductor*%
G36*
X60253448Y-45837931D02*
G01*
X60253448Y-46213793D01*
X59877586Y-46213793D01*
X59877586Y-45837931D01*
X59501724Y-45837931D01*
X59501724Y-46589655D01*
X59125862Y-46589655D01*
X59125862Y-45837931D01*
X58750000Y-45837931D01*
X58750000Y-45462069D01*
X60253448Y-45462069D01*
X60253448Y-45837931D01*
G37*
%TD.AperFunction*%
%TA.AperFunction,NonConductor*%
G36*
X62508621Y-45086207D02*
G01*
X62508621Y-45462069D01*
X62132759Y-45462069D01*
X62132759Y-45086207D01*
X61756897Y-45086207D01*
X61756897Y-45462069D01*
X62132759Y-45462069D01*
X62132759Y-45837931D01*
X62508621Y-45837931D01*
X62508621Y-45462069D01*
X62884483Y-45462069D01*
X62884483Y-45086207D01*
X62884483Y-44710345D01*
X64012069Y-44710345D01*
X64012069Y-45086207D01*
X64012069Y-45462069D01*
X63636207Y-45462069D01*
X63636207Y-45086207D01*
X63260345Y-45086207D01*
X63260345Y-45462069D01*
X63636207Y-45462069D01*
X63636207Y-45837931D01*
X63260345Y-45837931D01*
X63260345Y-46213793D01*
X63260345Y-46589655D01*
X62884483Y-46589655D01*
X62884483Y-46213793D01*
X62508621Y-46213793D01*
X62508621Y-46589655D01*
X61381034Y-46589655D01*
X61381034Y-46213793D01*
X61756897Y-46213793D01*
X61756897Y-45837931D01*
X61381034Y-45837931D01*
X61381034Y-45462069D01*
X61381034Y-45086207D01*
X61005172Y-45086207D01*
X61005172Y-44710345D01*
X62508621Y-44710345D01*
X62508621Y-45086207D01*
G37*
%TD.AperFunction*%
%TA.AperFunction,NonConductor*%
G36*
X67394828Y-46589655D02*
G01*
X67018966Y-46589655D01*
X67018966Y-46213793D01*
X67394828Y-46213793D01*
X67394828Y-46589655D01*
G37*
%TD.AperFunction*%
%TA.AperFunction,NonConductor*%
G36*
X61381034Y-46213793D02*
G01*
X61005172Y-46213793D01*
X61005172Y-45837931D01*
X61381034Y-45837931D01*
X61381034Y-46213793D01*
G37*
%TD.AperFunction*%
%TA.AperFunction,NonConductor*%
G36*
X63636207Y-42831034D02*
G01*
X64012069Y-42831034D01*
X64012069Y-42455172D01*
X64387931Y-42455172D01*
X64387931Y-42831034D01*
X64387931Y-43206897D01*
X64012069Y-43206897D01*
X64012069Y-43582759D01*
X64387931Y-43582759D01*
X64387931Y-43206897D01*
X65139655Y-43206897D01*
X65139655Y-42831034D01*
X65515517Y-42831034D01*
X65515517Y-42079310D01*
X65515517Y-41703448D01*
X65891379Y-41703448D01*
X65891379Y-41327586D01*
X66267241Y-41327586D01*
X66267241Y-41703448D01*
X66643103Y-41703448D01*
X66643103Y-42079310D01*
X66643103Y-43206897D01*
X66267241Y-43206897D01*
X66267241Y-42079310D01*
X65891379Y-42079310D01*
X65891379Y-42831034D01*
X65891379Y-43206897D01*
X65515517Y-43206897D01*
X65515517Y-43582759D01*
X65515517Y-43958621D01*
X65515517Y-44334483D01*
X66267241Y-44334483D01*
X66267241Y-43958621D01*
X67394828Y-43958621D01*
X67394828Y-44334483D01*
X67018966Y-44334483D01*
X67018966Y-44710345D01*
X67394828Y-44710345D01*
X67394828Y-45086207D01*
X66643103Y-45086207D01*
X66643103Y-44710345D01*
X65891379Y-44710345D01*
X65891379Y-45086207D01*
X65515517Y-45086207D01*
X65515517Y-45837931D01*
X65891379Y-45837931D01*
X65891379Y-46213793D01*
X65139655Y-46213793D01*
X65139655Y-45837931D01*
X65139655Y-45086207D01*
X65139655Y-44710345D01*
X64763793Y-44710345D01*
X64763793Y-45462069D01*
X64387931Y-45462069D01*
X64387931Y-44710345D01*
X64012069Y-44710345D01*
X64012069Y-44334483D01*
X64012069Y-43958621D01*
X64387931Y-43958621D01*
X64387931Y-44334483D01*
X64763793Y-44334483D01*
X64763793Y-43958621D01*
X64387931Y-43958621D01*
X64012069Y-43958621D01*
X63260345Y-43958621D01*
X63260345Y-44334483D01*
X62884483Y-44334483D01*
X62884483Y-43958621D01*
X62508621Y-43958621D01*
X62508621Y-44334483D01*
X61756897Y-44334483D01*
X61756897Y-43958621D01*
X61756897Y-43582759D01*
X62132759Y-43582759D01*
X62132759Y-43958621D01*
X62508621Y-43958621D01*
X62508621Y-43582759D01*
X63636207Y-43582759D01*
X63636207Y-43206897D01*
X62132759Y-43206897D01*
X62132759Y-42831034D01*
X62508621Y-42831034D01*
X62508621Y-42455172D01*
X62884483Y-42455172D01*
X62884483Y-42831034D01*
X63260345Y-42831034D01*
X63260345Y-42455172D01*
X62884483Y-42455172D01*
X62508621Y-42455172D01*
X62132759Y-42455172D01*
X62132759Y-42079310D01*
X62508621Y-42079310D01*
X62508621Y-41703448D01*
X63260345Y-41703448D01*
X63260345Y-42079310D01*
X63636207Y-42079310D01*
X63636207Y-41703448D01*
X64012069Y-41703448D01*
X64012069Y-42079310D01*
X64012069Y-42455172D01*
X63636207Y-42455172D01*
X63636207Y-42831034D01*
G37*
%TD.AperFunction*%
%TA.AperFunction,NonConductor*%
G36*
X67018966Y-46213793D02*
G01*
X66643103Y-46213793D01*
X66643103Y-45837931D01*
X67018966Y-45837931D01*
X67018966Y-46213793D01*
G37*
%TD.AperFunction*%
%TA.AperFunction,NonConductor*%
G36*
X66267241Y-45837931D02*
G01*
X65891379Y-45837931D01*
X65891379Y-45462069D01*
X66267241Y-45462069D01*
X66267241Y-45837931D01*
G37*
%TD.AperFunction*%
%TA.AperFunction,NonConductor*%
G36*
X67394828Y-45837931D02*
G01*
X67018966Y-45837931D01*
X67018966Y-45462069D01*
X67394828Y-45462069D01*
X67394828Y-45837931D01*
G37*
%TD.AperFunction*%
%TA.AperFunction,NonConductor*%
G36*
X61005172Y-45462069D02*
G01*
X60629310Y-45462069D01*
X60629310Y-45086207D01*
X61005172Y-45086207D01*
X61005172Y-45462069D01*
G37*
%TD.AperFunction*%
%TA.AperFunction,NonConductor*%
G36*
X66643103Y-45462069D02*
G01*
X66267241Y-45462069D01*
X66267241Y-45086207D01*
X66643103Y-45086207D01*
X66643103Y-45462069D01*
G37*
%TD.AperFunction*%
%TA.AperFunction,NonConductor*%
G36*
X60253448Y-43958621D02*
G01*
X60253448Y-44334483D01*
X59877586Y-44334483D01*
X59877586Y-44710345D01*
X59501724Y-44710345D01*
X59501724Y-45086207D01*
X58750000Y-45086207D01*
X58750000Y-44710345D01*
X59125862Y-44710345D01*
X59125862Y-44334483D01*
X59125862Y-43958621D01*
X59877586Y-43958621D01*
X59877586Y-43582759D01*
X60253448Y-43582759D01*
X60253448Y-43958621D01*
G37*
%TD.AperFunction*%
%TA.AperFunction,NonConductor*%
G36*
X60253448Y-45086207D02*
G01*
X59877586Y-45086207D01*
X59877586Y-44710345D01*
X60253448Y-44710345D01*
X60253448Y-45086207D01*
G37*
%TD.AperFunction*%
%TA.AperFunction,NonConductor*%
G36*
X61005172Y-44710345D02*
G01*
X60253448Y-44710345D01*
X60253448Y-44334483D01*
X61005172Y-44334483D01*
X61005172Y-44710345D01*
G37*
%TD.AperFunction*%
%TA.AperFunction,NonConductor*%
G36*
X62884483Y-44710345D02*
G01*
X62508621Y-44710345D01*
X62508621Y-44334483D01*
X62884483Y-44334483D01*
X62884483Y-44710345D01*
G37*
%TD.AperFunction*%
%TA.AperFunction,NonConductor*%
G36*
X61381034Y-43582759D02*
G01*
X61381034Y-44334483D01*
X61005172Y-44334483D01*
X61005172Y-43582759D01*
X60253448Y-43582759D01*
X60253448Y-43206897D01*
X61381034Y-43206897D01*
X61381034Y-43582759D01*
G37*
%TD.AperFunction*%
%TA.AperFunction,NonConductor*%
G36*
X59125862Y-43958621D02*
G01*
X58750000Y-43958621D01*
X58750000Y-43582759D01*
X59125862Y-43582759D01*
X59125862Y-43958621D01*
G37*
%TD.AperFunction*%
%TA.AperFunction,NonConductor*%
G36*
X66267241Y-43958621D02*
G01*
X65891379Y-43958621D01*
X65891379Y-43582759D01*
X66267241Y-43582759D01*
X66267241Y-43958621D01*
G37*
%TD.AperFunction*%
%TA.AperFunction,NonConductor*%
G36*
X59877586Y-43582759D02*
G01*
X59125862Y-43582759D01*
X59125862Y-43206897D01*
X59877586Y-43206897D01*
X59877586Y-43582759D01*
G37*
%TD.AperFunction*%
%TA.AperFunction,NonConductor*%
G36*
X67394828Y-43582759D02*
G01*
X66643103Y-43582759D01*
X66643103Y-43206897D01*
X67394828Y-43206897D01*
X67394828Y-43582759D01*
G37*
%TD.AperFunction*%
%TA.AperFunction,NonConductor*%
G36*
X68522414Y-43582759D02*
G01*
X68146552Y-43582759D01*
X68146552Y-43206897D01*
X68522414Y-43206897D01*
X68522414Y-43582759D01*
G37*
%TD.AperFunction*%
%TA.AperFunction,NonConductor*%
G36*
X60629310Y-42079310D02*
G01*
X59501724Y-42079310D01*
X59501724Y-40951724D01*
X60629310Y-40951724D01*
X60629310Y-42079310D01*
G37*
%TD.AperFunction*%
%TA.AperFunction,NonConductor*%
G36*
X61381034Y-42455172D02*
G01*
X61381034Y-42831034D01*
X58750000Y-42831034D01*
X58750000Y-42455172D01*
X58750000Y-40575862D01*
X59125862Y-40575862D01*
X59125862Y-42455172D01*
X61005172Y-42455172D01*
X61005172Y-40575862D01*
X59125862Y-40575862D01*
X58750000Y-40575862D01*
X58750000Y-40200000D01*
X61381034Y-40200000D01*
X61381034Y-40575862D01*
X61381034Y-42455172D01*
G37*
%TD.AperFunction*%
%TA.AperFunction,NonConductor*%
G36*
X62132759Y-42831034D02*
G01*
X61756897Y-42831034D01*
X61756897Y-42455172D01*
X62132759Y-42455172D01*
X62132759Y-42831034D01*
G37*
%TD.AperFunction*%
%TA.AperFunction,NonConductor*%
G36*
X65139655Y-41703448D02*
G01*
X65139655Y-42079310D01*
X65139655Y-42831034D01*
X64763793Y-42831034D01*
X64763793Y-42079310D01*
X64387931Y-42079310D01*
X64387931Y-41703448D01*
X64763793Y-41703448D01*
X64763793Y-41327586D01*
X65139655Y-41327586D01*
X65139655Y-41703448D01*
G37*
%TD.AperFunction*%
%TA.AperFunction,NonConductor*%
G36*
X68898276Y-42079310D02*
G01*
X67770690Y-42079310D01*
X67770690Y-40951724D01*
X68898276Y-40951724D01*
X68898276Y-42079310D01*
G37*
%TD.AperFunction*%
%TA.AperFunction,NonConductor*%
G36*
X69650000Y-42455172D02*
G01*
X69650000Y-42831034D01*
X67018966Y-42831034D01*
X67018966Y-42455172D01*
X67018966Y-40575862D01*
X67394828Y-40575862D01*
X67394828Y-42455172D01*
X69274138Y-42455172D01*
X69274138Y-40575862D01*
X67394828Y-40575862D01*
X67018966Y-40575862D01*
X67018966Y-40200000D01*
X69650000Y-40200000D01*
X69650000Y-40575862D01*
X69650000Y-42455172D01*
G37*
%TD.AperFunction*%
%TA.AperFunction,NonConductor*%
G36*
X63260345Y-40575862D02*
G01*
X63636207Y-40575862D01*
X63636207Y-40200000D01*
X64763793Y-40200000D01*
X64763793Y-40575862D01*
X64763793Y-40951724D01*
X64387931Y-40951724D01*
X64387931Y-40575862D01*
X64012069Y-40575862D01*
X64012069Y-40951724D01*
X63636207Y-40951724D01*
X63636207Y-41327586D01*
X63636207Y-41703448D01*
X63260345Y-41703448D01*
X63260345Y-41327586D01*
X62884483Y-41327586D01*
X62884483Y-40951724D01*
X62508621Y-40951724D01*
X62508621Y-41327586D01*
X61756897Y-41327586D01*
X61756897Y-40951724D01*
X61756897Y-40575862D01*
X62132759Y-40575862D01*
X62132759Y-40951724D01*
X62508621Y-40951724D01*
X62508621Y-40575862D01*
X62132759Y-40575862D01*
X62132759Y-40200000D01*
X63260345Y-40200000D01*
X63260345Y-40575862D01*
G37*
%TD.AperFunction*%
%TA.AperFunction,NonConductor*%
G36*
X64387931Y-41703448D02*
G01*
X64012069Y-41703448D01*
X64012069Y-41327586D01*
X64387931Y-41327586D01*
X64387931Y-41703448D01*
G37*
%TD.AperFunction*%
%TA.AperFunction,NonConductor*%
G36*
X65891379Y-40575862D02*
G01*
X66643103Y-40575862D01*
X66643103Y-40951724D01*
X66643103Y-41327586D01*
X66267241Y-41327586D01*
X66267241Y-40951724D01*
X65515517Y-40951724D01*
X65515517Y-40575862D01*
X65515517Y-40200000D01*
X65891379Y-40200000D01*
X65891379Y-40575862D01*
G37*
%TD.AperFunction*%
D11*
%TO.P,R1,2*%
%TO.N,GND*%
X64650000Y-58987500D03*
%TO.P,R1,1*%
%TO.N,/c0*%
X64650000Y-60812500D03*
%TD*%
%TO.P,R2,2*%
%TO.N,GND*%
X83175000Y-67887500D03*
%TO.P,R2,1*%
%TO.N,/c1*%
X83175000Y-69712500D03*
%TD*%
D12*
%TO.P,R3,2*%
%TO.N,GND*%
X110987500Y-66325000D03*
%TO.P,R3,1*%
%TO.N,/c2*%
X109162500Y-66325000D03*
%TD*%
D11*
%TO.P,R4,2*%
%TO.N,GND*%
X90050000Y-49337500D03*
%TO.P,R4,1*%
%TO.N,/c3*%
X90050000Y-51162500D03*
%TD*%
D12*
%TO.P,R5,2*%
%TO.N,GND*%
X93237500Y-53000000D03*
%TO.P,R5,1*%
%TO.N,/c4*%
X91412500Y-53000000D03*
%TD*%
%TO.P,R6,2*%
%TO.N,GND*%
X121887500Y-60675000D03*
%TO.P,R6,1*%
%TO.N,/c5*%
X120062500Y-60675000D03*
%TD*%
D13*
%TO.P,J2,1,Pin_1_1*%
%TO.N,GND*%
X81620001Y-40550000D03*
D14*
%TO.P,J2,2,Pin_2_2*%
%TO.N,/RESET*%
X84160001Y-40550000D03*
%TO.P,J2,3,Pin_3_3*%
%TO.N,/SWCLK*%
X86700000Y-40550000D03*
%TO.P,J2,4,Pin_4_4*%
%TO.N,/SWDIO*%
X89240001Y-40550000D03*
%TO.P,J2,5,Pin_5_5*%
%TO.N,+3V3*%
X91780001Y-40550000D03*
%TD*%
D13*
%TO.P,J1,1,Pin_1_1*%
%TO.N,GND*%
X116260000Y-40550000D03*
D14*
%TO.P,J1,2,Pin_2_2*%
%TO.N,/SCLK*%
X118800000Y-40550000D03*
%TO.P,J1,3,Pin_3_3*%
%TO.N,/CS*%
X121339999Y-40550000D03*
%TO.P,J1,4,Pin_4_4*%
%TO.N,/MISO*%
X123880000Y-40550000D03*
%TO.P,J1,5,Pin_5_5*%
%TO.N,+3V3*%
X126420000Y-40550000D03*
%TD*%
D15*
%TO.P,C2,1*%
%TO.N,+3V3*%
X104550000Y-61212501D03*
%TO.P,C2,2*%
%TO.N,GND*%
X104550000Y-59487499D03*
%TD*%
D16*
%TO.P,R7,1*%
%TO.N,/SWCLK*%
X85312500Y-51150000D03*
%TO.P,R7,2*%
%TO.N,GND*%
X83487500Y-51150000D03*
%TD*%
D17*
%TO.P,U1,1,PB9_1*%
%TO.N,/c3*%
X101525000Y-59050000D03*
%TO.P,U1,2,PC14_2*%
%TO.N,unconnected-(U1-PC14-Pad2)*%
X101525000Y-59850000D03*
%TO.P,U1,3,PC15_3*%
%TO.N,unconnected-(U1-PC15-Pad3)*%
X101525000Y-60650000D03*
%TO.P,U1,4,VDD_4*%
%TO.N,+3V3*%
X101525000Y-61450000D03*
%TO.P,U1,5,VSS_5*%
%TO.N,GND*%
X101525000Y-62250000D03*
%TO.P,U1,6,NRST_6*%
%TO.N,/RESET*%
X101525000Y-63050000D03*
%TO.P,U1,7,PA0_7*%
%TO.N,/c5*%
X101525000Y-63850000D03*
%TO.P,U1,8,PA1_8*%
%TO.N,/c2*%
X101525000Y-64650000D03*
D18*
%TO.P,U1,9,PA2_9*%
%TO.N,Net-(D37-A)*%
X100150000Y-66025000D03*
%TO.P,U1,10,PA3_10*%
%TO.N,unconnected-(U1-PA3-Pad10)*%
X99350000Y-66025000D03*
%TO.P,U1,11,PA4_11*%
%TO.N,/CS*%
X98550000Y-66025000D03*
%TO.P,U1,12,PA5_12*%
%TO.N,/SCLK*%
X97750000Y-66025000D03*
%TO.P,U1,13,PA6_13*%
%TO.N,/MISO*%
X96950000Y-66025000D03*
%TO.P,U1,14,PA7_14*%
%TO.N,unconnected-(U1-PA7-Pad14)*%
X96150000Y-66025000D03*
%TO.P,U1,15,PB0_15*%
%TO.N,/r0*%
X95350000Y-66025000D03*
%TO.P,U1,16,PB1_16*%
%TO.N,/r1*%
X94550000Y-66025000D03*
D17*
%TO.P,U1,17,PB2_17*%
%TO.N,/r2*%
X93175000Y-64650000D03*
%TO.P,U1,18,PA8_18*%
%TO.N,unconnected-(U1-PA8-Pad18)*%
X93175000Y-63850000D03*
%TO.P,U1,19,NC/PA9_19*%
%TO.N,unconnected-(U1-NC{slash}PA9-Pad19)*%
X93175000Y-63050000D03*
%TO.P,U1,20,PC6_20*%
%TO.N,unconnected-(U1-PC6-Pad20)*%
X93175000Y-62250000D03*
%TO.P,U1,21,NC/PA10_21*%
%TO.N,unconnected-(U1-NC{slash}PA10-Pad21)*%
X93175000Y-61450000D03*
%TO.P,U1,22,PA9/PA11_22*%
%TO.N,unconnected-(U1-PA9{slash}PA11-Pad22)*%
X93175000Y-60650000D03*
%TO.P,U1,23,PA10/PA12_23*%
%TO.N,unconnected-(U1-PA10{slash}PA12-Pad23)*%
X93175000Y-59850000D03*
%TO.P,U1,24,PA13_24*%
%TO.N,/SWDIO*%
X93175000Y-59050000D03*
D18*
%TO.P,U1,25,PA14_25*%
%TO.N,/SWCLK*%
X94550000Y-57675000D03*
%TO.P,U1,26,PA15_26*%
%TO.N,unconnected-(U1-PA15-Pad26)*%
X95350000Y-57675000D03*
%TO.P,U1,27,PB3_27*%
%TO.N,/r3*%
X96150000Y-57675000D03*
%TO.P,U1,28,PB4_28*%
%TO.N,/r4*%
X96950000Y-57675000D03*
%TO.P,U1,29,PB5_29*%
%TO.N,/r5*%
X97750000Y-57675000D03*
%TO.P,U1,30,PB6_30*%
%TO.N,/c0*%
X98550000Y-57675000D03*
%TO.P,U1,31,PB7_31*%
%TO.N,/c1*%
X99350000Y-57675000D03*
%TO.P,U1,32,PB8_32*%
%TO.N,/c4*%
X100150000Y-57675000D03*
%TD*%
D19*
%TO.P,D37,1,K_1*%
%TO.N,Net-(D37-K)*%
X105225000Y-40440000D03*
%TO.P,D37,2,A_2*%
%TO.N,Net-(D37-A)*%
X106975000Y-40440000D03*
%TD*%
D15*
%TO.P,C1,1*%
%TO.N,+3V3*%
X106250000Y-61200000D03*
%TO.P,C1,2*%
%TO.N,GND*%
X106250000Y-59474998D03*
%TD*%
D12*
%TO.P,R8,1*%
%TO.N,GND*%
X101300000Y-40400000D03*
%TO.P,R8,2*%
%TO.N,Net-(D37-K)*%
X103125000Y-40400000D03*
%TD*%
D20*
%TO.N,GND*%
X94650000Y-52950000D03*
X82125000Y-67725000D03*
X111775000Y-65300000D03*
X122875000Y-60000000D03*
X91150000Y-49300000D03*
X64725000Y-57800000D03*
%TO.N,/c5*%
X119625000Y-62050000D03*
%TO.N,/c2*%
X124600000Y-53150000D03*
X124550000Y-68900000D03*
X74250000Y-53150000D03*
X114000000Y-60850000D03*
X76050000Y-60600000D03*
X109150000Y-68900000D03*
%TO.N,/c1*%
X68100000Y-54050000D03*
X72400736Y-61699264D03*
X81050000Y-69900000D03*
%TO.N,/c0*%
X62521863Y-60850000D03*
X62950000Y-69750000D03*
%TO.N,/c4*%
X88050000Y-53800000D03*
X88250000Y-68200000D03*
X102625000Y-53525000D03*
X87650000Y-71450000D03*
X99400000Y-70600000D03*
X108350000Y-59950000D03*
%TO.N,/c3*%
X61050000Y-77850000D03*
X89250000Y-60800000D03*
X73950000Y-69650000D03*
X88650000Y-53150000D03*
X124450000Y-76950000D03*
%TO.N,/r4*%
X112100000Y-47800000D03*
X75000000Y-63450000D03*
X115550000Y-55500000D03*
X87000000Y-55500000D03*
X83500000Y-47800000D03*
%TO.N,/r3*%
X104750000Y-63450000D03*
X96750000Y-63450000D03*
X126300000Y-63450000D03*
%TO.N,/r2*%
X90900000Y-64900000D03*
%TO.N,/r0*%
X122350000Y-49200000D03*
%TO.N,/r1*%
X61250000Y-56900000D03*
%TO.N,/r5*%
X126700000Y-71600000D03*
X126750000Y-47800000D03*
X97750000Y-48950000D03*
X101450000Y-55500000D03*
X97900000Y-56450000D03*
%TO.N,GND*%
X82550000Y-50000000D03*
X99550000Y-40450000D03*
X100100000Y-61800000D03*
X105350000Y-60300000D03*
%TO.N,/c0*%
X90650000Y-60100000D03*
X97750000Y-60350000D03*
%TD*%
%TO.N,/SWDIO*%
D21*
X93175000Y-59050000D02*
X92000000Y-59050000D01*
X92000000Y-59050000D02*
X91050000Y-58100000D01*
X91050000Y-58100000D02*
X88185786Y-58100000D01*
X88185786Y-58100000D02*
X84325000Y-54239214D01*
X84325000Y-54239214D02*
X84325000Y-42225000D01*
X84325000Y-42225000D02*
X85550000Y-41000000D01*
X85550000Y-41000000D02*
X85550000Y-40073654D01*
X85550000Y-40073654D02*
X86223654Y-39400000D01*
X86223654Y-39400000D02*
X88090001Y-39400000D01*
X88090001Y-39400000D02*
X89240001Y-40550000D01*
%TO.N,GND*%
X93237500Y-53000000D02*
X94600000Y-53000000D01*
X94600000Y-53000000D02*
X94650000Y-52950000D01*
%TO.N,/c4*%
X100150000Y-57675000D02*
X100150000Y-53115686D01*
X100150000Y-53115686D02*
X98734314Y-51700000D01*
X98734314Y-51700000D02*
X92712500Y-51700000D01*
X92712500Y-51700000D02*
X91412500Y-53000000D01*
X88050000Y-53800000D02*
X89687500Y-53800000D01*
X89687500Y-53800000D02*
X90487500Y-53000000D01*
X90487500Y-53000000D02*
X91412500Y-53000000D01*
%TO.N,GND*%
X83175000Y-67887500D02*
X82287500Y-67887500D01*
X82287500Y-67887500D02*
X82125000Y-67725000D01*
%TO.N,/c1*%
X99350000Y-63750000D02*
X98650000Y-64450000D01*
X98650000Y-64450000D02*
X94729506Y-64450000D01*
X99350000Y-57675000D02*
X99350000Y-63750000D01*
X89429506Y-69750000D02*
X81200000Y-69750000D01*
X94729506Y-64450000D02*
X89429506Y-69750000D01*
X81200000Y-69750000D02*
X81050000Y-69900000D01*
%TO.N,GND*%
X110987500Y-66325000D02*
X110987500Y-66087500D01*
X110987500Y-66087500D02*
X111775000Y-65300000D01*
%TO.N,/c2*%
X101525000Y-64650000D02*
X102312500Y-65437500D01*
X102312500Y-65437500D02*
X108837500Y-65437500D01*
X108837500Y-65437500D02*
X109150000Y-65750000D01*
X109150000Y-65750000D02*
X109150000Y-68900000D01*
%TO.N,GND*%
X121887500Y-60675000D02*
X122200000Y-60675000D01*
X122200000Y-60675000D02*
X122875000Y-60000000D01*
%TO.N,/c5*%
X119625000Y-62050000D02*
X120012500Y-61662500D01*
X120012500Y-61662500D02*
X120012500Y-60950000D01*
X120062500Y-60675000D02*
X118462500Y-60675000D01*
X118462500Y-60675000D02*
X115087500Y-64050000D01*
X115087500Y-64050000D02*
X103050000Y-64050000D01*
X103050000Y-64050000D02*
X102850000Y-63850000D01*
X102850000Y-63850000D02*
X101525000Y-63850000D01*
%TO.N,GND*%
X90050000Y-49337500D02*
X91112500Y-49337500D01*
X91112500Y-49337500D02*
X91150000Y-49300000D01*
%TO.N,/c3*%
X88650000Y-53150000D02*
X89137500Y-52662500D01*
X89500000Y-51300000D02*
X98900000Y-51300000D01*
X102450000Y-54850000D02*
X102450000Y-56100000D01*
X89137500Y-52662500D02*
X89137500Y-51662500D01*
X89137500Y-51662500D02*
X89500000Y-51300000D01*
X98900000Y-51300000D02*
X102450000Y-54850000D01*
X102450000Y-56100000D02*
X101525000Y-57025000D01*
X101525000Y-57025000D02*
X101525000Y-59050000D01*
%TO.N,GND*%
X64650000Y-58987500D02*
X64650000Y-57875000D01*
X64650000Y-57875000D02*
X64725000Y-57800000D01*
%TO.N,/c0*%
X66225000Y-60800000D02*
X66200000Y-60800000D01*
X66187500Y-60812500D02*
X64650000Y-60812500D01*
X66200000Y-60800000D02*
X66187500Y-60812500D01*
%TO.N,/r4*%
X96950000Y-55300000D02*
X95950000Y-54300000D01*
X95950000Y-54300000D02*
X88600000Y-54300000D01*
X88600000Y-54300000D02*
X87400000Y-55500000D01*
X87400000Y-55500000D02*
X87000000Y-55500000D01*
X96950000Y-57675000D02*
X96950000Y-55300000D01*
%TO.N,/r3*%
X96750000Y-63450000D02*
X96750000Y-61900000D01*
X96150000Y-57675000D02*
X96150000Y-61300000D01*
X96750000Y-61900000D02*
X96150000Y-61300000D01*
%TO.N,/r2*%
X93175000Y-64650000D02*
X91150000Y-64650000D01*
X91150000Y-64650000D02*
X90900000Y-64900000D01*
%TO.N,/r0*%
X98000000Y-79400000D02*
X98000000Y-79550000D01*
X128850000Y-79550000D02*
X128850000Y-55700000D01*
X98000000Y-79550000D02*
X128850000Y-79550000D01*
X128850000Y-55700000D02*
X122350000Y-49200000D01*
X95350000Y-76750000D02*
X98000000Y-79400000D01*
X95350000Y-66025000D02*
X95350000Y-76750000D01*
%TO.N,/c0*%
X64400000Y-60800000D02*
X62571863Y-60800000D01*
X62571863Y-60800000D02*
X62521863Y-60850000D01*
%TO.N,/r1*%
X87475000Y-73100000D02*
X64300000Y-73100000D01*
X94550000Y-66025000D02*
X87475000Y-73100000D01*
X61250000Y-56900000D02*
X61250000Y-56800000D01*
X64300000Y-73100000D02*
X61250000Y-70050000D01*
X61250000Y-70050000D02*
X61250000Y-56900000D01*
%TO.N,/r5*%
X97900000Y-56450000D02*
X97750000Y-56600000D01*
X97750000Y-56600000D02*
X97750000Y-57675000D01*
%TO.N,GND*%
X107025000Y-60249998D02*
X106250000Y-59474998D01*
X83487500Y-50937500D02*
X82550000Y-50000000D01*
X104550000Y-59487499D02*
X106237499Y-59487499D01*
X105350000Y-60287499D02*
X104550000Y-59487499D01*
X101525000Y-62250000D02*
X106504222Y-62250000D01*
X106504222Y-62250000D02*
X107025000Y-61729222D01*
X83487500Y-51150000D02*
X83487500Y-50937500D01*
X101525000Y-62250000D02*
X100550000Y-62250000D01*
X99550000Y-40450000D02*
X101250000Y-40450000D01*
X100550000Y-62250000D02*
X100100000Y-61800000D01*
X106237499Y-59487499D02*
X106250000Y-59474998D01*
X105350000Y-60300000D02*
X105350000Y-60287499D01*
X107025000Y-61729222D02*
X107025000Y-60249998D01*
X101250000Y-40450000D02*
X101300000Y-40400000D01*
%TO.N,/RESET*%
X101525000Y-63050000D02*
X103600000Y-63050000D01*
X114600000Y-62800000D02*
X117900000Y-59500000D01*
X106050000Y-40806722D02*
X106050000Y-39973278D01*
X85810001Y-38900000D02*
X84160001Y-40550000D01*
X103850000Y-62800000D02*
X114600000Y-62800000D01*
X106050000Y-39973278D02*
X104976722Y-38900000D01*
X117900000Y-52656722D02*
X106050000Y-40806722D01*
X104976722Y-38900000D02*
X85810001Y-38900000D01*
X103600000Y-63050000D02*
X103850000Y-62800000D01*
X117900000Y-59500000D02*
X117900000Y-52656722D01*
%TO.N,/SWCLK*%
X85312500Y-54661029D02*
X85312500Y-51150000D01*
X94550000Y-57675000D02*
X88326471Y-57675000D01*
X85312500Y-41937500D02*
X86700000Y-40550000D01*
X88326471Y-57675000D02*
X85312500Y-54661029D01*
X85312500Y-51150000D02*
X85312500Y-41937500D01*
%TO.N,+3V3*%
D22*
X92750000Y-40550000D02*
X91780001Y-40550000D01*
D21*
X106250000Y-61200000D02*
X104562501Y-61200000D01*
D22*
X103600000Y-60262501D02*
X103600000Y-51400000D01*
D21*
X104562501Y-61200000D02*
X104550000Y-61212501D01*
D22*
X103600000Y-51400000D02*
X92750000Y-40550000D01*
D21*
X101525000Y-61450000D02*
X104312501Y-61450000D01*
D22*
X104550000Y-61212501D02*
X103600000Y-60262501D01*
D21*
X104312501Y-61450000D02*
X104550000Y-61212501D01*
%TO.N,/SCLK*%
X124600000Y-54150000D02*
X120950000Y-50500000D01*
X128050000Y-78600000D02*
X128050000Y-56031372D01*
X127900000Y-78750000D02*
X128050000Y-78600000D01*
X97750000Y-66025000D02*
X97750000Y-77700000D01*
X128050000Y-56031372D02*
X126168628Y-54150000D01*
X126168628Y-54150000D02*
X124600000Y-54150000D01*
X97750000Y-77700000D02*
X98800000Y-78750000D01*
X98800000Y-78750000D02*
X127900000Y-78750000D01*
X120950000Y-50500000D02*
X120950000Y-42700000D01*
X120950000Y-42700000D02*
X118800000Y-40550000D01*
%TO.N,/CS*%
X120189999Y-39400000D02*
X121339999Y-40550000D01*
X117650000Y-47765686D02*
X117650000Y-40073654D01*
X98550000Y-77934314D02*
X98965686Y-78350000D01*
X98550000Y-66025000D02*
X98550000Y-77934314D01*
X127650000Y-78350000D02*
X127650000Y-57765686D01*
X127650000Y-57765686D02*
X117650000Y-47765686D01*
X118323654Y-39400000D02*
X120189999Y-39400000D01*
X98965686Y-78350000D02*
X127650000Y-78350000D01*
X117650000Y-40073654D02*
X118323654Y-39400000D01*
%TO.N,/MISO*%
X128450000Y-55865686D02*
X122934314Y-50350000D01*
X96950000Y-66025000D02*
X96950000Y-77784314D01*
X122650000Y-50350000D02*
X121350000Y-49050000D01*
X122934314Y-50350000D02*
X122650000Y-50350000D01*
X98315685Y-79150000D02*
X128150000Y-79150000D01*
X96950000Y-77784314D02*
X98315685Y-79150000D01*
X121350000Y-49050000D02*
X121350000Y-43080000D01*
X121350000Y-43080000D02*
X123880000Y-40550000D01*
X128150000Y-79150000D02*
X128450000Y-78850000D01*
X128450000Y-78850000D02*
X128450000Y-55865686D01*
%TO.N,/c0*%
X98550000Y-57675000D02*
X98550000Y-59550000D01*
X90650000Y-60100000D02*
X89950000Y-59400000D01*
X67625000Y-59400000D02*
X66225000Y-60800000D01*
X98550000Y-59550000D02*
X97750000Y-60350000D01*
X89950000Y-59400000D02*
X67625000Y-59400000D01*
%TO.N,Net-(D37-A)*%
X109758628Y-40440000D02*
X125650000Y-56331372D01*
X124850000Y-77950000D02*
X100350000Y-77950000D01*
X100350000Y-77950000D02*
X100150000Y-77750000D01*
X100150000Y-77750000D02*
X100150000Y-66025000D01*
X106975000Y-40440000D02*
X109758628Y-40440000D01*
X125650000Y-56331372D02*
X125650000Y-77150000D01*
X125650000Y-77150000D02*
X124850000Y-77950000D01*
%TO.N,Net-(D37-K)*%
X103125000Y-40400000D02*
X105185000Y-40400000D01*
X105185000Y-40400000D02*
X105225000Y-40440000D01*
%TD*%
M02*
