%TF.GenerationSoftware,KiCad,Pcbnew,10.0.3*%
%TF.CreationDate,2026-06-20T21:24:58-04:00*%
%TF.ProjectId,SpyderDumbKeyboard,53707964-6572-4447-956d-624b6579626f,rev?*%
%TF.SameCoordinates,Original*%
%TF.FileFunction,Copper,L3,Inr*%
%TF.FilePolarity,Positive*%
%FSLAX46Y46*%
G04 Gerber Fmt 4.6, Leading zero omitted, Abs format (unit mm)*
G04 Created by KiCad (PCBNEW 10.0.3) date 2026-06-20 21:24:58*
%MOMM*%
%LPD*%
G01*
G04 APERTURE LIST*
%TA.AperFunction,ComponentPad*%
%ADD10R,1.700000X1.700000*%
%TD*%
%TA.AperFunction,ComponentPad*%
%ADD11C,1.700000*%
%TD*%
%TA.AperFunction,ViaPad*%
%ADD12C,0.600000*%
%TD*%
G04 APERTURE END LIST*
D10*
%TO.N,GND*%
%TO.C,J2*%
X81620001Y-40550000D03*
D11*
%TO.N,/RESET*%
X84160001Y-40550000D03*
%TO.N,/SWCLK*%
X86700000Y-40550000D03*
%TO.N,/SWDIO*%
X89240001Y-40550000D03*
%TO.N,+3V3*%
X91780001Y-40550000D03*
%TD*%
D10*
%TO.N,GND*%
%TO.C,J1*%
X116260000Y-40550000D03*
D11*
%TO.N,/SCLK*%
X118800000Y-40550000D03*
%TO.N,/CS*%
X121339999Y-40550000D03*
%TO.N,/MISO*%
X123880000Y-40550000D03*
%TO.N,+3V3*%
X126420000Y-40550000D03*
%TD*%
D12*
%TO.N,GND*%
X94650000Y-52950000D03*
X82125000Y-67725000D03*
X111775000Y-65300000D03*
X122875000Y-60000000D03*
X91150000Y-49300000D03*
X64725000Y-57800000D03*
%TO.N,/c5*%
X119625000Y-62050000D03*
%TO.N,/c2*%
X124600000Y-53150000D03*
X124550000Y-68900000D03*
X74250000Y-53150000D03*
X114000000Y-60850000D03*
X76050000Y-60600000D03*
X109150000Y-68900000D03*
%TO.N,/c1*%
X68100000Y-54050000D03*
X72400736Y-61699264D03*
X81050000Y-69900000D03*
%TO.N,/c0*%
X62521863Y-60850000D03*
X62950000Y-69750000D03*
%TO.N,/c4*%
X88050000Y-53800000D03*
X88250000Y-68200000D03*
X102625000Y-53525000D03*
X87650000Y-71450000D03*
X99400000Y-70600000D03*
X108350000Y-59950000D03*
%TO.N,/c3*%
X61050000Y-77850000D03*
X89250000Y-60800000D03*
X73950000Y-69650000D03*
X88650000Y-53150000D03*
X124450000Y-76950000D03*
%TO.N,/r4*%
X112100000Y-47800000D03*
X75000000Y-63450000D03*
X115550000Y-55500000D03*
X87000000Y-55500000D03*
X83500000Y-47800000D03*
%TO.N,/r3*%
X104750000Y-63450000D03*
X96750000Y-63450000D03*
X126300000Y-63450000D03*
%TO.N,/r2*%
X90900000Y-64900000D03*
%TO.N,/r0*%
X122350000Y-49200000D03*
%TO.N,/r1*%
X61250000Y-56900000D03*
%TO.N,/r5*%
X126700000Y-71600000D03*
X126750000Y-47800000D03*
X97750000Y-48950000D03*
X101450000Y-55500000D03*
X97900000Y-56450000D03*
%TO.N,GND*%
X82550000Y-50000000D03*
X99550000Y-40450000D03*
X100100000Y-61800000D03*
X105350000Y-60300000D03*
%TO.N,/c0*%
X90650000Y-60100000D03*
X97750000Y-60350000D03*
%TD*%
%TA.AperFunction,Conductor*%
%TO.N,GND*%
G36*
X138292539Y-38620185D02*
G01*
X138338294Y-38672989D01*
X138349500Y-38724500D01*
X138349500Y-79525500D01*
X138329815Y-79592539D01*
X138277011Y-79638294D01*
X138225500Y-79649500D01*
X57124500Y-79649500D01*
X57057461Y-79629815D01*
X57011706Y-79577011D01*
X57000500Y-79525500D01*
X57000500Y-77771153D01*
X60249500Y-77771153D01*
X60249500Y-77928846D01*
X60280261Y-78083489D01*
X60280264Y-78083501D01*
X60340602Y-78229172D01*
X60340609Y-78229185D01*
X60428210Y-78360288D01*
X60428213Y-78360292D01*
X60539707Y-78471786D01*
X60539711Y-78471789D01*
X60670814Y-78559390D01*
X60670827Y-78559397D01*
X60816498Y-78619735D01*
X60816503Y-78619737D01*
X60971153Y-78650499D01*
X60971156Y-78650500D01*
X60971158Y-78650500D01*
X61128844Y-78650500D01*
X61128845Y-78650499D01*
X61283497Y-78619737D01*
X61429179Y-78559394D01*
X61560289Y-78471789D01*
X61671789Y-78360289D01*
X61759394Y-78229179D01*
X61819737Y-78083497D01*
X61850500Y-77928842D01*
X61850500Y-77771158D01*
X61850500Y-77771155D01*
X61850499Y-77771153D01*
X61828269Y-77659397D01*
X61819737Y-77616503D01*
X61801215Y-77571786D01*
X61759397Y-77470827D01*
X61759390Y-77470814D01*
X61671789Y-77339711D01*
X61671786Y-77339707D01*
X61560292Y-77228213D01*
X61560288Y-77228210D01*
X61429185Y-77140609D01*
X61429172Y-77140602D01*
X61283501Y-77080264D01*
X61283489Y-77080261D01*
X61128845Y-77049500D01*
X61128842Y-77049500D01*
X60971158Y-77049500D01*
X60971155Y-77049500D01*
X60816510Y-77080261D01*
X60816498Y-77080264D01*
X60670827Y-77140602D01*
X60670814Y-77140609D01*
X60539711Y-77228210D01*
X60539707Y-77228213D01*
X60428213Y-77339707D01*
X60428210Y-77339711D01*
X60340609Y-77470814D01*
X60340602Y-77470827D01*
X60280264Y-77616498D01*
X60280261Y-77616510D01*
X60249500Y-77771153D01*
X57000500Y-77771153D01*
X57000500Y-76871153D01*
X123649500Y-76871153D01*
X123649500Y-77028846D01*
X123680261Y-77183489D01*
X123680264Y-77183501D01*
X123740602Y-77329172D01*
X123740609Y-77329185D01*
X123828210Y-77460288D01*
X123828213Y-77460292D01*
X123939707Y-77571786D01*
X123939711Y-77571789D01*
X124070814Y-77659390D01*
X124070827Y-77659397D01*
X124216498Y-77719735D01*
X124216503Y-77719737D01*
X124371153Y-77750499D01*
X124371156Y-77750500D01*
X124371158Y-77750500D01*
X124528844Y-77750500D01*
X124528845Y-77750499D01*
X124683497Y-77719737D01*
X124829179Y-77659394D01*
X124960289Y-77571789D01*
X125071789Y-77460289D01*
X125159394Y-77329179D01*
X125219737Y-77183497D01*
X125250500Y-77028842D01*
X125250500Y-76871158D01*
X125250500Y-76871155D01*
X125250499Y-76871153D01*
X125219738Y-76716510D01*
X125219737Y-76716503D01*
X125219735Y-76716498D01*
X125159397Y-76570827D01*
X125159390Y-76570814D01*
X125071789Y-76439711D01*
X125071786Y-76439707D01*
X124960292Y-76328213D01*
X124960288Y-76328210D01*
X124829185Y-76240609D01*
X124829172Y-76240602D01*
X124683501Y-76180264D01*
X124683489Y-76180261D01*
X124528845Y-76149500D01*
X124528842Y-76149500D01*
X124371158Y-76149500D01*
X124371155Y-76149500D01*
X124216510Y-76180261D01*
X124216498Y-76180264D01*
X124070827Y-76240602D01*
X124070814Y-76240609D01*
X123939711Y-76328210D01*
X123939707Y-76328213D01*
X123828213Y-76439707D01*
X123828210Y-76439711D01*
X123740609Y-76570814D01*
X123740602Y-76570827D01*
X123680264Y-76716498D01*
X123680261Y-76716510D01*
X123649500Y-76871153D01*
X57000500Y-76871153D01*
X57000500Y-71371153D01*
X86849500Y-71371153D01*
X86849500Y-71528846D01*
X86880261Y-71683489D01*
X86880264Y-71683501D01*
X86940602Y-71829172D01*
X86940609Y-71829185D01*
X87028210Y-71960288D01*
X87028213Y-71960292D01*
X87139707Y-72071786D01*
X87139711Y-72071789D01*
X87270814Y-72159390D01*
X87270827Y-72159397D01*
X87416498Y-72219735D01*
X87416503Y-72219737D01*
X87571153Y-72250499D01*
X87571156Y-72250500D01*
X87571158Y-72250500D01*
X87728844Y-72250500D01*
X87728845Y-72250499D01*
X87883497Y-72219737D01*
X88029179Y-72159394D01*
X88160289Y-72071789D01*
X88271789Y-71960289D01*
X88359394Y-71829179D01*
X88419737Y-71683497D01*
X88450500Y-71528842D01*
X88450500Y-71521153D01*
X125899500Y-71521153D01*
X125899500Y-71678846D01*
X125930261Y-71833489D01*
X125930264Y-71833501D01*
X125990602Y-71979172D01*
X125990609Y-71979185D01*
X126078210Y-72110288D01*
X126078213Y-72110292D01*
X126189707Y-72221786D01*
X126189711Y-72221789D01*
X126320814Y-72309390D01*
X126320827Y-72309397D01*
X126466498Y-72369735D01*
X126466503Y-72369737D01*
X126621153Y-72400499D01*
X126621156Y-72400500D01*
X126621158Y-72400500D01*
X126778844Y-72400500D01*
X126778845Y-72400499D01*
X126933497Y-72369737D01*
X127079179Y-72309394D01*
X127210289Y-72221789D01*
X127321789Y-72110289D01*
X127409394Y-71979179D01*
X127469737Y-71833497D01*
X127500500Y-71678842D01*
X127500500Y-71521158D01*
X127500500Y-71521155D01*
X127500499Y-71521153D01*
X127469738Y-71366510D01*
X127469737Y-71366503D01*
X127409794Y-71221786D01*
X127409397Y-71220827D01*
X127409390Y-71220814D01*
X127321789Y-71089711D01*
X127321786Y-71089707D01*
X127210292Y-70978213D01*
X127210288Y-70978210D01*
X127079185Y-70890609D01*
X127079172Y-70890602D01*
X126933501Y-70830264D01*
X126933489Y-70830261D01*
X126778845Y-70799500D01*
X126778842Y-70799500D01*
X126621158Y-70799500D01*
X126621155Y-70799500D01*
X126466510Y-70830261D01*
X126466498Y-70830264D01*
X126320827Y-70890602D01*
X126320814Y-70890609D01*
X126189711Y-70978210D01*
X126189707Y-70978213D01*
X126078213Y-71089707D01*
X126078210Y-71089711D01*
X125990609Y-71220814D01*
X125990602Y-71220827D01*
X125930264Y-71366498D01*
X125930261Y-71366510D01*
X125899500Y-71521153D01*
X88450500Y-71521153D01*
X88450500Y-71371158D01*
X88450500Y-71371155D01*
X88450499Y-71371153D01*
X88420788Y-71221789D01*
X88419737Y-71216503D01*
X88419735Y-71216498D01*
X88359397Y-71070827D01*
X88359390Y-71070814D01*
X88271789Y-70939711D01*
X88271786Y-70939707D01*
X88160292Y-70828213D01*
X88160288Y-70828210D01*
X88029185Y-70740609D01*
X88029172Y-70740602D01*
X87883501Y-70680264D01*
X87883489Y-70680261D01*
X87728845Y-70649500D01*
X87728842Y-70649500D01*
X87571158Y-70649500D01*
X87571155Y-70649500D01*
X87416510Y-70680261D01*
X87416498Y-70680264D01*
X87270827Y-70740602D01*
X87270814Y-70740609D01*
X87139711Y-70828210D01*
X87139707Y-70828213D01*
X87028213Y-70939707D01*
X87028210Y-70939711D01*
X86940609Y-71070814D01*
X86940602Y-71070827D01*
X86880264Y-71216498D01*
X86880261Y-71216510D01*
X86849500Y-71371153D01*
X57000500Y-71371153D01*
X57000500Y-69671153D01*
X62149500Y-69671153D01*
X62149500Y-69828846D01*
X62180261Y-69983489D01*
X62180264Y-69983501D01*
X62240602Y-70129172D01*
X62240609Y-70129185D01*
X62328210Y-70260288D01*
X62328213Y-70260292D01*
X62439707Y-70371786D01*
X62439711Y-70371789D01*
X62570814Y-70459390D01*
X62570827Y-70459397D01*
X62716498Y-70519735D01*
X62716503Y-70519737D01*
X62871153Y-70550499D01*
X62871156Y-70550500D01*
X62871158Y-70550500D01*
X63028844Y-70550500D01*
X63028845Y-70550499D01*
X63183497Y-70519737D01*
X63329179Y-70459394D01*
X63460289Y-70371789D01*
X63571789Y-70260289D01*
X63659394Y-70129179D01*
X63719737Y-69983497D01*
X63750500Y-69828842D01*
X63750500Y-69671158D01*
X63750500Y-69671155D01*
X63734209Y-69589258D01*
X63734209Y-69589257D01*
X63730608Y-69571153D01*
X73149500Y-69571153D01*
X73149500Y-69728846D01*
X73180261Y-69883489D01*
X73180264Y-69883501D01*
X73240602Y-70029172D01*
X73240609Y-70029185D01*
X73328210Y-70160288D01*
X73328213Y-70160292D01*
X73439707Y-70271786D01*
X73439711Y-70271789D01*
X73570814Y-70359390D01*
X73570827Y-70359397D01*
X73716498Y-70419735D01*
X73716503Y-70419737D01*
X73871153Y-70450499D01*
X73871156Y-70450500D01*
X73871158Y-70450500D01*
X74028844Y-70450500D01*
X74028845Y-70450499D01*
X74183497Y-70419737D01*
X74329179Y-70359394D01*
X74460289Y-70271789D01*
X74571789Y-70160289D01*
X74659394Y-70029179D01*
X74719737Y-69883497D01*
X74732138Y-69821153D01*
X80249500Y-69821153D01*
X80249500Y-69978846D01*
X80280261Y-70133489D01*
X80280264Y-70133501D01*
X80340602Y-70279172D01*
X80340609Y-70279185D01*
X80428210Y-70410288D01*
X80428213Y-70410292D01*
X80539707Y-70521786D01*
X80539711Y-70521789D01*
X80670814Y-70609390D01*
X80670827Y-70609397D01*
X80767646Y-70649500D01*
X80816503Y-70669737D01*
X80971153Y-70700499D01*
X80971156Y-70700500D01*
X80971158Y-70700500D01*
X81128844Y-70700500D01*
X81128845Y-70700499D01*
X81283497Y-70669737D01*
X81429179Y-70609394D01*
X81560289Y-70521789D01*
X81560925Y-70521153D01*
X98599500Y-70521153D01*
X98599500Y-70678846D01*
X98630261Y-70833489D01*
X98630264Y-70833501D01*
X98690602Y-70979172D01*
X98690609Y-70979185D01*
X98778210Y-71110288D01*
X98778213Y-71110292D01*
X98889707Y-71221786D01*
X98889711Y-71221789D01*
X99020814Y-71309390D01*
X99020827Y-71309397D01*
X99158683Y-71366498D01*
X99166503Y-71369737D01*
X99321153Y-71400499D01*
X99321156Y-71400500D01*
X99321158Y-71400500D01*
X99478844Y-71400500D01*
X99478845Y-71400499D01*
X99489179Y-71398443D01*
X99514287Y-71393450D01*
X99514292Y-71393449D01*
X99599800Y-71376439D01*
X99633497Y-71369737D01*
X99779179Y-71309394D01*
X99910289Y-71221789D01*
X100021789Y-71110289D01*
X100109394Y-70979179D01*
X100169737Y-70833497D01*
X100200500Y-70678842D01*
X100200500Y-70521158D01*
X100200500Y-70521155D01*
X100200499Y-70521153D01*
X100180326Y-70419737D01*
X100169737Y-70366503D01*
X100133569Y-70279185D01*
X100109397Y-70220827D01*
X100109390Y-70220814D01*
X100021789Y-70089711D01*
X100021786Y-70089707D01*
X99910292Y-69978213D01*
X99910288Y-69978210D01*
X99779185Y-69890609D01*
X99779172Y-69890602D01*
X99633501Y-69830264D01*
X99633489Y-69830261D01*
X99478845Y-69799500D01*
X99478842Y-69799500D01*
X99321158Y-69799500D01*
X99321155Y-69799500D01*
X99166510Y-69830261D01*
X99166498Y-69830264D01*
X99020827Y-69890602D01*
X99020814Y-69890609D01*
X98889711Y-69978210D01*
X98889707Y-69978213D01*
X98778213Y-70089707D01*
X98778210Y-70089711D01*
X98690609Y-70220814D01*
X98690602Y-70220827D01*
X98630264Y-70366498D01*
X98630261Y-70366510D01*
X98599500Y-70521153D01*
X81560925Y-70521153D01*
X81562343Y-70519735D01*
X81654694Y-70427385D01*
X81671786Y-70410292D01*
X81671789Y-70410289D01*
X81759394Y-70279179D01*
X81819737Y-70133497D01*
X81850500Y-69978842D01*
X81850500Y-69821158D01*
X81850500Y-69821155D01*
X81850499Y-69821153D01*
X81819738Y-69666510D01*
X81819737Y-69666503D01*
X81796080Y-69609390D01*
X81759397Y-69520827D01*
X81759390Y-69520814D01*
X81671789Y-69389711D01*
X81671786Y-69389707D01*
X81560292Y-69278213D01*
X81560288Y-69278210D01*
X81429185Y-69190609D01*
X81429172Y-69190602D01*
X81283501Y-69130264D01*
X81283489Y-69130261D01*
X81128845Y-69099500D01*
X81128842Y-69099500D01*
X80971158Y-69099500D01*
X80971155Y-69099500D01*
X80816510Y-69130261D01*
X80816498Y-69130264D01*
X80670827Y-69190602D01*
X80670814Y-69190609D01*
X80539711Y-69278210D01*
X80539707Y-69278213D01*
X80428213Y-69389707D01*
X80428210Y-69389711D01*
X80340609Y-69520814D01*
X80340602Y-69520827D01*
X80280264Y-69666498D01*
X80280261Y-69666510D01*
X80249500Y-69821153D01*
X74732138Y-69821153D01*
X74738161Y-69790874D01*
X74750500Y-69728844D01*
X74750500Y-69571155D01*
X74750499Y-69571153D01*
X74719738Y-69416510D01*
X74719737Y-69416503D01*
X74717163Y-69410288D01*
X74659397Y-69270827D01*
X74659390Y-69270814D01*
X74571789Y-69139711D01*
X74571786Y-69139707D01*
X74460292Y-69028213D01*
X74460288Y-69028210D01*
X74329185Y-68940609D01*
X74329172Y-68940602D01*
X74183501Y-68880264D01*
X74183489Y-68880261D01*
X74028845Y-68849500D01*
X74028842Y-68849500D01*
X73871158Y-68849500D01*
X73871155Y-68849500D01*
X73716510Y-68880261D01*
X73716498Y-68880264D01*
X73570827Y-68940602D01*
X73570814Y-68940609D01*
X73439711Y-69028210D01*
X73439707Y-69028213D01*
X73328213Y-69139707D01*
X73328210Y-69139711D01*
X73240609Y-69270814D01*
X73240602Y-69270827D01*
X73180264Y-69416498D01*
X73180261Y-69416510D01*
X73149500Y-69571153D01*
X63730608Y-69571153D01*
X63720596Y-69520821D01*
X63719737Y-69516503D01*
X63678314Y-69416498D01*
X63659397Y-69370827D01*
X63659390Y-69370814D01*
X63571789Y-69239711D01*
X63571786Y-69239707D01*
X63460292Y-69128213D01*
X63460288Y-69128210D01*
X63329185Y-69040609D01*
X63329172Y-69040602D01*
X63183501Y-68980264D01*
X63183489Y-68980261D01*
X63028845Y-68949500D01*
X63028842Y-68949500D01*
X62871158Y-68949500D01*
X62871155Y-68949500D01*
X62716510Y-68980261D01*
X62716498Y-68980264D01*
X62570827Y-69040602D01*
X62570814Y-69040609D01*
X62439711Y-69128210D01*
X62439707Y-69128213D01*
X62328213Y-69239707D01*
X62328210Y-69239711D01*
X62240609Y-69370814D01*
X62240602Y-69370827D01*
X62180264Y-69516498D01*
X62180261Y-69516510D01*
X62149500Y-69671153D01*
X57000500Y-69671153D01*
X57000500Y-68121153D01*
X87449500Y-68121153D01*
X87449500Y-68278846D01*
X87480261Y-68433489D01*
X87480264Y-68433501D01*
X87540602Y-68579172D01*
X87540609Y-68579185D01*
X87628210Y-68710288D01*
X87628213Y-68710292D01*
X87739707Y-68821786D01*
X87739711Y-68821789D01*
X87870814Y-68909390D01*
X87870827Y-68909397D01*
X87946181Y-68940609D01*
X88016503Y-68969737D01*
X88171153Y-69000499D01*
X88171156Y-69000500D01*
X88171158Y-69000500D01*
X88328844Y-69000500D01*
X88328845Y-69000499D01*
X88483497Y-68969737D01*
X88629179Y-68909394D01*
X88760289Y-68821789D01*
X88760925Y-68821153D01*
X108349500Y-68821153D01*
X108349500Y-68978846D01*
X108380261Y-69133489D01*
X108380264Y-69133501D01*
X108440602Y-69279172D01*
X108440609Y-69279185D01*
X108528210Y-69410288D01*
X108528213Y-69410292D01*
X108639707Y-69521786D01*
X108639711Y-69521789D01*
X108770814Y-69609390D01*
X108770827Y-69609397D01*
X108908683Y-69666498D01*
X108916503Y-69669737D01*
X109071153Y-69700499D01*
X109071156Y-69700500D01*
X109071158Y-69700500D01*
X109228844Y-69700500D01*
X109228845Y-69700499D01*
X109383497Y-69669737D01*
X109529179Y-69609394D01*
X109660289Y-69521789D01*
X109771789Y-69410289D01*
X109859394Y-69279179D01*
X109862854Y-69270827D01*
X109875744Y-69239707D01*
X109919737Y-69133497D01*
X109950500Y-68978842D01*
X109950500Y-68821158D01*
X109950500Y-68821155D01*
X109950499Y-68821153D01*
X123749500Y-68821153D01*
X123749500Y-68978846D01*
X123780261Y-69133489D01*
X123780264Y-69133501D01*
X123840602Y-69279172D01*
X123840609Y-69279185D01*
X123928210Y-69410288D01*
X123928213Y-69410292D01*
X124039707Y-69521786D01*
X124039711Y-69521789D01*
X124170814Y-69609390D01*
X124170827Y-69609397D01*
X124308683Y-69666498D01*
X124316503Y-69669737D01*
X124471153Y-69700499D01*
X124471156Y-69700500D01*
X124471158Y-69700500D01*
X124628844Y-69700500D01*
X124628845Y-69700499D01*
X124783497Y-69669737D01*
X124929179Y-69609394D01*
X125060289Y-69521789D01*
X125171789Y-69410289D01*
X125259394Y-69279179D01*
X125262854Y-69270827D01*
X125275744Y-69239707D01*
X125319737Y-69133497D01*
X125350500Y-68978842D01*
X125350500Y-68821158D01*
X125350500Y-68821155D01*
X125350499Y-68821153D01*
X125328447Y-68710292D01*
X125319737Y-68666503D01*
X125283569Y-68579185D01*
X125259397Y-68520827D01*
X125259390Y-68520814D01*
X125171789Y-68389711D01*
X125171786Y-68389707D01*
X125060292Y-68278213D01*
X125060288Y-68278210D01*
X124929185Y-68190609D01*
X124929172Y-68190602D01*
X124783501Y-68130264D01*
X124783489Y-68130261D01*
X124628845Y-68099500D01*
X124628842Y-68099500D01*
X124471158Y-68099500D01*
X124471155Y-68099500D01*
X124316510Y-68130261D01*
X124316498Y-68130264D01*
X124170827Y-68190602D01*
X124170814Y-68190609D01*
X124039711Y-68278210D01*
X124039707Y-68278213D01*
X123928213Y-68389707D01*
X123928210Y-68389711D01*
X123840609Y-68520814D01*
X123840602Y-68520827D01*
X123780264Y-68666498D01*
X123780261Y-68666510D01*
X123749500Y-68821153D01*
X109950499Y-68821153D01*
X109928447Y-68710292D01*
X109919737Y-68666503D01*
X109883569Y-68579185D01*
X109859397Y-68520827D01*
X109859390Y-68520814D01*
X109771789Y-68389711D01*
X109771786Y-68389707D01*
X109660292Y-68278213D01*
X109660288Y-68278210D01*
X109529185Y-68190609D01*
X109529172Y-68190602D01*
X109383501Y-68130264D01*
X109383489Y-68130261D01*
X109228845Y-68099500D01*
X109228842Y-68099500D01*
X109071158Y-68099500D01*
X109071155Y-68099500D01*
X108916510Y-68130261D01*
X108916498Y-68130264D01*
X108770827Y-68190602D01*
X108770814Y-68190609D01*
X108639711Y-68278210D01*
X108639707Y-68278213D01*
X108528213Y-68389707D01*
X108528210Y-68389711D01*
X108440609Y-68520814D01*
X108440602Y-68520827D01*
X108380264Y-68666498D01*
X108380261Y-68666510D01*
X108349500Y-68821153D01*
X88760925Y-68821153D01*
X88854694Y-68727385D01*
X88871786Y-68710292D01*
X88871789Y-68710289D01*
X88959394Y-68579179D01*
X89019737Y-68433497D01*
X89050500Y-68278842D01*
X89050500Y-68121158D01*
X89050500Y-68121155D01*
X89050499Y-68121153D01*
X89019738Y-67966510D01*
X89019737Y-67966503D01*
X89019735Y-67966498D01*
X88959397Y-67820827D01*
X88959390Y-67820814D01*
X88871789Y-67689711D01*
X88871786Y-67689707D01*
X88760292Y-67578213D01*
X88760288Y-67578210D01*
X88629185Y-67490609D01*
X88629172Y-67490602D01*
X88483501Y-67430264D01*
X88483489Y-67430261D01*
X88328845Y-67399500D01*
X88328842Y-67399500D01*
X88171158Y-67399500D01*
X88171155Y-67399500D01*
X88016510Y-67430261D01*
X88016498Y-67430264D01*
X87870827Y-67490602D01*
X87870814Y-67490609D01*
X87739711Y-67578210D01*
X87739707Y-67578213D01*
X87628213Y-67689707D01*
X87628210Y-67689711D01*
X87540609Y-67820814D01*
X87540602Y-67820827D01*
X87480264Y-67966498D01*
X87480261Y-67966510D01*
X87449500Y-68121153D01*
X57000500Y-68121153D01*
X57000500Y-64821153D01*
X90099500Y-64821153D01*
X90099500Y-64978846D01*
X90130261Y-65133489D01*
X90130264Y-65133501D01*
X90190602Y-65279172D01*
X90190609Y-65279185D01*
X90278210Y-65410288D01*
X90278213Y-65410292D01*
X90389707Y-65521786D01*
X90389711Y-65521789D01*
X90520814Y-65609390D01*
X90520827Y-65609397D01*
X90666498Y-65669735D01*
X90666503Y-65669737D01*
X90821153Y-65700499D01*
X90821156Y-65700500D01*
X90821158Y-65700500D01*
X90978844Y-65700500D01*
X90978845Y-65700499D01*
X91133497Y-65669737D01*
X91279179Y-65609394D01*
X91410289Y-65521789D01*
X91521789Y-65410289D01*
X91609394Y-65279179D01*
X91669737Y-65133497D01*
X91700500Y-64978842D01*
X91700500Y-64821158D01*
X91700500Y-64821155D01*
X91700499Y-64821153D01*
X91669738Y-64666510D01*
X91669737Y-64666503D01*
X91669735Y-64666498D01*
X91609397Y-64520827D01*
X91609390Y-64520814D01*
X91521789Y-64389711D01*
X91521786Y-64389707D01*
X91410292Y-64278213D01*
X91410288Y-64278210D01*
X91279185Y-64190609D01*
X91279172Y-64190602D01*
X91133501Y-64130264D01*
X91133489Y-64130261D01*
X90978845Y-64099500D01*
X90978842Y-64099500D01*
X90821158Y-64099500D01*
X90821155Y-64099500D01*
X90666510Y-64130261D01*
X90666498Y-64130264D01*
X90520827Y-64190602D01*
X90520814Y-64190609D01*
X90389711Y-64278210D01*
X90389707Y-64278213D01*
X90278213Y-64389707D01*
X90278210Y-64389711D01*
X90190609Y-64520814D01*
X90190602Y-64520827D01*
X90130264Y-64666498D01*
X90130261Y-64666510D01*
X90099500Y-64821153D01*
X57000500Y-64821153D01*
X57000500Y-63371153D01*
X74199500Y-63371153D01*
X74199500Y-63528846D01*
X74230261Y-63683489D01*
X74230264Y-63683501D01*
X74290602Y-63829172D01*
X74290609Y-63829185D01*
X74378210Y-63960288D01*
X74378213Y-63960292D01*
X74489707Y-64071786D01*
X74489711Y-64071789D01*
X74620814Y-64159390D01*
X74620827Y-64159397D01*
X74696181Y-64190609D01*
X74766503Y-64219737D01*
X74921153Y-64250499D01*
X74921156Y-64250500D01*
X74921158Y-64250500D01*
X75078844Y-64250500D01*
X75078845Y-64250499D01*
X75233497Y-64219737D01*
X75379179Y-64159394D01*
X75510289Y-64071789D01*
X75621789Y-63960289D01*
X75709394Y-63829179D01*
X75769737Y-63683497D01*
X75800500Y-63528842D01*
X75800500Y-63371158D01*
X75800500Y-63371155D01*
X75800499Y-63371153D01*
X95949500Y-63371153D01*
X95949500Y-63528846D01*
X95980261Y-63683489D01*
X95980264Y-63683501D01*
X96040602Y-63829172D01*
X96040609Y-63829185D01*
X96128210Y-63960288D01*
X96128213Y-63960292D01*
X96239707Y-64071786D01*
X96239711Y-64071789D01*
X96370814Y-64159390D01*
X96370827Y-64159397D01*
X96446181Y-64190609D01*
X96516503Y-64219737D01*
X96671153Y-64250499D01*
X96671156Y-64250500D01*
X96671158Y-64250500D01*
X96828844Y-64250500D01*
X96828845Y-64250499D01*
X96983497Y-64219737D01*
X97129179Y-64159394D01*
X97260289Y-64071789D01*
X97371789Y-63960289D01*
X97459394Y-63829179D01*
X97519737Y-63683497D01*
X97550500Y-63528842D01*
X97550500Y-63371158D01*
X97550500Y-63371155D01*
X97550499Y-63371153D01*
X103949500Y-63371153D01*
X103949500Y-63528846D01*
X103980261Y-63683489D01*
X103980264Y-63683501D01*
X104040602Y-63829172D01*
X104040609Y-63829185D01*
X104128210Y-63960288D01*
X104128213Y-63960292D01*
X104239707Y-64071786D01*
X104239711Y-64071789D01*
X104370814Y-64159390D01*
X104370827Y-64159397D01*
X104446181Y-64190609D01*
X104516503Y-64219737D01*
X104671153Y-64250499D01*
X104671156Y-64250500D01*
X104671158Y-64250500D01*
X104828844Y-64250500D01*
X104828845Y-64250499D01*
X104983497Y-64219737D01*
X105129179Y-64159394D01*
X105260289Y-64071789D01*
X105371789Y-63960289D01*
X105459394Y-63829179D01*
X105519737Y-63683497D01*
X105550500Y-63528842D01*
X105550500Y-63371158D01*
X105550500Y-63371155D01*
X105550499Y-63371153D01*
X125499500Y-63371153D01*
X125499500Y-63528846D01*
X125530261Y-63683489D01*
X125530264Y-63683501D01*
X125590602Y-63829172D01*
X125590609Y-63829185D01*
X125678210Y-63960288D01*
X125678213Y-63960292D01*
X125789707Y-64071786D01*
X125789711Y-64071789D01*
X125920814Y-64159390D01*
X125920827Y-64159397D01*
X125996181Y-64190609D01*
X126066503Y-64219737D01*
X126221153Y-64250499D01*
X126221156Y-64250500D01*
X126221158Y-64250500D01*
X126378844Y-64250500D01*
X126378845Y-64250499D01*
X126533497Y-64219737D01*
X126679179Y-64159394D01*
X126810289Y-64071789D01*
X126921789Y-63960289D01*
X127009394Y-63829179D01*
X127069737Y-63683497D01*
X127100500Y-63528842D01*
X127100500Y-63371158D01*
X127100500Y-63371155D01*
X127100499Y-63371153D01*
X127069738Y-63216510D01*
X127069737Y-63216503D01*
X127069735Y-63216498D01*
X127009397Y-63070827D01*
X127009390Y-63070814D01*
X126921789Y-62939711D01*
X126921786Y-62939707D01*
X126810292Y-62828213D01*
X126810288Y-62828210D01*
X126679185Y-62740609D01*
X126679172Y-62740602D01*
X126533501Y-62680264D01*
X126533489Y-62680261D01*
X126378845Y-62649500D01*
X126378842Y-62649500D01*
X126221158Y-62649500D01*
X126221155Y-62649500D01*
X126066510Y-62680261D01*
X126066498Y-62680264D01*
X125920827Y-62740602D01*
X125920814Y-62740609D01*
X125789711Y-62828210D01*
X125789707Y-62828213D01*
X125678213Y-62939707D01*
X125678210Y-62939711D01*
X125590609Y-63070814D01*
X125590602Y-63070827D01*
X125530264Y-63216498D01*
X125530261Y-63216510D01*
X125499500Y-63371153D01*
X105550499Y-63371153D01*
X105519738Y-63216510D01*
X105519737Y-63216503D01*
X105519735Y-63216498D01*
X105459397Y-63070827D01*
X105459390Y-63070814D01*
X105371789Y-62939711D01*
X105371786Y-62939707D01*
X105260292Y-62828213D01*
X105260288Y-62828210D01*
X105129185Y-62740609D01*
X105129172Y-62740602D01*
X104983501Y-62680264D01*
X104983489Y-62680261D01*
X104828845Y-62649500D01*
X104828842Y-62649500D01*
X104671158Y-62649500D01*
X104671155Y-62649500D01*
X104516510Y-62680261D01*
X104516498Y-62680264D01*
X104370827Y-62740602D01*
X104370814Y-62740609D01*
X104239711Y-62828210D01*
X104239707Y-62828213D01*
X104128213Y-62939707D01*
X104128210Y-62939711D01*
X104040609Y-63070814D01*
X104040602Y-63070827D01*
X103980264Y-63216498D01*
X103980261Y-63216510D01*
X103949500Y-63371153D01*
X97550499Y-63371153D01*
X97519738Y-63216510D01*
X97519737Y-63216503D01*
X97519735Y-63216498D01*
X97459397Y-63070827D01*
X97459390Y-63070814D01*
X97371789Y-62939711D01*
X97371786Y-62939707D01*
X97260292Y-62828213D01*
X97260288Y-62828210D01*
X97129185Y-62740609D01*
X97129172Y-62740602D01*
X96983501Y-62680264D01*
X96983489Y-62680261D01*
X96828845Y-62649500D01*
X96828842Y-62649500D01*
X96671158Y-62649500D01*
X96671155Y-62649500D01*
X96516510Y-62680261D01*
X96516498Y-62680264D01*
X96370827Y-62740602D01*
X96370814Y-62740609D01*
X96239711Y-62828210D01*
X96239707Y-62828213D01*
X96128213Y-62939707D01*
X96128210Y-62939711D01*
X96040609Y-63070814D01*
X96040602Y-63070827D01*
X95980264Y-63216498D01*
X95980261Y-63216510D01*
X95949500Y-63371153D01*
X75800499Y-63371153D01*
X75769738Y-63216510D01*
X75769737Y-63216503D01*
X75769735Y-63216498D01*
X75709397Y-63070827D01*
X75709390Y-63070814D01*
X75621789Y-62939711D01*
X75621786Y-62939707D01*
X75510292Y-62828213D01*
X75510288Y-62828210D01*
X75379185Y-62740609D01*
X75379172Y-62740602D01*
X75233501Y-62680264D01*
X75233489Y-62680261D01*
X75078845Y-62649500D01*
X75078842Y-62649500D01*
X74921158Y-62649500D01*
X74921155Y-62649500D01*
X74766510Y-62680261D01*
X74766498Y-62680264D01*
X74620827Y-62740602D01*
X74620814Y-62740609D01*
X74489711Y-62828210D01*
X74489707Y-62828213D01*
X74378213Y-62939707D01*
X74378210Y-62939711D01*
X74290609Y-63070814D01*
X74290602Y-63070827D01*
X74230264Y-63216498D01*
X74230261Y-63216510D01*
X74199500Y-63371153D01*
X57000500Y-63371153D01*
X57000500Y-60771153D01*
X61721363Y-60771153D01*
X61721363Y-60928846D01*
X61752124Y-61083489D01*
X61752127Y-61083501D01*
X61812465Y-61229172D01*
X61812472Y-61229185D01*
X61900073Y-61360288D01*
X61900076Y-61360292D01*
X62011570Y-61471786D01*
X62011574Y-61471789D01*
X62142677Y-61559390D01*
X62142690Y-61559397D01*
X62241923Y-61600500D01*
X62288366Y-61619737D01*
X62443016Y-61650499D01*
X62443019Y-61650500D01*
X62443021Y-61650500D01*
X62600707Y-61650500D01*
X62600708Y-61650499D01*
X62751941Y-61620417D01*
X71600236Y-61620417D01*
X71600236Y-61778110D01*
X71630997Y-61932753D01*
X71631000Y-61932765D01*
X71691338Y-62078436D01*
X71691345Y-62078449D01*
X71778946Y-62209552D01*
X71778949Y-62209556D01*
X71890443Y-62321050D01*
X71890447Y-62321053D01*
X72021550Y-62408654D01*
X72021563Y-62408661D01*
X72167234Y-62468999D01*
X72167239Y-62469001D01*
X72321889Y-62499763D01*
X72321892Y-62499764D01*
X72321894Y-62499764D01*
X72479580Y-62499764D01*
X72479581Y-62499763D01*
X72634233Y-62469001D01*
X72779915Y-62408658D01*
X72911025Y-62321053D01*
X73022525Y-62209553D01*
X73110130Y-62078443D01*
X73154571Y-61971153D01*
X118824500Y-61971153D01*
X118824500Y-62128846D01*
X118855261Y-62283489D01*
X118855264Y-62283501D01*
X118915602Y-62429172D01*
X118915609Y-62429185D01*
X119003210Y-62560288D01*
X119003213Y-62560292D01*
X119114707Y-62671786D01*
X119114711Y-62671789D01*
X119245814Y-62759390D01*
X119245827Y-62759397D01*
X119391498Y-62819735D01*
X119391503Y-62819737D01*
X119546153Y-62850499D01*
X119546156Y-62850500D01*
X119546158Y-62850500D01*
X119703844Y-62850500D01*
X119703845Y-62850499D01*
X119858497Y-62819737D01*
X120004179Y-62759394D01*
X120135289Y-62671789D01*
X120246789Y-62560289D01*
X120334394Y-62429179D01*
X120394737Y-62283497D01*
X120425500Y-62128842D01*
X120425500Y-61971158D01*
X120425500Y-61971155D01*
X120425499Y-61971153D01*
X120394738Y-61816510D01*
X120394737Y-61816503D01*
X120378834Y-61778110D01*
X120334397Y-61670827D01*
X120334390Y-61670814D01*
X120246789Y-61539711D01*
X120246786Y-61539707D01*
X120135292Y-61428213D01*
X120135288Y-61428210D01*
X120004185Y-61340609D01*
X120004172Y-61340602D01*
X119858501Y-61280264D01*
X119858489Y-61280261D01*
X119703845Y-61249500D01*
X119703842Y-61249500D01*
X119546158Y-61249500D01*
X119546155Y-61249500D01*
X119391510Y-61280261D01*
X119391498Y-61280264D01*
X119245827Y-61340602D01*
X119245814Y-61340609D01*
X119114711Y-61428210D01*
X119114707Y-61428213D01*
X119003213Y-61539707D01*
X119003210Y-61539711D01*
X118915609Y-61670814D01*
X118915602Y-61670827D01*
X118855264Y-61816498D01*
X118855261Y-61816510D01*
X118824500Y-61971153D01*
X73154571Y-61971153D01*
X73170473Y-61932761D01*
X73201236Y-61778106D01*
X73201236Y-61620422D01*
X73201236Y-61620419D01*
X73201235Y-61620417D01*
X73185181Y-61539711D01*
X73170473Y-61465767D01*
X73154917Y-61428211D01*
X73110133Y-61320091D01*
X73110126Y-61320078D01*
X73022525Y-61188975D01*
X73022522Y-61188971D01*
X72911028Y-61077477D01*
X72911024Y-61077474D01*
X72779921Y-60989873D01*
X72779908Y-60989866D01*
X72634237Y-60929528D01*
X72634225Y-60929525D01*
X72479581Y-60898764D01*
X72479578Y-60898764D01*
X72321894Y-60898764D01*
X72321891Y-60898764D01*
X72167246Y-60929525D01*
X72167234Y-60929528D01*
X72021563Y-60989866D01*
X72021550Y-60989873D01*
X71890447Y-61077474D01*
X71890443Y-61077477D01*
X71778949Y-61188971D01*
X71778946Y-61188975D01*
X71691345Y-61320078D01*
X71691338Y-61320091D01*
X71631000Y-61465762D01*
X71630997Y-61465774D01*
X71600236Y-61620417D01*
X62751941Y-61620417D01*
X62755360Y-61619737D01*
X62901042Y-61559394D01*
X62930506Y-61539707D01*
X62973128Y-61511228D01*
X62994511Y-61496939D01*
X63032152Y-61471789D01*
X63143652Y-61360289D01*
X63231257Y-61229179D01*
X63291600Y-61083497D01*
X63322363Y-60928842D01*
X63322363Y-60771158D01*
X63322363Y-60771155D01*
X63322362Y-60771153D01*
X63312134Y-60719735D01*
X63291600Y-60616503D01*
X63252105Y-60521153D01*
X75249500Y-60521153D01*
X75249500Y-60678846D01*
X75280261Y-60833489D01*
X75280264Y-60833501D01*
X75340602Y-60979172D01*
X75340609Y-60979185D01*
X75428210Y-61110288D01*
X75428213Y-61110292D01*
X75539707Y-61221786D01*
X75539711Y-61221789D01*
X75670814Y-61309390D01*
X75670827Y-61309397D01*
X75816498Y-61369735D01*
X75816503Y-61369737D01*
X75971153Y-61400499D01*
X75971156Y-61400500D01*
X75971158Y-61400500D01*
X76128844Y-61400500D01*
X76128845Y-61400499D01*
X76283497Y-61369737D01*
X76429179Y-61309394D01*
X76560289Y-61221789D01*
X76671789Y-61110289D01*
X76759394Y-60979179D01*
X76819737Y-60833497D01*
X76836246Y-60750500D01*
X76842084Y-60721153D01*
X88449500Y-60721153D01*
X88449500Y-60878846D01*
X88480261Y-61033489D01*
X88480264Y-61033501D01*
X88540602Y-61179172D01*
X88540609Y-61179185D01*
X88628210Y-61310288D01*
X88628213Y-61310292D01*
X88739707Y-61421786D01*
X88739711Y-61421789D01*
X88870814Y-61509390D01*
X88870827Y-61509397D01*
X89016498Y-61569735D01*
X89016503Y-61569737D01*
X89171153Y-61600499D01*
X89171156Y-61600500D01*
X89171158Y-61600500D01*
X89328844Y-61600500D01*
X89328845Y-61600499D01*
X89483497Y-61569737D01*
X89596166Y-61523067D01*
X89629172Y-61509397D01*
X89629172Y-61509396D01*
X89629179Y-61509394D01*
X89760289Y-61421789D01*
X89871789Y-61310289D01*
X89959394Y-61179179D01*
X90019737Y-61033497D01*
X90040418Y-60929527D01*
X90051689Y-60872868D01*
X90053562Y-60873240D01*
X90076385Y-60816681D01*
X90133409Y-60776308D01*
X90203208Y-60773173D01*
X90242537Y-60790496D01*
X90270814Y-60809390D01*
X90270827Y-60809397D01*
X90416498Y-60869735D01*
X90416503Y-60869737D01*
X90562431Y-60898764D01*
X90571153Y-60900499D01*
X90571156Y-60900500D01*
X90571158Y-60900500D01*
X90728844Y-60900500D01*
X90728845Y-60900499D01*
X90883497Y-60869737D01*
X90996166Y-60823067D01*
X91029172Y-60809397D01*
X91029172Y-60809396D01*
X91029179Y-60809394D01*
X91160289Y-60721789D01*
X91271789Y-60610289D01*
X91359394Y-60479179D01*
X91362854Y-60470827D01*
X91383569Y-60420814D01*
X91419737Y-60333497D01*
X91432138Y-60271153D01*
X96949500Y-60271153D01*
X96949500Y-60428846D01*
X96980261Y-60583489D01*
X96980264Y-60583501D01*
X97040602Y-60729172D01*
X97040609Y-60729185D01*
X97128210Y-60860288D01*
X97128213Y-60860292D01*
X97239707Y-60971786D01*
X97239711Y-60971789D01*
X97370814Y-61059390D01*
X97370827Y-61059397D01*
X97516498Y-61119735D01*
X97516503Y-61119737D01*
X97671153Y-61150499D01*
X97671156Y-61150500D01*
X97671158Y-61150500D01*
X97828844Y-61150500D01*
X97828845Y-61150499D01*
X97983497Y-61119737D01*
X98129179Y-61059394D01*
X98260289Y-60971789D01*
X98371789Y-60860289D01*
X98431348Y-60771153D01*
X113199500Y-60771153D01*
X113199500Y-60928846D01*
X113230261Y-61083489D01*
X113230264Y-61083501D01*
X113290602Y-61229172D01*
X113290609Y-61229185D01*
X113378210Y-61360288D01*
X113378213Y-61360292D01*
X113489707Y-61471786D01*
X113489711Y-61471789D01*
X113620814Y-61559390D01*
X113620827Y-61559397D01*
X113720060Y-61600500D01*
X113766503Y-61619737D01*
X113921153Y-61650499D01*
X113921156Y-61650500D01*
X113921158Y-61650500D01*
X114078844Y-61650500D01*
X114078845Y-61650499D01*
X114233497Y-61619737D01*
X114379179Y-61559394D01*
X114510289Y-61471789D01*
X114621789Y-61360289D01*
X114709394Y-61229179D01*
X114769737Y-61083497D01*
X114800500Y-60928842D01*
X114800500Y-60771158D01*
X114800500Y-60771155D01*
X114800499Y-60771153D01*
X114790271Y-60719735D01*
X114769737Y-60616503D01*
X114751215Y-60571786D01*
X114709397Y-60470827D01*
X114709390Y-60470814D01*
X114621789Y-60339711D01*
X114621786Y-60339707D01*
X114510292Y-60228213D01*
X114510288Y-60228210D01*
X114379185Y-60140609D01*
X114379172Y-60140602D01*
X114233501Y-60080264D01*
X114233489Y-60080261D01*
X114078845Y-60049500D01*
X114078842Y-60049500D01*
X113921158Y-60049500D01*
X113921155Y-60049500D01*
X113766510Y-60080261D01*
X113766498Y-60080264D01*
X113620827Y-60140602D01*
X113620814Y-60140609D01*
X113489711Y-60228210D01*
X113489707Y-60228213D01*
X113378213Y-60339707D01*
X113378210Y-60339711D01*
X113290609Y-60470814D01*
X113290602Y-60470827D01*
X113230264Y-60616498D01*
X113230261Y-60616510D01*
X113199500Y-60771153D01*
X98431348Y-60771153D01*
X98459394Y-60729179D01*
X98462719Y-60721153D01*
X98488302Y-60659389D01*
X98519737Y-60583497D01*
X98550500Y-60428842D01*
X98550500Y-60271158D01*
X98550500Y-60271155D01*
X98550499Y-60271153D01*
X98532012Y-60178213D01*
X98519737Y-60116503D01*
X98516838Y-60109504D01*
X98459397Y-59970827D01*
X98459390Y-59970814D01*
X98434763Y-59933957D01*
X98392798Y-59871153D01*
X107549500Y-59871153D01*
X107549500Y-60028846D01*
X107580261Y-60183489D01*
X107580264Y-60183501D01*
X107640602Y-60329172D01*
X107640609Y-60329185D01*
X107728210Y-60460288D01*
X107728213Y-60460292D01*
X107839707Y-60571786D01*
X107839711Y-60571789D01*
X107970814Y-60659390D01*
X107970827Y-60659397D01*
X108046823Y-60690875D01*
X108116503Y-60719737D01*
X108271153Y-60750499D01*
X108271156Y-60750500D01*
X108271158Y-60750500D01*
X108428844Y-60750500D01*
X108428845Y-60750499D01*
X108583497Y-60719737D01*
X108729179Y-60659394D01*
X108860289Y-60571789D01*
X108971789Y-60460289D01*
X109059394Y-60329179D01*
X109119737Y-60183497D01*
X109150500Y-60028842D01*
X109150500Y-59871158D01*
X109150500Y-59871155D01*
X109150499Y-59871153D01*
X109122066Y-59728211D01*
X109119737Y-59716503D01*
X109088298Y-59640602D01*
X109059397Y-59570827D01*
X109059390Y-59570814D01*
X108971789Y-59439711D01*
X108971786Y-59439707D01*
X108860292Y-59328213D01*
X108860288Y-59328210D01*
X108729185Y-59240609D01*
X108729172Y-59240602D01*
X108583501Y-59180264D01*
X108583489Y-59180261D01*
X108428845Y-59149500D01*
X108428842Y-59149500D01*
X108271158Y-59149500D01*
X108271155Y-59149500D01*
X108116510Y-59180261D01*
X108116498Y-59180264D01*
X107970827Y-59240602D01*
X107970814Y-59240609D01*
X107839711Y-59328210D01*
X107839707Y-59328213D01*
X107728213Y-59439707D01*
X107728210Y-59439711D01*
X107640609Y-59570814D01*
X107640602Y-59570827D01*
X107580264Y-59716498D01*
X107580261Y-59716510D01*
X107549500Y-59871153D01*
X98392798Y-59871153D01*
X98371789Y-59839711D01*
X98371786Y-59839707D01*
X98260292Y-59728213D01*
X98260288Y-59728210D01*
X98129185Y-59640609D01*
X98129172Y-59640602D01*
X97983501Y-59580264D01*
X97983489Y-59580261D01*
X97828845Y-59549500D01*
X97828842Y-59549500D01*
X97671158Y-59549500D01*
X97671155Y-59549500D01*
X97516510Y-59580261D01*
X97516498Y-59580264D01*
X97370827Y-59640602D01*
X97370814Y-59640609D01*
X97239711Y-59728210D01*
X97239707Y-59728213D01*
X97128213Y-59839707D01*
X97128210Y-59839711D01*
X97040609Y-59970814D01*
X97040602Y-59970827D01*
X96980264Y-60116498D01*
X96980261Y-60116510D01*
X96949500Y-60271153D01*
X91432138Y-60271153D01*
X91438161Y-60240874D01*
X91450500Y-60178844D01*
X91450500Y-60021155D01*
X91450499Y-60021153D01*
X91440486Y-59970814D01*
X91419737Y-59866503D01*
X91419735Y-59866498D01*
X91359397Y-59720827D01*
X91359390Y-59720814D01*
X91271789Y-59589711D01*
X91271786Y-59589707D01*
X91160292Y-59478213D01*
X91160288Y-59478210D01*
X91029185Y-59390609D01*
X91029172Y-59390602D01*
X90883501Y-59330264D01*
X90883489Y-59330261D01*
X90728845Y-59299500D01*
X90728842Y-59299500D01*
X90571158Y-59299500D01*
X90571155Y-59299500D01*
X90416510Y-59330261D01*
X90416498Y-59330264D01*
X90270827Y-59390602D01*
X90270814Y-59390609D01*
X90139711Y-59478210D01*
X90139707Y-59478213D01*
X90028213Y-59589707D01*
X90028210Y-59589711D01*
X89940609Y-59720814D01*
X89940602Y-59720827D01*
X89880264Y-59866498D01*
X89880261Y-59866510D01*
X89848311Y-60027132D01*
X89846444Y-60026760D01*
X89823590Y-60083348D01*
X89766553Y-60123704D01*
X89696753Y-60126816D01*
X89657463Y-60109504D01*
X89629183Y-60090608D01*
X89629172Y-60090602D01*
X89483501Y-60030264D01*
X89483489Y-60030261D01*
X89328845Y-59999500D01*
X89328842Y-59999500D01*
X89171158Y-59999500D01*
X89171155Y-59999500D01*
X89016510Y-60030261D01*
X89016498Y-60030264D01*
X88870827Y-60090602D01*
X88870814Y-60090609D01*
X88739711Y-60178210D01*
X88739707Y-60178213D01*
X88628213Y-60289707D01*
X88628210Y-60289711D01*
X88540609Y-60420814D01*
X88540602Y-60420827D01*
X88480264Y-60566498D01*
X88480261Y-60566510D01*
X88449500Y-60721153D01*
X76842084Y-60721153D01*
X76848107Y-60690875D01*
X76848107Y-60690874D01*
X76850500Y-60678844D01*
X76850500Y-60521155D01*
X76850499Y-60521153D01*
X76830543Y-60420827D01*
X76819737Y-60366503D01*
X76819735Y-60366498D01*
X76759397Y-60220827D01*
X76759390Y-60220814D01*
X76671789Y-60089711D01*
X76671786Y-60089707D01*
X76560292Y-59978213D01*
X76560288Y-59978210D01*
X76429185Y-59890609D01*
X76429172Y-59890602D01*
X76283501Y-59830264D01*
X76283489Y-59830261D01*
X76128845Y-59799500D01*
X76128842Y-59799500D01*
X75971158Y-59799500D01*
X75971155Y-59799500D01*
X75816510Y-59830261D01*
X75816498Y-59830264D01*
X75670827Y-59890602D01*
X75670814Y-59890609D01*
X75539711Y-59978210D01*
X75539707Y-59978213D01*
X75428213Y-60089707D01*
X75428210Y-60089711D01*
X75340609Y-60220814D01*
X75340602Y-60220827D01*
X75280264Y-60366498D01*
X75280261Y-60366510D01*
X75249500Y-60521153D01*
X63252105Y-60521153D01*
X63251796Y-60520408D01*
X63231260Y-60470827D01*
X63231253Y-60470814D01*
X63143652Y-60339711D01*
X63143649Y-60339707D01*
X63032155Y-60228213D01*
X63032151Y-60228210D01*
X62901048Y-60140609D01*
X62901035Y-60140602D01*
X62755364Y-60080264D01*
X62755352Y-60080261D01*
X62600708Y-60049500D01*
X62600705Y-60049500D01*
X62443021Y-60049500D01*
X62443018Y-60049500D01*
X62288373Y-60080261D01*
X62288361Y-60080264D01*
X62142690Y-60140602D01*
X62142677Y-60140609D01*
X62011574Y-60228210D01*
X62011570Y-60228213D01*
X61900076Y-60339707D01*
X61900073Y-60339711D01*
X61812472Y-60470814D01*
X61812465Y-60470827D01*
X61752127Y-60616498D01*
X61752124Y-60616510D01*
X61721363Y-60771153D01*
X57000500Y-60771153D01*
X57000500Y-56821153D01*
X60449500Y-56821153D01*
X60449500Y-56978846D01*
X60480261Y-57133489D01*
X60480264Y-57133501D01*
X60540602Y-57279172D01*
X60540609Y-57279185D01*
X60628210Y-57410288D01*
X60628213Y-57410292D01*
X60739707Y-57521786D01*
X60739711Y-57521789D01*
X60870814Y-57609390D01*
X60870827Y-57609397D01*
X61016498Y-57669735D01*
X61016503Y-57669737D01*
X61171153Y-57700499D01*
X61171156Y-57700500D01*
X61171158Y-57700500D01*
X61328844Y-57700500D01*
X61328845Y-57700499D01*
X61483497Y-57669737D01*
X61629179Y-57609394D01*
X61760289Y-57521789D01*
X61871789Y-57410289D01*
X61959394Y-57279179D01*
X62019737Y-57133497D01*
X62050500Y-56978842D01*
X62050500Y-56821158D01*
X62050500Y-56821155D01*
X62050499Y-56821153D01*
X62023117Y-56683497D01*
X62019737Y-56666503D01*
X62019735Y-56666498D01*
X61959397Y-56520827D01*
X61959390Y-56520814D01*
X61871789Y-56389711D01*
X61871786Y-56389707D01*
X61853232Y-56371153D01*
X97099500Y-56371153D01*
X97099500Y-56528846D01*
X97130261Y-56683489D01*
X97130264Y-56683501D01*
X97190602Y-56829172D01*
X97190609Y-56829185D01*
X97278210Y-56960288D01*
X97278213Y-56960292D01*
X97389707Y-57071786D01*
X97389711Y-57071789D01*
X97520814Y-57159390D01*
X97520827Y-57159397D01*
X97666498Y-57219735D01*
X97666503Y-57219737D01*
X97821153Y-57250499D01*
X97821156Y-57250500D01*
X97821158Y-57250500D01*
X97978844Y-57250500D01*
X97978845Y-57250499D01*
X98133497Y-57219737D01*
X98279179Y-57159394D01*
X98410289Y-57071789D01*
X98521789Y-56960289D01*
X98609394Y-56829179D01*
X98612719Y-56821153D01*
X98669735Y-56683501D01*
X98669737Y-56683497D01*
X98700500Y-56528842D01*
X98700500Y-56371158D01*
X98700500Y-56371155D01*
X98700499Y-56371153D01*
X98682012Y-56278213D01*
X98669737Y-56216503D01*
X98666791Y-56209390D01*
X98609397Y-56070827D01*
X98609390Y-56070814D01*
X98521789Y-55939711D01*
X98521786Y-55939707D01*
X98410292Y-55828213D01*
X98410288Y-55828210D01*
X98279185Y-55740609D01*
X98279172Y-55740602D01*
X98133501Y-55680264D01*
X98133489Y-55680261D01*
X97978845Y-55649500D01*
X97978842Y-55649500D01*
X97821158Y-55649500D01*
X97821155Y-55649500D01*
X97666510Y-55680261D01*
X97666498Y-55680264D01*
X97520827Y-55740602D01*
X97520814Y-55740609D01*
X97389711Y-55828210D01*
X97389707Y-55828213D01*
X97278213Y-55939707D01*
X97278210Y-55939711D01*
X97190609Y-56070814D01*
X97190602Y-56070827D01*
X97130264Y-56216498D01*
X97130261Y-56216510D01*
X97099500Y-56371153D01*
X61853232Y-56371153D01*
X61760292Y-56278213D01*
X61760288Y-56278210D01*
X61629185Y-56190609D01*
X61629172Y-56190602D01*
X61483501Y-56130264D01*
X61483489Y-56130261D01*
X61328845Y-56099500D01*
X61328842Y-56099500D01*
X61171158Y-56099500D01*
X61171155Y-56099500D01*
X61016510Y-56130261D01*
X61016498Y-56130264D01*
X60870827Y-56190602D01*
X60870814Y-56190609D01*
X60739711Y-56278210D01*
X60739707Y-56278213D01*
X60628213Y-56389707D01*
X60628210Y-56389711D01*
X60540609Y-56520814D01*
X60540602Y-56520827D01*
X60480264Y-56666498D01*
X60480261Y-56666510D01*
X60449500Y-56821153D01*
X57000500Y-56821153D01*
X57000500Y-55421153D01*
X86199500Y-55421153D01*
X86199500Y-55578846D01*
X86230261Y-55733489D01*
X86230264Y-55733501D01*
X86290602Y-55879172D01*
X86290609Y-55879185D01*
X86378210Y-56010288D01*
X86378213Y-56010292D01*
X86489707Y-56121786D01*
X86489711Y-56121789D01*
X86620814Y-56209390D01*
X86620827Y-56209397D01*
X86720070Y-56250504D01*
X86766503Y-56269737D01*
X86921153Y-56300499D01*
X86921156Y-56300500D01*
X86921158Y-56300500D01*
X87078844Y-56300500D01*
X87078845Y-56300499D01*
X87233497Y-56269737D01*
X87379179Y-56209394D01*
X87510289Y-56121789D01*
X87621789Y-56010289D01*
X87709394Y-55879179D01*
X87769737Y-55733497D01*
X87800500Y-55578842D01*
X87800500Y-55421158D01*
X87800500Y-55421155D01*
X87800499Y-55421153D01*
X100649500Y-55421153D01*
X100649500Y-55578846D01*
X100680261Y-55733489D01*
X100680264Y-55733501D01*
X100740602Y-55879172D01*
X100740609Y-55879185D01*
X100828210Y-56010288D01*
X100828213Y-56010292D01*
X100939707Y-56121786D01*
X100939711Y-56121789D01*
X101070814Y-56209390D01*
X101070827Y-56209397D01*
X101170070Y-56250504D01*
X101216503Y-56269737D01*
X101371153Y-56300499D01*
X101371156Y-56300500D01*
X101371158Y-56300500D01*
X101528844Y-56300500D01*
X101528845Y-56300499D01*
X101683497Y-56269737D01*
X101829179Y-56209394D01*
X101960289Y-56121789D01*
X102071789Y-56010289D01*
X102159394Y-55879179D01*
X102219737Y-55733497D01*
X102250500Y-55578842D01*
X102250500Y-55421158D01*
X102250500Y-55421155D01*
X102250499Y-55421153D01*
X114749500Y-55421153D01*
X114749500Y-55578846D01*
X114780261Y-55733489D01*
X114780264Y-55733501D01*
X114840602Y-55879172D01*
X114840609Y-55879185D01*
X114928210Y-56010288D01*
X114928213Y-56010292D01*
X115039707Y-56121786D01*
X115039711Y-56121789D01*
X115170814Y-56209390D01*
X115170827Y-56209397D01*
X115270070Y-56250504D01*
X115316503Y-56269737D01*
X115471153Y-56300499D01*
X115471156Y-56300500D01*
X115471158Y-56300500D01*
X115628844Y-56300500D01*
X115628845Y-56300499D01*
X115783497Y-56269737D01*
X115929179Y-56209394D01*
X116060289Y-56121789D01*
X116171789Y-56010289D01*
X116259394Y-55879179D01*
X116319737Y-55733497D01*
X116350500Y-55578842D01*
X116350500Y-55421158D01*
X116350500Y-55421155D01*
X116350499Y-55421153D01*
X116319738Y-55266510D01*
X116319737Y-55266503D01*
X116319735Y-55266498D01*
X116259397Y-55120827D01*
X116259390Y-55120814D01*
X116171789Y-54989711D01*
X116171786Y-54989707D01*
X116060292Y-54878213D01*
X116060288Y-54878210D01*
X115929185Y-54790609D01*
X115929172Y-54790602D01*
X115783501Y-54730264D01*
X115783489Y-54730261D01*
X115628845Y-54699500D01*
X115628842Y-54699500D01*
X115471158Y-54699500D01*
X115471155Y-54699500D01*
X115316510Y-54730261D01*
X115316498Y-54730264D01*
X115170827Y-54790602D01*
X115170814Y-54790609D01*
X115039711Y-54878210D01*
X115039707Y-54878213D01*
X114928213Y-54989707D01*
X114928210Y-54989711D01*
X114840609Y-55120814D01*
X114840602Y-55120827D01*
X114780264Y-55266498D01*
X114780261Y-55266510D01*
X114749500Y-55421153D01*
X102250499Y-55421153D01*
X102219738Y-55266510D01*
X102219737Y-55266503D01*
X102219735Y-55266498D01*
X102159397Y-55120827D01*
X102159390Y-55120814D01*
X102071789Y-54989711D01*
X102071786Y-54989707D01*
X101960292Y-54878213D01*
X101960288Y-54878210D01*
X101829185Y-54790609D01*
X101829172Y-54790602D01*
X101683501Y-54730264D01*
X101683489Y-54730261D01*
X101528845Y-54699500D01*
X101528842Y-54699500D01*
X101371158Y-54699500D01*
X101371155Y-54699500D01*
X101216510Y-54730261D01*
X101216498Y-54730264D01*
X101070827Y-54790602D01*
X101070814Y-54790609D01*
X100939711Y-54878210D01*
X100939707Y-54878213D01*
X100828213Y-54989707D01*
X100828210Y-54989711D01*
X100740609Y-55120814D01*
X100740602Y-55120827D01*
X100680264Y-55266498D01*
X100680261Y-55266510D01*
X100649500Y-55421153D01*
X87800499Y-55421153D01*
X87769738Y-55266510D01*
X87769737Y-55266503D01*
X87769735Y-55266498D01*
X87709397Y-55120827D01*
X87709390Y-55120814D01*
X87621789Y-54989711D01*
X87621786Y-54989707D01*
X87510292Y-54878213D01*
X87510288Y-54878210D01*
X87379185Y-54790609D01*
X87379172Y-54790602D01*
X87233501Y-54730264D01*
X87233489Y-54730261D01*
X87078845Y-54699500D01*
X87078842Y-54699500D01*
X86921158Y-54699500D01*
X86921155Y-54699500D01*
X86766510Y-54730261D01*
X86766498Y-54730264D01*
X86620827Y-54790602D01*
X86620814Y-54790609D01*
X86489711Y-54878210D01*
X86489707Y-54878213D01*
X86378213Y-54989707D01*
X86378210Y-54989711D01*
X86290609Y-55120814D01*
X86290602Y-55120827D01*
X86230264Y-55266498D01*
X86230261Y-55266510D01*
X86199500Y-55421153D01*
X57000500Y-55421153D01*
X57000500Y-53971153D01*
X67299500Y-53971153D01*
X67299500Y-54128846D01*
X67330261Y-54283489D01*
X67330264Y-54283501D01*
X67390602Y-54429172D01*
X67390609Y-54429185D01*
X67478210Y-54560288D01*
X67478213Y-54560292D01*
X67589707Y-54671786D01*
X67589711Y-54671789D01*
X67720814Y-54759390D01*
X67720827Y-54759397D01*
X67796181Y-54790609D01*
X67866503Y-54819737D01*
X68021153Y-54850499D01*
X68021156Y-54850500D01*
X68021158Y-54850500D01*
X68178844Y-54850500D01*
X68178845Y-54850499D01*
X68333497Y-54819737D01*
X68479179Y-54759394D01*
X68610289Y-54671789D01*
X68721789Y-54560289D01*
X68809394Y-54429179D01*
X68869737Y-54283497D01*
X68900500Y-54128842D01*
X68900500Y-53971158D01*
X68900500Y-53971155D01*
X68900499Y-53971153D01*
X68890271Y-53919735D01*
X68869737Y-53816503D01*
X68845712Y-53758501D01*
X68809397Y-53670827D01*
X68809390Y-53670814D01*
X68721789Y-53539711D01*
X68721786Y-53539707D01*
X68610292Y-53428213D01*
X68610288Y-53428210D01*
X68479185Y-53340609D01*
X68479172Y-53340602D01*
X68333501Y-53280264D01*
X68333489Y-53280261D01*
X68178845Y-53249500D01*
X68178842Y-53249500D01*
X68021158Y-53249500D01*
X68021155Y-53249500D01*
X67866510Y-53280261D01*
X67866498Y-53280264D01*
X67720827Y-53340602D01*
X67720814Y-53340609D01*
X67589711Y-53428210D01*
X67589707Y-53428213D01*
X67478213Y-53539707D01*
X67478210Y-53539711D01*
X67390609Y-53670814D01*
X67390602Y-53670827D01*
X67330264Y-53816498D01*
X67330261Y-53816510D01*
X67299500Y-53971153D01*
X57000500Y-53971153D01*
X57000500Y-53071153D01*
X73449500Y-53071153D01*
X73449500Y-53228846D01*
X73480261Y-53383489D01*
X73480264Y-53383501D01*
X73540602Y-53529172D01*
X73540609Y-53529185D01*
X73628210Y-53660288D01*
X73628213Y-53660292D01*
X73739707Y-53771786D01*
X73739711Y-53771789D01*
X73870814Y-53859390D01*
X73870827Y-53859397D01*
X74000093Y-53912940D01*
X74016503Y-53919737D01*
X74125415Y-53941401D01*
X74171153Y-53950499D01*
X74171156Y-53950500D01*
X74171158Y-53950500D01*
X74328844Y-53950500D01*
X74328845Y-53950499D01*
X74483497Y-53919737D01*
X74629179Y-53859394D01*
X74760289Y-53771789D01*
X74810925Y-53721153D01*
X87249500Y-53721153D01*
X87249500Y-53878846D01*
X87280261Y-54033489D01*
X87280264Y-54033501D01*
X87340602Y-54179172D01*
X87340609Y-54179185D01*
X87428210Y-54310288D01*
X87428213Y-54310292D01*
X87539707Y-54421786D01*
X87539711Y-54421789D01*
X87670814Y-54509390D01*
X87670827Y-54509397D01*
X87816498Y-54569735D01*
X87816503Y-54569737D01*
X87971153Y-54600499D01*
X87971156Y-54600500D01*
X87971158Y-54600500D01*
X88128844Y-54600500D01*
X88128845Y-54600499D01*
X88283497Y-54569737D01*
X88429179Y-54509394D01*
X88560289Y-54421789D01*
X88671789Y-54310289D01*
X88759394Y-54179179D01*
X88819737Y-54033497D01*
X88825741Y-54003310D01*
X88858124Y-53941401D01*
X88899905Y-53912940D01*
X88938795Y-53896831D01*
X89029173Y-53859397D01*
X89029176Y-53859395D01*
X89029179Y-53859394D01*
X89160289Y-53771789D01*
X89271789Y-53660289D01*
X89359394Y-53529179D01*
X89393782Y-53446158D01*
X89393784Y-53446153D01*
X101824500Y-53446153D01*
X101824500Y-53603846D01*
X101855261Y-53758489D01*
X101855264Y-53758501D01*
X101915602Y-53904172D01*
X101915609Y-53904185D01*
X102003210Y-54035288D01*
X102003213Y-54035292D01*
X102114707Y-54146786D01*
X102114711Y-54146789D01*
X102245814Y-54234390D01*
X102245827Y-54234397D01*
X102391498Y-54294735D01*
X102391503Y-54294737D01*
X102546153Y-54325499D01*
X102546156Y-54325500D01*
X102546158Y-54325500D01*
X102703844Y-54325500D01*
X102703845Y-54325499D01*
X102858497Y-54294737D01*
X103004179Y-54234394D01*
X103135289Y-54146789D01*
X103246789Y-54035289D01*
X103334394Y-53904179D01*
X103394737Y-53758497D01*
X103425500Y-53603842D01*
X103425500Y-53446158D01*
X103425500Y-53446155D01*
X103425499Y-53446153D01*
X103394738Y-53291510D01*
X103394737Y-53291503D01*
X103390081Y-53280263D01*
X103334397Y-53145827D01*
X103334389Y-53145813D01*
X103326468Y-53133958D01*
X103326467Y-53133957D01*
X103284503Y-53071153D01*
X123799500Y-53071153D01*
X123799500Y-53228846D01*
X123830261Y-53383489D01*
X123830264Y-53383501D01*
X123890602Y-53529172D01*
X123890609Y-53529185D01*
X123978210Y-53660288D01*
X123978213Y-53660292D01*
X124089707Y-53771786D01*
X124089711Y-53771789D01*
X124220814Y-53859390D01*
X124220827Y-53859397D01*
X124350093Y-53912940D01*
X124366503Y-53919737D01*
X124475415Y-53941401D01*
X124521153Y-53950499D01*
X124521156Y-53950500D01*
X124521158Y-53950500D01*
X124678844Y-53950500D01*
X124678845Y-53950499D01*
X124833497Y-53919737D01*
X124979179Y-53859394D01*
X125110289Y-53771789D01*
X125221789Y-53660289D01*
X125309394Y-53529179D01*
X125369737Y-53383497D01*
X125400500Y-53228842D01*
X125400500Y-53071158D01*
X125400500Y-53071155D01*
X125400499Y-53071153D01*
X125389271Y-53014707D01*
X125369737Y-52916503D01*
X125327946Y-52815609D01*
X125309397Y-52770827D01*
X125309390Y-52770814D01*
X125221789Y-52639711D01*
X125221786Y-52639707D01*
X125110292Y-52528213D01*
X125110288Y-52528210D01*
X124979185Y-52440609D01*
X124979172Y-52440602D01*
X124833501Y-52380264D01*
X124833489Y-52380261D01*
X124678845Y-52349500D01*
X124678842Y-52349500D01*
X124521158Y-52349500D01*
X124521155Y-52349500D01*
X124366510Y-52380261D01*
X124366498Y-52380264D01*
X124220827Y-52440602D01*
X124220814Y-52440609D01*
X124089711Y-52528210D01*
X124089707Y-52528213D01*
X123978213Y-52639707D01*
X123978210Y-52639711D01*
X123890609Y-52770814D01*
X123890602Y-52770827D01*
X123830264Y-52916498D01*
X123830261Y-52916510D01*
X123799500Y-53071153D01*
X103284503Y-53071153D01*
X103246789Y-53014711D01*
X103246786Y-53014707D01*
X103135292Y-52903213D01*
X103135288Y-52903210D01*
X103004185Y-52815609D01*
X103004172Y-52815602D01*
X102858501Y-52755264D01*
X102858489Y-52755261D01*
X102703845Y-52724500D01*
X102703842Y-52724500D01*
X102546158Y-52724500D01*
X102546155Y-52724500D01*
X102391510Y-52755261D01*
X102391498Y-52755264D01*
X102245827Y-52815602D01*
X102245814Y-52815609D01*
X102114711Y-52903210D01*
X102114707Y-52903213D01*
X102003213Y-53014707D01*
X102003210Y-53014711D01*
X101915609Y-53145814D01*
X101915602Y-53145827D01*
X101855264Y-53291498D01*
X101855261Y-53291510D01*
X101824500Y-53446153D01*
X89393784Y-53446153D01*
X89415958Y-53392621D01*
X89415958Y-53392619D01*
X89419737Y-53383497D01*
X89450500Y-53228842D01*
X89450500Y-53071158D01*
X89450500Y-53071155D01*
X89450499Y-53071153D01*
X89439271Y-53014707D01*
X89419737Y-52916503D01*
X89377946Y-52815609D01*
X89359397Y-52770827D01*
X89359390Y-52770814D01*
X89271789Y-52639711D01*
X89271786Y-52639707D01*
X89160292Y-52528213D01*
X89160288Y-52528210D01*
X89029185Y-52440609D01*
X89029172Y-52440602D01*
X88883501Y-52380264D01*
X88883489Y-52380261D01*
X88728845Y-52349500D01*
X88728842Y-52349500D01*
X88571158Y-52349500D01*
X88571155Y-52349500D01*
X88416510Y-52380261D01*
X88416498Y-52380264D01*
X88270827Y-52440602D01*
X88270814Y-52440609D01*
X88139711Y-52528210D01*
X88139707Y-52528213D01*
X88028213Y-52639707D01*
X88028210Y-52639711D01*
X87940609Y-52770814D01*
X87940602Y-52770827D01*
X87880264Y-52916498D01*
X87880261Y-52916508D01*
X87874258Y-52946690D01*
X87841873Y-53008601D01*
X87800094Y-53037059D01*
X87670824Y-53090604D01*
X87670814Y-53090609D01*
X87539711Y-53178210D01*
X87539707Y-53178213D01*
X87428213Y-53289707D01*
X87428210Y-53289711D01*
X87340609Y-53420814D01*
X87340602Y-53420827D01*
X87280264Y-53566498D01*
X87280261Y-53566510D01*
X87249500Y-53721153D01*
X74810925Y-53721153D01*
X74871789Y-53660289D01*
X74909505Y-53603844D01*
X74959390Y-53529185D01*
X74959390Y-53529184D01*
X74959394Y-53529179D01*
X75019737Y-53383497D01*
X75050500Y-53228842D01*
X75050500Y-53071158D01*
X75050500Y-53071155D01*
X75050499Y-53071153D01*
X75039271Y-53014707D01*
X75019737Y-52916503D01*
X74977946Y-52815609D01*
X74959397Y-52770827D01*
X74959390Y-52770814D01*
X74871789Y-52639711D01*
X74871786Y-52639707D01*
X74760292Y-52528213D01*
X74760288Y-52528210D01*
X74629185Y-52440609D01*
X74629172Y-52440602D01*
X74483501Y-52380264D01*
X74483489Y-52380261D01*
X74328845Y-52349500D01*
X74328842Y-52349500D01*
X74171158Y-52349500D01*
X74171155Y-52349500D01*
X74016510Y-52380261D01*
X74016498Y-52380264D01*
X73870827Y-52440602D01*
X73870814Y-52440609D01*
X73739711Y-52528210D01*
X73739707Y-52528213D01*
X73628213Y-52639707D01*
X73628210Y-52639711D01*
X73540609Y-52770814D01*
X73540602Y-52770827D01*
X73480264Y-52916498D01*
X73480261Y-52916510D01*
X73449500Y-53071153D01*
X57000500Y-53071153D01*
X57000500Y-48871153D01*
X96949500Y-48871153D01*
X96949500Y-49028846D01*
X96980261Y-49183489D01*
X96980264Y-49183501D01*
X97040602Y-49329172D01*
X97040609Y-49329185D01*
X97128210Y-49460288D01*
X97128213Y-49460292D01*
X97239707Y-49571786D01*
X97239711Y-49571789D01*
X97370814Y-49659390D01*
X97370827Y-49659397D01*
X97516498Y-49719735D01*
X97516503Y-49719737D01*
X97671153Y-49750499D01*
X97671156Y-49750500D01*
X97671158Y-49750500D01*
X97828844Y-49750500D01*
X97828845Y-49750499D01*
X97983497Y-49719737D01*
X98129179Y-49659394D01*
X98260289Y-49571789D01*
X98371789Y-49460289D01*
X98459394Y-49329179D01*
X98519737Y-49183497D01*
X98532138Y-49121153D01*
X121549500Y-49121153D01*
X121549500Y-49278846D01*
X121580261Y-49433489D01*
X121580264Y-49433501D01*
X121640602Y-49579172D01*
X121640609Y-49579185D01*
X121728210Y-49710288D01*
X121728213Y-49710292D01*
X121839707Y-49821786D01*
X121839711Y-49821789D01*
X121970814Y-49909390D01*
X121970827Y-49909397D01*
X122116498Y-49969735D01*
X122116503Y-49969737D01*
X122271153Y-50000499D01*
X122271156Y-50000500D01*
X122271158Y-50000500D01*
X122428844Y-50000500D01*
X122428845Y-50000499D01*
X122583497Y-49969737D01*
X122729179Y-49909394D01*
X122860289Y-49821789D01*
X122971789Y-49710289D01*
X123059394Y-49579179D01*
X123119737Y-49433497D01*
X123150500Y-49278842D01*
X123150500Y-49121158D01*
X123150500Y-49121155D01*
X123150499Y-49121153D01*
X123119738Y-48966510D01*
X123119737Y-48966503D01*
X123080242Y-48871153D01*
X123059397Y-48820827D01*
X123059390Y-48820814D01*
X122971789Y-48689711D01*
X122971786Y-48689707D01*
X122860292Y-48578213D01*
X122860288Y-48578210D01*
X122729185Y-48490609D01*
X122729172Y-48490602D01*
X122583501Y-48430264D01*
X122583489Y-48430261D01*
X122428845Y-48399500D01*
X122428842Y-48399500D01*
X122271158Y-48399500D01*
X122271155Y-48399500D01*
X122116510Y-48430261D01*
X122116498Y-48430264D01*
X121970827Y-48490602D01*
X121970814Y-48490609D01*
X121839711Y-48578210D01*
X121839707Y-48578213D01*
X121728213Y-48689707D01*
X121728210Y-48689711D01*
X121640609Y-48820814D01*
X121640602Y-48820827D01*
X121580264Y-48966498D01*
X121580261Y-48966510D01*
X121549500Y-49121153D01*
X98532138Y-49121153D01*
X98538161Y-49090874D01*
X98550500Y-49028844D01*
X98550500Y-48871155D01*
X98550499Y-48871153D01*
X98519738Y-48716510D01*
X98519737Y-48716503D01*
X98519735Y-48716498D01*
X98459397Y-48570827D01*
X98459390Y-48570814D01*
X98371789Y-48439711D01*
X98371786Y-48439707D01*
X98260292Y-48328213D01*
X98260288Y-48328210D01*
X98129185Y-48240609D01*
X98129172Y-48240602D01*
X97983501Y-48180264D01*
X97983489Y-48180261D01*
X97828845Y-48149500D01*
X97828842Y-48149500D01*
X97671158Y-48149500D01*
X97671155Y-48149500D01*
X97516510Y-48180261D01*
X97516498Y-48180264D01*
X97370827Y-48240602D01*
X97370814Y-48240609D01*
X97239711Y-48328210D01*
X97239707Y-48328213D01*
X97128213Y-48439707D01*
X97128210Y-48439711D01*
X97040609Y-48570814D01*
X97040602Y-48570827D01*
X96980264Y-48716498D01*
X96980261Y-48716510D01*
X96949500Y-48871153D01*
X57000500Y-48871153D01*
X57000500Y-47721153D01*
X82699500Y-47721153D01*
X82699500Y-47878846D01*
X82730261Y-48033489D01*
X82730264Y-48033501D01*
X82790602Y-48179172D01*
X82790609Y-48179185D01*
X82878210Y-48310288D01*
X82878213Y-48310292D01*
X82989707Y-48421786D01*
X82989711Y-48421789D01*
X83120814Y-48509390D01*
X83120827Y-48509397D01*
X83266498Y-48569735D01*
X83266503Y-48569737D01*
X83421153Y-48600499D01*
X83421156Y-48600500D01*
X83421158Y-48600500D01*
X83578844Y-48600500D01*
X83578845Y-48600499D01*
X83733497Y-48569737D01*
X83879179Y-48509394D01*
X84010289Y-48421789D01*
X84121789Y-48310289D01*
X84209394Y-48179179D01*
X84269737Y-48033497D01*
X84300500Y-47878842D01*
X84300500Y-47721158D01*
X84300500Y-47721155D01*
X84300499Y-47721153D01*
X111299500Y-47721153D01*
X111299500Y-47878846D01*
X111330261Y-48033489D01*
X111330264Y-48033501D01*
X111390602Y-48179172D01*
X111390609Y-48179185D01*
X111478210Y-48310288D01*
X111478213Y-48310292D01*
X111589707Y-48421786D01*
X111589711Y-48421789D01*
X111720814Y-48509390D01*
X111720827Y-48509397D01*
X111866498Y-48569735D01*
X111866503Y-48569737D01*
X112021153Y-48600499D01*
X112021156Y-48600500D01*
X112021158Y-48600500D01*
X112178844Y-48600500D01*
X112178845Y-48600499D01*
X112333497Y-48569737D01*
X112479179Y-48509394D01*
X112610289Y-48421789D01*
X112721789Y-48310289D01*
X112809394Y-48179179D01*
X112869737Y-48033497D01*
X112900500Y-47878842D01*
X112900500Y-47721158D01*
X112900500Y-47721155D01*
X112900499Y-47721153D01*
X125949500Y-47721153D01*
X125949500Y-47878846D01*
X125980261Y-48033489D01*
X125980264Y-48033501D01*
X126040602Y-48179172D01*
X126040609Y-48179185D01*
X126128210Y-48310288D01*
X126128213Y-48310292D01*
X126239707Y-48421786D01*
X126239711Y-48421789D01*
X126370814Y-48509390D01*
X126370827Y-48509397D01*
X126516498Y-48569735D01*
X126516503Y-48569737D01*
X126671153Y-48600499D01*
X126671156Y-48600500D01*
X126671158Y-48600500D01*
X126828844Y-48600500D01*
X126828845Y-48600499D01*
X126983497Y-48569737D01*
X127129179Y-48509394D01*
X127260289Y-48421789D01*
X127371789Y-48310289D01*
X127459394Y-48179179D01*
X127519737Y-48033497D01*
X127550500Y-47878842D01*
X127550500Y-47721158D01*
X127550500Y-47721155D01*
X127550499Y-47721153D01*
X127519738Y-47566510D01*
X127519737Y-47566503D01*
X127519735Y-47566498D01*
X127459397Y-47420827D01*
X127459390Y-47420814D01*
X127371789Y-47289711D01*
X127371786Y-47289707D01*
X127260292Y-47178213D01*
X127260288Y-47178210D01*
X127129185Y-47090609D01*
X127129172Y-47090602D01*
X126983501Y-47030264D01*
X126983489Y-47030261D01*
X126828845Y-46999500D01*
X126828842Y-46999500D01*
X126671158Y-46999500D01*
X126671155Y-46999500D01*
X126516510Y-47030261D01*
X126516498Y-47030264D01*
X126370827Y-47090602D01*
X126370814Y-47090609D01*
X126239711Y-47178210D01*
X126239707Y-47178213D01*
X126128213Y-47289707D01*
X126128210Y-47289711D01*
X126040609Y-47420814D01*
X126040602Y-47420827D01*
X125980264Y-47566498D01*
X125980261Y-47566510D01*
X125949500Y-47721153D01*
X112900499Y-47721153D01*
X112869738Y-47566510D01*
X112869737Y-47566503D01*
X112869735Y-47566498D01*
X112809397Y-47420827D01*
X112809390Y-47420814D01*
X112721789Y-47289711D01*
X112721786Y-47289707D01*
X112610292Y-47178213D01*
X112610288Y-47178210D01*
X112479185Y-47090609D01*
X112479172Y-47090602D01*
X112333501Y-47030264D01*
X112333489Y-47030261D01*
X112178845Y-46999500D01*
X112178842Y-46999500D01*
X112021158Y-46999500D01*
X112021155Y-46999500D01*
X111866510Y-47030261D01*
X111866498Y-47030264D01*
X111720827Y-47090602D01*
X111720814Y-47090609D01*
X111589711Y-47178210D01*
X111589707Y-47178213D01*
X111478213Y-47289707D01*
X111478210Y-47289711D01*
X111390609Y-47420814D01*
X111390602Y-47420827D01*
X111330264Y-47566498D01*
X111330261Y-47566510D01*
X111299500Y-47721153D01*
X84300499Y-47721153D01*
X84269738Y-47566510D01*
X84269737Y-47566503D01*
X84269735Y-47566498D01*
X84209397Y-47420827D01*
X84209390Y-47420814D01*
X84121789Y-47289711D01*
X84121786Y-47289707D01*
X84010292Y-47178213D01*
X84010288Y-47178210D01*
X83879185Y-47090609D01*
X83879172Y-47090602D01*
X83733501Y-47030264D01*
X83733489Y-47030261D01*
X83578845Y-46999500D01*
X83578842Y-46999500D01*
X83421158Y-46999500D01*
X83421155Y-46999500D01*
X83266510Y-47030261D01*
X83266498Y-47030264D01*
X83120827Y-47090602D01*
X83120814Y-47090609D01*
X82989711Y-47178210D01*
X82989707Y-47178213D01*
X82878213Y-47289707D01*
X82878210Y-47289711D01*
X82790609Y-47420814D01*
X82790602Y-47420827D01*
X82730264Y-47566498D01*
X82730261Y-47566510D01*
X82699500Y-47721153D01*
X57000500Y-47721153D01*
X57000500Y-39652155D01*
X80270001Y-39652155D01*
X80270001Y-40300000D01*
X81186989Y-40300000D01*
X81154076Y-40357007D01*
X81120001Y-40484174D01*
X81120001Y-40615826D01*
X81154076Y-40742993D01*
X81186989Y-40800000D01*
X80270001Y-40800000D01*
X80270001Y-41447844D01*
X80276402Y-41507372D01*
X80276404Y-41507379D01*
X80326646Y-41642086D01*
X80326650Y-41642093D01*
X80412810Y-41757187D01*
X80412813Y-41757190D01*
X80527907Y-41843350D01*
X80527914Y-41843354D01*
X80662621Y-41893596D01*
X80662628Y-41893598D01*
X80722156Y-41899999D01*
X80722173Y-41900000D01*
X81370001Y-41900000D01*
X81370001Y-40983012D01*
X81427008Y-41015925D01*
X81554175Y-41050000D01*
X81685827Y-41050000D01*
X81812994Y-41015925D01*
X81870001Y-40983012D01*
X81870001Y-41900000D01*
X82517829Y-41900000D01*
X82517845Y-41899999D01*
X82577373Y-41893598D01*
X82577380Y-41893596D01*
X82712087Y-41843354D01*
X82712094Y-41843350D01*
X82827188Y-41757190D01*
X82827191Y-41757187D01*
X82913351Y-41642093D01*
X82913355Y-41642086D01*
X82962423Y-41510529D01*
X83004294Y-41454595D01*
X83069758Y-41430178D01*
X83138031Y-41445030D01*
X83166286Y-41466181D01*
X83280214Y-41580109D01*
X83452180Y-41705048D01*
X83452182Y-41705049D01*
X83452185Y-41705051D01*
X83641589Y-41801557D01*
X83843758Y-41867246D01*
X84053714Y-41900500D01*
X84053715Y-41900500D01*
X84266287Y-41900500D01*
X84266288Y-41900500D01*
X84476244Y-41867246D01*
X84678413Y-41801557D01*
X84867817Y-41705051D01*
X84954472Y-41642093D01*
X85039787Y-41580109D01*
X85039789Y-41580106D01*
X85039793Y-41580104D01*
X85190105Y-41429792D01*
X85190107Y-41429788D01*
X85190110Y-41429786D01*
X85315049Y-41257820D01*
X85315051Y-41257817D01*
X85315052Y-41257816D01*
X85319513Y-41249058D01*
X85367484Y-41198262D01*
X85435304Y-41181464D01*
X85501441Y-41203998D01*
X85540484Y-41249054D01*
X85544949Y-41257817D01*
X85669890Y-41429786D01*
X85820213Y-41580109D01*
X85992179Y-41705048D01*
X85992181Y-41705049D01*
X85992184Y-41705051D01*
X86181588Y-41801557D01*
X86383757Y-41867246D01*
X86593713Y-41900500D01*
X86593714Y-41900500D01*
X86806286Y-41900500D01*
X86806287Y-41900500D01*
X87016243Y-41867246D01*
X87218412Y-41801557D01*
X87407816Y-41705051D01*
X87494471Y-41642093D01*
X87579786Y-41580109D01*
X87579788Y-41580106D01*
X87579792Y-41580104D01*
X87730104Y-41429792D01*
X87730106Y-41429788D01*
X87730109Y-41429786D01*
X87855048Y-41257821D01*
X87855051Y-41257816D01*
X87859513Y-41249056D01*
X87907484Y-41198260D01*
X87975304Y-41181462D01*
X88041440Y-41203996D01*
X88080484Y-41249052D01*
X88084950Y-41257817D01*
X88209891Y-41429786D01*
X88360214Y-41580109D01*
X88532180Y-41705048D01*
X88532182Y-41705049D01*
X88532185Y-41705051D01*
X88721589Y-41801557D01*
X88923758Y-41867246D01*
X89133714Y-41900500D01*
X89133715Y-41900500D01*
X89346287Y-41900500D01*
X89346288Y-41900500D01*
X89556244Y-41867246D01*
X89758413Y-41801557D01*
X89947817Y-41705051D01*
X90034472Y-41642093D01*
X90119787Y-41580109D01*
X90119789Y-41580106D01*
X90119793Y-41580104D01*
X90270105Y-41429792D01*
X90270107Y-41429788D01*
X90270110Y-41429786D01*
X90395049Y-41257820D01*
X90395051Y-41257817D01*
X90395052Y-41257816D01*
X90399515Y-41249054D01*
X90447489Y-41198259D01*
X90515309Y-41181463D01*
X90581445Y-41203999D01*
X90620485Y-41249054D01*
X90624592Y-41257115D01*
X90624952Y-41257820D01*
X90749891Y-41429786D01*
X90900214Y-41580109D01*
X91072180Y-41705048D01*
X91072182Y-41705049D01*
X91072185Y-41705051D01*
X91261589Y-41801557D01*
X91463758Y-41867246D01*
X91673714Y-41900500D01*
X91673715Y-41900500D01*
X91886287Y-41900500D01*
X91886288Y-41900500D01*
X92096244Y-41867246D01*
X92298413Y-41801557D01*
X92487817Y-41705051D01*
X92574472Y-41642093D01*
X92659787Y-41580109D01*
X92659789Y-41580106D01*
X92659793Y-41580104D01*
X92810105Y-41429792D01*
X92810107Y-41429788D01*
X92810110Y-41429786D01*
X92935049Y-41257820D01*
X92935051Y-41257817D01*
X92935052Y-41257816D01*
X93031558Y-41068412D01*
X93097247Y-40866243D01*
X93130501Y-40656287D01*
X93130501Y-40443713D01*
X93097247Y-40233757D01*
X93031558Y-40031588D01*
X92935052Y-39842184D01*
X92935050Y-39842181D01*
X92935049Y-39842179D01*
X92847543Y-39721736D01*
X92810110Y-39670214D01*
X92810106Y-39670209D01*
X92792052Y-39652155D01*
X114910000Y-39652155D01*
X114910000Y-40300000D01*
X115826988Y-40300000D01*
X115794075Y-40357007D01*
X115760000Y-40484174D01*
X115760000Y-40615826D01*
X115794075Y-40742993D01*
X115826988Y-40800000D01*
X114910000Y-40800000D01*
X114910000Y-41447844D01*
X114916401Y-41507372D01*
X114916403Y-41507379D01*
X114966645Y-41642086D01*
X114966649Y-41642093D01*
X115052809Y-41757187D01*
X115052812Y-41757190D01*
X115167906Y-41843350D01*
X115167913Y-41843354D01*
X115302620Y-41893596D01*
X115302627Y-41893598D01*
X115362155Y-41899999D01*
X115362172Y-41900000D01*
X116010000Y-41900000D01*
X116010000Y-40983012D01*
X116067007Y-41015925D01*
X116194174Y-41050000D01*
X116325826Y-41050000D01*
X116452993Y-41015925D01*
X116510000Y-40983012D01*
X116510000Y-41900000D01*
X117157828Y-41900000D01*
X117157844Y-41899999D01*
X117217372Y-41893598D01*
X117217379Y-41893596D01*
X117352086Y-41843354D01*
X117352093Y-41843350D01*
X117467187Y-41757190D01*
X117467190Y-41757187D01*
X117553350Y-41642093D01*
X117553354Y-41642086D01*
X117602422Y-41510529D01*
X117644293Y-41454595D01*
X117709757Y-41430178D01*
X117778030Y-41445030D01*
X117806285Y-41466181D01*
X117920213Y-41580109D01*
X118092179Y-41705048D01*
X118092181Y-41705049D01*
X118092184Y-41705051D01*
X118281588Y-41801557D01*
X118483757Y-41867246D01*
X118693713Y-41900500D01*
X118693714Y-41900500D01*
X118906286Y-41900500D01*
X118906287Y-41900500D01*
X119116243Y-41867246D01*
X119318412Y-41801557D01*
X119507816Y-41705051D01*
X119594471Y-41642093D01*
X119679786Y-41580109D01*
X119679788Y-41580106D01*
X119679792Y-41580104D01*
X119830104Y-41429792D01*
X119830106Y-41429788D01*
X119830109Y-41429786D01*
X119955048Y-41257820D01*
X119955050Y-41257817D01*
X119955051Y-41257816D01*
X119959512Y-41249058D01*
X120007483Y-41198262D01*
X120075303Y-41181464D01*
X120141440Y-41203998D01*
X120180483Y-41249054D01*
X120184948Y-41257817D01*
X120309889Y-41429786D01*
X120460212Y-41580109D01*
X120632178Y-41705048D01*
X120632180Y-41705049D01*
X120632183Y-41705051D01*
X120821587Y-41801557D01*
X121023756Y-41867246D01*
X121233712Y-41900500D01*
X121233713Y-41900500D01*
X121446285Y-41900500D01*
X121446286Y-41900500D01*
X121656242Y-41867246D01*
X121858411Y-41801557D01*
X122047815Y-41705051D01*
X122134470Y-41642093D01*
X122219785Y-41580109D01*
X122219787Y-41580106D01*
X122219791Y-41580104D01*
X122370103Y-41429792D01*
X122370105Y-41429788D01*
X122370108Y-41429786D01*
X122495047Y-41257821D01*
X122495050Y-41257816D01*
X122499512Y-41249056D01*
X122547483Y-41198260D01*
X122615303Y-41181462D01*
X122681439Y-41203996D01*
X122720483Y-41249052D01*
X122724949Y-41257817D01*
X122849890Y-41429786D01*
X123000213Y-41580109D01*
X123172179Y-41705048D01*
X123172181Y-41705049D01*
X123172184Y-41705051D01*
X123361588Y-41801557D01*
X123563757Y-41867246D01*
X123773713Y-41900500D01*
X123773714Y-41900500D01*
X123986286Y-41900500D01*
X123986287Y-41900500D01*
X124196243Y-41867246D01*
X124398412Y-41801557D01*
X124587816Y-41705051D01*
X124674471Y-41642093D01*
X124759786Y-41580109D01*
X124759788Y-41580106D01*
X124759792Y-41580104D01*
X124910104Y-41429792D01*
X124910106Y-41429788D01*
X124910109Y-41429786D01*
X125035048Y-41257820D01*
X125035050Y-41257817D01*
X125035051Y-41257816D01*
X125039514Y-41249054D01*
X125087488Y-41198259D01*
X125155308Y-41181463D01*
X125221444Y-41203999D01*
X125260484Y-41249054D01*
X125264591Y-41257115D01*
X125264951Y-41257820D01*
X125389890Y-41429786D01*
X125540213Y-41580109D01*
X125712179Y-41705048D01*
X125712181Y-41705049D01*
X125712184Y-41705051D01*
X125901588Y-41801557D01*
X126103757Y-41867246D01*
X126313713Y-41900500D01*
X126313714Y-41900500D01*
X126526286Y-41900500D01*
X126526287Y-41900500D01*
X126736243Y-41867246D01*
X126938412Y-41801557D01*
X127127816Y-41705051D01*
X127214471Y-41642093D01*
X127299786Y-41580109D01*
X127299788Y-41580106D01*
X127299792Y-41580104D01*
X127450104Y-41429792D01*
X127450106Y-41429788D01*
X127450109Y-41429786D01*
X127575048Y-41257820D01*
X127575050Y-41257817D01*
X127575051Y-41257816D01*
X127671557Y-41068412D01*
X127737246Y-40866243D01*
X127770500Y-40656287D01*
X127770500Y-40443713D01*
X127737246Y-40233757D01*
X127671557Y-40031588D01*
X127575051Y-39842184D01*
X127575049Y-39842181D01*
X127575048Y-39842179D01*
X127450109Y-39670213D01*
X127299786Y-39519890D01*
X127127820Y-39394951D01*
X126938414Y-39298444D01*
X126938413Y-39298443D01*
X126938412Y-39298443D01*
X126736243Y-39232754D01*
X126736241Y-39232753D01*
X126736240Y-39232753D01*
X126574957Y-39207208D01*
X126526287Y-39199500D01*
X126313713Y-39199500D01*
X126265042Y-39207208D01*
X126103760Y-39232753D01*
X125901585Y-39298444D01*
X125712179Y-39394951D01*
X125540213Y-39519890D01*
X125389890Y-39670213D01*
X125264949Y-39842182D01*
X125260484Y-39850946D01*
X125212509Y-39901742D01*
X125144688Y-39918536D01*
X125078553Y-39895998D01*
X125039516Y-39850946D01*
X125035050Y-39842182D01*
X124910109Y-39670213D01*
X124759786Y-39519890D01*
X124587820Y-39394951D01*
X124398414Y-39298444D01*
X124398413Y-39298443D01*
X124398412Y-39298443D01*
X124196243Y-39232754D01*
X124196241Y-39232753D01*
X124196240Y-39232753D01*
X124034957Y-39207208D01*
X123986287Y-39199500D01*
X123773713Y-39199500D01*
X123725042Y-39207208D01*
X123563760Y-39232753D01*
X123361585Y-39298444D01*
X123172179Y-39394951D01*
X123000213Y-39519890D01*
X122849890Y-39670213D01*
X122724948Y-39842184D01*
X122724946Y-39842187D01*
X122720481Y-39850950D01*
X122672505Y-39901744D01*
X122604683Y-39918537D01*
X122538549Y-39895997D01*
X122499513Y-39850944D01*
X122499512Y-39850942D01*
X122495050Y-39842184D01*
X122495048Y-39842181D01*
X122495047Y-39842179D01*
X122370108Y-39670213D01*
X122219785Y-39519890D01*
X122047819Y-39394951D01*
X121858413Y-39298444D01*
X121858412Y-39298443D01*
X121858411Y-39298443D01*
X121656242Y-39232754D01*
X121656240Y-39232753D01*
X121656239Y-39232753D01*
X121494956Y-39207208D01*
X121446286Y-39199500D01*
X121233712Y-39199500D01*
X121185041Y-39207208D01*
X121023759Y-39232753D01*
X120821584Y-39298444D01*
X120632178Y-39394951D01*
X120460212Y-39519890D01*
X120309889Y-39670213D01*
X120184947Y-39842183D01*
X120180481Y-39850949D01*
X120132505Y-39901742D01*
X120064683Y-39918535D01*
X119998549Y-39895995D01*
X119959513Y-39850942D01*
X119955051Y-39842184D01*
X119955049Y-39842181D01*
X119955048Y-39842179D01*
X119830109Y-39670213D01*
X119679786Y-39519890D01*
X119507820Y-39394951D01*
X119318414Y-39298444D01*
X119318413Y-39298443D01*
X119318412Y-39298443D01*
X119116243Y-39232754D01*
X119116241Y-39232753D01*
X119116240Y-39232753D01*
X118954957Y-39207208D01*
X118906287Y-39199500D01*
X118693713Y-39199500D01*
X118645042Y-39207208D01*
X118483760Y-39232753D01*
X118281585Y-39298444D01*
X118092179Y-39394951D01*
X117920215Y-39519889D01*
X117806285Y-39633819D01*
X117744962Y-39667303D01*
X117675270Y-39662319D01*
X117619337Y-39620447D01*
X117602422Y-39589470D01*
X117553354Y-39457913D01*
X117553350Y-39457906D01*
X117467190Y-39342812D01*
X117467187Y-39342809D01*
X117352093Y-39256649D01*
X117352086Y-39256645D01*
X117217379Y-39206403D01*
X117217372Y-39206401D01*
X117157844Y-39200000D01*
X116510000Y-39200000D01*
X116510000Y-40116988D01*
X116452993Y-40084075D01*
X116325826Y-40050000D01*
X116194174Y-40050000D01*
X116067007Y-40084075D01*
X116010000Y-40116988D01*
X116010000Y-39200000D01*
X115362155Y-39200000D01*
X115302627Y-39206401D01*
X115302620Y-39206403D01*
X115167913Y-39256645D01*
X115167906Y-39256649D01*
X115052812Y-39342809D01*
X115052809Y-39342812D01*
X114966649Y-39457906D01*
X114966645Y-39457913D01*
X114916403Y-39592620D01*
X114916401Y-39592627D01*
X114910000Y-39652155D01*
X92792052Y-39652155D01*
X92659787Y-39519890D01*
X92487821Y-39394951D01*
X92298415Y-39298444D01*
X92298414Y-39298443D01*
X92298413Y-39298443D01*
X92096244Y-39232754D01*
X92096242Y-39232753D01*
X92096241Y-39232753D01*
X91934958Y-39207208D01*
X91886288Y-39199500D01*
X91673714Y-39199500D01*
X91625043Y-39207208D01*
X91463761Y-39232753D01*
X91261586Y-39298444D01*
X91072180Y-39394951D01*
X90900214Y-39519890D01*
X90749891Y-39670213D01*
X90624950Y-39842182D01*
X90620485Y-39850946D01*
X90572510Y-39901742D01*
X90504689Y-39918536D01*
X90438554Y-39895998D01*
X90399517Y-39850946D01*
X90395051Y-39842182D01*
X90270110Y-39670213D01*
X90119787Y-39519890D01*
X89947821Y-39394951D01*
X89758415Y-39298444D01*
X89758414Y-39298443D01*
X89758413Y-39298443D01*
X89556244Y-39232754D01*
X89556242Y-39232753D01*
X89556241Y-39232753D01*
X89394958Y-39207208D01*
X89346288Y-39199500D01*
X89133714Y-39199500D01*
X89085043Y-39207208D01*
X88923761Y-39232753D01*
X88721586Y-39298444D01*
X88532180Y-39394951D01*
X88360214Y-39519890D01*
X88209891Y-39670213D01*
X88084949Y-39842184D01*
X88084947Y-39842187D01*
X88080482Y-39850950D01*
X88032506Y-39901744D01*
X87964684Y-39918537D01*
X87898550Y-39895997D01*
X87859514Y-39850944D01*
X87859513Y-39850942D01*
X87855051Y-39842184D01*
X87855049Y-39842181D01*
X87855048Y-39842179D01*
X87730109Y-39670213D01*
X87579786Y-39519890D01*
X87407820Y-39394951D01*
X87218414Y-39298444D01*
X87218413Y-39298443D01*
X87218412Y-39298443D01*
X87016243Y-39232754D01*
X87016241Y-39232753D01*
X87016240Y-39232753D01*
X86854957Y-39207208D01*
X86806287Y-39199500D01*
X86593713Y-39199500D01*
X86545042Y-39207208D01*
X86383760Y-39232753D01*
X86181585Y-39298444D01*
X85992179Y-39394951D01*
X85820213Y-39519890D01*
X85669890Y-39670213D01*
X85544948Y-39842183D01*
X85540482Y-39850949D01*
X85492506Y-39901742D01*
X85424684Y-39918535D01*
X85358550Y-39895995D01*
X85319514Y-39850942D01*
X85315052Y-39842184D01*
X85315050Y-39842181D01*
X85315049Y-39842179D01*
X85190110Y-39670213D01*
X85039787Y-39519890D01*
X84867821Y-39394951D01*
X84678415Y-39298444D01*
X84678414Y-39298443D01*
X84678413Y-39298443D01*
X84476244Y-39232754D01*
X84476242Y-39232753D01*
X84476241Y-39232753D01*
X84314958Y-39207208D01*
X84266288Y-39199500D01*
X84053714Y-39199500D01*
X84005043Y-39207208D01*
X83843761Y-39232753D01*
X83641586Y-39298444D01*
X83452180Y-39394951D01*
X83280216Y-39519889D01*
X83166286Y-39633819D01*
X83104963Y-39667303D01*
X83035271Y-39662319D01*
X82979338Y-39620447D01*
X82962423Y-39589470D01*
X82913355Y-39457913D01*
X82913351Y-39457906D01*
X82827191Y-39342812D01*
X82827188Y-39342809D01*
X82712094Y-39256649D01*
X82712087Y-39256645D01*
X82577380Y-39206403D01*
X82577373Y-39206401D01*
X82517845Y-39200000D01*
X81870001Y-39200000D01*
X81870001Y-40116988D01*
X81812994Y-40084075D01*
X81685827Y-40050000D01*
X81554175Y-40050000D01*
X81427008Y-40084075D01*
X81370001Y-40116988D01*
X81370001Y-39200000D01*
X80722156Y-39200000D01*
X80662628Y-39206401D01*
X80662621Y-39206403D01*
X80527914Y-39256645D01*
X80527907Y-39256649D01*
X80412813Y-39342809D01*
X80412810Y-39342812D01*
X80326650Y-39457906D01*
X80326646Y-39457913D01*
X80276404Y-39592620D01*
X80276402Y-39592627D01*
X80270001Y-39652155D01*
X57000500Y-39652155D01*
X57000500Y-38724500D01*
X57020185Y-38657461D01*
X57072989Y-38611706D01*
X57124500Y-38600500D01*
X138225500Y-38600500D01*
X138292539Y-38620185D01*
G37*
%TD.AperFunction*%
%TD*%
M02*
