%TF.GenerationSoftware,KiCad,Pcbnew,10.0.3*%
%TF.CreationDate,2026-06-20T21:24:58-04:00*%
%TF.ProjectId,SpyderDumbKeyboard,53707964-6572-4447-956d-624b6579626f,rev?*%
%TF.SameCoordinates,Original*%
%TF.FileFunction,Soldermask,Bot*%
%TF.FilePolarity,Negative*%
%FSLAX46Y46*%
G04 Gerber Fmt 4.6, Leading zero omitted, Abs format (unit mm)*
G04 Created by KiCad (PCBNEW 10.0.3) date 2026-06-20 21:24:58*
%MOMM*%
%LPD*%
G01*
G04 APERTURE LIST*
G04 Aperture macros list*
%AMRoundRect*
0 Rectangle with rounded corners*
0 $1 Rounding radius*
0 $2 $3 $4 $5 $6 $7 $8 $9 X,Y pos of 4 corners*
0 Add a 4 corners polygon primitive as box body*
4,1,4,$2,$3,$4,$5,$6,$7,$8,$9,$2,$3,0*
0 Add four circle primitives for the rounded corners*
1,1,$1+$1,$2,$3*
1,1,$1+$1,$4,$5*
1,1,$1+$1,$6,$7*
1,1,$1+$1,$8,$9*
0 Add four rect primitives between the rounded corners*
20,1,$1+$1,$2,$3,$4,$5,0*
20,1,$1+$1,$4,$5,$6,$7,0*
20,1,$1+$1,$6,$7,$8,$9,0*
20,1,$1+$1,$8,$9,$2,$3,0*%
G04 Aperture macros list end*
%ADD10RoundRect,0.237500X0.237500X-0.250000X0.237500X0.250000X-0.237500X0.250000X-0.237500X-0.250000X0*%
%ADD11RoundRect,0.237500X-0.250000X-0.237500X0.250000X-0.237500X0.250000X0.237500X-0.250000X0.237500X0*%
%ADD12R,1.700000X1.700000*%
%ADD13C,1.700000*%
%ADD14RoundRect,0.237500X0.237500X-0.300000X0.237500X0.300000X-0.237500X0.300000X-0.237500X-0.300000X0*%
%ADD15RoundRect,0.237500X0.250000X0.237500X-0.250000X0.237500X-0.250000X-0.237500X0.250000X-0.237500X0*%
%ADD16RoundRect,0.125000X0.625000X0.125000X-0.625000X0.125000X-0.625000X-0.125000X0.625000X-0.125000X0*%
%ADD17RoundRect,0.125000X0.125000X0.625000X-0.125000X0.625000X-0.125000X-0.625000X0.125000X-0.625000X0*%
%ADD18RoundRect,0.237500X-0.287500X-0.237500X0.287500X-0.237500X0.287500X0.237500X-0.287500X0.237500X0*%
G04 APERTURE END LIST*
D10*
%TO.C,R1*%
X64650000Y-58987500D03*
X64650000Y-60812500D03*
%TD*%
%TO.C,R2*%
X83175000Y-67887500D03*
X83175000Y-69712500D03*
%TD*%
D11*
%TO.C,R3*%
X110987500Y-66325000D03*
X109162500Y-66325000D03*
%TD*%
D10*
%TO.C,R4*%
X90050000Y-49337500D03*
X90050000Y-51162500D03*
%TD*%
D11*
%TO.C,R5*%
X93237500Y-53000000D03*
X91412500Y-53000000D03*
%TD*%
%TO.C,R6*%
X121887500Y-60675000D03*
X120062500Y-60675000D03*
%TD*%
D12*
%TO.C,J2*%
X81620001Y-40550000D03*
D13*
X84160001Y-40550000D03*
X86700000Y-40550000D03*
X89240001Y-40550000D03*
X91780001Y-40550000D03*
%TD*%
D12*
%TO.C,J1*%
X116260000Y-40550000D03*
D13*
X118800000Y-40550000D03*
X121339999Y-40550000D03*
X123880000Y-40550000D03*
X126420000Y-40550000D03*
%TD*%
D14*
%TO.C,C2*%
X104550000Y-61212501D03*
X104550000Y-59487499D03*
%TD*%
D15*
%TO.C,R7*%
X85312500Y-51150000D03*
X83487500Y-51150000D03*
%TD*%
D16*
%TO.C,U1*%
X101525000Y-59050000D03*
X101525000Y-59850000D03*
X101525000Y-60650000D03*
X101525000Y-61450000D03*
X101525000Y-62250000D03*
X101525000Y-63050000D03*
X101525000Y-63850000D03*
X101525000Y-64650000D03*
D17*
X100150000Y-66025000D03*
X99350000Y-66025000D03*
X98550000Y-66025000D03*
X97750000Y-66025000D03*
X96950000Y-66025000D03*
X96150000Y-66025000D03*
X95350000Y-66025000D03*
X94550000Y-66025000D03*
D16*
X93175000Y-64650000D03*
X93175000Y-63850000D03*
X93175000Y-63050000D03*
X93175000Y-62250000D03*
X93175000Y-61450000D03*
X93175000Y-60650000D03*
X93175000Y-59850000D03*
X93175000Y-59050000D03*
D17*
X94550000Y-57675000D03*
X95350000Y-57675000D03*
X96150000Y-57675000D03*
X96950000Y-57675000D03*
X97750000Y-57675000D03*
X98550000Y-57675000D03*
X99350000Y-57675000D03*
X100150000Y-57675000D03*
%TD*%
D18*
%TO.C,D37*%
X105225000Y-40440000D03*
X106975000Y-40440000D03*
%TD*%
D14*
%TO.C,C1*%
X106250000Y-61200000D03*
X106250000Y-59474998D03*
%TD*%
D11*
%TO.C,R8*%
X101300000Y-40400000D03*
X103125000Y-40400000D03*
%TD*%
M02*
